<svg width="1920" height="1372" fill="none" xmlns="http://www.w3.org/2000/svg"><g clip-path="url(#clip0)" stroke="#D9D9D9"><path opacity=".45" d="M-103.792 1151.97l58.65-15.82m-58.65 15.82l-32.51.81-1.994-84.7m34.504 83.89l65.264 119.9m-6.614-135.72l6.614 135.72m-6.614-135.72l-93.154-68.07m93.154 68.07l53.728-111.91m-53.728 111.91l68.986-5.63m-68.986 5.63l84.238 57.01m-77.624 78.71l77.624-78.71m-77.624 78.71L91.6 1324.28m-52.504-131.12L91.6 1324.28m-52.504-131.12c22.505 10.11 68.317 30.66 71.52 32.01m-71.52-32.01l96.796-69.43M91.6 1324.28c7.674-32.48 22.22-97.77 19.016-99.11M91.6 1324.28l113.438-97.22m-94.422-1.89l25.276-101.44m-25.276 101.44l94.422 1.89m-343.334-158.98l146.882-43.84m0 0l90.624-11.48m-90.624 11.48l94.215 13.59m-94.215-13.59l15.258 106.28M8.586 1024.24l100.85 84.39m-100.85-84.39l144.828-56.936-62.672-26.364m0 0l8.468 71.82m-8.468-71.82l79.811 1.08m-79.81-1.08l.123-109.242m8.344 181.062l28.755-7.91m-28.755 7.91l3.591 25.07m0 0l25.164-32.98m-25.164 32.98l6.635 70.8m-6.635-70.8l117.31 13.14m-196.267 79.55l87.149-5.28m24.899-1.51l69.146 103.33m-69.146-103.33l-24.899 1.51m24.899-1.51l17.932-5.55m51.214 108.88l46.657-144.94m-97.871 36.06l73.428-66.41m-73.428 66.41l-22.194-4.77m22.194 4.77l97.871-36.06m-97.871 36.06l26.362 18.07 118.309-7.97m-71.243-76.51l-7.141-.8m7.141.8l40.027-66.487m-40.027 66.487l24.443 30.35m-24.443-30.35l102.963-42.95m-202.25-3.97l3.665 108.56m-3.665-108.56l42.588-62.83m-42.588 62.83l171.023-16.629-75.067-38.9m-95.956 55.529l123.73 77.27m-140.702 43.12l-1.557-16.61m0 0l22.194 4.78m90.949-248.144L90.866 831.698m131.713 33.568l-52.026 76.754m52.026-76.754l-1.216-96.397m1.216 96.397l109 6.635m-109-6.635l54.71 91.356M90.866 831.698l79.687 110.322M90.866 831.698l40.978-13.985 89.519-48.844m-50.81 173.151l49.558 108.95m-49.558-108.95l53.368 7.301m53.368 7.301l4.546 4.483m-4.546-4.483l-53.368-7.301m57.914 11.784l-14.556 24.178m14.556-24.178c16.563-27.864 49.699-84.715 49.744-89.204m-49.744 89.204l48.38 47.715m-106.294-59.499l43.358 35.962m0 0l-15.584 96.837m0 0l46.8 46.16m0 0l31.72-119.46m0 0l1.364-136.919m-1.364 136.919l119.092-62.177m-117.728-74.742L221.363 768.869m110.216 103.032l80.866-63.043m-80.866 63.043l3.975-130.376m-3.975 130.376l117.728 74.742M221.363 768.869l114.191-27.344m-114.191 27.344l40.688-99.835m187.256 277.609l-36.862-137.785m36.862 137.785l29.031-94.333m-29.031 94.333l113.511-86.381-84.48-7.952m-65.893-43.452l-76.891-67.333m76.891 67.333l47.585-28.436 8.509-28.441m-56.094 56.877l65.893 43.452M335.554 741.525l-73.503-72.491m73.503 72.491l48.571-72.795.187-14.548-122.261 14.852m73.503 72.491l132.985 10.456m0 0l38.761 38.228-28.962 62.101m1156.492 267.08l54.98 12.77m-54.98-12.77l-26.98-13.6 35.52-70.25m-8.54 83.85l.86 126.84m54.12-114.07l-54.12 114.07m54.12-114.07l-46.44-96.62m46.44 96.62l93.1-68.09m-93.1 68.09l58.97 25.66m-58.97-25.66l43.99 83.65m-98.11 30.42l98.11-30.42m-98.11 30.42l83.59 100.01m14.52-130.43l-14.52 130.43m14.52-130.43c14 18.16 42.5 55.09 44.54 57.59m-44.54-57.59l109.74-14.4m-124.26 144.83c20.53-23.23 61.09-70.33 59.06-72.84m-59.06 72.84l135.56-29.86m-76.5-42.98l65.2-71.99m-65.2 71.99l76.5 42.98m-211.47-280.84l139.54 28.53m0 0l79.27 30.35m-79.27-30.35l71.21 52.46m-71.21-52.46l-34.13 93.75m34.13-93.75l45.58 113.37m-45.58-113.37l143.61 16.9-39.77-49.09m0 0l-24.57 62.54m24.57-62.54l64.9 35.9m-64.9-35.9l48.03-89.42m-72.6 151.96l27.02 6.14m-27.02-6.14l-8.06 22.11m0 0l35.08-15.97m-35.08 15.97l-25.63 60.91m25.63-60.91l90.32 62.23m-195.66-20.94l73.7 33.9m21.06 9.69l11.3 114.97m-11.3-114.97l-21.06-9.69m21.06 9.69l17.12 3.32m-5.82 111.65l101.81-98.25m-95.99-13.4l89.28-22.18m-89.28 22.18l-16.08-13.65m16.08 13.65l95.99 13.4m-95.99-13.4l13.67 26.36 100.4 45.38m-24.79-93.92l-5.5-3.79m5.5 3.79l61.95-36.9m-61.95 36.9l6.71 35.58m-6.71-35.58l103.18 9.99m-163.92-91.98l-44.62 90.52m44.62-90.52l62.45-32.78m-62.45 32.78l147.38 61.41-44.42-64.8m-102.96 3.39l67.45 117.57m-134.17-26.41l6.01-14.28m0 0l16.09 13.64m183.35-163.34l-93.15-85.28m93.15 85.28l-76.28 40.04m76.28-40.04l41.3-79.49m-41.3 79.49l86.37 53.25m-86.37-53.25l4.74 98.83m-97.89-184.11l16.87 125.32m-16.87-125.32l39.7 6.524 94.75-.734m-117.58 119.53l-7.21 110.98m7.21-110.98l40.51 29.39m40.51 29.4l1.75 5.66m-1.75-5.66l-40.51-29.4m42.26 35.06l-22.53 13.42m22.53-13.42c25.79-15.55 77.88-47.58 79.88-51.24m-79.88 51.24l18.7 60.31m-60.96-95.37l19.73 48.48m0 0l-55.24 72.48m0 0l18.08 58.34m0 0l78.39-83.93m0 0l61.18-111.55m-61.18 111.55l124.82 1.32m-63.64-112.87l-45.07-132.74m45.07 132.74l93.9-16.16m-93.9 16.16l60.46-105.04m-60.46 105.04l63.64 112.87m-108.71-245.61l105.53 27.7m-105.53-27.7l77.12-63.922m31.59 309.532l30.26-129.03m-30.26 129.03l65.16-64.53m-65.16 64.53l130.87-20.95-65.71-43.58m-34.9-64.5l-33.44-88.88m33.44 88.88l51.45-2.41 19.44-19.56m-70.89 21.97l34.9 64.5m-68.34-153.38l-28.41-91.622m28.41 91.622l71.71-38.316 6.54-11.833-106.66-41.473m28.41 91.622l104.33 66.91m0 0l14.98 48.31-50.97 38.16m-382.75-705.015l-87.44-22.801m87.44 22.801l42.59 22.933-59.87 110.895m17.28-133.828l4.08-203.022m-91.52 180.221l91.52-180.221m-91.52 180.221l70.16 156.629m-70.16-156.629l-151.92 104.965m151.92-104.965l-93.28-43.594m93.28 43.594l-66.8-135.767m158.32-44.454l-158.32 44.454m158.32-44.454l-129.48-163.65m-28.84 208.104l28.84-208.103m-28.84 208.103c-21.62-29.651-65.65-89.979-68.8-94.08m68.8 94.08l-176.24 18.335m205.08-226.438c-33.86 36.299-100.79 109.922-97.64 114.023m97.64-114.023l-218.23 41.962m120.59 72.061l-107.44 112.415m107.44-112.415l-120.59-72.06m326.35 458.536l-222.08-51.664m0 0l-125.56-51.977m125.56 51.977l-111.71-87.019m111.71 87.019l58.64-148.559m-58.64 148.559l-68.08-183.384m68.08 183.384l-229.1-33.221 61.53 80.27m0 0l42.01-99.026m-42.01 99.026l-102.31-60.24m102.31 60.24l-80.7 141.045m122.71-240.071l-42.98-10.985m42.98 10.985l13.85-35.042m0 0l-56.83 24.057m56.83-24.057l43.63-96.365m-43.63 96.365l-141.87-103.471m312.22 41.931l-116.48-57.43m-33.28-16.408l-13.15-184.476m13.15 184.476l33.28 16.408m-33.28-16.408l-27.26-6.054m14.11-178.422L1349.57 252.46m153.04 25.568l-143.83 31.663m143.83-31.663l25.15 22.533m-25.15-22.533l-153.04-25.568m153.04 25.568l-20.74-42.777-158.73-76.93m35.64 151.37l8.63 6.298m-8.63-6.298l-100.74 56.385m100.74-56.385l-9.21-57.231m9.21 57.231l-164.7-20.426m258.37 154.252l75.31-142.956m-75.31 142.956l-101.34 49.771m101.34-49.771l-233.21-104.616 68.3 105.605m164.91-.989L1349.57 252.46m213.58 48.03l-10.24 22.605m0 0l-25.15-22.534M1227.3 554.09l145.42 140.483M1227.3 554.09l123.81-60.802M1227.3 554.09l-69.5 125.437m69.5-125.437l-135.93-88.94m135.93 88.94l-3.32-158.365m148.74 298.848l-21.61-201.285m21.61 201.285l-63.26-12.147-151.66-2.899m193.31-186.239l16.3-177.299m-16.3 177.299l-63.57-48.782m-63.56-48.781l-2.57-9.145m2.57 9.145l63.56 48.781m-66.13-57.926l36.63-20.504m-36.63 20.504c-41.94 23.788-126.67 72.804-130.04 78.57m130.04-78.57l-27.33-97.315m93.46 155.241l-29.5-78.43m0 0l91.53-113.616m0 0l-26.43-94.139m0 0l-129.06 130.944m0 0L1091.37 465.15m0 0l66.43 214.377m-66.43-214.377L990.106 630.66m167.694 48.867L990.106 630.66m167.694 48.867l-126.18 98.982M990.106 630.66l41.514 147.849M990.106 630.66l-114.577 80.372-14.352 57.434 170.443 10.043M204.571 191.883l-69.816 37.335m69.816-37.335l41.041-10.579 27.435 106.954m-68.476-96.375L86.451 58.84m48.304 170.378L86.452 58.84m48.303 170.378l138.292 59.04m-138.292-59.04L99.442 387.104m35.313-157.886l-85.936 27.43m85.936-27.43l-123.72-47.62M86.453 58.84L11.036 181.598M86.452 58.84L-94.18 30.564M11.036 181.598L-94.18 30.564M11.036 181.598c-31.547-6.215-95.756-18.837-100.22-19.605m100.22 19.605L-91.45 298.217m-2.73-267.653c-.194 43.49.533 130.662 4.997 131.429m-4.997-131.43l-115.446 156.793m120.443-25.363l-2.267 136.224m2.267-136.224l-120.443 25.363m482.673 100.902L99.442 387.104m0 0l-111.687 41.232m111.687-41.232l-123.619 10.451m123.619-10.451L48.819 256.648m50.623 130.456L-53.42 309.609m152.862 77.495L-67.704 501.983l87.326 15.047m0 0l-31.867-88.694m31.867 88.694L-82.03 539.126M19.622 517.03l31.964 138.741m-63.831-227.435L-46.43 446.83m34.185-18.494l-11.932-30.781m0 0L-46.43 446.83m22.253-49.275l-29.243-87.946m29.243 87.946l-152.812 17.809M48.819 256.648L-60.28 288.98m-31.171 9.237l-118.176-110.861M-91.45 298.217l31.17-9.237m-31.17 9.237l-21.137 12.317m-97.039-123.178l-16.623 197.745m113.662-74.567l-73.703 105.914m73.703-105.914l29.584-.462m-29.584.462l-113.662 74.567m113.662-74.567l-38.783-15.187-147.873 44.911m112.953 76.19l9.301-1.084m-9.301 1.084l-31.274 96.188m31.274-96.188l-39.959-31.347m39.959 31.347l-118.103 84.809M-46.43 446.83l-36.574-136.758M-46.43 446.83l-35.6 92.296m35.6-92.296l-212.258 71.398 106.75 27.32M-46.43 446.83l-179.819-61.729m165.97-96.121l6.86 20.629m0 0l-29.585.463m-42.516 341.804l177.106 3.895m-177.106-3.895l43.49-112.75m-43.49 112.75l29.888 122.038m-29.888-122.038l-140.347 23.625m140.347-23.625l-96.326-99.907M51.586 655.771L-82.03 539.126M51.586 655.771L3.667 685.575l-99.299 88.339m13.602-234.788l-94.959-123.762m94.959 123.762l-69.908 6.422m-69.908 6.421l-7.09-4.356m7.09 4.356l69.908-6.421m-76.998 2.065l11.372-34.977m-11.372 34.977c-12.837 40.249-38.194 122.175-36.931 127.888m36.931-127.888l-75.457-46.356m152.455 44.291l-65.626-32.912m0 0l-8.685-127.535m0 0l-72.994-44.843m0 0l-5.15 160.999m0 0l38.526 174.244m0 0l170.235 98.413m-170.235-98.413l33.287 166.707m136.948-68.294l-136.948 68.294m136.948-68.294l-22.307 138.723m-114.641-70.429l114.641 70.429m-114.641-70.429l-25.912 119.851 24.925 45.491 115.628-94.913"/></g><defs><clipPath id="clip0"><path fill="#fff" d="M0 0h1920v1372H0z"/></clipPath></defs></svg>