<svg width="1920" height="926" fill="none" xmlns="http://www.w3.org/2000/svg"><g clip-path="url(#clip0)" stroke="#D9D9D9"><path opacity=".45" d="M-170.03 362.947l78.448 18.222m-78.448-18.222l-38.496-19.411 50.688-100.232m-12.192 119.643l1.221 180.975m77.227-162.753l-77.227 162.753m77.227-162.753l-66.256-137.865m66.256 137.865l132.84-97.152m-132.84 97.152l84.146 36.606m-84.146-36.606l62.759 119.359m-139.986 43.394l139.986-43.394m-139.986 43.394l119.274 142.701m20.712-186.095l-20.712 186.095m20.712-186.095c19.975 25.9 60.65 78.593 63.551 82.171m-63.551-82.171l156.586-20.553M-49.535 686.623c29.297-33.15 87.164-100.345 84.263-103.924m-84.263 103.924l193.428-42.609M34.728 582.699l93.035-102.724M34.728 582.699l109.165 61.315m-301.731-400.71l199.097 40.713m0 0L154.36 327.32M41.259 284.017l101.602 74.854M41.259 284.017L-7.436 417.775m48.695-133.758l65.037 161.752M41.259 284.017l204.899 24.114-56.739-70.042m0 0L154.36 327.32m35.059-89.231l92.596 51.221m-92.596-51.221l68.526-127.591M154.36 327.32l38.555 8.758m-38.555-8.758l-11.499 31.551m0 0l50.054-22.793m-50.054 22.793l-36.565 86.898m36.565-86.898l128.873 88.789m-279.17-29.885l105.155 48.378m30.044 13.822l16.13 164.039m-16.13-164.039l-30.044-13.822m30.044 13.822l24.429 4.742m-8.299 159.297l145.253-140.181m-136.954-19.116l127.386-31.652m-127.386 31.652l-22.948-19.474m22.948 19.474l136.954 19.116m-136.954-19.116l19.5 37.614 143.257 64.74m-35.371-134.006l-7.844-5.405m7.844 5.405l88.399-52.646m-88.399 52.646l9.568 50.768m-9.568-50.768l147.217 14.256m-233.88-131.243l-63.671 129.165m63.671-129.165l89.1-46.768m-89.1 46.768l210.278 87.623-63.378-92.451m-146.9 4.828l96.231 167.755m-191.428-37.68l8.578-20.384m0 0l22.948 19.474m261.619-233.066L257.945 110.498m132.918 121.679L282.015 289.31m108.848-57.133l58.92-113.418m-58.92 113.418l123.232 75.985m-123.232-75.985l6.752 141.012m-139.67-262.691l24.07 178.812m-24.07-178.812l56.645 9.308 135.193-1.047M282.015 289.31l-10.281 158.35m10.281-158.35l57.8 41.94m57.8 41.939l2.506 8.086m-2.506-8.086l-57.8-41.939m60.306 50.025l-32.144 19.144m32.144-19.144c36.799-22.197 111.112-67.894 113.974-73.113m-113.974 73.113l26.674 86.046m-86.98-136.071l28.162 69.169m0 0l-78.831 103.414m0 0l25.803 83.238m0 0l111.846-119.75m0 0l87.3-159.159m-87.3 159.159l178.1 1.884m-90.8-161.043l-64.312-189.403m64.312 189.403l133.97-23.057m-133.97 23.057l86.257-149.879m-86.257 149.879l90.8 161.043M449.783 118.759l150.569 39.524m-150.569-39.524l110.045-91.206m45.067 441.652l43.17-184.1m-43.17 184.1l92.977-92.072m-92.977 92.072l186.729-29.897-93.752-62.175m-49.807-92.028l-47.713-126.822m47.713 126.822l73.411-3.446 27.747-27.912m-101.158 31.358l49.807 92.028m-97.52-218.85l-40.524-130.73m40.524 130.73l102.331-54.67 9.326-16.885-152.181-59.175m40.524 130.73l148.871 95.464m0 0l21.37 68.939-72.721 54.447M1968.26 594.187l-85.43-29.455m85.43 29.455l40.7 26.138-68.22 105.965m27.52-132.103l19.67-202.108m-105.1 172.653l105.1-172.653m-105.1 172.653l57.91 161.558m-57.91-161.558l-159.54 92.978m159.54-92.978l-89.65-50.633m89.65 50.633l-56.16-140.499m161.26-32.154l-161.26 32.154m161.26-32.154l-116.52-173.117m-44.74 205.271l44.74-205.271m-44.74 205.271c-19.29-31.225-58.55-94.759-61.37-99.089m61.37 99.089l-177.14 4.734m221.88-210.005c-36.55 33.589-108.94 101.851-106.11 106.182m106.11-106.182l-220.81 25.065m114.7 81.117l-115.77 103.823m115.77-103.823l-114.7-81.117m290.14 482.263l-217.45-68.58m0 0l-121.19-61.473m121.19 61.473l-104.69-95.347m104.69 95.347l69.89-143.611m-69.89 143.611l-53.78-188.074m53.78 188.074l-225.87-50.73 55.18 84.762m0 0l49.5-95.505m-49.5 95.505l-97.38-67.926m97.38 67.926l-91.3 134.424m140.8-229.929l-42.01-14.256m42.01 14.256l16.5-33.874m0 0l-58.51 19.618m58.51-19.618l50.91-92.727m-50.91 92.727l-133.5-114.069m308.08 65.805l-111.73-66.214m-31.92-18.918l1.07-184.94m-1.07 184.94l31.92 18.918m-31.92-18.918l-26.71-8.131m27.78-176.809l-178.4 139.555m150.62 37.254l-145.84 20.515m145.84-20.515l23.34 24.4m-23.34-24.4l-150.62-37.254m150.62 37.254l-17.39-44.244-152.35-88.902m23.9 153.661l8.12 6.943m-8.12-6.943l-104.78 48.476m104.78-48.476l-4.78-57.769m4.78 57.769l-162.64-33.023m245.75 173.653l86.07-136.745m-86.07 136.745l-104.87 41.835m104.87-41.835L1335.61 459.75l59.98 110.543m164.5 11.688l-87.89-198.399m209.25 64.303l-11.94 21.751m0 0l-23.35-24.4m-319.05 229.686l134.19 151.244m-134.19-151.244l128.11-51.106m-128.11 51.106l-78.94 119.725m78.94-119.725l-128.7-99.124m128.7 99.124l8.85-158.152m125.34 309.396l-6.08-202.35m6.08 202.35l-62.14-16.973-150.99-14.546m207.05-170.831l29.88-175.522m-29.88 175.522l-59.63-53.523m-59.63-53.523l-1.85-9.315m1.85 9.315l59.63 53.523m-61.48-62.838l38.09-17.628m-38.09 17.628c-43.65 20.493-131.9 62.852-135.7 68.343m135.7-68.343l-19.77-99.127m81.25 161.965l-23.39-80.466m0 0l100-106.245m0 0l-19.12-95.892m0 0l-138.74 120.638m0 0l-115.93 167.47m0 0l49.76 218.849m-49.76-218.849l-113.68 157.237m163.44 61.612l-163.44-61.612m163.44 61.612l-133.41 88.991m-30.03-150.603l30.03 150.603m-30.03-150.603l-120.417 71.328-18.724 56.161 169.171 23.114"/></g><defs><clipPath id="clip0"><path fill="#fff" d="M0 0h1920v926H0z"/></clipPath></defs></svg>