<svg width="1920" height="1515" fill="none" xmlns="http://www.w3.org/2000/svg"><g clip-path="url(#clip0)" stroke="#D9D9D9"><path opacity=".45" d="M-394.783 234.919l77.347 77.771m-77.347-77.771l-30.383-50.247 130.994-79.002m-100.611 129.249l-129.496 209.724m206.843-131.953l-206.843 131.953m206.843-131.953l23.264-207.02m-23.264 207.02l223.57-16.023m-223.57 16.023l70.625 103.109m-70.625-103.109l-13.914 183.135m-192.929-51.182l192.929 51.182m-192.929-51.182l34.419 250.95m158.51-199.768l-158.51 199.768m158.51-199.768c4.317 44.336 13.14 134.565 13.9 140.793m-13.9-140.793l195.565 89.546M-489.86 695.593c57.787-17.064 173.17-52.747 172.41-58.975m-172.41 58.975l254.034 90.744m-81.624-149.719l181.665-51.247m-181.665 51.247l81.624 149.719m-58.346-680.667l200.306 190.997m0 0L5.329 428.448m-99.195-131.781l63.103 159.873m-63.103-159.873l-152.945 119.132m152.945-119.132l-41.95 233.703m41.95-233.703l219.008 176.039-14.812-121.869m0 0L5.329 428.448m105.001-77.611l69.804 126.086M110.33 350.837l171.369-97.671M5.329 428.448l38.156 37.995M5.329 428.448l-36.092 28.092m0 0l74.248 9.903m-74.248-9.903l-105.053 73.83m105.053-73.83l84.492 195.679m-300.54-236.42l86.353 131.889m24.673 37.683l-100.041 200.966m100.041-200.966l-24.673-37.683m24.673 37.683l24.761 23.142m-124.802 177.824l269.017-56.7m-144.215-121.124L58.872 664.13m-169.896-55.617l-12.396-39.071m12.396 39.071L33.191 729.637m-144.215-121.124l-4.705 57.511L2.758 844.356M58.872 664.13l-5.143-11.911m5.143 11.911l140.092 3.189M58.872 664.13l-25.68 65.507m25.68-65.507l159.574 122.939M43.485 466.443L-123.42 569.442M43.485 466.443l136.649 10.48m-136.65-10.48l179.278 253.218-6.264-152.532M43.485 466.443L33.19 729.637m-193.649-181.949l24.642-17.318m0 0l12.396 39.072m470.489-79.716l-65.37-236.56m65.37 236.56l-166.935-12.803m166.935 12.803l150.033-88.265m-150.033 88.265l87.246 176.824m-87.246-176.824l-94.207 167.609m28.837-404.169L180.134 476.923m101.565-223.757l58.634 51.714 156.769 96.581m-316.968 75.462L53.729 652.219m126.405-175.296l36.364 90.206m36.364 90.206l-2.956 11.144m2.956-11.144l-36.364-90.206m33.408 101.35l-50.942-1.16m50.942 1.16c58.521 1.003 177.331 2.022 184.409-1.929m-184.409 1.929l-31.46 118.59m-1.948-219.94l-17.534 100.19m0 0L33.191 729.637m0 0L2.758 844.356m0 0l215.688-57.287m0 0L434.315 666.55M218.446 787.069l204.163 131m11.706-251.519l62.787-265.089M434.315 666.55l171.277 70.297M434.315 666.55l207.952-110.566M434.315 666.55l-11.706 251.519m74.493-516.608l145.165 154.523M497.102 401.461l192.962-25.649M422.609 918.069l182.983-181.222M422.609 918.069l173.892-38.995m-173.892 38.995l237.108 100.571-63.216-139.566m9.091-142.227l36.675-180.863m-36.675 180.863l87.207 49.124 52.21-12.139m-139.417-36.985l-9.091 142.227m45.766-323.09l47.797-180.172m-47.797 180.172L799.9 566.915l22.975-12.738-132.811-178.365m-47.797 180.172l102.742 217.848m0 0l-25.206 95.012-123.302 10.23M2410.7 1021.01l-118.02-32.886m118.02 32.886l57.22 32.06-83.67 148.97m26.45-181.03l10.13-275.127m-128.15 242.241l128.15-242.241m-128.15 242.241l91.57 213.916m-91.57-213.916l-208.33 138.856m208.33-138.856l-125.46-61.208m125.46 61.208l-87.48-185.561m215.63-56.68l-215.63 56.68m215.63-56.68L2249 521.104m-43.8 281.459l43.8-281.459m-43.8 281.459c-28.64-40.686-86.97-123.464-91.14-129.095m91.14 129.095l-239.34 20.866M2249 521.104c-46.72 48.442-139.12 146.733-134.94 152.364M2249 521.104l-296.79 51.946m161.85 100.418l-148.2 149.961m148.2-149.961L1952.21 573.05m432.04 628.99l-299.9-75.06m0 0l-169.03-73.3m169.03 73.3l-149.46-120.49m149.46 120.49l82.87-200.064m-82.87 200.064l-88.13-250.142m88.13 250.142l-309.81-50.22 81.59 110.21m0 0l59.19-133.29m-59.19 133.29l-137.34-83.98m137.34 83.98l-112.6 189.38m171.79-322.67l-58.01-15.87m58.01 15.87l19.57-47.19m0 0l-77.58 31.32m77.58-31.32l61.33-129.652m-61.33 129.652l-189.98-143.483m422.31 63.909l-156.62-80.49m-44.74-22.997l-13.65-250.379m13.65 250.379l44.74 22.997m-44.74-22.997l-36.82-8.824m23.17-241.555l-230.05 203.431m206.88 38.124l-195.7 39.668m195.7-39.668l33.59 31.116m-33.59-31.116l-206.88-38.124m206.88 38.124l-27.14-58.459-213.44-107.881m44.88 206.008l11.57 8.734m-11.57-8.734l-137.83 74.158m137.83-74.158l-11.18-77.792m11.18 77.792l-222.8-31.417m346.77 214.954l105.32-192.089m-105.32 192.089l-138.52 65.18m138.52-65.18l-313.79-147.097 90.2 144.707m223.59 2.39l-135.15-261.329m288.44 69.945l-14.38 30.412m0 0l-33.59-31.117m-413.05 336.889l193.95 193.74m-193.95-193.74l169.21-79.62m-169.21 79.62l-97.06 168.48m97.06-168.48l-182.26-123.64m182.26 123.64l-.92-214.757m194.87 408.497l-24.74-273.36m24.74 273.36l-85.47-17.9-205.54-7.36m266.27-248.1l26.12-239.983m-26.12 239.983l-85.07-67.57m-85.06-67.567l-3.28-12.455m3.28 12.455l85.06 67.567m-88.34-80.022l50.13-26.967m-50.13 26.967c-57.39 31.298-173.36 95.832-178.06 103.572m178.06-103.572l-34.84-132.542m123.18 212.564l-38.21-106.989m0 0l126.65-151.95m0 0l-33.7-128.216m0 0l-177.92 174.591m0 0l-143.22 236.114m0 0l85.2 292.12m-85.2-292.12l-141.02 222.08m226.22 70.04l-226.22-70.04m226.22 70.04l-173.29 131.32m-52.93-201.36l52.93 201.36m-52.93-201.36l-157.15 106.36 210.08 95"/></g><defs><clipPath id="clip0"><path fill="#fff" d="M0 0h1920v1515H0z"/></clipPath></defs></svg>