<svg width="1920" height="577" fill="none" xmlns="http://www.w3.org/2000/svg"><mask id="mask0" maskUnits="userSpaceOnUse" x="0" y="0" width="1921" height="577"><path fill="#F3F4F5" d="M0 0h1920v577H0z"/></mask><g mask="url(#mask0)" stroke="#D9D9D9"><path opacity=".65" d="M345.345-229.615l-65.93 58.585m65.93-58.585l41.712-22.124 57.511 108.735m-99.223-86.611L182.818-343.05m96.597 172.02l-96.597-172.02m96.597 172.02l165.153 28.026M279.415-171.03l2.768 180.214m-2.768-180.214l-85.969 52.044m85.969-52.044l-146.399-19.44m49.802-152.58l-49.802 152.58m49.802-152.58l-203.026 16.301M133.016-190.47L-20.208-326.749M133.016-190.47c-35.79 1.463-108.627 4.473-113.662 4.801m113.662-4.801L52.294-37.507M-20.209-326.75c11.09 47.164 34.528 141.409 39.562 141.08m-39.562-141.08l-84.324 199.85m123.886-58.77l32.94 148.162M19.354-185.67l-123.886 58.77m549.1-16.105L282.183 9.184m0 0L171.905 82.871M282.183 9.184L150.982 52.626M282.183 9.184l-88.737-128.17m88.737 128.17L96.452-35.048M282.183 9.184l-151.22 167.879 98.51-6.389m0 0l-57.568-87.803m57.568 87.803l-104.379 50.348m104.379-50.348l70.675 141.992M171.905 82.871l-32.227 28.917m32.227-28.917l-20.923-30.245m0 0l-11.304 59.162m11.304-59.162l-54.53-87.674m54.53 87.674L-9.933 111.623m203.379-230.609L83.661-55.614M52.294-37.507L-104.532-126.9M52.293-37.507l31.368-18.107M52.294-37.507L32.596-18.673m-137.128-108.226l33.373 218.538M32.596-18.673l-52.324 133.888M32.596-18.673l31.928-8.188m-31.928 8.188L-71.159 91.64M32.596-18.673l-45.96-6.375-148.522 87.074m142.158 53.189l9.795-3.592m-9.795 3.592l-8.886 112.326m8.886-112.326l-51.431-23.576m51.431 23.576l-105.905 122.56m265.311-125.987L64.524-26.86m75.154 138.648l-14.584 109.234m14.584-109.234L-71.71 244.284l122.74 1.859m88.648-134.355L-71.159 91.639M83.66-55.614l12.79 20.566m0 0L64.525-26.86m42.753 381.325l192.871-41.799m-192.871 41.799l17.817-133.443m-17.817 133.443l64.087 124.438m-64.087-124.438l-145.9 62.06m145.9-62.06l-130.31-83.201m323.181 41.402l-175.054-91.644m175.054 91.644l-44.166 44.739-84.618 121.498m-46.27-257.881L-9.933 111.623m135.027 109.399l-74.063 25.121m-74.063 25.121l-8.813-2.877m8.813 2.877l74.063-25.121m-82.876 22.244l3.231-40.846m-3.231 40.846c-3.448 46.937-9.631 142.277-6.779 148.138m6.779-148.138l-93.788-30.612m176.664 8.368l-79.645-18.602m0 0L-71.159 91.639m0 0l-90.727-29.613m0 0l36.253 175.749m0 0l87.01 178.75m-87.01-178.75l-114.391 157.994m201.4 20.756l209.988 62.378m-209.988-62.378l-64.171 134.333m64.171-134.333l79.376 171.944m-79.376-171.944l-201.4-20.756m411.388 83.134L40.752 588.469m130.612-109.566l11.879 156.075m-423.267-239.209l137.229 155.089m-137.229-155.089l23.454 141.368m-23.454-141.368l-91.447 185.818 114.901-44.45m113.775 13.721l143.547 37.611m-143.547-37.611l-43.377 67.795 7.389 42.464m35.988-110.259l-113.775-13.721m257.322 51.332l142.491 46.509m-142.49-46.509l-15.895 126.06 9.19 19.021 149.195-98.572m-142.49-46.509l-179.536 72.648m0 0l-75.142-24.527-2.645-99.453m2358.02-397.338l-72.42 35.013m72.42-35.013l42.11-9.04 23.42 109.717m-65.53-100.677L2027.04-.159m41.99 174.971L2027.04-.159m41.99 174.971l137.95 65.664m-137.95-65.664l-42.39 158.827m42.39-158.827l-88.38 24.29m88.38-24.29l-123.63-53.467M2027.04-.159l-81.64 121.504M2027.04-.159l-182.21-36.186m100.57 157.69l-100.57-157.69m100.57 157.69c-31.77-7.616-96.44-23.089-100.94-24.052m100.94 24.052l-108.88 114.152m8.31-271.842c-1.99 44.144-4.87 132.674-.37 133.638m.37-133.638l-123.69 154.4m123.32-20.762l-7.94 138.204m7.94-138.204l-123.32 20.762m485.84 122.421l-180.34 93.163m0 0l-115.09 37.236m115.09-37.236l-125.93 5.493m125.93-5.493l-45.99-134.537m45.99 134.537l-151.98-85.003m151.98 85.003L1852.2 443.348l88.03 18.891m0 0l-28.68-91.364m28.68 91.364l-104.12 18.224m104.12-18.224l26.7 142.176m-55.38-233.54l-35.47 17.361m35.47-17.361l-10.84-31.743m0 0l-24.63 49.104m24.63-49.104l-26.05-90.496m26.05 90.496l-155.88 11.753m235.82-151.783l-112.1 28.307m-32.03 8.088l-115.38-117.442m115.38 117.442l32.03-8.088m-32.03 8.088l-21.97 11.629m-93.41-129.071l-25.06 200.068m118.47-70.997l-79.21 104.475m79.21-104.475l30.06.755m-30.06-.755l-118.47 70.997m118.47-70.997l-38.74-17.024-151.98 39.472m111.51 82.027l9.49-.716m-9.49.716l-35.73 96.357m35.73-96.357l-39.26-33.478m39.26 33.478l-123.41 81.21m264.15-44.575l-31.47-140.355m31.47 140.355l-39.97 92.227m39.97-92.227l-218.45 63.696 107.24 32.156m111.21-95.852l-180-70.113m172.47-90.714l6.11 21.227m0 0l-30.05-.755m-57.32 345.248l179.64 11.286m-179.64-11.286l48.82-112.666m-48.82 112.666l25.29 125.133m-25.29-125.133l-143.46 18.174m143.46-18.174l-93.65-105.416m273.29 116.702l-130.82-123.952m130.82 123.952l-49.88 28.275-104.47 85.572m23.53-237.799l-91.28-129.578m91.28 129.578l-71.24 3.625m-71.23 3.625l-7.02-4.716m7.02 4.716l71.23-3.625m-78.25-1.091l12.99-35.039m-12.99 35.039c-14.7 40.33-43.84 122.454-42.79 128.306m42.79-128.306l-74.69-50.186m152.94 51.277l-65.26-36.13m0 0l-3.53-129.835m0 0l-72.25-48.549m0 0l-11.9 163.237m0 0l31.9 178.492m0 0l168.75 106.959m-168.75-106.959l26.89 170.623m141.86-63.664l-141.86 63.664m141.86-63.664l-28.39 139.911m-113.47-76.247l113.47 76.247m-113.47-76.247l-31.27 120.603 23.42 47.211 121.32-91.567"/></g></svg>