<svg width="375" height="1823" fill="none" xmlns="http://www.w3.org/2000/svg"><path opacity=".45" d="M345.746 682.238l-52.258-64.187m52.258 64.187l19.054 40.004-104.275 49.518m85.221-89.522l112.935-147.789m-165.193 83.602l165.193-83.602m-165.193 83.602L260.525 771.76m32.963-153.709l-169.077-4.701m169.077 4.701l-45.315-82.709m45.315 82.709l24.154-136.473m141.039 52.871l-141.039-52.871m141.039 52.871l-7.064-191.012M317.642 481.578l133.975-138.141M317.642 481.578c.077-33.614.204-102.027.1-106.76m-.1 106.76l-140.146-81.876m274.121-56.265c-44.668 8.488-133.979 26.647-133.875 31.381m133.875-31.381l-183.96-87.151m50.085 118.532l-140.246 24.884m140.246-24.884l-50.085-118.532m-7.132 515.474L124.411 613.35m0 0L59.79 506.973m64.62 106.377L88.993 488.58m35.418 124.77l123.762-78.008M124.411 613.35l48.991-172.346M124.411 613.35L-26.865 464.773l2.002 92.619m0 0l84.653-50.419m-84.653 50.419l-42.98-99.902m42.98 99.902l-135.991 60.515M59.79 506.973l-25.808-31.386m25.807 31.386l29.204-18.393m0 0l-55.01-12.993m55.01 12.993l84.409-47.576M88.993 488.58l-48.8-153.258m207.98 200.02l-54.971-105.498m-15.706-30.142l90.161-143.416m-90.161 143.416l15.706 30.142m-15.706-30.142l-16.861-19.23m107.022-124.186L61.41 278.727m99.225 101.745L37.223 325.993m123.412 54.479l6.384 30.266m-6.384-30.266L61.41 278.727m99.225 101.745l7.837-42.833-75.624-142.776m-55.625 131.13l2.97 9.329m-2.97-9.329L-67.73 313.114m104.954 12.879l24.187-47.266m-24.187 47.266L-73.398 221.737m107.38 253.85l133.037-64.849M33.982 475.587L-67.843 457.49m101.825 18.097L-81.684 272.03l-6.713 115.004m122.38 88.553l27.427-196.86m131.792 151.117l-19.8 11.16m0 0l-6.383-30.266m-359.253 24.645l31.38 182.524m-31.38-182.524l124.391 22.107m-124.391-22.107l-119.265 55.048m119.265-55.048l-52.278-139.305m52.278 139.305l83.283-118.806m-51.903 301.33l93.011-160.417m-93.011 160.417l-40.157-43.221-110.488-84.255m243.656-32.941L40.194 335.322M-67.843 457.49l-20.554-70.456m-20.554-70.457l3.054-8.146m-3.054 8.146l20.554 70.457m-17.5-78.603l38.166 4.683m-38.166-4.683c-43.868-5.134-133.005-14.791-138.615-12.353m138.615 12.353l32.499-86.694m-14.999 165.297l20.666-73.92m0 0l129.14-34.387m0 0l31.439-83.864m0 0l-166.246 26.874m0 0l-171.114 74.341m171.114-74.341l-143.5-113.648m-27.614 187.989l-66.987 194.353m66.987-194.353l-123.35-65.605m123.35 65.605l-164.426 67.459m164.426-67.459l27.614-187.989m-94.601 382.342l-97.439-126.894m97.439 126.894l-146.813 4.819m241.414-387.161l-150.964 122.384m150.964-122.384l-133.493 16.267m133.493-16.267l-170.516-93.26 37.023 109.527m-17.471 106.117l-41.076 133.064m41.076-133.064l-61.807-43.414-40.112 5.208m101.919 38.206l17.471-106.117m-58.547 239.181l-49.374 131.713m49.374-131.713l-117.547-20.006-18.205 7.846 86.378 143.873m49.374-131.713l-60.843-171.27m0 0l26.038-69.458 93.352 1.547M42.557 774.444l10.814 86.597m-10.814-86.597l5.341-46.412 120.897 14.055M42.558 774.444l-183.594 68.941m194.407 17.656l-194.407-17.656m194.407 17.656l115.424-118.954M53.371 861.041l148.497 98.757M53.371 861.041l-5.75 99.27m5.75-99.27l-97.91 108.476m-96.497-126.132l96.497 126.132m-96.497-126.132l-100.508 174.685m197.005-48.553l-197.005 48.553m197.005-48.553c-18.868 30.003-57.241 91.083-59.795 95.373m59.795-95.373l79.477 151.563m-276.482-103.01c44.672 17.39 134.656 51.11 137.21 46.82m-137.21-46.82l115.69 180.77m21.52-133.95l139.272 56.19m-139.272-56.19l-21.52 133.95m294.649-456.753l33.073 217.711m0 0l-1.73 131.222m1.73-131.222l-38.119 131.332m38.119-131.332l-154.248.513m154.248-.513L61.695 1086.45m140.173-126.652l52.124 217.402 50.007-83.9m0 0l-103.861-2.28m103.861 2.28l-17.453 113.33m17.453-113.33l155.394 21.96m-259.255-24.24l5.515 42.49m-5.515-42.49l-36.389.11m0 0l41.904 42.38m-41.904-42.38l-102.054-4.68m102.054 4.68l-42.09 164.27M47.621 960.311l-9.864 125.039m-2.819 35.73l-160.792 77.76m160.792-77.76l2.819-35.73m-2.819 35.73l4.317 26.61m-165.109 51.15l196.9 95.29m-31.791-146.44l79.842 117.71m-79.842-117.71l11.22-30.62m-11.22 30.62l31.79 146.44m-31.79-146.44l-30.96 33.91-12.25 169.91m123.052-86.11l2.562-10m-2.562 10l86.609 70.21m-86.609-70.21l-48.052 28.73m48.052-28.73l40.572 155.06m45.984-286.95l-155.178-16.44m155.178 16.44l80.893 73.12m-80.893-73.12l-10.452 246.63 70.315-99.04m-59.863-147.59L71.045 1294.13m-33.288-208.78l23.938 1.1m0 0l-11.22 30.62m334.893 178.88l74.025-180.69m-74.025 180.69l-98.822-89.32m98.822 89.32l137.387 17.49m-137.387-17.49L354.19 1449.7m31.178-153.75l-140.883 59.62m214.908-240.31l-172.847 91.37m172.847-91.37l11.724 61.09 51.638 137.09m-236.209-106.81l-164.887 48.77m164.887-48.77l-21.03 74.47m-21.031 74.47l-7.285 5.57m7.285-5.57l21.031-74.47m-28.316 80.04l-31.494-25.53m31.494 25.53c36.339 29.12 110.612 87.6 116.99 88.56m-116.99-88.56l-77.531 59.32m105.847-139.36l-59.81 54.51m0 0l-134.66-41.48m0 0l-75 57.38m0 0l163.623 68.95m0 0l194.521 29.24m0 0l168.565-136.26M354.19 1449.7l184.694 31.66m-16.129-167.92l16.129 167.92m-16.129-167.92l133.921 77.8m-117.792 90.12l117.792-90.12m-117.792 90.12l113.077 74.04 56.657-7.66-51.942-156.5" stroke="#D9D9D9"/></svg>