<svg width="1920" height="983" fill="none" xmlns="http://www.w3.org/2000/svg"><path opacity=".45" d="M-252.163 564.042l90.758 21.082m-90.758-21.082l-44.538-22.458 58.643-115.961m-14.105 138.419l1.413 209.375m89.345-188.293l-89.345 188.293m89.345-188.293l-76.653-159.501m76.653 159.501L-7.717 472.726m-153.688 112.398l97.351 42.35m-97.351-42.35l72.608 138.089m-161.953 50.204l161.953-50.204m-161.953 50.204l137.991 165.094m23.962-215.298l-23.962 215.298m23.962-215.298c23.11 29.964 70.168 90.926 73.524 95.066m-73.524-95.066l181.159-23.778M-112.76 938.511c33.894-38.352 100.843-116.092 97.486-120.232m-97.486 120.232l223.782-49.295m-126.296-70.937L92.362 699.435M-15.273 818.279l126.296 70.937m-349.081-463.593l230.34 47.103m0 0l130.851 50.097m-130.85-50.097l117.546 86.6m-117.546-86.6l-56.337 154.748m56.337-154.748l75.242 187.135M-7.717 472.726l237.054 27.898-65.644-81.033m0 0l-40.56 103.232m40.56-103.232l107.127 59.258m-107.127-59.258l79.28-147.614m-119.84 250.846l44.604 10.134m-44.604-10.134l-13.304 36.503m0 0l57.908-26.369m-57.908 26.369L67.526 659.861m42.303-100.535l149.096 102.723m-322.979-34.575l121.656 55.97m34.76 15.991l18.661 189.781M92.362 699.435l-34.76-15.991m34.76 15.991l28.262 5.485m-9.601 184.296l168.048-162.179M120.624 704.92l147.377-36.618M120.624 704.92l-26.549-22.529m26.549 22.529l158.447 22.117M120.624 704.92l22.56 43.517 165.738 74.9m-40.921-155.035l-9.076-6.253m9.076 6.253l102.27-60.908m-102.27 60.908l11.07 58.735m-11.07-58.735l170.319 16.493M167.737 532.957L94.075 682.391m73.662-149.434l103.083-54.108m-103.083 54.108L411.015 634.33l-73.324-106.96m-169.954 5.587l111.334 194.08M57.602 683.444l9.923-23.583m0 0l26.55 22.53m302.674-269.64L242.973 271.977m153.776 140.774L270.82 478.849m125.929-66.098l68.166-131.217m-68.166 131.217L539.32 500.66m-142.571-87.909l7.812 163.14M242.973 271.977l27.847 206.872m-27.847-206.872L388 257l76.915 24.534M270.82 478.849l-11.895 183.2m11.895-183.2l66.871 48.521m66.87 48.521l2.9 9.354m-2.9-9.354l-66.87-48.521m69.77 57.875l-37.19 22.149m37.19-22.149c42.573-25.679 128.547-78.548 131.859-84.585m-131.859 84.585l30.859 99.55M337.691 527.37l32.58 80.024m0 0l-91.2 119.643m0 0l29.851 96.3m0 0L438.32 684.795m0 0l101-184.135m-101 184.135l206.049 2.179M539.32 500.66l-74.405-219.126M539.32 500.66l154.993-26.676M539.32 500.66l99.793-173.4m-99.793 173.4l105.049 186.314m-179.454-405.44l174.198 45.726m-174.198-45.726L593 264.011m51.369 422.963l49.944-212.99m-49.944 212.99l107.568-106.52m-107.568 106.52l216.032-34.588-108.464-71.932m-57.624-106.47l-55.2-146.724m55.2 146.724l84.931-3.987 32.101-32.292m-117.032 36.279l57.624 106.47M639.113 327.26L593 264.011m46.113 63.249l118.389-63.249 10.789-19.534L593 264.011m46.113 63.249l172.232 110.445m0 0l24.724 79.758-84.132 62.991" stroke="#D9D9D9"/><path opacity=".45" d="M2045.62 704.41l-80.39-70.095m80.39 70.095l32.94 46.64-121.61 85.671m88.67-132.311l111.12-212.364m-191.51 142.269l191.51-142.269m-191.51 142.269l-8.28 202.406m8.28-202.406l-215.75 30.977m215.75-30.977l-75.63-95.134m75.63 95.134l.85-178.592m190.66 36.323l-190.66-36.323m190.66 36.323l-50.71-241.033m-139.95 204.71l139.95-204.71m-139.95 204.71c-7.25-42.706-22.04-129.615-23.2-135.604m23.2 135.604l-195.87-73.355m335.82-131.355c-54.87 20.54-164.32 63.118-163.15 69.106m163.15-69.106l-252.66-70.479m89.51 139.585l-172.67 62.249m172.67-62.249l-89.51-139.585m103.58 656.187l-207.47-171.429m0 0l-105.31-120.973m105.31 120.973l-72.25-150.713m72.25 150.713l140.12-126.111m-140.12 126.111l24.55-229.578m-24.55 229.578l-224.58-155.63 22.78 117.185m0 0l96.49-82.528m-96.49 82.528l-76.41-117.479m76.41 117.479L1388.2 733.414m255.97-189.095l-39.64-34.22m39.64 34.22l33.06-29.74m0 0l-72.7-4.48m72.7 4.48l96.8-78.865m-96.8 78.865l-95.46-183.967m307.83 208.569l-92.86-121.966m-26.53-34.847l83.16-201.834m-83.16 201.834l26.53 34.847m-26.53-34.847H1697m156.37-201.834L1604.53 243M1697 382.368l-121.04-62.954M1697 382.368l62.31 16.305M1697 382.368L1604.53 243M1697 382.368l77.03-131.355L1533.5 173m42.46 146.414l5.81 11.198m-5.81-11.198l-136.1 6.578m136.1-6.578L1604.53 243m-28.57 76.414L1399 251.013m205.53 259.086l154.78-111.426m-154.78 111.426l-133.26-.731m133.26.731l-191.37-233.233 16.61 147.517m174.76 85.716V243m192.21 174.215l-22.71 18.499m0 0l-14.72-37.041m-450.85 109.802l79.74 224.939m-79.74-224.939l162.81.893m-162.81-.893l-139.43 95.97m139.43-95.97l-96.83-165.488m96.83 165.488l79.81-169.078m-.07 394.017l83.07-224.046m-83.07 224.046l-60.44-46.113-158.73-82.856m302.24-95.077l110.5-178.756m-110.5 178.756l-41.5-84.985m-41.5-84.986l2.1-11.012m-2.1 11.012l41.5 84.986m-39.4-95.998l49.49-2.393m-49.49 2.393c-56.84 3.067-172.15 10.281-178.74 14.602m178.74-14.602l8.63-77.372m30.77 173.37l10.09-98.391m0 0L1604.53 243m0 0l-71.03-70m0 0L1399 251.013m0 0l-187.37 91.974m0 0l-42.6 261.458m42.6-261.458l-194.07 121.6m151.47 139.858l-151.47-139.858m151.47 139.858l-185.391 38.201m33.921-178.059l-33.921 178.059m33.921-178.059l-163.346 24.641-45.381 53.133 174.806 100.285" stroke="#D9D9D9"/></svg>