<svg width="768" height="702" fill="none" xmlns="http://www.w3.org/2000/svg"><g clip-path="url(#clip0)" stroke="#D9D9D9"><path opacity=".45" d="M378.684 513.004l60.312 5.82m-60.312-5.82l-28.913-9.085 46.288-62.884m-17.375 71.969l-10.867 107.603m71.179-101.783l-71.179 101.783m71.179-101.783l-42.937-77.789m42.937 77.789l110.493-66.311m-110.493 66.311l63.578 16.393m-63.578-16.393l41.404 67.001m-112.583 34.782L480.4 585.825m-112.583 34.782l84.187 77.271M480.4 585.825l-28.396 112.053M480.4 585.825c13.968 14.131 42.414 42.88 44.455 44.824M480.4 585.825l124.105-22.254M452.004 697.878c25.134-21.6 74.892-65.286 72.851-67.229m-72.851 67.229l154.43-37.736m-81.579-29.493l79.65-67.078m-79.65 67.078l81.579 29.493M396.059 441.035l153.43 11.478m0 0l85.842 18.524m-85.842-18.524l74.765 38.033m-74.765-38.033l-46.915 82.704m46.915-82.704l40.421 92.08m-40.421-92.08l159.064 1.23-39.907-38.043m0 0l-33.315 55.337m33.315-55.337l69.249 24.548M668.646 415.7l62.061-80.305m-95.376 135.642l29.654 2.743m-29.654-2.743l-11.077 19.509m0 0l40.731-16.766m-40.731 16.766l-34.344 54.047m34.344-54.047l95.234 44.58m-216.914.091l79.279 22.053m22.652 6.301l1.929 96.571m-1.929-96.571l-22.652-6.301m22.652 6.301l39.957-18.57m-38.028 115.141l121.17-86.48m-83.142-28.661l80.823-7.162m-80.823 7.162l-37.834 9.709m37.834-9.709l83.142 28.661m-83.142-28.661l-11.251 68.661 149.575-31.842m-57.501-43.981l-5.797-2.713m5.797 2.713l72.743-36.984m-72.743 36.984l2.319 35.823m-2.319-35.823l112.622-19.31M664.985 473.78l-58.357 80.93m58.357-80.93l72.91-33.532m-72.91 33.532l159.132 38.674-43.648-50.952M664.985 473.78l62.619 99.882M581.853 557.27l8.057-12.677m0 0l16.718 10.117m220.335-155.425l-96.256-63.89m96.256 63.89l-89.068 40.963m89.068-40.963l53.603-71.257m-53.603 71.257l91.649 37.322m-91.649-37.322l-3.919 83.471m-92.337-147.361l7.188 104.853m-7.188-104.853l43.8 1.912 106.059-9.279m-142.671 112.22l-18.407 94.878m18.407-94.878l42.574 21.254m42.575 21.254l1.436 4.65m-1.436-4.65l-42.575-21.254m44.011 25.904l-26.452 13.449m26.452-13.449c30.3-15.563 91.547-47.511 94.132-50.799m-94.132 50.799l13.427 31.123m-57.438-57.027l17.559 39.353m0 0l-70.424 72.807m0 0l55.182 8.158m0 0l55.121-63.291m0 0l80.705-81.922m0 0l-38.046-108.579m38.046 108.579l77.417-94.702m-115.463-13.877l115.463 13.877m-115.463-13.877l92.233-61.313m23.23 75.19l-23.23-75.19m23.23 75.19l83.381-50.649 12.31-31.381-118.921 6.84"/><path opacity=".45" d="M788.722 311.361l-40.523-7.372m40.523 7.372l19.478 8.319-30.557 45.521m11.079-53.84l6.424-81.235m-46.947 73.863l46.947-73.863m-46.947 73.863l29.444 61.212m-29.444-61.212l-73.62 44.984m73.62-44.984l-42.801-15.568m42.801 15.568l-28.329-52.94m75.276-20.923l-75.276 20.923m75.276-20.923l-57.124-62.837m-18.152 83.76l18.152-83.76m-18.152 83.76c-9.488-11.422-28.812-34.659-30.197-36.236m30.197 36.236l-83.11 10.84m101.262-94.6c-16.693 15.184-49.734 45.947-48.349 47.524m48.349-47.524L634.686 188.41m54.987 26.403l-52.913 47.076m52.913-47.076l-54.987-26.403m142.957 176.791l-103.064-16.228m0 0l-57.76-18.276m57.76 18.276l-50.483-32.559m50.483 32.559l30.819-60.552m-30.819 60.552l-27.87-71.948m27.87 71.948l-106.761-8.715 27.09 30.86m0 0l21.911-40.421m-21.911 40.421l-46.673-22.041m46.673 22.041l-41.002 57.988m62.913-98.409l-19.923-3.535m19.923 3.535l7.277-14.283m0 0l-27.2 10.748m27.2-10.748l22.613-39.389m-22.613 39.389l-64.274-38.534m145.576 10.541l-53.385-20.636m-15.253-5.896l-2.074-73.479m2.074 73.479l15.253 5.896m-15.253-5.896l-26.666 12.157m24.592-85.636l-80.623 59.789m56.031 25.847l-54.185 1.488m54.185-1.488l25.312-5.528m-25.312 5.528l-56.031-25.847m56.031 25.847l6.996-51.625L516.964 239.3m38.945 36.234l3.913 2.346m-3.913-2.346l-48.521 24.546m48.521-24.546l-1.846-27.335m1.846 27.335l-75.427 9.165m116.414 42.463l38.51-58.644m-38.51 58.644l-48.661 21.915m48.661-21.915l-107.11-37.172 29.704 40.853m77.406-3.681l-42.833-78.963m97.95 19.586l-5.304 9.24m0 0l-11.303-8.507M488.79 375.847l65.116 53.259m-65.116-53.259l59.445-26.77m-59.445 26.77l-35.399 51.526m35.399-51.526l-61.809-32.844m61.809 32.844l1.956-63.237m63.16 116.496l-5.671-80.029m5.671 80.029l-29.411-3.595-71.104 1.862m94.844-78.296l11.587-71.197m-11.587 71.197l-28.745-18.234m-28.744-18.233l-1.002-3.604m1.002 3.604l28.744 18.233m-29.746-21.837l17.644-8.926m-17.644 8.926c-20.209 10.344-61.055 31.625-62.763 33.997m62.763-33.997l-9.262-24.307m39.008 46.144l-12.102-30.763m0 0l46.675-51.881m0 0l-37.099-8.899m0 0l-36.482 45.399m0 0l-53.501 58.304m0 0l26.41 84.37m-26.41-84.37l-51.192 68.177m77.602 16.193l-77.602-16.193m77.602 16.193l-61.405 42.08m-16.197-58.273l16.197 58.273m-16.197-58.273l-55.548 34.41-8.01 23.244 79.755.619"/><path opacity=".45" d="M554.04 321.142l-26.388-18.275m26.388 18.275l11.147 12.173-36.339 22.473m25.192-34.646l30.705-55.588m-57.093 37.313l57.093-37.313m-57.093 37.313l1.196 52.921m-1.196-52.921l-66.729 8.233m66.729-8.233l-25.367-24.824m25.367 24.824l-3.067-46.691m60.16 9.378l-60.16-9.378m60.16 9.378l-20.319-62.983m-39.841 53.605l39.841-53.605m-39.841 53.605c-3.059-11.16-9.294-33.872-9.77-35.436m9.77 35.436l-62.475-19.055m102.316-34.55c-16.735 5.404-50.086 16.604-49.611 18.169m49.611-18.169l-80.14-18.268m30.529 36.437l-52.705 16.381m52.705-16.381l-30.529-36.437m44.562 171.485L460.923 311.1m0 0l-35.112-31.561m35.112 31.561l-25.351-39.357m25.351 39.357l41.362-33.057M460.923 311.1l3.376-60.035m-3.376 60.035l-72.967-40.547 9.294 30.621m0 0l28.561-21.635m-28.561 21.635l-26.031-30.665m26.031 30.665l-47.763 27.96m76.324-49.595l-13.003-8.922m13.003 8.922l9.761-7.796m0 0l-22.764-1.126m22.764 1.126l28.727-20.678m-28.727 20.678l-33.215-48.036m99.928 54.336l-31.248-31.828m-8.927-9.094l22.176-52.818m-22.176 52.818l8.927 9.094m-8.927-9.094l-22.839.046m45.015-52.864l-76.463 16.486m31.448 36.378l-38.936-16.383m38.936 16.383l19.744 4.223m-19.744-4.223l-31.448-36.378m31.448 36.378l21.581-34.389-76.496-20.246m15.979 38.252l2.022 2.923m-2.022-2.923l-42.337 1.804m42.337-1.804l7.488-19.995m-7.488 19.995l-56.483-17.773m68.956 67.606l46.207-29.227m-46.207 29.227l-41.589-.108m41.589.108l-64.055-60.856 7.934 38.556m56.121 22.3l-4.985-69.828m63.214 45.426l-6.738 4.85m0 0l-5.284-9.675m-138.602 28.987l29.074 58.757m-29.074-58.757l50.806.132m-50.806-.132l-41.708 25.177m41.708-25.177l-33.298-43.204m33.298 43.204l21.741-44.252m7.333 103.009l21.732-58.625m-21.732 58.625l-19.717-12.018-51.065-21.562m92.514-25.045l31.138-46.802m-31.138 46.802l-14.532-22.192m-14.533-22.192l.449-2.881m-.449 2.881l14.533 22.192m-14.084-25.073l15.395-.656m-15.395.656c-17.673.837-53.512 2.795-55.488 3.929m55.488-3.929l1.249-20.233m12.835 45.306l1.311-25.729m0 0l49.825-21.799m0 0l-23.467-18.257m0 0l-40.504 20.479m0 0l-56.737 24.162m0 0l-8.41 68.381m8.41-68.381l-58.275 31.911m49.865 36.47l-49.865-36.47m49.865 36.47l-57.124 10.102m7.259-46.572l-7.259 46.572m7.259-46.572l-50.499 6.544-13.166 13.919 56.406 26.109m-13.293 319.363l7.848-25.179m-7.848 25.179l-7.245 12.079-31.238-19.23m38.483 7.151l58.696 4.386m-50.848-29.565l50.848 29.565m-50.848-29.565l-46.331 18.028m46.331-18.028l-28.207-46.023m28.207 46.023l13.948-26.558m-13.948 26.558l40.245-17.374m10.603 46.939l-10.603-46.939m10.603 46.939l49.21-35.243m-59.813-11.696l59.813 11.696m-59.813-11.696c8.89-5.849 26.978-17.761 28.21-18.615m-28.21 18.615l-2.788-51.764m62.601 63.46c-10.021-10.46-30.371-31.166-31.603-30.311m31.603 30.311l-9.026-64.399m-22.577 34.088l-30.998-33.149m30.998 33.149l22.577-34.088m-137.363 88.105l18.124-64.051m0 0l16.836-35.852m-16.836 35.852l26.779-31.256m-26.779 31.256l42.155 19.465m-42.155-19.465l54.044-16.997m-54.044 16.997l12.887-66.387-24.109 16.708m0 0l28.058 13.827m-28.058-13.827l18.895-28.935m-18.895 28.935l-39.665-25.79m67.723 39.617l3.793-12.38m-3.793 12.38l9.943 4.596m0 0l-6.15-16.976m6.15 16.976l27.265 14.259m-27.265-14.259l31.972-39.808m-16.596 90.529l18.285-33.118m5.224-9.462l53.575-.939m-53.575.939l-5.224 9.462m5.224-9.462l-7.207-16.65m60.782 15.711l-38.545-50.451m-22.237 34.74l2.24-33.722m-2.24 33.722l2.468 15.776m-2.468-15.776l22.237-34.74m-22.237 34.74l37.122 4.6-6.137-62.381m-28.745 24.059l-1.946 2.423m1.946-2.423l-14.879-30.308m14.879 30.308l19.997-1.018m-19.997 1.018l-2.04-46.976m-38.028 72.231l40.296 24.243m-40.296-24.243l-12.956-30.382m12.956 30.382l33.608-66.468-31.538 18.288m-2.07 48.18l60.065-26.273m-20.254 60.852l-6.396-3.344m0 0l6.881-6.992m-69.079-91.741l-42.733 40.261m42.733-40.261l15.827 37.116m-15.827-37.116l-35.309-22.272m35.309 22.272l27.681-38.302m-27.681 38.302l45.879 1.52m-88.612 38.741l58.56-3.145m-58.56 3.145l4.419-18.282 3.005-44.251m51.136 59.388l51.078 7.55m-51.078-7.55l15.026-17.798m15.026-17.798l2.683-.606m-2.683.606l-15.026 17.798m17.709-18.404l5.41 11.021m-5.41-11.021c-6.285-12.625-19.26-38.141-20.881-39.216m20.881 39.216l18.249-5.647m-35.958 24.051l23.119-7.383m0 0l34.876 29.29m0 0l8.748-23.041m0 0l-30.785-22.917m0 0l-39.13-33.569m0 0l-62.99 16.03m62.99-16.03l-46.451-32.178m-16.539 48.208l16.539-48.208m-16.539 48.208l-26.842-38.409m43.381-9.799l-43.381 9.799m43.381-9.799l-21.623-34.728-16.417-5.095-5.341 49.622"/></g><defs><clipPath id="clip0"><path fill="#fff" d="M0 0h768v702H0z"/></clipPath></defs></svg>