<svg width="1920" height="1060" fill="none" xmlns="http://www.w3.org/2000/svg"><path opacity=".45" d="M1607.07 872.986l66.65-86.49m-66.65 86.49l-23.71 53.426 139.26 61.614m-115.55-115.04l-154.14-190.898m220.79 104.408l-220.79-104.408m220.79 104.408l48.9 201.53m-48.9-201.53l222.79-12.172m-222.79 12.172l56.83-110.668m-56.83 110.668l-36.68-179.112m-184.11 74.704l184.11-74.704m-184.11 74.704l2.56-252.136m181.55 177.432l-181.55-177.432m181.55 177.432c-1.28-44.325-3.87-134.535-3.9-140.781m3.9 140.781l181.92-112.921m-363.47-64.511c59.21 9.615 177.62 30.405 177.65 36.651m-177.65-36.651L1695 308.526m-61.86 158.077l185.82 27.86m-185.82-27.86L1695 308.526m27.62 679.5l173.89-213.702m0 0l81.46-142.562m-81.46 142.562l42.3-165.785m-42.3 165.785l-165.96-98.496m165.96 98.496l-70.69-225.541m70.69 225.541l194.24-201.273.63 122.207m0 0l-113.41-63.496m113.41 63.496L2144.53 562m-53.15 133.258l181.47 74.995m-294.88-138.491l32.92-42.301m-32.92 42.301l-39.16-23.223m0 0l72.08-19.078m-72.08 19.078l-112.99-59.756m112.99 59.756l58.93-203.824m-267.19 271.113l68.76-141.062m19.65-40.303L1695 308.526m123.96 185.937l-19.65 40.303m19.65-40.303l21.56-25.955M1695 308.526l272.77 22.306m-127.25 137.676l160.81-76.2m-160.81 76.2l-7.35 40.137m7.35-40.137l127.25-137.676m-127.25 137.676l-11.85-56.206 94.68-190.95m77.98 170.956l-3.59 12.407m3.59-12.407l137.95-20.692m-137.95 20.692l-33.56-61.476m33.56 61.476l142.19-141.391m-132.63 338.544l-177.72-80.816m177.72 80.816L2144.53 562m-133.64 27.461l145.34-272.516 12.91 151.418m-158.25 121.098l-43.12-258.629m-168.46 203.934l26.51 14.017m0 0l7.35-40.138m474.61 19.807l-34.93 241.801m34.93-241.801L2144.53 562m163.25-33.548L2467 596.83m-159.22-68.378l64.02-185.548m-64.02 185.548l-114.02-153.726m79.09 395.527L2144.53 562m128.32 208.253l51.43-58.413L2467 596.83M2144.53 562l-146.79-157.285M2144.53 562l24.61-93.637m24.62-93.637l-4.32-10.635m4.32 10.635l-24.62 93.637m20.3-104.272l-50.16 7.525m50.16-7.525c57.67-8.319 174.87-24.203 182.36-21.187m-182.36 21.187l-45.92-113.174m25.62 217.446l-29.86-96.747m0 0l-171.51-40.784m0 0l-44.42-109.48m0 0l220.17 29.565m0 0l228.28 91.987m0 0L2467 596.83m-95.2-253.926l219.21 83.148M2467 596.83l124.01-170.778M2467 596.83l193.77 1.166m-69.76-171.944l69.76 171.944m-69.76-171.944l168.92-8.024-99.16 179.968M172.298 659.348l-97.656-31.08m97.656 31.08l46.86 28.532-74.474 121.992m27.614-150.524l16.83-229.682M74.642 628.268l114.486-198.602M74.642 628.268l70.042 181.604M74.642 628.268L-103.727 738.01M74.642 628.268L-28.376 573.29m103.018 54.978L7.156 470.493m181.972-40.827L7.156 470.493m181.972-40.827L52.326 236.545M7.156 470.493l45.17-233.948M7.156 470.493c-22.707-34.88-68.95-105.85-72.267-110.684M7.156 470.493l-200.709 10.169m245.88-244.117C11.798 275.619-68.429 354.976-65.112 359.809M52.326 236.545l-249.681 34.404m132.244 88.86l-128.442 120.853m128.442-120.853l-132.244-88.86m342.039 538.923l-248.411-71.862m0 0l-139.066-66.413m139.066 66.413l-121.276-105.266m121.276 105.266l75.351-164.72m-75.351 164.72l-66.07-211.78m66.07 211.78l-257.456-51.396 64.858 94.607m0 0l53.532-109.624m-53.532 109.624l-112.252-74.375m112.252 74.375l-99.88 154.884m153.412-264.508l-48.015-15.025m48.015 15.025l17.79-38.853m0 0l-65.805 23.828m65.805-23.828l55.206-106.514m-55.206 106.514l-154.452-125.713m351.08 66.259l-128.472-72.044m-36.706-20.584l-3.802-209.713m3.802 209.713l36.706 20.584m-36.706-20.584l-30.506-8.495m26.704-201.218L-395.837 434.01m171.778 38.157l-164.797 27.212m164.797-27.212l27.131 27.032m-27.131-27.032l-171.778-38.157m171.778 38.157l-20.915-49.692-175.14-96.668m31.258 173.572l9.401 7.652m-9.401-7.652l-117.476 57.802m117.476-57.802l-6.981-65.369m6.981 65.369l-185.289-33.033m283.337 190.226l93.88-157.373m-93.88 157.373l-117.769 50.274m117.769-50.274l-257.83-132.5 71.003 123.707m186.827 8.793L-395.837 434.01m238.99 67.236l-12.95 24.984m0 0l-27.131-27.031m-355.519 269.064l156.242 167.842m-156.242-167.842l143.87-61.417m-143.87 61.417l-86.255 137.883m86.255-137.883l-148.598-108.898m148.598 108.898l5.755-179.552m150.487 347.394l-12.372-229.259m12.372 229.259l-70.905-17.559-171.592-12.4m230.125-199.3l29.122-199.815m-29.122 199.815l-69.058-59.067m-69.057-59.068l-2.358-10.511m2.358 10.511l69.057 59.068M-549.05 578.2l42.718-21.019M-549.05 578.2c-48.931 24.418-147.834 74.837-151.995 81.165M-549.05 578.2l-25.095-111.854m96.51 181.433l-28.697-90.598m0 0l110.495-123.171m0 0l-24.277-108.203m0 0l-154.031 140.539m0 0l-126.9 193.019m126.9-193.019l-225.721-20.477m98.821 213.496l62.343 246.781m-62.343-246.781l-172.276 15.643m172.276-15.643L-825.679 840.72m124.634-181.355l-98.821-213.496m161.164 460.277l-186.977-65.426m186.977 65.426l-148.849 104.514m-12.315-564.791l-73.455 229.139m73.455-229.139l-127.287 107.346m127.287-107.346l-239.894 18.96 112.607 88.386m53.832 121.793l47.642 165.712m-47.642-165.712l-93.467-3.085-38.032 32.587m131.499-29.502l-53.832-121.793m101.474 287.505l38.128 169.94m-38.128-169.94l-135.353 58.955-13.544 20.469 187.025 90.516m-38.128-169.94l-179.141-136.21m0 0l-20.1-89.616 97.767-61.679" stroke="#D9D9D9"/></svg>