<svg width="1920" height="987" fill="none" xmlns="http://www.w3.org/2000/svg"><g clip-path="url(#clip0)" stroke="#D9D9D9"><path opacity=".45" d="M1462.45 800.893l75.44-89.906m-75.44 89.906l-27.86 56.317 146.8 72.408m-118.94-128.725l-157.01-211.925m232.45 122.019l-232.45-122.019m232.45 122.019l43.5 218.631m-43.5-218.631l239.83-3.099m-239.83 3.099l66-116.313m-66 116.313l-31.36-194.007m-201.09 71.988l201.09-71.988m-201.09 71.988l14.04-270.678m187.05 198.69l-187.05-198.69m187.05 198.69c.6-47.662 1.86-144.664 2.11-151.373m-2.11 151.373l200.43-113.133m-387.48-85.557c63.16 12.977 189.4 40.608 189.16 47.317m-189.16-47.317l262.67-119.687m-73.51 167.004l198.32 38.24m-198.32-38.24l73.51-167.004m-.76 731.015l196.33-221.73m0 0l93.87-149.463m-93.87 149.463l52.85-176.158m-52.85 176.158l-173.83-113.214m173.83 113.214l-65.83-245.394m65.83 245.394l217.62-207.469-4.79 131.278m0 0l-118.96-73.272m118.96 73.272l63.04-140.739m-63.04 140.739l191.54 88.669m-310.5-161.941l37.25-43.957m-37.25 43.957l-41.02-26.695m0 0l78.27-17.262m-78.27 17.262l-118.68-69.236m118.68 69.236l72.42-216.267m-299.1 279.211l80.16-148.421m22.91-42.406l-124.81-205.244m124.81 205.244l-22.91 42.406m22.91-42.406l24.31-26.91m-149.12-178.334l291.95 36.168m-142.83 142.166l176.13-74.639m-176.13 74.639l-9.69 42.779m9.69-42.779l142.83-142.166m-142.83 142.166l-10.21-60.895 110.24-200.84m76.1 187.096l-4.41 13.165m4.41-13.165l149.08-16.047m-149.08 16.047l-33.3-67.527m33.3 67.527l159.04-145.486m-157.6 357.656l-187.26-94.752m187.26 94.752l144.75-23.51m-144.75 23.51l168.29-286.173 7.09 163.199m-175.38 122.974l-34.74-279.697m-190.05 211.482l27.84 16.241m0 0l9.69-42.778m508.85 42.52l-48.34 258.13m48.34-258.13l-176.84 28.722m176.84-28.722l167.94 80.566m-167.94-80.566l77.06-196.411m-77.06 196.411l-115.58-170.205m67.24 428.335l-128.5-229.408m128.5 229.408l57.84-60.433 158.44-117.131m-344.78-51.844l-150.6-175.495m150.6 175.495l30.63-99.464m30.63-99.463l-4.16-11.615m4.16 11.615l-30.63 99.463m26.47-111.078l-54.21 5.835m54.21-5.835c62.31-6.353 188.9-18.165 196.8-14.591m-196.8 14.591l-44.25-123.604m17.78 234.682l-27.74-105.243m0 0l-182.38-51.48m0 0l-42.8-119.569m0 0l235.14 41.61m0 0l241.05 109.013m0 0l90.88 276.977m-90.88-276.977l231.71 99.115m-140.83 177.862L2539.2 364.94m-140.83 177.862l208.05 9.929M2539.2 364.94l67.22 187.791M2539.2 364.94l181.77-1.055-114.55 188.846M58.43 317.879l-83.677 74.857m83.678-74.857l34.046-49.532-129.145-88.546M58.43 317.879l119.814 222.038M-25.247 392.736l203.492 147.181M-25.247 392.736l-11.421-212.935m11.42 212.935l-227.503-29.713m227.504 29.713l-78.322 101.149m78.322-101.149l3.29 187.969m200.202-40.788l-200.202 40.788m200.202-40.788L128.099 794.3M-21.957 580.705L128.099 794.3M-21.957 580.705c-7.057 45.048-21.457 136.724-22.605 143.043m22.605-143.043l-205.184 79.836M128.099 794.3c-58.032-20.884-173.808-64.233-172.66-70.552m172.66 70.552l-265.003 77.571m92.342-148.123l-182.579-63.207m182.58 63.207l-92.343 148.123m100.236-692.07l-216.083 183.222m0 0l-109.227 128.743m109.227-128.743l-74.022 159.603m74.022-159.603l149.182 130.862m-149.182-130.862l28.923 241.316m-28.923-241.316l-234.301 166.82 22.408-123.65m0 0l102.666 85.573m-102.666-85.573l-78.854 124.678m78.854-124.678l-169.289-110.032m271.955 195.605l-41.257 36.55m41.257-36.55l35.205 30.86m0 0l-76.462 5.69m76.462-5.69l102.945 81.713m-102.945-81.713l-98.016 194.917m321.22-223.658l-96.112 129.621m-27.46 37.035l90.237 211.33m-90.237-211.33l27.46-37.035m-27.46 37.035l-26.684 22.171m116.921 189.159l-271.517-73.992m154.596-115.167l-176.93 46.696m176.93-46.696l14.999-39.187m-14.999 39.187l-154.596 115.167m154.596-115.167l1.377 59.049-131.72 175.162m-46.587-187.515l5.966-11.865m-5.966 11.865l-143.345-5.101m143.345 5.101l22.334 68.471m-22.334-68.471l-170.399 116.105m197.919-317.197l164.409 115.209m-164.409-115.209l-140.263 2.555m140.263-2.555l-198.307 248.058 15.502-155.494m182.805-92.564l-5.186 269.563m208.74-174.373l-24.147-19.167m0 0l-14.998 39.186m-476.021-109.532l80.914-237.832m-80.914 237.832l171.349-3.122m-171.349 3.122l-148.047-99.146m148.047 99.146l-99.704 175.485m99.704-175.485l86.266 176.896m-5.352-414.728l90.435 234.71m-90.435-234.71l-63.002 49.347-165.959 89.339m319.396 96.024l118.709 186.672m-118.709-186.672l-42.542 90.009m-42.541 90.009l2.356 11.564m-2.356-11.564l42.541-90.009m-40.185 101.573l52.125 1.854m-52.125-1.854c-59.86-2.467-181.33-8.515-188.326-12.975m188.326 12.975l25.071 123.06m15.114-224.633l11.94 103.427m0 0l165.679 73.572m0 0l24.253 119.044m0 0l-216.986-71.41m0 0l-213.397-136.035m213.397 136.035l-216.443 121.683m3.046-257.718l-48.343-274.631m48.343 274.631l-179.218 61.615m179.218-61.615l-205.899-125.392m205.899 125.392l-3.046 257.718m-45.297-532.349l-157.556 149.239m157.556-149.239l-195.656-37.725m240.953 570.074l-176.172-196.103m176.172 196.103l-175.369-50.224m175.369 50.224l-248.293 88.614 72.924-138.838m-.803-145.879l-26.681-187.007m26.681 187.007l-92.041 44.995-52.63-15.521m144.671-29.474l.803 145.879m-27.484-332.886l-38.1-186.964m38.1 186.964l-161.74 1.765-22.71-14.388 146.35-174.341m38.1 186.964l-117.99 216.481m0 0l20.09 98.595 125.384 17.81"/></g><defs><clipPath id="clip0"><path fill="#fff" d="M0 0h1920v987H0z"/></clipPath></defs></svg>