<svg width="1920" height="604" fill="none" xmlns="http://www.w3.org/2000/svg"><g clip-path="url(#clip0)" stroke="#D9D9D9"><path opacity=".45" d="M-472.057 292.904l79.564 35.399m-79.564-35.399l-36.903-28.487 74.326-96.052m-37.423 124.539l-35.732 192.404m115.296-157.005l-115.296 157.005m115.296-157.005l-42.141-159.938m42.141 159.938l160.925-75.974m-160.925 75.974l81.855 56.083m-81.855-56.083l42.215 139.572m-157.511 17.433l157.511-17.433m-157.511 17.433l97.445 175.919m60.066-193.352l-60.066 193.352m60.066-193.352c15.91 31.586 48.317 95.857 50.665 100.25m-50.665-100.25l170.464 10.216m-230.53 183.136c37.889-29.203 113.079-88.709 110.731-93.102m-110.731 93.102l214.094-5.664m-103.363-87.438l119.799-90.034m-119.799 90.034l103.363 87.438m-238.384-487.198l203.066 83.964m0 0l111.228 69.118m-111.228-69.118l92.563 100.265m-92.563-100.265l-79.07 132.057m79.07-132.057l35.959 185.05m-35.959-185.05l212.623 67.526-45.914-85.977m0 0l-55.481 87.569m55.481-87.569l87.837 73.33m-87.837-73.33l98.865-121.452M-120.34 321.447l39.144 17.188m-39.144-17.188l-18.665 31.147m0 0l57.81-13.959m-57.81 13.959l-56.604 84.785m56.604-84.785l118.667 120.642m-290.3-88.85l101.752 72.881m29.072 20.824l-16.436 177.472m16.436-177.472l-29.072-20.824m29.072 20.824l24.968 10.032m-41.404 167.44l182.907-119.121m-141.503-48.319l141.731-7.543m-141.731 7.543l-20.381-25.372m20.381 25.372l141.504 48.319m-141.504-48.319l13.009 43.928L-2.977 630.1m-10.138-149.52l-7.223-7.344m7.223 7.344L61.22 433m-74.334 47.58l-.227 55.862m.227-55.862l153.394 45.257M-81.196 338.635l-94.031 124.116m94.031-124.116l104.174-31.427m-104.174 31.427L134.498 481l-58.73-117.436m-156.964-24.929l67.853 197.807m-195.543-79.175l13.277-19.888m0 0l20.382 25.372m325.465-193.934L34.006 112.426m116.232 156.391l-127.26 38.391m127.26-38.391L192.998 154m-42.76 114.817l115.298 105.892M150.238 268.817L128.557 419.92m-94.55-307.494l-11.03 194.782m11.03-194.782L192.997 154M22.978 307.208l-43.316 166.028m43.316-166.028l52.79 56.356m52.789 56.356l1.006 9.098m-1.006-9.098l-52.79-56.356m53.796 65.454L61.219 433m68.344-3.982c43.614-16.038 131.867-49.354 135.973-54.309m-135.973 54.309l10.716 96.819M75.767 363.564L61.22 433m0 0l-74.561 103.442m0 0L-2.977 630.1m0 0L140.28 525.837m0 0l125.257-151.128M140.279 525.837L321.998 504m-56.462-129.291L192.998 154m72.538 220.709l146.964 2.928m-146.964-2.928L321.998 504m0 0L412.5 377.637M321.998 504l124.556-18.458M321.998 504l154.498 126.101L543 596l-9.623-25.261-86.823-85.197M412.5 377.637l45.998 36.863 39.5-36.863 36.909 64.973-88.353 42.932M412.5 377.637l34.054 107.905M2057.34 638.351l-69.83-58.923m69.83 58.923l29.12 40.135-100.19 81.958m71.07-122.093l87.76-194.554m-157.59 135.631l157.59-135.631m-157.59 135.631l-1.24 181.016m1.24-181.016l-181.19 37.401m181.19-37.401L1921 497.942m66.51 81.486l-4.34-159.427m161.93 23.796l-161.93-23.796m161.93 23.796l-49.63-212.822m-112.3 189.026l112.3-189.026m-112.3 189.026c-7.33-37.786-22.27-114.682-23.43-119.973m23.43 119.973l-144-119.973m256.3-69.053c-45.72 20.812-136.88 63.761-135.73 69.053m135.73-69.053l-215.22-51.477m79.49 120.53h-120.57m120.57 0l-79.49-120.53m106.02 580.946l-179.95-143.615m0 0l-92.3-103.203m92.3 103.203l-41.82-120.013m41.82 120.013L1921 497.942m-114.68 118.887l14.22-206.002m-14.22 206.002l-193.93-128.74 23.61 128.74m0 0l78.02-103.203M1636 616.829l-68.88-126.577M1636 616.829L1494 653m220.02-139.374l-34.42-28.748m34.42 28.748l50.48-16.81m0 0l-84.9-11.938m84.9 11.938l56.04-85.989m-56.04 85.989l-114.42-180.827M1921 497.942l-81.83-104.651m0-93.263l41.08-120.53m-41.08 120.53v93.263m0-93.263l-45.58 46.013m86.66-166.543l-214.81 77.28m128.15 89.263l-143.51-30.052m143.51 30.052l13.47 32.393m-13.47-32.393l-128.15-89.263m-15.36 59.211l-82.96 174.263m82.96-174.263l15.36-59.211m14.16 228.1l127.46-106.444M1679.6 484.878l-112.48 5.374m112.48-5.374l-14.16-228.1m173.73 136.513l-18.63 17.536m0 0l-13.48-32.393M1397 538l97 115m-97-115l170.12-47.748M1397 538l-82.24 50.771M1494 653l73.12-162.748m0 0L1362 420.001m0 0l-47.24 168.77m47.24-168.77L1159.39 551M1362 420.001l-202.61 70.251V551M1362 420.001h189.5m-189.5 0h80.5m-127.74 168.77L1159.39 551"/></g><defs><clipPath id="clip0"><path fill="#fff" d="M0 0h1920v604H0z"/></clipPath></defs></svg>