<svg width="1920" height="1010" fill="none" xmlns="http://www.w3.org/2000/svg"><path opacity=".45" d="M1550.32 754.763l71.54-73.779m-71.54 73.779l-27.87 47.436 123.66 72.46m-95.79-119.896l-123.81-194.948m195.35 121.169l-195.35-121.169m195.35 121.169l24.25 193.675m-24.25-193.675l209.65 12.359m-209.65-12.359l64.94-97.437m-64.94 97.437l-15.21-171.408m-180.14 50.239l180.14-50.239m-180.14 50.239l29.27-235.515m150.87 185.276L1455.78 324.3m150.87 185.276c3.52-41.588 10.72-126.226 11.36-132.07m-11.36 132.07l182.16-86.214M1455.78 324.3c54.34 15.3 162.86 47.362 162.23 53.206M1455.78 324.3l236.92-88.03m-74.69 141.236l170.8 45.856m-170.8-45.856l74.69-141.236m-46.59 638.389l185.4-181.316m0 0l91.37-124.639m-91.37 124.639l57.22-150.529m-57.22 150.529L1686.8 583.547m144.71 109.796l-42.08-218.452m42.08 218.452l203.09-167.524-12.43 114.351m0 0l-99.29-71.466m99.29 71.466l63.9-118.955m-63.9 118.955l161.71 89.471m-261-160.937l35.29-36.049m-35.29 36.049l-34.15-25.89m0 0l69.44-10.159m-69.44 10.159l-99.3-67.923m99.3 67.923l76.84-184.329M1686.8 583.547l79.34-124.588m22.67-35.597L1692.7 236.27m96.11 187.092l-22.67 35.597m22.67-35.597l22.92-21.975M1692.7 236.27l252.71 49.929m-133.68 115.188l158.51-54.122m-158.51 54.122l-11.15 36.752m11.15-36.752l133.68-115.188m-133.68 115.188l-5.09-53.825 108.89-168.479m54.71 168.182l-4.67 11.22m4.67-11.22l131.21-4.65m-131.21 4.65l-24.83-61.066m24.83 61.066l148.05-117.07m-160.12 302.46l-157.59-94.516m157.59 94.516l127.9-11.44m-127.9 11.44l164.96-239.359-4.06 142.976m-160.9 96.383l-12.76-246.456m-179.27 172.76l23.29 15.932m0 0l11.15-36.752m441.74 69.101l-58.44 222.401m58.44-222.401l-156.25 13.975m156.25-13.975l141.6 80.912m-141.6-80.912l79.64-166.696m-79.64 166.696l-90.25-155.91m31.81 378.311l-97.81-208.426m97.81 208.426l54.32-49.145 145.72-92.344m-297.85-66.937l-120.5-162.73m120.5 162.73l33-84.943m33-84.942l-2.9-10.405m2.9 10.405l-33 84.942m30.1-95.347l-47.72 1.69m47.72-1.69c54.81-1.635 166.11-3.999 172.79-.381m-172.79.381l-30.88-110.73m.78 206.077l-17.62-93.657m0 0l-156.04-56.416m0 0l-29.88-107.116m0 0l202.76 51.112m0 0l203.67 110.349m0 0l61.96 247.608m-61.96-247.608l196.13 101.118m-134.17 146.49l134.17-146.49m-134.17 146.49l181.09 21.741m-46.92-168.231l46.92 168.231m-46.92-168.231l158.83 10.498-111.91 157.733M173.677 636.897l-90.958-28.948m90.958 28.948l43.645 26.575-69.365 113.625m25.72-140.2l15.675-213.927M82.719 607.949L189.352 422.97M82.719 607.949l65.238 169.148M82.719 607.949L-83.415 710.164M82.719 607.949l-95.951-51.207m95.951 51.207L19.862 460.996m169.49-38.026l-169.49 38.026m169.49-38.026L61.934 243.095M19.862 460.996l42.072-217.901M19.862 460.996c-21.15-32.488-64.22-98.589-67.31-103.092m67.31 103.092l-186.942 9.472M61.934 243.095C24.186 279.489-50.537 353.402-47.448 357.904M61.934 243.095l-232.555 32.044m123.173 82.765L-167.08 470.468m119.632-112.564l-123.173-82.765m318.578 501.958l-231.372-66.933m0 0l-129.527-61.858m129.527 61.858l-112.957-98.046m112.957 98.046l70.183-153.422m-70.183 153.422l-61.538-197.254m61.538 197.254l-239.797-47.871 60.41 88.118m0 0l49.86-102.105m-49.86 102.105l-104.553-69.273m104.553 69.273l-93.029 144.26m142.889-246.365l-44.722-13.995m44.722 13.995l16.57-36.188m0 0l-61.292 22.193m61.292-22.193l51.419-99.208m-51.419 99.208l-143.858-117.09m326.998 61.714l-119.659-67.102m-34.189-19.172l-3.541-195.329m3.541 195.329l34.189 19.172m-34.189-19.172l-28.413-7.913m24.872-187.416l-184.868 151.877m159.996 35.539l-153.494 25.346m153.494-25.346l25.27 25.178m-25.27-25.178l-159.996-35.539m159.996 35.539l-19.48-46.284-163.127-90.037m29.113 161.667l8.757 7.127m-8.757-7.127l-109.417 53.837m109.417-53.837l-6.502-60.885m6.502 60.885l-172.58-30.768m263.903 177.178l87.441-146.578m-87.441 146.578l-109.691 46.827m109.691-46.827L-497.809 510.9l66.133 115.221m174.012 8.19l-97.825-207.295m222.598 62.624l-12.062 23.27m0 0l-25.27-25.177m-331.134 250.608l145.526 156.33m-145.526-156.33l134.002-57.203m-134.002 57.203l-80.338 128.426m80.338-128.426l-138.405-101.428m138.405 101.428l5.361-167.236m140.165 323.566l-11.524-213.533m11.524 213.533l-66.042-16.355-159.822-11.549m214.34-185.629l27.125-186.11m-27.125 186.11l-64.321-55.017m-64.32-55.016l-2.197-9.79m2.197 9.79l64.32 55.016m-66.517-64.806l39.789-19.577m-39.789 19.577c-45.575 22.744-137.694 69.704-141.569 75.598m141.569-75.598l-23.374-104.182m89.891 168.988l-26.728-84.383m0 0l102.915-114.722m0 0L-378.1 326.234m0 0l-143.467 130.899m0 0l-118.195 179.78m118.195-179.78l-210.238-19.071m92.043 198.851l58.067 229.854m-58.067-229.854l-160.459 14.57m160.459-14.57l-116.085 168.916m116.085-168.916l-92.043-198.851m150.11 428.705l-174.152-60.938m174.152 60.938l-138.64 97.345m-11.47-526.05l-68.416 213.421m68.416-213.421l-118.556 99.982m118.556-99.982l-223.438 17.659 104.882 82.323m50.14 113.439l44.374 154.346m-44.374-154.346l-87.057-2.873-35.421 30.352m122.478-27.479l-50.14-113.439m94.514 267.785l35.512 158.283m-35.512-158.283l-126.069 54.911-12.615 19.065 174.196 84.307m-35.512-158.283l-166.852-126.867m0 0l-18.727-83.47 91.065-57.448" stroke="#D9D9D9"/></svg>