<svg width="411" height="632" fill="none" xmlns="http://www.w3.org/2000/svg"><path opacity=".35" d="M642.128 55.05l-59.905 71.388m59.905-71.387l40.199-29.547 76.851 104.816m-117.05-75.27L454.774-38.517m127.449 164.956L454.774-38.518m127.449 164.956l176.955 3.882m-176.955-3.882l30.627 187.961m-30.627-187.961l-81.858 67.634m81.858-67.634l-156.03 2.208m28.581-167.164l-28.581 167.164m28.581-167.164L245.049 9.766m181.144 118.88L245.049 9.766m181.144 118.88c-37.187 7.037-112.865 21.392-118.077 22.51m118.077-22.51l-60.844 172.322M245.049 9.766c18.851 47.596 57.855 142.508 63.067 141.39M245.049 9.766l-57.394 221.89m120.461-80.5l57.233 149.812m-57.233-149.812l-120.461 80.5M759.178 130.32L612.85 314.399m0 0l-103.94 93.999m103.94-93.999l-130.466 65.603m130.466-65.603L500.365 194.072M612.85 314.399l-200.961-17.656m200.961 17.656L480.606 513.162 582.6 491.324m0 0l-73.69-82.926m73.69 82.926l-101.364 68.695M582.6 491.324l95.732 137.556M508.91 408.398l-29.238 35.188m29.238-35.188l-26.526-28.396m0 0l-2.712 63.584m2.712-63.584l-70.495-83.259m70.495 83.259l-159.133 86.436m177.114-272.366l-105.012 83.141m-30.004 23.755l-177.694-69.312m177.694 69.312l30.004-23.755m-30.004 23.755l-17.692 22.719m-160.002-92.031l68.517 223.313m91.485-131.282l-34.093 148.012m34.093-148.012l32.116-13.472m-32.116 13.472l-91.485 131.282m91.485-131.282l-49.025.409-141.858 113.879m156.79 33.724l9.687-5.261m-9.687 5.261l26.99 90.51m-26.99-90.51l-57.392-16.73m57.392 16.73l-91.847 144.416m257.955-172.529l-99.899-133.371m99.899 133.371l1.564 116.433m-1.564-116.433L269.543 623.409l138.137-25.733m71.992-154.09l-223.5 11.383m139.181-177.756l16.536 19.53m0 0l-32.116 13.472m103.373 392.04l195.186-73.375m-195.186 73.375l-1.91-142.236m1.91 142.236l105.474 77.887m-105.474-77.887L340.18 789.581m142.966-87.326l-149.022-66.921m344.208-6.454l-197.096-68.861m197.096 68.861L588.62 780.142M481.236 560.019l-157.985-93.581m157.985 93.581l-73.556 37.657m-73.556 37.658l-9.655-1.651m9.655 1.651l73.556-37.658m-83.211 36.007l16.085-71.474m-16.085 71.474c3.618 49.596 11.827 150.211 15.711 155.898m-15.711-155.898l-102.752-17.568m185.963-18.439l-67.126-35.467m0 0l-84.382-107.24m0 0l-99.398-16.994m0 0l64.943 178.14m0 0L340.18 789.581M221.717 616.115l-31.199 193.364m149.662-19.898l248.44-9.439m-248.44 9.439l-46.41 150.301m46.41-150.301l-149.662 19.898m0 0L293.77 939.882M190.518 809.479l-17.794 133.569m17.794-133.569L15.19 931.159l15.438 78.471 28.825-2.44 113.271-64.142m121.046-3.166l-51.5 36.429 26.253 51.519-77.729 18.77-18.07-103.552m121.046-3.166l-121.046 3.166" stroke="#D9D9D9"/></svg>