<svg width="375" height="255" fill="none" xmlns="http://www.w3.org/2000/svg"><path opacity=".45" d="M580.298 226.902l-52.772-2.411m52.772 2.411l27.144 7.937-20.759 70.69m-6.385-78.627l-22.341-116.59m-30.431 114.179l30.431-114.179m-30.431 114.179l59.157 81.038m-59.157-81.038l-74.118 78.488m74.118-78.488L468.889 210.9m58.637 13.591l-54.697-69.517m85.128-44.662l-85.128 44.662m85.128-44.662l-93.931-77.843m8.803 122.505l-8.803-122.505m8.803 122.505c-15.969-14.327-48.482-43.472-50.78-45.435m50.78 45.435l-98.557 31.906m89.754-154.411c-14.95 24.872-44.274 75.107-41.977 77.07m41.977-77.07l-119.695 50.52m77.718 26.55l-47.777 77.341m47.777-77.341l-77.718-26.55m242.352 222.54l-133.275-2.55m0 0l-78.112-14.462m78.112 14.462l-74.452-36.183m74.452 36.183l15.481-92.079m-15.481 92.079l-61.215-96.591m61.215 96.591l-135.04 8.848 44.941 38.422m0 0l11.987-61.732m-11.987 61.732l-65.829-22.012m65.829 22.012l-29.007 90.463m40.994-152.195l-25.912-1.058m25.912 1.058l3.66-21.721m0 0l-29.572 20.663m29.572-20.663l13.237-60.408m-13.237 60.408l-93.702-41.925M468.889 210.9l-73.591-18.682m-21.026-5.338L344.331 82.99m29.941 103.89l21.026 5.338m-21.026-5.338l-16.322-.149M344.331 82.99l-76.999 107.72m90.618-3.98l-78.4 35.588m78.4-35.588l17.121 9.828m-17.121-9.828l-90.618 3.98m90.618-3.98l-17.058-21.94-100.117-24.699m38.775 82.227l5.704 2.552m-5.704-2.552l-50.751 44.487m50.751-44.487l-12.218-31.608m12.218 31.608l-96.658 8.337m166.492 56.803l25.687-90.9m-25.687 90.9l-51.904 40.778m51.904-40.778L203.31 255.981l51.892 52.088m94.182-20.61l-82.052-96.748m127.966 1.507l-3.105 14.17m0 0l-17.122-9.829M234.074 378.054l100.228 62.658m-100.228-62.658l63.406-49.817m-63.406 49.817l-24.499 80.176m24.499-80.176l-88.54-34.337m88.54 34.337l-21.15-90.154m121.378 152.812L297.48 328.237m36.822 112.475l-37.647.742-87.08 16.776m87.905-129.993l-12.226-103.366m12.226 103.366l-42.278-20.168M212.924 287.9l-2.579-4.917m2.579 4.917l42.278 20.169m-44.857-25.086l18.454-16.177m-18.454 16.177c-21.094 18.7-63.586 57.027-64.811 60.734m64.811-60.734l-27.453-52.327m72.31 77.413l-26.403-41.263m0 0l38.533-76.095m0 0l-26.557-50.619m0 0l-57.883 90.564m0 0l-37.358 113.061m0 0l64.041 114.513m-64.041-114.513l-37.789 106.951m101.83 7.562l-101.83-7.562m101.83 7.562l-60.121 71.937m-41.709-79.499l41.709 79.499m-41.709-79.499l-55.75 59.885-1.227 34.587 98.686-14.973M79.783 359.28l-39.827-29.456m39.827 29.456l16.986 20.365-53.106 44.19m36.12-64.555l43.538-102.45m-83.365 72.994l83.365-72.994m-83.365 72.994l3.707 94.011m-3.707-94.011l-98.725 22.374m98.725-22.374L1.405 288.598m38.551 41.226l-6.256-82.71m89.621 9.716l-89.62-9.716m89.62 9.716L90.869 147.133M33.7 247.114l57.17-99.981M33.7 247.114c-4.945-19.501-15.028-59.184-15.79-61.913m15.79 61.913l-93.409-26.666M90.87 147.133c-24.638 11.552-73.723 35.339-72.96 38.068m72.96-38.068l-119.594-23.219m46.634 61.287l-77.618 35.247m77.618-35.247l-46.634-61.287m72.388 299.921L-58.77 352.198m0 0l-53.259-52.082m53.259 52.082l-39.057-67.081m39.057 67.081l60.174-63.6m-60.174 63.6l2.819-107.196m-2.82 107.196l-109.763-63.685 14.91 53.402m0 0l41.595-41.799m-41.595 41.799l-39.749-51.541m39.749 51.541l-69.861 55.273m111.456-97.072l-19.622-14.366m19.622 14.366l14.202-14.999m0 0l-33.824.633m33.824-.633l41.875-40.115m-41.875 40.115l-51.045-81.612M1.405 288.598l-47.533-53.005m-13.58-15.145l30.983-96.534m-30.983 96.534l13.58 15.145m-13.58-15.145l-12.631-8.646m43.614-87.888l-116.247 43.628m72.633 44.26l-79.639-13.265m79.639 13.265l8.194 16.6m-8.194-16.6l-72.633-44.26m72.633 44.26l-1.815-25.997-65.041-71.552m-12.783 84.284l3.107 4.968m-3.107-4.968l-62.763 8.114m62.763-8.114l7.006-30.995m-7.006 30.995l-79.613-44.024m99.941 131.237l67.505-57.348m-67.505 57.348l-61.722 4.624m61.722-4.624l-97.279-100.848 13.18 67.674m84.099 33.174l-13.322-118.208m98.844 68.051l-9.822 9.409m0 0l-8.195-16.6m-204.629 67.621l45.29 101.165m-45.29-101.165l75.402-5.649m-75.402 5.649l-60.975 49.621m60.975-49.621l-50.99-73.006m50.99 73.006l30.649-81.245m14.641 182.41l30.112-106.814m-30.112 106.814l-29.699-19.097-76.566-32.447m136.377-55.27l44.501-86.869m-44.501 86.869l-22.377-37.798m-22.376-37.798l.561-5.177m-.561 5.177l22.376 37.798m-21.815-42.975l22.823-2.95m-22.823 2.95c-26.195 3.536-79.309 11.17-82.2 13.416m82.2-13.416l5.973-55.088m15.842 98.063l1.008-45.925m0 0l69.769-39.109m0 0l5.777-53.289m0 0l-92.396 40.26m0 0l-88.173 68.504m88.173-68.504l-100.07-44.588m11.897 113.092l-9.985 122.627m9.985-122.627l-81.255-19.725m81.255 19.725l-85.316 63.521m85.316-63.521l-11.897-113.092m1.912 235.719l-75.331-59.106m75.331 59.106l-84.405 24.588m82.493-260.307l-69.358 93.367m69.358-93.367l-74.982 29.249m74.982-29.249l-112.707-28.757 37.725 58.006m5.624 64.118l-4.061 83.246m4.061-83.246l-42.279-15.995-22.484 8.974m64.763 7.021l-5.624-64.118m1.563 147.364l-9.074 83.694m9.074-83.694l-71.122 5.851-9.39 7.251 71.438 70.592m9.074-83.694l-60.702-90.267m0 0l4.785-44.136 54.354-12.961" stroke="#D9D9D9"/></svg>