<svg width="375" height="306" fill="none" xmlns="http://www.w3.org/2000/svg"><path opacity=".45" d="M547.99 192.83l-51.098 13.405m51.098-13.405l28.276-.503 1.223 73.665M547.99 192.83L491.959 88.173m4.933 118.062l-4.933-118.062m4.933 118.062l80.597 59.757m-80.597-59.757l-47.396 96.992m47.396-96.992l-60.024 4.479m60.024-4.479l-72.909-50.085m67.976-67.977l-67.976 67.977m67.976-67.977L379.115 41.817m44.868 114.333L379.115 41.817m44.868 114.333c-19.51-8.925-59.224-27.072-62.002-28.262m62.002 28.262l-84.593 59.795m39.725-174.128c-6.869 28.195-19.912 84.881-17.134 86.071m17.134-86.07l-99.232 83.857m82.098 2.213l-22.591 88.057m22.591-88.057l-82.098-2.213m297.606 140.317l-127.993 37.235m0 0l-78.876 9.443m78.876-9.443l-81.848-12.383m81.848 12.383l-12.628-92.513m12.628 92.513l-87.191-73.993m87.191 73.993L323.21 351.868l54.34 23.304m0 0l-6.93-62.502m6.93 62.502l-69.397-1.42m69.397 1.42l-.766 94.997M370.62 312.67l-25.053 6.703m25.053-6.703l-2.972-21.826m0 0l-22.081 28.529m22.081-28.529l-5.343-61.61m5.343 61.61L265.714 278.71m171.154-67.996l-75.816 4.068m-21.662 1.163l-59.507-90.27m59.507 90.27l21.662-1.163m-21.662 1.163l-15.627 4.716m-43.88-94.986l-41.446 125.758m85.326-30.772l-64.254 57.31m64.254-57.31l19.271 4.286m-19.271-4.286l-85.326 30.772m85.326-30.772l-22.816-15.869-102.93 6.221m61.492 66.958l6.205.739m-6.205-.739L224.3 335.547m35.209-57.576l-21.072-26.538m21.072 26.538l-89.796 36.73m175.854 4.672l-2.533-94.426m2.533 94.426l-37.414 54.379m37.414-54.379l-148.822 13.428 65.043 34.28m83.779-47.708l-107.13-67.94m122.615-36.651l1.253 14.452m0 0l-19.271-4.287m-80.586 215.236l114.336 29.986m-114.336-29.986l45.705-66.431m-45.705 66.431l.477 83.835m-.477-83.835l-94.747-6.427m94.747 6.427l-47.025-79.772m161.361 109.758l-68.631-96.417m68.631 96.417l-35.719 11.914-78.14 41.935m45.228-150.266l-42.439-95.042m42.439 95.042l-46.365-6.671m-46.365-6.67l-3.926-3.927m3.926 3.927l46.365 6.67m-50.291-10.597l12.803-20.937m-12.803 20.937c-14.571 24.131-43.73 73.369-43.796 77.272m43.796-77.272l-41.784-41.783m92.075 52.38L224.3 335.547m0 0l14.137-84.114m0 0l-40.42-40.42m0 0l-28.304 103.688m0 0l-2.012 119.055m0 0l95.224 90.262m-95.224-90.262l-4.242 113.352m99.466-23.09l-99.466 23.09m99.466-23.09L226.94 610.59m-63.481-63.482l63.481 63.482m-63.481-63.482l-35.399 73.765 9.124 33.384 89.756-43.667M79.783 410.281l-39.827-29.457m39.827 29.457l16.986 20.364-53.106 44.19m36.12-64.554L123.32 307.83m-83.365 72.994l83.365-72.994m-83.365 72.994l3.707 94.011m-3.707-94.011l-98.725 22.374m98.725-22.374l-38.55-41.226m38.551 41.226l-6.256-82.71m89.621 9.716l-89.62-9.716m89.62 9.716L90.869 198.133M33.7 298.114l57.17-99.981M33.7 298.114c-4.945-19.501-15.028-59.184-15.79-61.913m15.79 61.913l-93.409-26.666M90.87 198.133c-24.638 11.552-73.723 35.339-72.96 38.068m72.96-38.068l-119.594-23.219m46.634 61.287l-77.618 35.247m77.618-35.247l-46.634-61.287m72.388 299.921L-58.77 403.198m0 0l-53.259-52.082m53.259 52.082l-39.057-67.081m39.057 67.081l60.174-63.6m-60.174 63.6l2.819-107.196m-2.82 107.196l-109.763-63.685 14.91 53.402m0 0l41.595-41.799m-41.595 41.799l-39.749-51.541m39.749 51.541l-69.861 55.273m111.456-97.072l-19.622-14.366m19.622 14.366l14.202-14.999m0 0l-33.824.633m33.824-.633l41.875-40.115m-41.875 40.115l-51.045-81.612M1.405 339.598l-47.533-53.005m-13.58-15.145l30.983-96.534m-30.983 96.534l13.58 15.145m-13.58-15.145l-12.631-8.646m43.614-87.888l-116.247 43.629m72.633 44.259l-79.639-13.265m79.639 13.265l8.194 16.6m-8.194-16.6l-72.633-44.259m72.633 44.259l-1.815-25.997-65.041-71.552m-12.783 84.284l3.107 4.968m-3.107-4.968l-62.763 8.114m62.763-8.114l7.006-30.994m-7.006 30.994l-79.613-44.024m99.941 131.237l67.505-57.348m-67.505 57.348l-61.722 4.624m61.722-4.624l-97.279-100.848 13.18 67.674m84.099 33.174l-13.322-118.207m98.844 68.05l-9.822 9.409m0 0l-8.195-16.6m-204.629 67.621l45.29 101.165m-45.29-101.165l75.402-5.649m-75.402 5.649l-60.975 49.621m60.975-49.621l-50.99-73.006m50.99 73.006l30.649-81.245m14.641 182.41l30.112-106.814m-30.112 106.814l-29.699-19.097-76.566-32.447m136.377-55.27l44.501-86.869m-44.501 86.869l-22.377-37.798m-22.376-37.798l.561-5.177m-.561 5.177l22.376 37.798m-21.815-42.975l22.823-2.95m-22.823 2.95c-26.195 3.536-79.309 11.17-82.2 13.416m82.2-13.416l5.973-55.088m15.842 98.063l1.008-45.925m0 0l69.769-39.108m0 0l5.777-53.29m0 0l-92.396 40.26m0 0l-88.173 68.504m88.173-68.504l-100.07-44.587m11.897 113.091l-9.985 122.627m9.985-122.627l-81.255-19.725m81.255 19.725l-85.316 63.521m85.316-63.521l-11.897-113.091m1.912 235.718l-75.331-59.106m75.331 59.106l-84.405 24.588m82.493-260.306l-69.358 93.366m69.358-93.366l-74.982 29.248m74.982-29.248l-112.707-28.758 37.725 58.006m5.624 64.118l-4.061 83.246m4.061-83.246l-42.279-15.995-22.484 8.974m64.763 7.021l-5.624-64.118m1.563 147.364l-9.074 83.694m9.074-83.694l-71.122 5.851-9.39 7.251 71.438 70.592m9.074-83.694l-60.702-90.267m0 0l4.785-44.136 54.354-12.961" stroke="#D9D9D9"/></svg>