<svg width="1920" height="1028" fill="none" xmlns="http://www.w3.org/2000/svg"><g clip-path="url(#clip0)" stroke="#D9D9D9"><path opacity=".45" d="M1741.42 336.054l66.72 97.071m-66.72-97.071l-22.42-58.94 153.62-58.211m-131.2 117.151l-177.24 196.602m243.96-99.531l-243.96 99.531m243.96-99.531l64.48-214.222m-64.48 214.222l239.28 26.168m-239.28-26.168l54.74 122.542m-54.74-122.542l-50 190.79m-193.96-91.259l193.96 91.259m-193.96-91.259l-12.01 271.75m205.97-180.491l-205.97 180.491m205.97-180.491c-3.99 47.671-12.06 144.694-12.46 151.42m12.46-151.42l189.34 132.299m-395.31 48.192c64.34-6.888 193.12-22.345 193.51-29.071m-193.51 29.071l250.89 144.834m-57.38-173.905l201.8-19.121m-201.8 19.121l57.38 173.905m69.56-730.337l174.8 240.39m0 0l79.39 158.34m-79.39-158.34l35.85 181.061m-35.85-181.061l-184.54 96.374m184.54-96.374l-89.37 238.809m89.37-238.809l197.44 228.192 7.84-131.604m0 0l-125.89 61.752m125.89-61.752l49.44 146.66m-49.44-146.66l199.87-70.151m-325.76 131.903l32.99 47.495m-32.99-47.495l-43.54 22.721m0 0l76.53 24.774m-76.53-24.774l-125.22 57.748m125.22-57.748l51.54 223.013m-271.93-307.7l65.8 155.981m18.8 44.566L1803.06 949.24m144.42-193.026l-18.8-44.566m18.8 44.566l21.7 29.221M1803.06 949.24l295.13-8.044m-129.01-155.761l168.77 91.506m-168.77-91.506l-5.56-43.667m5.56 43.667l129.01 155.761m-129.01-155.761l-16.06 59.851 90.8 211.234m94.03-179.579l-3.14-13.574m3.14 13.574l147.38 30.373m-147.38-30.373l-39.76 64.255m39.76-64.255l144.88 160.639M2159.8 665.128l-196.18 76.64m196.18-76.64l142.34 37.413m-142.34-37.413l140.58 302.07 22.79-162.35m-163.37-139.72l-61.61 276.068m-169.51-229.548l29.37-13.546m0 0l5.57 43.666m512.41 6.477l-23.46-262.515m23.46 262.515l-173.89-45.704m173.89 45.704l175.52-64.327m-175.52 64.327l58.09 203.623m-58.09-203.623L2344.2 907.156m108.37-421.426l-150.43 216.811m150.43-216.811l51.98 65.936 147 132.252m-349.41 18.623l-167.33 160.826m167.33-160.826l21.03 102.307m21.03 102.308l-5.27 11.203m5.27-11.203l-21.03-102.308m15.76 113.511l-53.6-11.045m53.6 11.045c61.63 12.34 186.95 36.319 195.19 33.509m-195.19-33.509l-56.1 119.221m40.34-232.732l-37.84 102.466m0 0l-187.14 33.882m0 0l-54.27 115.324m0 0l238.91-18.94m0 0l251.29-85.712m0 0l117.43-267.95m-117.43 267.95l241-76.722m-123.57-191.228l123.57 191.228m-123.57-191.228l208.8 10.098m-85.23 181.13l85.23-181.13m-85.23 181.13l181.49 18.542-96.26-199.672M219.138 736.272l-107.856-19.95m107.856 19.95l53.575 24.035-62.778 139.498m9.203-163.533l-12.829-246.149m-95.027 226.199l95.027-226.199m-95.027 226.199l98.653 183.483m-98.653-183.483L-63.458 856.7m174.74-140.378L-5.461 671.711m116.743 44.611l-92.753-158.52m187.78-67.679l-187.78 67.679m187.78-67.679L35.224 303.333M18.53 557.802l16.695-254.469M18.53 557.802c-28.775-34.005-87.367-103.186-91.535-107.876M18.53 557.802l-211.774 37.626m228.47-292.095C-2.59 350.244-77.176 445.236-73.007 449.926m108.23-146.593l-260.538 69.908m152.308 76.685l-120.239 145.502m120.239-145.502l-152.308-76.685m435.249 526.564L-63.459 856.7m0 0l-156.552-51.935M-63.459 856.7l-142.854-95.572M-63.459 856.7L-5.46 671.711m-58 184.989l-98.468-216.058M-63.459 856.7l-280.263-20.163 81.519 91.793m0 0l42.192-123.565m-42.192 123.565l-129.143-63.974m129.143 63.974l-85.359 177.82m127.551-301.385l-52.995-9.538m52.995 9.538l13.698-43.637m0 0l-66.693 34.099m66.693-34.099l44.386-120.486m-44.386 120.486l-180.816-112.849m381.668 23.432l-146.054-59.331m-41.73-16.952l-32.069-222.187m32.069 222.187l41.73 16.952m-41.73-16.952l-33.529-4.943m1.46-217.244l-188.973 199.687m187.513 17.557l-171.362 50.925m171.362-50.925l32.423 25.079m-32.423-25.079l-187.513-17.557m187.513 17.557l-28.852-49.973-198.903-79.24m56.393 180.138l11.007 6.869m-11.007-6.869l-117.021 77.083m117.021-77.083l-16.151-68.482m16.151 68.482l-201.174-10.311m326.304 164.128l78.655-179.663m-78.655 179.663l-118.34 69.129m118.34-69.129l-291.502-106.238 91.935 121.874m199.567-15.636l-141.281-222.299m262.772 39.452l-10.412 28.262m0 0l-32.424-25.078m-341.561 333.242l188.35 157.344m-188.35-157.344l144.566-84.45m-144.566 84.45l-73.164 157.944m73.164-157.944l-172.352-95.776m172.352 95.776l-17.889-191.437m206.239 348.781l-43.784-241.794m43.784 241.794l-77.642-9.17-183.872 9.77m217.73-242.394l4.217-216.077m-4.217 216.077l-81.227-53.493m-81.228-53.494l-3.909-10.846m3.909 10.846l81.228 53.494m-85.137-64.34l42.553-28.03m-42.553 28.03c-48.696 32.471-146.982 99.23-150.554 106.507m150.554-106.507l-41.6-115.424m126.737 179.764l-42.584-92.37m0 0l100.87-145.565m0 0l-40.242-111.656m0 0L-599.31 631.099m0 0L-708.264 853.03m108.954-221.931l-242.431 8.429m133.477 213.502l99.188 253.72m-99.188-253.72l-180.85 39.639m180.85-39.639l-108.108 209.24m108.108-209.24l-133.477-213.502m232.665 467.222l-207.296-44.48m207.296 44.48l-144.092 130.88m-88.573-598.102l-47.373 253.141m47.373-253.141l-120.817 131.005m120.817-131.005l-252.209 52.2 131.392 78.805m73.444 122.136l72.742 169.601m-72.742-169.601l-99.666 9.218-36.03 39.688m135.696-48.906l-73.444-122.136m146.186 291.737l63.204 175.36m-63.204-175.36l-135.851 80.7-11.647 23.54 210.702 71.12m-63.204-175.36l-208.438-120.695m0 0l-33.33-92.476 95.582-78.566"/></g><defs><clipPath id="clip0"><path fill="#fff" d="M0 0h1920v1028H0z"/></clipPath></defs></svg>