<svg width="1920" height="815" fill="none" xmlns="http://www.w3.org/2000/svg"><path opacity=".45" d="M1506.89 645.717l60.74-63.118m-60.74 63.118l-23.6 40.521 105.64 61.364m-82.04-101.885l-106.16-165.768m166.9 102.65l-166.9-102.65m166.9 102.65l21.3 165.003m-21.3-165.003l178.74 9.859m-178.74-9.859l55.04-83.261m-55.04 83.261l-13.51-146.052m-153.39 43.402l153.39-43.402m-153.39 43.402l24.19-200.838m129.2 157.436l-129.2-157.436m129.2 157.436c2.86-35.46 8.72-107.625 9.25-112.608m-9.25 112.608l154.98-74.072m-284.18-83.364c46.37 12.866 138.97 39.845 138.45 44.828m-138.45-44.828l201.66-75.797m-63.21 120.625l145.73 38.536m-145.73-38.536l63.21-120.625m-37.65 544.288l157.44-155.144m0 0l77.47-106.531m-77.47 106.531l48.29-128.489m-48.29 128.489l-123.7-93.12m123.7 93.12l-36.57-186.064m36.57 186.064l172.57-143.445-10.23 97.508m0 0l-84.87-60.594m84.87 60.594l54.08-101.598m-54.08 101.598l138.12 75.741m-222.99-136.335l29.97-30.841m-29.97 30.841l-29.18-21.958m0 0l59.15-8.883m-59.15 8.883l-84.86-57.575m84.86 57.575l64.89-157.363m-236.88 192.732l67.23-106.449m19.2-30.414l-82.52-159.161m82.52 159.161l-19.2 30.414m19.2-30.414l19.47-18.805m-101.99-140.356l215.56 41.743m-113.57 98.613l134.93-46.642m-134.93 46.642l-9.38 31.362m9.38-31.362l113.57-98.613m-113.57 98.613l-4.51-45.862 92.27-143.956m47.17 143.176l-3.95 9.578m3.95-9.578l111.83-4.386m-111.83 4.386l-21.36-51.971m21.36 51.971l125.81-100.264m-135.5 258.322l-134.62-80.054m134.62 80.054l108.98-10.163m-108.98 10.163l139.83-204.552-3 121.88m-136.83 82.672l-11.67-210.029M1689.9 392.889l19.9 13.505m0 0l9.39-31.362m376.73 57.475l-49.09 189.755m49.09-189.755l-133.13 12.416m133.13-12.416l120.97 68.51m-120.97-68.51l67.35-142.342m-67.35 142.342l-77.42-132.601m28.33 322.356l-84.04-177.339m84.04 177.339l46.14-42.065 123.92-79.18m-254.1-56.094l-103.24-138.317m103.24 138.317l27.85-72.509m27.86-72.508l-2.51-8.859m2.51 8.859l-27.86 72.508m25.35-81.367l-40.66 1.595m40.66-1.595c46.72-1.57 141.57-3.944 147.28-.882m-147.28.882l-26.68-94.283m1.33 175.65l-15.31-79.772m0 0l-133.19-47.585m0 0l-25.81-91.205m0 0l172.98 42.912m0 0l173.96 93.401m0 0l53.62 210.852m-53.62-210.852l167.5 85.558m-113.88 125.294l113.88-125.294m-113.88 125.294l154.42 17.948m-40.54-143.242l40.54 143.242m-40.54-143.242l135.41 8.435-94.87 134.807m-2199.833-6.761l-73.81-23.491m73.81 23.491l35.418 21.565-56.289 92.203m20.871-113.768l12.721-173.596m-86.53 150.105l86.53-150.105m-86.53 150.105l52.938 137.259M97.668 488.713l-134.814 82.945m134.814-82.945L19.806 447.16m77.862 41.553L46.66 369.465m137.537-30.857L46.661 369.465m137.537-30.857L80.801 192.644m-34.14 176.821l34.14-176.821m-34.14 176.821C29.5 343.102-5.452 289.462-7.959 285.809m54.62 83.656l-151.698 7.686M80.801 192.644c-30.631 29.533-91.267 89.512-88.76 93.165m88.76-93.165l-188.712 26.003m99.952 67.162l-97.078 91.342m97.078-91.342l-99.952-67.162m258.517 407.325l-187.752-54.314m0 0l-105.107-50.196m105.107 50.196l-91.661-79.562m91.661 79.562L19.806 447.16m-56.952 124.498l-49.936-160.066m49.936 160.066l-194.588-38.846 49.021 71.505m0 0l40.46-82.855m-40.46 82.855l-84.842-56.213m84.842 56.213l-75.491 117.063m115.951-199.918l-36.291-11.356m36.291 11.356l13.446-29.366m0 0l-49.737 18.01m49.737-18.01l41.725-80.504m-41.725 80.504l-116.737-95.015m265.35 50.079l-97.1-54.452m-27.743-15.557l-2.874-158.504m2.874 158.504l27.743 15.557m-27.743-15.557l-23.057-6.421m20.183-152.083l-150.015 123.244m129.832 28.839l-124.556 20.567m124.556-20.567l20.506 20.431m-20.506-20.431l-129.832-28.839m129.832 28.839l-15.807-37.558-132.373-73.062m23.624 131.187l7.106 5.784m-7.106-5.784l-88.789 43.688m88.789-43.688l-5.276-49.406m5.276 49.406l-140.043-24.967m214.149 143.776l70.956-118.945m-70.956 118.945l-89.011 37.998m89.011-37.998L-373.415 409.96l53.666 93.5m141.205 6.646l-79.382-168.215m180.632 50.817l-9.788 18.884m0 0l-20.506-20.431m-268.705 203.362l118.089 126.857m-118.089-126.857l108.738-46.419m-108.738 46.419l-65.193 104.213m65.193-104.213l-112.313-82.306m112.313 82.306l4.349-135.708m113.74 262.565l-9.351-173.276m9.351 173.276l-53.591-13.271-129.691-9.373m173.931-150.632l22.011-151.023m-22.011 151.023l-52.194-44.644m-52.195-44.645l-1.782-7.944m1.782 7.944l52.195 44.645m-53.977-52.589l32.287-15.886m-32.287 15.886c-36.983 18.456-111.735 56.563-114.88 61.346m114.88-61.346l-18.967-84.541m72.944 137.13l-21.69-68.475m0 0l83.513-93.094m0 0l-18.348-81.781m0 0l-116.419 106.22m0 0l-95.913 145.887m95.913-145.887l-170.603-15.476m74.69 161.363l47.12 186.519m-47.12-186.519l-130.208 11.823m130.208-11.823l-94.199 137.07m94.199-137.07l-74.69-161.363m121.81 347.882l-141.319-49.449m141.319 49.449l-112.502 78.993m-9.308-426.875l-55.518 173.186m55.518-173.186l-96.205 81.134m96.205-81.134l-181.314 14.33 85.109 66.804m40.687 92.052l36.009 125.247m-36.009-125.247l-70.644-2.332-28.743 24.63m99.387-22.298l-40.687-92.052m76.696 217.299l28.817 128.442m-28.817-128.442l-102.302 44.559-10.237 15.471 141.356 68.412m-28.817-128.442l-135.396-102.949m0 0l-15.197-67.733 73.897-46.617" stroke="#D9D9D9"/></svg>