<svg width="1920" height="762" fill="none" xmlns="http://www.w3.org/2000/svg"><path opacity=".45" d="M-156.571 410.475l76.097 17.676m-76.097-17.676l-37.343-18.83 49.169-97.229m-11.826 116.059l1.184 175.554m74.913-157.878l-74.913 157.878m74.913-157.878l-64.271-133.735m64.271 133.735L48.388 333.91m-128.862 94.241l81.626 35.51m-81.626-35.51l60.88 115.784m-135.793 42.094l135.792-42.094m-135.792 42.094l115.701 138.425m20.091-180.519l-20.09 180.519m20.09-180.519c19.377 25.123 58.834 76.238 61.648 79.709m-61.647-79.709L132.3 523.997M-39.686 724.454c28.419-32.157 84.553-97.338 81.739-100.81m-81.739 100.81l187.634-41.332M42.053 623.644l90.248-99.647m-90.248 99.647l105.895 59.478m-292.693-388.706L48.388 333.91m0 0l109.713 42.005M48.388 333.91l98.559 72.611M48.388 333.91L1.152 463.661M48.388 333.91l63.088 156.906M48.388 333.91l198.761 23.391-55.039-67.943m0 0l-34.009 86.557m34.009-86.557l89.822 49.686m-89.822-49.686l66.473-123.769M158.101 375.915l37.4 8.496m-37.4-8.496l-11.154 30.606m0 0l48.554-22.11m-48.554 22.11l-35.471 84.295m35.471-84.295l125.011 86.13M1.152 463.661l102.004 46.928m29.145 13.408l15.647 159.125m-15.647-159.125l-29.145-13.408m29.145 13.408l23.697 4.6m-8.05 154.525L288.85 547.141m-132.852-18.544l123.57-30.704m-123.57 30.704l-22.261-18.89m22.261 18.89l132.852 18.544m-132.852-18.544l18.916 36.487 138.965 62.801m-34.311-129.992l-7.61-5.242m7.61 5.242l85.75-51.069m-85.75 51.069l9.282 49.248m-9.282-49.248l142.806 13.829M195.501 384.411l-61.764 125.296m61.764-125.296l86.431-45.367m-86.431 45.367l203.979 84.998L338 379.727m-142.499 4.684l93.349 162.73m-185.694-36.552l8.32-19.773m0 0l22.261 18.891m253.782-226.084L258.583 165.589m128.936 118.034l-105.587 55.421m105.587-55.421l57.155-110.021m-57.155 110.021l119.541 73.708m-119.541-73.708l6.55 136.787M258.583 165.589l23.349 173.455m-23.349-173.455l54.948 9.029 131.143-1.016M281.932 339.044l-9.974 153.607m9.974-153.607L338 379.727m56.069 40.683l2.431 7.843m-2.431-7.843L338 379.727m58.5 48.526l-31.182 18.571m31.182-18.571c35.696-21.531 107.783-65.86 110.56-70.922M396.5 428.253l25.874 83.469M338 379.727l27.318 67.097m0 0L288.85 547.141m0 0l25.029 80.744m0 0l108.495-116.163m0 0l84.686-154.391m-84.686 154.391l172.766 1.828m-88.08-156.219l-62.386-183.729m62.386 183.729l129.956-22.367M507.06 357.331l83.673-145.389M507.06 357.331l88.08 156.219M444.674 173.602l146.059 38.34m-146.059-38.34l106.748-88.473M595.14 513.55l41.876-178.586M595.14 513.55l90.191-89.314M595.14 513.55l181.135-29.002-90.944-60.312m-48.315-89.272l-46.283-123.022m46.283 123.022l71.211-3.342 26.916-27.076m-98.127 30.418l48.315 89.272m-94.598-212.294L551.422 85.129m39.311 126.813l99.265-53.033 9.046-16.378-147.622-57.402m39.311 126.813l144.41 92.604m0 0l20.73 66.874-70.542 52.816" stroke="#D9D9D9"/><path opacity=".45" d="M1879.36 602l-76.46-61.173M1879.36 602l32.03 41.501-108.22 83.312M1879.36 602l93.68-199.117M1802.9 540.827l170.14-137.944M1802.9 540.827l.27 185.986m-.27-185.986l-196.7 36.8m196.7-36.8l-73.07-84.326m73.07 84.326l-6.16-163.853m176.3 25.909l-176.3-25.909m176.3 25.909l-55.88-219.126m-120.42 193.217l120.42-193.217m-120.42 193.217c-8.31-38.892-25.25-118.037-26.56-123.485m26.56 123.485l-182.52-59.675m302.94-133.542c-49.54 20.974-148.28 64.284-146.98 69.732m146.98-69.732l-234.51-54.829m87.53 124.561l-155.96 63.81m155.96-63.81l-87.53-124.561m120.52 597.885L1606.2 577.627m0 0l-101.31-106.874m101.31 106.874l-72.13-135.439m72.13 135.439l123.63-121.126M1606.2 577.627l13.6-211.542m-13.6 211.542l-212.06-134.028 25.46 106.606m0 0l85.29-79.452m-85.29 79.452l-74.66-104.792m74.66 104.792l-142.15 103.951m227.44-183.403l-37.68-29.848m37.68 29.848l29.18-28.565m0 0l-66.86-1.283m66.86 1.283l85.73-76.103m-85.73 76.103l-94.72-165.04m290.48 179.353l-89.92-108.268m-25.69-30.934l68.43-188.371m-68.43 188.371l25.69 30.934m-25.69-30.934l-24.31-18.026m92.74-170.345l-232.9 77.472m140.16 92.873l-156.32-32.171m156.32 32.171l14.95 33.406m-14.95-33.406L1449.75 206.4m140.16 92.873l-1.63-51.49-123.12-146.218m-31.57 165.537l5.76 10.046m-5.76-10.046L1309 278.426m124.59-11.324l16.16-60.702m-16.16 60.702l-153.97-92.93m187.59 266.733l137.65-108.226m-137.65 108.226l-122.27 4.508m122.27-4.508L1282.6 234.401l20.97 134.67m163.64 71.834L1449.75 206.4m190.16 141.833l-20.11 17.852m0 0l-14.94-33.406m-409.29 118.242l81.88 203.235m-81.88-203.235l149.37-5.508m-149.37 5.508l-124.17 93.452m124.17-93.452l-95.26-148.036m95.26 148.036l66.63-158.193m15.25 361.428l67.49-208.743m-67.49 208.743l-57.23-39.949-148.82-69.834m273.54-98.96l94.41-168.265m-94.41 168.265l-41.37-76.342m-41.37-76.343l1.5-10.184m-1.5 10.184l41.37 76.343m-39.87-86.527l45.3-4.118m-45.3 4.118c-52.02 5.022-157.51 16.121-163.39 20.341m163.39-20.341l15.92-108.372m23.95 194.899l5.43-90.645m0 0l140.75-72.026m0 0l15.41-104.835m0 0l-185.54 72.607m0 0l-179.31 128.713m0 0l-28.91 241.488m28.91-241.488L927.019 421.971M1071.4 544.373L927.019 421.971M1071.4 544.373L902.824 586.62m24.195-164.649L902.824 586.62m24.195-164.649l-148.877 28.95-39.563 50.503 164.245 85.196" stroke="#D9D9D9"/></svg>