<svg width="1920" height="779" fill="none" xmlns="http://www.w3.org/2000/svg"><path opacity=".45" d="M-295.571 418.475l76.097 17.676m-76.097-17.676l-37.343-18.83 49.169-97.229m-11.826 116.059l1.184 175.554m74.913-157.878l-74.913 157.878m74.913-157.878l-64.271-133.735m64.271 133.735l128.862-94.241m-128.862 94.241l81.626 35.51m-81.626-35.51l60.879 115.784m-135.792 42.094l135.792-42.094m-135.792 42.094l115.701 138.425m20.091-180.519l-20.091 180.519m20.091-180.519c19.377 25.123 58.834 76.238 61.648 79.709m-61.648-79.709l151.896-19.938m-171.987 200.457c28.419-32.157 84.553-97.338 81.739-100.81m-81.739 100.81L8.948 691.122m-105.895-59.478l90.248-99.647m-90.248 99.647L8.948 691.122m-292.693-388.706l193.133 39.494m0 0l109.713 42.005M-90.612 341.91l98.559 72.611m-98.559-72.611l-47.236 129.751m47.236-129.751l63.088 156.906M-90.612 341.91l198.761 23.391-55.04-67.943m0 0l-34.008 86.557m34.009-86.557l89.822 49.686M53.11 297.358l66.473-123.769M19.101 383.915l37.4 8.496m-37.4-8.496L7.947 414.521m0 0l48.554-22.11m-48.554 22.11l-35.47 84.295m35.47-84.295l125.011 86.13m-270.806-28.99l102.004 46.928m29.145 13.408L8.948 691.122M-6.7 531.997l-29.145-13.408M-6.7 531.997l23.697 4.6m-8.05 154.525L149.85 555.141M16.998 536.597l123.57-30.704m-123.57 30.704l-22.26-18.89m22.26 18.89l132.852 18.544M16.998 536.597l18.916 36.487 138.965 62.801m-34.311-129.992l-7.61-5.242m7.61 5.242l85.75-51.069m-85.75 51.069l9.282 49.248m-9.282-49.248l142.806 13.829M56.501 392.411L-5.263 517.707m61.764-125.296l86.431-45.367m-86.431 45.367l203.979 84.998L199 387.727m-142.5 4.684l93.35 162.73m-185.694-36.552l8.32-19.773m0 0l22.261 18.891M248.52 291.623L119.583 173.589m128.936 118.034l-105.587 55.421m105.587-55.421l57.155-110.021m-57.155 110.021l119.541 73.708m-119.541-73.708l6.55 136.787M119.583 173.589l23.349 173.455m-23.349-173.455l54.948 9.029 131.143-1.016M142.932 347.044l-9.974 153.607m9.974-153.607L199 387.727m56.069 40.683l2.431 7.843m-2.431-7.843L199 387.727m58.5 48.526l-31.182 18.571m31.182-18.571c35.696-21.531 107.783-65.86 110.56-70.922M257.5 436.253l25.874 83.469M199 387.727l27.318 67.097m0 0L149.85 555.141m0 0l25.029 80.744m0 0l108.495-116.163m0 0l84.686-154.391m-84.686 154.391l172.766 1.828m-88.08-156.219l-62.386-183.729m62.386 183.729l129.956-22.367M368.06 365.331l83.673-145.389M368.06 365.331l88.08 156.219M305.674 181.602l146.059 38.34m-146.059-38.34l106.748-88.473M456.14 521.55l41.876-178.586M456.14 521.55l90.191-89.314M456.14 521.55l181.135-29.002-90.944-60.312m-48.315-89.272l-46.283-123.022m46.283 123.022l71.211-3.342 26.916-27.076m-98.127 30.418l48.315 89.272m-94.598-212.294L412.422 93.129m39.311 126.813l99.265-53.033 9.046-16.378-147.622-57.402m39.311 126.813l144.41 92.604m0 0l20.73 66.874-70.542 52.816m819.709-53.395l81.91-19.715m-81.91 19.715l-40.11 20.627 53.85 104.434m-13.74-125.061l-.23-189.333m82.14 169.618l-82.14-169.618m82.14 169.618l-68.17 144.776m68.17-144.776l139.78 100.53m-139.78-100.53l87.72-38.994m-87.72 38.994l64.66-125.386m-146.8-44.232l146.8 44.232m-146.8-44.232L1489.4 39.233m23.21 194.507L1489.4 39.233m23.21 194.507c20.68-27.261 62.8-82.723 65.8-86.49m-65.8 86.49l163.98 20.199M1489.4 39.233c30.92 34.436 92.02 104.249 89.01 108.017M1489.4 39.233L1692.1 82.2m-113.69 65.051l98.18 106.689m-98.18-106.689L1692.1 82.2m-312.32 421.703l207.95-44.246m0 0l117.96-46.241m-117.96 46.241l105.66-79.152m-105.66 79.152l-52.06-139.524m52.06 139.524l66.69-169.755m-66.69 169.755l214.15-26.93-58.78 73.744m0 0l-37.41-93.055m37.41 93.055l96.45-54.353m-96.45 54.353l72.75 132.907m-110.16-225.962l40.26-9.483m-40.26 9.483l-12.3-32.911m0 0l52.56 23.428m-52.56-23.428l-38.97-90.603m38.97 90.603l134.08-93.956m-291.8 33.584l109.61-51.483m31.31-14.71L1692.1 82.2m-15.51 171.74l-31.31 14.71m31.31-14.71l25.52-5.163M1692.1 82.199l153.12 145.44m-143.11 21.137l133.53 32.052m-133.53-32.052l-23.85 20.562m23.85-20.562l143.11-21.137m-143.11 21.137l20.09-39.512 149.32-68.917m-35.88 140.481l-8.17 5.72m8.17-5.72l92.91 54.34m-92.91-54.34l9.58-53.189m-9.58 53.189l153.88-16.137m-243.57 139.241l-67.69-134.594m67.69 134.594l93.6 48.185m-93.6-48.185l219.25-93.413-65.54 97.243m-153.71-3.83l99.27-176.293m-199.94 41.01l9.14 21.252m0 0l23.84-20.563m275.63 241.642l-138.04 128.397m138.04-128.397l-114.34-58.863m114.34 58.863l62.58 118.161m-62.58-118.161l128.29-80.514m-128.29 80.514l5.89-147.572m-143.93 275.969l23.7-187.26m-23.7 187.26l59.18-10.208 141.44-.028m-176.92-177.024l-12.08-165.569m12.08 165.569l60.11-44.355m60.12-44.354l2.56-8.48m-2.56 8.48l-60.12 44.354m62.68-52.834l-33.79-19.76m33.79 19.76c38.68 22.915 116.8 70.102 119.84 75.538m-119.84-75.538l27.18-90.237m-89.86 143.071l28.89-72.594m0 0l-83.33-107.529m0 0l26.3-87.292m0 0l118 124.344m0 0l92.66 165.775m0 0l-65.71 198.675m65.71-198.675l91.48 156.076m-157.19 42.599l157.19-42.599m-157.19 42.599l115.88 94.498m41.31-137.097l-41.31 137.097m41.31-137.097l105.39 76.944 12.37 53.795-159.07 6.358" stroke="#D9D9D9"/></svg>