<svg width="1920" height="1185" fill="none" xmlns="http://www.w3.org/2000/svg"><path opacity=".35" d="M437.08 826.412l-53.697-75.634m53.697 75.634l18.354 46.14-120.26 47.673m101.906-93.813l137.198-156.923m-190.895 81.289l190.895-81.289m-190.895 81.289l-48.209 169.447m48.209-169.447l-188.718-17.74m188.718 17.74l-44.565-95.833m44.565 95.833l37.086-150.824m153.809 69.535l-153.809-69.535m153.809 69.535l6.204-214.116M420.469 599.954l160.013-144.581M420.469 599.954c2.567-37.583 7.761-114.074 7.994-119.375m-7.994 119.375l-150.67-101.903m310.683-42.678c-50.576 6.193-151.786 19.905-152.019 25.206m152.019-25.206L381.208 344.336m47.255 136.243l-158.664 17.472m158.664-17.472l-47.255-136.243m-46.034 575.889L194.665 733.038m0 0l-64.408-123.725m64.408 123.725l-30.394-142.136m30.394 142.136l144.153-78.093m-144.153 78.093l67.507-189.104m-67.507 189.104L36.473 555.726l-4.6 103.717m0 0l98.384-50.13m-98.383 50.13L-8.811 544.557m40.684 114.886l-156.535 57.628m254.919-107.758l-26.541-37.002m26.541 37.002l34.014-18.411m0 0l-60.555-18.591m60.555 18.591l97.901-46.968m-97.901 46.968l-43.253-174.98m217.8 239.023l-53.681-122.029m-15.338-34.865l111.409-153.715M269.799 498.051l15.338 34.865m-15.338-34.865l-17.435-22.749m128.844-130.966l-232.287 9.866m103.443 121.1l-133.979-70.031m133.979 70.031l4.904 34.316m-4.904-34.316l-103.443-121.1m103.443 121.1l11.927-47.318-74.024-165.239m-71.882 142.526l2.633 10.651m-2.633-10.651L1.973 383.12m116.412 22.151l30.536-51.069m-30.536 51.069L2.383 280.522m101.333 291.789l153.552-62.693m-153.552 62.693L-8.811 544.557m112.527 27.754L-10.596 336.149l-15.997 128.104m130.309 108.058l45.205-218.109m136.216 178.714l-22.965 11.018m0 0l-4.904-34.316m-403.545 1.034l21.615 206.419m-21.615-206.419l137.466 33.905m-137.466-33.905l-137.428 52.751m137.428-52.751l-48.173-159.635m48.173 159.635l101.902-126.703m-80.287 333.122L-8.811 544.557m-115.851 172.514l-41.714-51.295-117.329-102.373m274.894-18.846l129.829-128.635M-8.811 544.557l-17.782-80.304m-17.782-80.304l4.016-8.884m-4.016 8.884l17.782 80.304m-13.766-89.188l42.332 8.055m-42.332-8.055c-48.675-8.979-147.638-26.359-154.091-24.048m154.091 24.048l42.742-94.543m-28.976 183.731L1.973 383.12m0 0l146.948-28.918m0 0l41.346-91.457m0 0L2.383 280.522m0 0l-196.833 70.495m0 0l-89.255 212.386m89.255-212.386l-188.845 63.295m99.59 149.091l-99.59-149.091m99.59 149.091l-164.527-5.452m64.937-143.639l-64.937 143.639m64.937-143.639l-143.124-12.427-49.189 35.683 127.376 120.383M1921.45 317.38l-77.73 34.849m77.73-34.849l44.84-8.284 21.45 116.852m-66.29-108.568l-116.83-151.641m39.1 186.49l-39.1-186.49m39.1 186.49l144.02 73.719m-144.02-73.719L1794 519.054m49.72-166.825l-94.29 23.012m94.29-23.012l-129.23-60.37m90.13-126.12l-90.13 126.12m90.13-126.12l-191.76-43.867m101.63 169.987l-101.63-169.987m101.63 169.987c-33.4-9.032-101.37-27.385-106.11-28.543m106.11 28.543l-118.73 117.505m17.1-287.492c-3.47 46.666-9.21 140.287-4.48 141.444m4.48-141.444l-135.65 159.655m131.17-18.211l-12.62 146.048m12.62-146.048l-131.17 18.211m510.53 144.421L1794 519.054m0 0l-122.97 35.9m122.97-35.9l-133.47 1.968m133.47-1.968l-44.57-143.813M1794 519.054l-158.28-94.617M1794 519.054l-188 110.799 92.6 22.686m0 0l-27.57-97.585m27.57 97.585l-110.76 16.11m110.76-16.11l23.93 151.309m-51.5-248.894l-38.07 17.292m38.07-17.292l-10.5-33.932m0 0l-27.57 51.224m27.57-51.224l-24.81-96.585m24.81 96.585l-165.35 7.68m254.25-153.461l-119.52 26.54m-34.15 7.583l-118.55-127.837m118.55 127.837l34.15-7.583m-34.15 7.583l-23.61 11.638m-94.94-139.475l-32.64 211.007m127.58-71.532l-87.04 108.168m87.04-108.168l31.79 1.717m-31.79-1.717l-127.58 71.532m127.58-71.532l-40.49-19.203-162.08 37.14m115.53 90.231l10.07-.468m-10.07.468l-40.76 100.904m40.76-100.904l-40.54-36.636m40.54 36.636L1352 611.362m280.96-39.116l-29.02-149.527m29.02 149.527l-45.12 96.403m45.12-96.403l-233.17 60.752 112.53 37.312m120.64-98.064l-188.39-79.712m185.34-90.753l5.81 22.656m0 0l-31.78-1.718m-71.22 363.696l189.81 17.433m-189.81-17.433l55.12-117.766m-55.12 117.766l22.95 133.226m-22.95-133.226l-152.41 14.856m152.41-14.856l-95.91-114.443m285.72 131.876l-134.69-135.199m134.69 135.199l-53.66 28.405-113.2 87.388m32.17-250.992l-92.66-139.947m92.66 139.947l-75.52 1.661m-75.51 1.662l-7.29-5.206m7.29 5.206l75.51-1.662m-82.8-3.544l14.83-36.692m-14.83 36.692c-16.79 42.241-50.13 128.279-49.21 134.505m49.21-134.505L1352 611.362m160.32 58.948l-67.97-40.236m0 0l.22-137.54m0 0l-74.99-53.595m0 0L1352 611.362m0 0l28.31 189.909M1352 611.362l-151.21 112.375m179.52 77.534l175.36 118.37m-175.36-118.37l-98.08 105.143m98.08-105.143l23.26 181.426m-23.26-181.426l-179.52-77.534m354.88 195.904l-152.1 63.056m152.1-63.056l-34.32 147.229m-320.56-343.133l81.44 182.677m-81.44-182.677l-19.39 137.038m19.39-137.038l-138.14 144.661 118.75-7.623m100.83 45.639l121.34 76.283m-121.34-76.283l-59.62 49.875-5.51 41.263m65.13-91.138l-100.83-45.639m222.17 121.922l117.78 84.173m-117.78-84.173l-51.21 111.523 2.95 20.19 166.04-47.54m-117.78-84.173l-186.47 14.855m0 0l-62.11-44.389 26.41-92.388" stroke="#fff"/></svg>