<svg width="1920" height="406" fill="none" xmlns="http://www.w3.org/2000/svg"><path opacity=".45" d="M1836.22 221.782l-108.83 25.42m108.83-25.42l14.97-105.14m-14.97 105.14l106.34 202.043m-215.17-176.623l215.17 176.623m-215.17-176.623l-62.62-128.869m62.62 128.869l-205.35-32.94m205.35 32.94l-73.64 89.579m73.64-89.579l-1.99 170.405m217.16 6.218l-217.16-6.218m217.16 6.218l-86.84 191.288m86.84-191.288l25.84-237.744-117.21-69.439M1725.4 417.607l130.32 197.506M1725.4 417.607c-7.58 40.631-23.06 123.317-24.26 129.012m24.26-129.012l-188.03 66.912m318.35 130.594c-52.03-20.458-155.79-62.798-154.58-68.494m154.58 68.494l-242.17 63.277m87.59-131.771l-163.77-62.1m163.77 62.1l-87.59 131.771m51.22-560.057l186.42-1.691m-186.42 1.691l-142.73 95.929m0 0l-104.57-17.682m104.57 17.682l-71.29 142.658m71.29-142.658l131.71 122.519m-131.71-122.519l19.82 219.42m-19.82-219.42L1305.33 359.22l23.57-111.446m0 0l88.57-51.194m-88.57 51.194l-74.75 110.884m74.75-110.884l-150.48-104.177m239.05 52.983l-36.16 163.473m36.16-163.473l33.28 160.34m0 0l-69.44 3.133m69.44-3.133l91.11 76.762m-91.11-76.762l-93.97 174.021m296.97-194.16l-90.52 114.907m-25.86 32.831l76.18 193.871m-76.18-193.871l25.86-32.831m-25.86 32.831l-24.76 19.383m100.94 174.488l-244.07-74.224m143.13-100.264l-161.55 37.631m161.55-37.631l14.63-35.11m-14.63 35.11l-143.13 100.264m143.13-100.264l-.32 53.541-123.98 155.229m-37.25-171.139l5.72-10.592m-5.72 10.592l-129.75-8.413m129.75 8.413l18.42 62.633m-18.42-62.633l-157.47 100.696m187.72-282.176l145.93 108.739m-145.93-108.739l-127.16-1.395m127.16 1.395l-186.24 219.518 18.16-140.481m168.08-79.037l-11.83 244.113m193.75-152.478l-21.37-18.006m0 0l-14.62 35.11m-428.43-111.837l79.61-213.358m-79.61 213.358l155.34 1.703m-155.34-1.703l-131.519-93.752m131.519 93.752l-94.98 156.369m94.98-156.369l73.49 162.566m6.12-375.924l75.73 215.061m-75.73-215.061l-58.39 43.046-152.739 76.56m286.859 95.455l102.63 172.283m-102.63-172.283l-40.92 80.432m-40.93 80.431l1.83 10.54m-1.83-10.54l40.93-80.431m-39.1 90.971l47.18 3.059m-47.18-3.059c-54.18-3.818-164.08-12.511-170.3-16.737m170.3 16.737l19.46 112.168m19.64-203.139l8.08 94.03m0 0l148.17 71.046m0 0l18.83 108.506m0 0l-194.72-70.443m0 0l-189.76-128.905m0 0l-36.539-250.121m36.539 250.121L822.311 369.353m144.98-106.15l-144.98 106.15m144.98-106.15l-23.797-62.323-152.484 22.967m31.301 145.506L791.01 223.847m31.301 145.506l-158.347 59.078-41.347-112.242 168.393-92.342m0 0l-154.295 2.818m-57.233 271.968l-74.555-37.115m74.555 37.115l34.079 28.746-74.991 88.696m40.912-117.442l42.104-182.352M504.927 461.518l116.659-145.237M504.927 461.518l33.643 154.557m-33.643-154.557l-156.9 65.928m156.9-65.928l-75.886-56.973m75.886 56.973l-34.556-135.101m151.215-10.136l-151.215 10.136m151.215-10.136l14.629-89.651-69.528-57.832m-96.316 157.619l96.316-157.619m-96.316 157.619c-13.893-30.838-42.196-93.586-44.257-97.881m44.257 97.881L307.925 309.6m258.762-140.802c-37.41 26.334-142.635 55.444-140.573 59.738m140.573-59.738l-235.712-28.083m95.139 87.821L307.925 309.6m118.189-81.064l-95.139-87.821m207.595 475.36l-190.543-88.629m0 0l-103.411-70.643m103.411 70.643l-84.288-99.631m84.288 99.631l81.014-122.901m-81.014 122.901l-26.696-178.295m26.696 178.295l-200.354-73.32 40.309 84.047m0 0l56.634-81.37m-56.634 81.37l-80.888-73.699m80.888 73.699L88.494 650.122m156.122-193.319l-36.688-18.043m36.688 18.043l19.123-28.988m0 0l-55.811 10.945m55.811-10.945l57.592-78.664m-57.592 78.664L155.353 307.636m273.688 96.909l-94.201-73.846M307.925 309.6l23.05-168.885M307.925 309.6l26.915 21.099M307.925 309.6l-23.441-10.619m46.491-158.266L169.704 172.4l-51.099 44.465m165.879 82.116l-135.728 1.34m135.728-1.34l18.423 25.085m-18.423-25.085l-165.879-82.116m30.151 83.456l6.597 7.315m-6.597-7.315L47.221 332.117m101.535-31.796l-30.151-83.456m30.151 83.456l-186.84-48.533M207.927 438.76l94.979-114.694M207.928 438.76l-100.834 25.714m100.834-25.714L17.368 300.262 58.99 408.444m148.938 30.316l-89.323-221.895M334.84 330.699l-13.509 18.452m0 0l-18.424-25.085M-16.086 495.887l104.58 154.235m-104.58-154.235l123.18-31.413m-123.18 31.413l-86.43 99.991m86.43-99.991L-121.862 389.94m105.778 105.947l26.97-143.474m77.609 297.709l18.6-185.648m-18.6 185.648l-54.756-22.927-136.254-31.317m209.61-131.404l48.259-156.838m-48.259 156.838l-48.104-56.03m-48.105-56.031l-.585-8.734m.585 8.734l48.105 56.031M10.3 343.679l36.921-11.562M10.3 343.679c-42.334 13.519-128.034 41.697-132.163 46.261M10.3 343.679l-48.385-91.891M58.99 408.444l-11.77-76.327m0 0l71.384-115.252m0 0l-131.458 5.257-25.232 29.666m0 0l-83.778 138.152m83.778-138.152l-136.563-45.598m52.785 183.75l19.347 205.938m-19.347-205.938l-140.294-8.882m140.294 8.882l-122.662 130.125m122.662-130.125l-52.785-183.75m72.132 389.688l-142.009-75.813m142.009 75.813l-132.543 65.403m60.411-455.091l-87.509 174.868m87.509-174.868l-115.58 70.361m115.58-70.361l-195.007-14.634 79.427 84.995m28.071 104.507l17.632 139.007m-17.632-139.007l-74.676-14.111-34.597 21.435m109.273-7.324l-28.071-104.507m45.703 243.514l9.466 141.216m-9.466-141.216L-360.56 550.56l-13.425 14.753 138.925 95.968m-9.466-141.216L-371.43 388.382m0 0l-4.992-74.469 86.194-37.362" stroke="#D9D9D9"/></svg>