<svg width="1920" height="654" fill="none" xmlns="http://www.w3.org/2000/svg"><path opacity=".65" d="M625.055 341.005l-68.276-18.239m68.276 18.239l33.204 18.133-47.339 86.447m14.135-104.58l4.138-158.754m-72.414 140.515l72.414-140.515m-72.414 140.515l54.141 122.819m-54.141-122.819l-119.301 81.382m119.301-81.382l-72.744-34.525m72.744 34.525L505.173 216.28m124.02-34.029l-124.02 34.029m124.02-34.029l-100.5-128.585m-23.52 162.614l23.52-162.614m-23.52 162.614c-16.773-23.29-50.93-70.674-53.371-73.896m53.371 73.896l-137.921 13.519M528.693 53.666c-26.648 28.23-79.333 85.497-76.891 88.718m76.891-88.718L357.826 85.468m93.976 56.916l-84.55 87.415m84.55-87.415l-93.976-56.916M610.92 445.585l-173.442-41.437m0 0l-97.946-41.232m97.946 41.232l-86.953-68.572m86.953 68.572l46.557-115.907m-46.557 115.907l-52.384-143.732m52.384 143.732L258.47 377.103l47.746 63.061m0 0l33.316-77.248m-33.316 77.248l-79.735-47.587m79.735 47.587l-63.771 109.929m97.087-187.177l-33.561-8.791m33.561 8.791l10.993-27.34m0 0l-44.554 18.549m44.554-18.549l34.569-75.16m-34.569 75.16l-110.469-81.58m243.979 34.245l-90.832-45.455m-25.951-12.987l-9.426-144.33m9.426 144.33l25.951 12.987m-25.951-12.987l-21.289-4.862m11.863-139.469L226.401 204.23m119.562 20.707l-112.632 24.094m112.632-24.094l19.566 17.74m-19.566-17.74L226.401 204.23m119.562 20.707l-16.019-33.55-123.777-60.901m27.164 118.545l6.725 4.965m-6.725-4.965l-79.042 43.628m79.042-43.628l-6.93-44.801m6.93 44.801l-128.702-16.74m201.342 121.834l59.558-111.448m-59.558 111.448l-79.49 38.452m79.49-38.452l-181.898-82.899 52.923 82.906m128.975-.007l-79.57-149.895m166.802 38.556l-8.109 17.63m0 0l-19.565-17.739M129.375 439.552l113.07 110.541m-113.07-110.541l97.106-46.975m-97.106 46.975l-54.938 97.775m54.938-97.775L23.484 369.365m105.891 70.187l-1.864-123.865m114.934 234.406l-15.964-157.516m15.964 157.516l-49.411-9.794-118.597-2.972m152.044-144.75l13.575-138.581m-13.575 138.581l-49.485-38.445m-49.485-38.445l-1.965-7.164m1.965 7.164l49.485 38.445m-51.45-45.609l28.743-15.864m-28.743 15.864c-32.912 18.408-99.402 56.347-102.062 60.842m102.062-60.842l-20.917-76.232m72.367 121.841l-22.707-61.473m0 0l72.112-88.429m0 0l-20.234-73.744m0 0L104.629 232.291m0 0L23.484 369.365m81.145-137.074l-156.145-6.778m75 143.852l50.953 167.962M23.484 369.365l-118.159 16.366m118.159-16.366L-56.48 498.33m79.963-128.965l-75-143.852M74.437 537.327L-56.48 498.33m130.916 38.997l-99.138 76.823m-26.815-388.637l-43.159 160.218m43.16-160.218l-84.193 78.073m84.192-78.073l-164.626 20.847 80.434 57.226m41.033 82.145L-56.48 498.33m-38.196-112.599l-64.482.91-25.138 23.681m89.62-24.591l-41.033-82.145M-56.48 498.33l31.778 115.82M-56.48 498.33l-91.32 45.003-8.665 14.539 131.763 56.278M-56.48 498.33l-127.816-88.008m0 0l-16.758-61.077 65.345-45.659M1860.82 495.121l-62.81-50.252m62.81 50.252l26.31 34.092-88.9 68.439m62.59-102.531l76.96-163.571m-139.77 113.319l139.77-113.319m-139.77 113.319l.22 152.783m-.22-152.783l-161.59 30.23m161.59-30.23l-60.03-69.273m60.03 69.273l-5.06-134.603m144.83 21.284l-144.83-21.284m144.83 21.284l-45.91-180.007m-98.92 158.723l98.92-158.723m-98.92 158.723c-6.83-31.949-20.75-96.965-21.82-101.441m21.82 101.441l-149.94-49.021m248.86-109.702c-40.69 17.229-121.81 52.807-120.74 57.282m120.74-57.282l-192.64-45.042m71.9 102.324l-128.12 52.42m128.12-52.42l-71.9-102.324m99 491.151l-161.81-122.553m0 0l-83.22-87.795m83.22 87.795l-59.25-111.26m59.25 111.26l101.56-99.503m-101.56 99.503l11.18-173.778m-11.18 173.778l-174.2-110.102 20.91 87.575m0 0l70.07-65.268m-70.07 65.268l-61.33-86.084m61.33 86.084l-116.77 85.394m186.84-150.662l-30.95-24.52m30.95 24.52l23.97-23.465m0 0l-54.92-1.055m54.92 1.055l70.43-62.518m-70.43 62.518l-77.81-135.578m238.62 147.335l-73.87-88.94m-21.1-25.411l56.22-154.744m-56.22 154.744l21.1 25.411m-21.1-25.411l-19.97-14.809m76.19-139.935l-191.33 63.642m115.14 76.293l-128.41-26.427m128.41 26.427l12.28 27.443m-12.28-27.443l-115.14-76.293m115.14 76.293l-1.34-42.298-101.14-120.115m-25.93 135.986l4.73 8.252m-4.73-8.252l-102.35 9.302m102.35-9.302l13.27-49.866m-13.27 49.866l-126.48-76.341m154.1 219.116l113.07-88.905m-113.07 88.905l-100.45 3.704m100.45-3.704l-151.66-169.638 17.23 110.628m134.43 59.01l-14.35-192.641m156.21 116.513l-16.51 14.665m0 0l-12.28-27.442m-336.22 97.134l67.26 166.953m-67.26-166.953l122.7-4.525m-122.7 4.525l-102.01 76.768m102.01-76.768l-78.25-121.609m78.25 121.609l54.73-129.953m12.53 296.906l55.44-171.478m-55.44 171.478l-47.01-32.818-122.26-57.367m224.71-81.293l77.56-138.227m-77.56 138.227l-33.98-62.714m-33.99-62.714l1.23-8.366m-1.23 8.366l33.99 62.714m-32.76-71.08l37.22-3.383m-37.22 3.383c-42.72 4.126-129.38 13.243-134.21 16.71m134.21-16.71l13.09-89.026m19.67 160.106l4.46-74.463m0 0l115.62-59.168m0 0l12.66-86.12m0 0l-152.41 59.645m0 0l-147.3 105.736m0 0l-23.76 198.377m23.76-198.377l-142.36 97.826m118.6 100.551l-118.6-100.551m118.6 100.551l-138.48 34.705m19.88-135.256l-19.88 135.256m19.88-135.256l-122.3 23.783-32.5 41.487 134.92 69.986" stroke="#D9D9D9"/></svg>