<svg width="23" height="23" viewBox="0 0 23 23" fill="none" xmlns="http://www.w3.org/2000/svg">
<mask id="path-1-outside-1" maskUnits="userSpaceOnUse" x="0.916016" y="0.916504" width="21" height="21" fill="black">
<rect fill="white" x="0.916016" y="0.916504" width="21" height="21"/>
<path fill-rule="evenodd" clip-rule="evenodd" d="M11.4993 19.0832C7.31119 19.0832 3.91602 15.688 3.91602 11.4998C3.91602 7.31168 7.31119 3.9165 11.4993 3.9165C15.6875 3.9165 19.0827 7.31168 19.0827 11.4998C19.0827 15.688 15.6875 19.0832 11.4993 19.0832ZM1.91602 11.4998C1.91602 6.20711 6.20662 1.9165 11.4993 1.9165C16.7921 1.9165 21.0827 6.20711 21.0827 11.4998C21.0827 16.7926 16.7921 21.0832 11.4993 21.0832C6.20662 21.0832 1.91602 16.7926 1.91602 11.4998ZM14.3743 15.3332H16.291V8.62484H14.3743V15.3332ZM6.70768 15.3332H8.62435V10.5415H6.70768V15.3332ZM10.541 15.3332H12.4577V5.74984H10.541V15.3332Z"/>
</mask>
<path fill-rule="evenodd" clip-rule="evenodd" d="M11.4993 19.0832C7.31119 19.0832 3.91602 15.688 3.91602 11.4998C3.91602 7.31168 7.31119 3.9165 11.4993 3.9165C15.6875 3.9165 19.0827 7.31168 19.0827 11.4998C19.0827 15.688 15.6875 19.0832 11.4993 19.0832ZM1.91602 11.4998C1.91602 6.20711 6.20662 1.9165 11.4993 1.9165C16.7921 1.9165 21.0827 6.20711 21.0827 11.4998C21.0827 16.7926 16.7921 21.0832 11.4993 21.0832C6.20662 21.0832 1.91602 16.7926 1.91602 11.4998ZM14.3743 15.3332H16.291V8.62484H14.3743V15.3332ZM6.70768 15.3332H8.62435V10.5415H6.70768V15.3332ZM10.541 15.3332H12.4577V5.74984H10.541V15.3332Z" fill="white"/>
<path d="M16.291 15.3332V15.6332H16.591V15.3332H16.291ZM14.3743 15.3332H14.0743V15.6332H14.3743V15.3332ZM16.291 8.62484H16.591V8.32484H16.291V8.62484ZM14.3743 8.62484V8.32484H14.0743V8.62484H14.3743ZM8.62435 15.3332V15.6332H8.92435V15.3332H8.62435ZM6.70768 15.3332H6.40768V15.6332H6.70768V15.3332ZM8.62435 10.5415H8.92435V10.2415H8.62435V10.5415ZM6.70768 10.5415V10.2415H6.40768V10.5415H6.70768ZM12.4577 15.3332V15.6332H12.7577V15.3332H12.4577ZM10.541 15.3332H10.241V15.6332H10.541V15.3332ZM12.4577 5.74984H12.7577V5.44984H12.4577V5.74984ZM10.541 5.74984V5.44984H10.241V5.74984H10.541ZM3.61602 11.4998C3.61602 15.8537 7.1455 19.3832 11.4993 19.3832V18.7832C7.47688 18.7832 4.21602 15.5223 4.21602 11.4998H3.61602ZM11.4993 3.6165C7.1455 3.6165 3.61602 7.14599 3.61602 11.4998H4.21602C4.21602 7.47736 7.47688 4.2165 11.4993 4.2165V3.6165ZM19.3827 11.4998C19.3827 7.14599 15.8532 3.6165 11.4993 3.6165V4.2165C15.5218 4.2165 18.7827 7.47736 18.7827 11.4998H19.3827ZM11.4993 19.3832C15.8532 19.3832 19.3827 15.8537 19.3827 11.4998H18.7827C18.7827 15.5223 15.5218 18.7832 11.4993 18.7832V19.3832ZM11.4993 1.6165C6.04094 1.6165 1.61602 6.04142 1.61602 11.4998H2.21602C2.21602 6.37279 6.37231 2.2165 11.4993 2.2165V1.6165ZM21.3827 11.4998C21.3827 6.04142 16.9578 1.6165 11.4993 1.6165V2.2165C16.6264 2.2165 20.7827 6.37279 20.7827 11.4998H21.3827ZM11.4993 21.3832C16.9578 21.3832 21.3827 16.9583 21.3827 11.4998H20.7827C20.7827 16.6269 16.6264 20.7832 11.4993 20.7832V21.3832ZM1.61602 11.4998C1.61602 16.9583 6.04094 21.3832 11.4993 21.3832V20.7832C6.37231 20.7832 2.21602 16.6269 2.21602 11.4998H1.61602ZM16.291 15.0332H14.3743V15.6332H16.291V15.0332ZM15.991 8.62484V15.3332H16.591V8.62484H15.991ZM14.3743 8.92484H16.291V8.32484H14.3743V8.92484ZM14.6743 15.3332V8.62484H14.0743V15.3332H14.6743ZM8.62435 15.0332H6.70768V15.6332H8.62435V15.0332ZM8.32435 10.5415V15.3332H8.92435V10.5415H8.32435ZM6.70768 10.8415H8.62435V10.2415H6.70768V10.8415ZM7.00768 15.3332V10.5415H6.40768V15.3332H7.00768ZM12.4577 15.0332H10.541V15.6332H12.4577V15.0332ZM12.1577 5.74984V15.3332H12.7577V5.74984H12.1577ZM10.541 6.04984H12.4577V5.44984H10.541V6.04984ZM10.841 15.3332V5.74984H10.241V15.3332H10.841Z" fill="white" mask="url(#path-1-outside-1)"/>
</svg>
