<svg width="23" height="23" viewBox="0 0 23 23" fill="none" xmlns="http://www.w3.org/2000/svg">
<path d="M18 4.15H18.15V4C18.15 2.81259 17.1874 1.85 16 1.85H4C2.81259 1.85 1.85 2.81259 1.85 4V13.1765C1.85 14.3639 2.81259 15.3265 4 15.3265H4.15V15.1765L4.15 4.15L18 4.15ZM13.8909 22.103L14 22.2185L14.1091 22.103L16.7313 19.3265H20C21.1874 19.3265 22.15 18.3639 22.15 17.1765V8C22.15 6.81259 21.1874 5.85 20 5.85H8C6.81259 5.85 5.85 6.81259 5.85 8V17.1765C5.85 18.3639 6.81259 19.3265 8 19.3265H11.2687L13.8909 22.103ZM15.8046 17.0265H15.7399L15.6955 17.0735L14 18.8687L12.3045 17.0735L12.2601 17.0265H12.1954H8.15V8.15L19.85 8.15V17.0265L15.8046 17.0265Z" fill="white" stroke="white" stroke-width="0.3"/>
</svg>
