<svg width="23" height="23" viewBox="0 0 23 23" fill="none" xmlns="http://www.w3.org/2000/svg">
<g clip-path="url(#clip0)">
<path d="M0.214246 12.4146L0.10818 12.5207L0.214246 12.6268L5.63389 18.0464L5.74033 18.1529L5.84639 18.046L7.19764 16.6852L7.30296 16.5791L7.19727 16.4735L1.78241 11.0586L1.67634 10.9526L1.57027 11.0586L0.214246 12.4146ZM21.4278 4.95502L21.3217 4.8489L21.2156 4.95507L11.1642 15.016L7.20999 11.0524L7.10467 10.9469L6.99848 11.0516L5.62807 12.4028L5.5205 12.5089L5.62732 12.6157L11.0581 18.0464L11.1641 18.1525L11.2702 18.0464L22.7886 6.52798L22.8947 6.42192L22.7886 6.31585L21.4278 4.95502ZM17.366 6.52647L17.4717 6.42078L17.3663 6.31471L16.0151 4.95388L15.909 4.84706L15.8026 4.9535L9.69722 11.0589L9.59078 11.1653L9.69759 11.2714L11.0584 12.6226L11.1645 12.7279L11.2702 12.6223L17.366 6.52647Z" fill="white" stroke="white" stroke-width="0.3"/>
</g>
<defs>
<clipPath id="clip0">
<rect width="23" height="23" fill="white"/>
</clipPath>
</defs>
</svg>
