<svg width="20" height="20" viewBox="0 0 20 20" fill="none" xmlns="http://www.w3.org/2000/svg">
<path d="M10.0013 18.3332C5.39893 18.3332 1.66797 14.6022 1.66797 9.99984C1.66797 5.39746 5.39893 1.6665 10.0013 1.6665C14.6037 1.6665 18.3346 5.39746 18.3346 9.99984C18.3296 14.6001 14.6016 18.3281 10.0013 18.3332ZM10.0013 3.33317C6.3194 3.33317 3.33464 6.31794 3.33464 9.99984C3.33464 13.6817 6.3194 16.6665 10.0013 16.6665C13.6832 16.6665 16.668 13.6817 16.668 9.99984C16.6638 6.31965 13.6815 3.3373 10.0013 3.33317ZM14.168 10.8332H9.16797V5.83317H10.8346V9.1665H14.168V10.8332Z" fill="#2C43A1"/>
</svg>
