<svg width="23" height="23" viewBox="0 0 23 23" fill="none" xmlns="http://www.w3.org/2000/svg">
<path d="M2.3528 20.6476C2.74498 21.0398 3.28215 21.2518 3.83638 21.2333H13.4146C13.9687 21.2516 14.5057 21.0394 14.8978 20.6473C15.2899 20.2552 15.502 19.7183 15.4838 19.1641V15.4833H19.1646C19.7188 15.5015 20.2557 15.2894 20.6478 14.8973C21.0399 14.5052 21.252 13.9682 21.2338 13.4141V3.83589C21.2523 3.28166 21.0403 2.74449 20.6481 2.35232C20.256 1.96015 19.7188 1.74812 19.1646 1.76665H9.58636C9.03213 1.74812 8.49497 1.96015 8.1028 2.35232C7.71063 2.74449 7.49861 3.28165 7.51714 3.83588V7.51665H3.83637C3.28214 7.49812 2.74498 7.71014 2.3528 8.10232C1.96064 8.49449 1.74861 9.03165 1.76714 9.58587V19.1641C1.74861 19.7183 1.96064 20.2555 2.3528 20.6476ZM13.2671 19.0166H3.9838V9.73331H7.51714V13.4141C7.49891 13.9683 7.71102 14.5052 8.10312 14.8973C8.49521 15.2894 9.03219 15.5015 9.58631 15.4833H13.2671V19.0166ZM19.0171 13.2666H9.7338V3.98331H19.0171V13.2666Z" fill="white" stroke="white" stroke-width="0.3"/>
</svg>
