<svg width="23" height="23" viewBox="0 0 23 23" fill="none" xmlns="http://www.w3.org/2000/svg">
<g clip-path="url(#clip0)">
<path d="M12.845 17.7778C13.4293 19.1884 14.8058 20.1082 16.3327 20.1082C17.3339 20.1082 18.2941 19.7104 19.002 19.0025C19.71 18.2945 20.1077 17.3344 20.1077 16.3332C20.1077 14.8063 19.1879 13.4298 17.7773 12.8455C16.3667 12.2612 14.743 12.5842 13.6634 13.6638C12.5837 14.7435 12.2607 16.3672 12.845 17.7778ZM2.89102 16.3332C2.89102 18.418 4.58114 20.1082 6.66602 20.1082C7.66721 20.1082 8.62739 19.7104 9.33534 19.0025C10.0433 18.2945 10.441 17.3344 10.441 16.3332C10.441 14.2483 8.75089 12.5582 6.66602 12.5582C4.58114 12.5582 2.89102 14.2483 2.89102 16.3332ZM12.5577 6.6665C12.5577 8.75138 14.2478 10.4415 16.3327 10.4415C18.4176 10.4415 20.1077 8.75138 20.1077 6.6665C20.1077 4.58163 18.4176 2.8915 16.3327 2.8915C14.2478 2.8915 12.5577 4.58163 12.5577 6.6665ZM2.89102 6.6665C2.89102 8.75138 4.58114 10.4415 6.66602 10.4415C7.66721 10.4415 8.62739 10.0438 9.33534 9.33583C10.0433 8.62788 10.441 7.6677 10.441 6.6665C10.441 4.58163 8.75089 2.8915 6.66602 2.8915C4.58114 2.8915 2.89102 4.58163 2.89102 6.6665Z" fill="white" stroke="white" stroke-width="0.3"/>
</g>
<defs>
<clipPath id="clip0">
<rect width="23" height="23" fill="white"/>
</clipPath>
</defs>
</svg>
