<svg width="23" height="23" viewBox="0 0 23 23" fill="none" xmlns="http://www.w3.org/2000/svg">
<path d="M12.5433 3.69164C12.1621 3.94113 11.8125 4.23539 11.5018 4.56798C11.1922 4.23401 10.8422 3.93951 10.4598 3.69132L10.4595 3.69109C9.48486 3.0625 8.35018 2.72721 7.19047 2.7251C5.76083 2.6963 4.37985 3.24473 3.35947 4.24655C2.33875 5.24871 1.76504 6.61997 1.76797 8.05041L1.76799 8.05165C1.77867 9.0858 2.01007 10.1057 2.44673 11.0432C3.76109 13.9536 6.72238 16.3749 9.30796 18.4891L9.34117 18.5162L9.3826 18.5501H9.39201C9.43065 18.5818 9.46917 18.6134 9.50756 18.6449C10.1721 19.1903 10.7985 19.7044 11.3595 20.1999L11.3889 20.4351L11.6022 20.2446C12.2174 19.6953 12.9124 19.1272 13.6527 18.5241L13.6612 18.5172L13.6612 18.5172L13.6623 18.5163L13.6781 18.5034C16.2679 16.3897 19.2386 13.965 20.5559 11.0481C20.9932 10.1091 21.2247 9.08736 21.2347 8.05155L21.2347 8.05041C21.2376 6.61997 20.6639 5.24871 19.6432 4.24655C18.6228 3.24473 17.2418 2.6963 15.8122 2.7251C14.6527 2.72706 13.5183 3.06238 12.5441 3.69111L12.5433 3.69164ZM7.18695 4.94179L7.1901 4.94176C8.23743 4.93286 9.23869 5.37164 9.94201 6.14767L11.388 7.81396L11.5013 7.9445L11.6146 7.81396L13.0606 6.14767C13.764 5.37164 14.7652 4.93286 15.8125 4.94179L15.8154 4.94176C16.6695 4.93304 17.4924 5.26219 18.1049 5.85748C18.6923 6.43485 19.0216 7.22502 19.018 8.04866C19.0087 8.77266 18.8442 9.48623 18.5355 10.1412C17.9288 11.3693 17.11 12.4806 16.1168 13.424L16.1168 13.4239L16.1133 13.4274C15.1694 14.3847 14.081 15.3073 13.1366 16.087C12.8753 16.3023 12.6092 16.5196 12.34 16.739L12.3395 16.7394L12.1728 16.8764L12.1728 16.8764L11.5686 17.3723H11.5685L11.5291 17.401L11.5185 17.4086L11.5182 17.4082L11.5091 17.4161L11.509 17.4161C11.2804 17.2267 11.0467 17.0354 10.82 16.8503C10.82 16.8503 10.82 16.8503 10.8199 16.8502L10.6523 16.7132L10.6522 16.7132L10.6522 16.7132C10.3858 16.4956 10.1197 16.2783 9.8584 16.063C8.91408 15.2834 7.82646 14.3597 6.88233 13.407L6.88237 13.407L6.87913 13.4039C5.88616 12.46 5.06743 11.3485 4.46054 10.1203C4.15745 9.47104 3.99526 8.76495 3.98457 8.04848C3.97891 7.22226 4.30833 6.429 4.89765 5.84989C5.51132 5.25744 6.33401 4.93108 7.18695 4.94179Z" fill="white" stroke="white" stroke-width="0.3"/>
</svg>
