<svg width="16" height="16" viewBox="0 0 16 16" fill="none" xmlns="http://www.w3.org/2000/svg">
<path d="M8 15.4875C3.85975 15.4829 0.504547 12.13 0.5 7.99252V7.84263C0.582449 3.7238 3.97594 0.443576 8.098 0.498232C12.2201 0.552888 15.5253 3.92193 15.4983 8.04149C15.4714 12.1611 12.1224 15.4867 8 15.4875ZM7.988 13.9885H8C11.3125 13.9852 13.9957 11.2998 13.994 7.98953C13.9923 4.67922 11.3065 1.99657 7.994 1.99657C4.68146 1.99657 1.99566 4.67922 1.994 7.98953C1.99234 11.2998 4.67546 13.9852 7.988 13.9885ZM8.75 12.4895H7.25V10.9905H8.75V12.4895ZM8.75 10.241H7.25C7.2263 9.26492 7.7346 8.35288 8.5775 7.85912C9.0725 7.47987 9.5 7.15309 9.5 6.49353C9.5 5.66566 8.82843 4.99454 8 4.99454C7.17157 4.99454 6.5 5.66566 6.5 6.49353H5V6.42608C5.01206 5.355 5.595 4.37172 6.52923 3.84662C7.46346 3.32151 8.60705 3.33437 9.52923 3.88034C10.4514 4.42632 11.0121 5.42246 11 6.49353C10.9463 7.30225 10.5122 8.03769 9.83 8.47595C9.21328 8.86283 8.81355 9.51611 8.75 10.241Z" fill="#2C43A1"/>
</svg>
