<svg width="22" height="22" viewBox="0 0 22 22" fill="none" xmlns="http://www.w3.org/2000/svg">
<path d="M17 3.15H17.15V3C17.15 1.81259 16.1874 0.85 15 0.85H3C1.81259 0.85 0.85 1.81259 0.85 3V12.1765C0.85 13.3639 1.81259 14.3265 3 14.3265H3.15V14.1765L3.15 3.15L17 3.15ZM12.8909 21.103L13 21.2185L13.1091 21.103L15.7313 18.3265H19C20.1874 18.3265 21.15 17.3639 21.15 16.1765V7C21.15 5.81259 20.1874 4.85 19 4.85H7C5.81259 4.85 4.85 5.81259 4.85 7V16.1765C4.85 17.3639 5.81259 18.3265 7 18.3265H10.2687L12.8909 21.103ZM14.8046 16.0265H14.7399L14.6955 16.0735L13 17.8687L11.3045 16.0735L11.2601 16.0265H11.1954H7.15V7.15L18.85 7.15V16.0265L14.8046 16.0265Z" fill="white" stroke="white" stroke-width="0.3"/>
</svg>
