<svg width="19" height="23" viewBox="0 0 19 23" fill="none" xmlns="http://www.w3.org/2000/svg">
<path d="M9.40791 22.4189L9.5 22.4906L9.59209 22.4189L18.2171 15.7106L18.3692 15.5923L18.2171 15.4738L16.6551 14.2577L16.563 14.186L16.4708 14.2577L9.49041 19.6859L2.51957 14.2663L2.42748 14.1947L2.33541 14.2663L0.782909 15.4738L0.630677 15.5922L0.782909 15.7106L9.40791 22.4189ZM9.40791 18.3269L9.5 18.3985L9.59209 18.3269L18.2171 11.6185L18.3692 11.5002L18.2172 11.3818L16.6551 10.1647L16.563 10.0929L16.4708 10.1646L9.4904 15.5939L2.51957 10.1742L2.42748 10.1026L2.33541 10.1742L0.782909 11.3817L0.630677 11.5001L0.782909 11.6185L9.40791 18.3269ZM9.40793 14.2348L9.50006 14.3064L9.59215 14.2347L16.6452 8.74372L16.6455 8.74348L18.2168 7.52664L18.3697 7.4083L18.2171 7.28964L9.59209 0.581304L9.5 0.509678L9.40791 0.581304L0.782909 7.28964L0.63081 7.40794L0.782808 7.52636L2.34489 8.74345L2.34501 8.74354L9.40793 14.2348Z" fill="white" stroke="white" stroke-width="0.3"/>
</svg>
