<svg width="27" height="27" viewBox="0 0 27 27" fill="none" xmlns="http://www.w3.org/2000/svg">
<path d="M13.4988 26.4167C8.27219 26.4197 3.55882 23.2726 1.55824 18.444C-0.442326 13.6153 0.664253 8.05698 4.36159 4.3627C7.62602 1.09828 12.384 -0.176624 16.8433 1.01824C21.3026 2.2131 24.7857 5.6962 25.9806 10.1555C27.1754 14.6148 25.9005 19.3728 22.6361 22.6372C20.2174 25.0668 16.9271 26.4278 13.4988 26.4167ZM3.16551 13.7221C3.22663 19.4071 7.86861 23.9748 13.5538 23.9444C19.239 23.9137 23.8316 19.2963 23.8316 13.611C23.8316 7.92577 19.239 3.30841 13.5538 3.2777C7.86861 3.24729 3.22663 7.81502 3.16551 13.5V13.7221ZM10.1521 18.6666L8.33218 16.8454L11.6776 13.5L8.33218 10.1545L10.1534 8.33329L13.4988 11.6787L16.8443 8.33329L18.6655 10.1545L15.3201 13.5L18.6655 16.8454L16.8456 18.6666L13.4988 15.3212L10.1534 18.6666H10.1521Z" fill="#D9D9D9"/>
</svg>
