<svg width="17" height="17" viewBox="0 0 17 17" fill="none" xmlns="http://www.w3.org/2000/svg">
<path d="M1.86676 16.0068C1.62131 16.0064 1.38732 15.9029 1.22189 15.7216C1.0534 15.5417 0.969681 15.2985 0.991762 15.0531L1.20614 12.6958L11.1094 2.79607L14.2043 5.89007L4.30364 15.7889L1.94639 16.0033C1.91926 16.0059 1.89214 16.0068 1.86676 16.0068ZM14.822 5.27144L11.728 2.17744L13.5839 0.321567C13.748 0.157262 13.9707 0.0649414 14.2029 0.0649414C14.4352 0.0649414 14.6579 0.157262 14.822 0.321567L16.6779 2.17744C16.8422 2.34156 16.9345 2.56427 16.9345 2.7965C16.9345 3.02874 16.8422 3.25145 16.6779 3.41557L14.8229 5.27057L14.822 5.27144Z" fill="#D9D9D9"/>
</svg>
