<svg width="21" height="21" viewBox="0 0 21 21" fill="none" xmlns="http://www.w3.org/2000/svg">
<path d="M7.68087 20.3136L7.70398 20.3213H7.72834H7.7293H7.76916L7.80376 20.3015L14.4185 16.5186L20.0274 18.7629L20.2332 18.8452V18.6236V3.1427V3.04114L20.1389 3.00343L14.3151 0.673718L14.2478 0.646805L14.1849 0.682778L7.50514 4.50291L0.963988 2.31999L0.766504 2.25409V2.46228V17.8991V18.0072L0.86904 18.0414L7.68087 20.3136ZM6.5165 17.5866L2.98317 16.4091V5.33334L6.5165 6.50641V17.5866ZM8.73317 17.2179V6.35099L12.2665 4.32993V15.1968L8.73317 17.2179ZM14.4832 14.1578V3.1268L18.0165 4.54086V15.5711L14.4832 14.1578Z" fill="white" stroke="white" stroke-width="0.3"/>
</svg>
