<svg width="47" height="47" viewBox="0 0 47 47" fill="none" xmlns="http://www.w3.org/2000/svg">
<mask id="path-1-outside-1" maskUnits="userSpaceOnUse" x="3" y="1" width="41" height="45" fill="black">
<rect fill="white" x="3" y="1" width="41" height="45"/>
<path d="M7.51913 30C7.50409 30 7.48801 30 7.47245 30C7.33545 29.9856 7.20893 29.908 7.12072 29.7842C7.0325 29.6603 6.98982 29.5005 7.00206 29.3397L8.12954 15.5544C8.14111 15.4026 8.20081 15.2613 8.29684 15.1587C8.39288 15.056 8.51826 14.9994 8.64817 15H12.5223C12.6513 14.9992 12.7759 15.0549 12.8718 15.1562C12.9677 15.2575 13.028 15.3971 13.0409 15.5477L13.9972 26.3695C14.0114 26.5301 13.9706 26.6908 13.8839 26.8161C13.7971 26.9414 13.6715 27.0211 13.5346 27.0377C13.3978 27.0544 13.2609 27.0065 13.1541 26.9047C13.0473 26.8029 12.9793 26.6555 12.9652 26.4949L12.0576 16.2189H9.11856L8.03515 29.4456C8.02363 29.5969 7.9643 29.7377 7.86881 29.8403C7.77332 29.9429 7.64859 29.9998 7.51913 30Z"/>
<path d="M42.403 45H4.59702C4.43868 45 4.28683 44.9372 4.17486 44.8253C4.0629 44.7135 4 44.5618 4 44.4036V31.7306C4 31.6251 4.02802 31.5215 4.0812 31.4303C4.13437 31.3392 4.2108 31.2637 4.30269 31.2117L16.9047 24.0775C16.9955 24.0261 17.0982 23.9994 17.2026 24C17.307 24.0006 17.4094 24.0286 17.4996 24.0811C17.5898 24.1336 17.6646 24.2088 17.7166 24.2992C17.7687 24.3896 17.796 24.4921 17.796 24.5964V30.7072L29.5067 24.0775C29.5975 24.0261 29.7002 23.9994 29.8046 24C29.909 24.0006 30.0114 24.0286 30.1016 24.0811C30.1918 24.1336 30.2666 24.2088 30.3186 24.2992C30.3706 24.3896 30.398 24.4921 30.398 24.5964V30.7072L42.1086 24.0775C42.1995 24.0261 42.3022 23.9994 42.4066 24C42.511 24.0006 42.6134 24.0286 42.7036 24.0811C42.7938 24.1336 42.8686 24.2088 42.9206 24.2992C42.9726 24.3896 43 24.4921 43 24.5964V44.4036C43 44.5618 42.9371 44.7135 42.8251 44.8253C42.7132 44.9372 42.5613 45 42.403 45ZM5.19405 43.8072H41.806V25.6198L30.0953 32.2495C30.0045 32.3009 29.9018 32.3276 29.7974 32.327C29.693 32.3263 29.5906 32.2984 29.5004 32.2459C29.4102 32.1934 29.3354 32.1182 29.2834 32.0277C29.2313 31.9373 29.204 31.8349 29.204 31.7306V25.6204L17.4933 32.2495C17.4025 32.3009 17.2998 32.3276 17.1954 32.327C17.091 32.3263 16.9886 32.2984 16.8984 32.2459C16.8082 32.1934 16.7334 32.1182 16.6814 32.0277C16.6294 31.9373 16.602 31.8349 16.602 31.7306V25.6198L5.19405 32.0777V43.8072Z"/>
<path d="M37.5179 40H33.4816C33.3539 40 33.2314 39.9306 33.1411 39.807C33.0507 39.6834 33 39.5158 33 39.3411V35.6589C33 35.4842 33.0507 35.3166 33.1411 35.193C33.2314 35.0694 33.3539 35 33.4816 35H37.5184C37.6461 35 37.7686 35.0694 37.8589 35.193C37.9493 35.3166 38 35.4842 38 35.6589V39.3411C38 39.4276 37.9875 39.5134 37.9633 39.5934C37.9391 39.6734 37.9035 39.746 37.8588 39.8072C37.814 39.8684 37.7608 39.917 37.7024 39.95C37.6439 39.9831 37.5812 40.0001 37.5179 40ZM33.9627 38.6821H37.0363V36.3179H33.9632L33.9627 38.6821Z"/>
<path d="M28.4221 40H23.5779C23.4246 40 23.2777 39.9306 23.1693 39.807C23.0609 39.6834 23 39.5158 23 39.3411V35.6589C23 35.4842 23.0609 35.3166 23.1693 35.193C23.2777 35.0694 23.4246 35 23.5779 35H28.4221C28.5754 35 28.7223 35.0694 28.8307 35.193C28.9391 35.3166 29 35.4842 29 35.6589V39.3411C29 39.5158 28.9391 39.6834 28.8307 39.807C28.7223 39.9306 28.5754 40 28.4221 40ZM24.1558 38.6821H27.8442V36.3179H24.1558V38.6821Z"/>
<path d="M19.422 40H14.578C14.4247 40 14.2777 39.9306 14.1693 39.807C14.0609 39.6834 14 39.5158 14 39.3411V35.6589C14 35.4842 14.0609 35.3166 14.1693 35.193C14.2777 35.0694 14.4247 35 14.578 35H19.422C19.5753 35 19.7223 35.0694 19.8307 35.193C19.9391 35.3166 20 35.4842 20 35.6589V39.3411C20 39.5158 19.9391 39.6834 19.8307 39.807C19.7223 39.9306 19.5753 40 19.422 40ZM15.156 38.6821H18.844V36.3179H15.156V38.6821Z"/>
<path d="M9.65775 14C9.56112 14 9.46568 13.9783 9.37821 13.9363C9.29074 13.8944 9.2134 13.8333 9.15167 13.7574C9.08995 13.6815 9.04536 13.5927 9.02109 13.4972C8.99682 13.4017 8.99345 13.3019 9.01123 13.2049L9.88466 8.42905C9.65279 7.92565 9.55373 7.36914 9.59727 6.81463C9.64082 6.26013 9.82546 5.72685 10.1329 5.2676C10.4404 4.80835 10.86 4.43906 11.3502 4.1963C11.8404 3.95353 12.3843 3.84571 12.9278 3.88351C13.1404 3.40072 13.4672 2.97947 13.8788 2.65767C14.2905 2.33588 14.774 2.12364 15.2859 2.04005C15.7979 1.95647 16.3221 2.00416 16.8115 2.17885C17.3009 2.35353 17.7401 2.64972 18.0895 3.04075C18.3442 2.97311 18.6064 2.93926 18.8695 2.94002C19.4646 2.93865 20.0476 3.11085 20.55 3.43636C21.0525 3.76187 21.4534 4.22715 21.7056 4.77743C21.9578 5.32771 22.0508 5.94009 21.9736 6.54251C21.8965 7.14493 21.6524 7.71232 21.2701 8.1779C21.333 8.43007 21.3648 8.68926 21.3648 8.94948C21.364 9.79767 21.0336 10.6109 20.4462 11.2106C19.8587 11.8104 19.0623 12.1477 18.2315 12.1486C17.9421 12.1483 17.6541 12.1055 17.3765 12.0217C17.1194 12.5623 16.7187 13.0184 16.2201 13.3377C15.7215 13.6571 15.1449 13.827 14.5563 13.8281C14.0132 13.8285 13.4796 13.6833 13.0087 13.407L9.77022 13.9886C9.73313 13.9957 9.69549 13.9995 9.65775 14ZM11.1922 8.59626L10.4786 12.4998L12.9647 12.0533C13.0581 12.0265 13.1561 12.0212 13.2517 12.0377C13.3473 12.0542 13.4382 12.0921 13.5178 12.1486C13.8219 12.3674 14.1849 12.4847 14.557 12.4844C14.9773 12.4838 15.3845 12.3347 15.7093 12.0623C16.0341 11.7899 16.2565 11.4111 16.3387 10.9902C16.3591 10.885 16.4038 10.7863 16.4692 10.7024C16.5346 10.6185 16.6187 10.5518 16.7145 10.5079C16.8104 10.4639 16.9151 10.4441 17.02 10.45C17.1248 10.4558 17.2268 10.4873 17.3173 10.5417C17.5934 10.7122 17.9096 10.8031 18.2322 10.8049C18.5302 10.8062 18.824 10.7323 19.0873 10.5899C19.3507 10.4475 19.5756 10.2409 19.7421 9.98855C19.9086 9.73615 20.0115 9.44571 20.0417 9.14298C20.0719 8.84026 20.0285 8.5346 19.9153 8.25311C19.8647 8.12553 19.8537 7.98516 19.8838 7.851C19.9139 7.71683 19.9837 7.59536 20.0836 7.50302C20.2736 7.33138 20.4258 7.12051 20.53 6.88435C20.6342 6.64819 20.6881 6.39213 20.6881 6.13311C20.6887 5.82376 20.6132 5.51921 20.4686 5.24737C20.3239 4.97554 20.1148 4.74512 19.8603 4.57724C19.6058 4.40936 19.3141 4.3094 19.012 4.28651C18.7098 4.26363 18.4069 4.31855 18.1309 4.44625C17.9874 4.51206 17.8256 4.52318 17.6748 4.47759C17.5239 4.43201 17.3941 4.33273 17.3088 4.19778C17.1161 3.88939 16.8382 3.64626 16.5102 3.49914C16.1822 3.35203 15.8188 3.30754 15.466 3.37129C15.1132 3.43505 14.7869 3.6042 14.5283 3.85734C14.2696 4.11048 14.0903 4.43624 14.0131 4.79342C13.9937 4.88199 13.9569 4.96562 13.905 5.03928C13.8531 5.11293 13.7871 5.17508 13.711 5.22196C13.6349 5.26884 13.5502 5.29949 13.4622 5.31206C13.3742 5.32462 13.2846 5.31883 13.1988 5.29505C12.8521 5.19588 12.4842 5.20473 12.1424 5.32046C11.8006 5.4362 11.5005 5.65354 11.2805 5.94462C11.0605 6.23569 10.9306 6.58723 10.9076 6.95415C10.8846 7.32107 10.9695 7.68664 11.1514 8.00397C11.2022 8.0929 11.2323 8.19256 11.2394 8.29526C11.2464 8.39796 11.2303 8.50095 11.1922 8.59626Z"/>
</mask>
<path d="M7.51913 30C7.50409 30 7.48801 30 7.47245 30C7.33545 29.9856 7.20893 29.908 7.12072 29.7842C7.0325 29.6603 6.98982 29.5005 7.00206 29.3397L8.12954 15.5544C8.14111 15.4026 8.20081 15.2613 8.29684 15.1587C8.39288 15.056 8.51826 14.9994 8.64817 15H12.5223C12.6513 14.9992 12.7759 15.0549 12.8718 15.1562C12.9677 15.2575 13.028 15.3971 13.0409 15.5477L13.9972 26.3695C14.0114 26.5301 13.9706 26.6908 13.8839 26.8161C13.7971 26.9414 13.6715 27.0211 13.5346 27.0377C13.3978 27.0544 13.2609 27.0065 13.1541 26.9047C13.0473 26.8029 12.9793 26.6555 12.9652 26.4949L12.0576 16.2189H9.11856L8.03515 29.4456C8.02363 29.5969 7.9643 29.7377 7.86881 29.8403C7.77332 29.9429 7.64859 29.9998 7.51913 30Z" fill="#2C43A1"/>
<path d="M42.403 45H4.59702C4.43868 45 4.28683 44.9372 4.17486 44.8253C4.0629 44.7135 4 44.5618 4 44.4036V31.7306C4 31.6251 4.02802 31.5215 4.0812 31.4303C4.13437 31.3392 4.2108 31.2637 4.30269 31.2117L16.9047 24.0775C16.9955 24.0261 17.0982 23.9994 17.2026 24C17.307 24.0006 17.4094 24.0286 17.4996 24.0811C17.5898 24.1336 17.6646 24.2088 17.7166 24.2992C17.7687 24.3896 17.796 24.4921 17.796 24.5964V30.7072L29.5067 24.0775C29.5975 24.0261 29.7002 23.9994 29.8046 24C29.909 24.0006 30.0114 24.0286 30.1016 24.0811C30.1918 24.1336 30.2666 24.2088 30.3186 24.2992C30.3706 24.3896 30.398 24.4921 30.398 24.5964V30.7072L42.1086 24.0775C42.1995 24.0261 42.3022 23.9994 42.4066 24C42.511 24.0006 42.6134 24.0286 42.7036 24.0811C42.7938 24.1336 42.8686 24.2088 42.9206 24.2992C42.9726 24.3896 43 24.4921 43 24.5964V44.4036C43 44.5618 42.9371 44.7135 42.8251 44.8253C42.7132 44.9372 42.5613 45 42.403 45ZM5.19405 43.8072H41.806V25.6198L30.0953 32.2495C30.0045 32.3009 29.9018 32.3276 29.7974 32.327C29.693 32.3263 29.5906 32.2984 29.5004 32.2459C29.4102 32.1934 29.3354 32.1182 29.2834 32.0277C29.2313 31.9373 29.204 31.8349 29.204 31.7306V25.6204L17.4933 32.2495C17.4025 32.3009 17.2998 32.3276 17.1954 32.327C17.091 32.3263 16.9886 32.2984 16.8984 32.2459C16.8082 32.1934 16.7334 32.1182 16.6814 32.0277C16.6294 31.9373 16.602 31.8349 16.602 31.7306V25.6198L5.19405 32.0777V43.8072Z" fill="#2C43A1"/>
<path d="M37.5179 40H33.4816C33.3539 40 33.2314 39.9306 33.1411 39.807C33.0507 39.6834 33 39.5158 33 39.3411V35.6589C33 35.4842 33.0507 35.3166 33.1411 35.193C33.2314 35.0694 33.3539 35 33.4816 35H37.5184C37.6461 35 37.7686 35.0694 37.8589 35.193C37.9493 35.3166 38 35.4842 38 35.6589V39.3411C38 39.4276 37.9875 39.5134 37.9633 39.5934C37.9391 39.6734 37.9035 39.746 37.8588 39.8072C37.814 39.8684 37.7608 39.917 37.7024 39.95C37.6439 39.9831 37.5812 40.0001 37.5179 40ZM33.9627 38.6821H37.0363V36.3179H33.9632L33.9627 38.6821Z" fill="#2C43A1"/>
<path d="M28.4221 40H23.5779C23.4246 40 23.2777 39.9306 23.1693 39.807C23.0609 39.6834 23 39.5158 23 39.3411V35.6589C23 35.4842 23.0609 35.3166 23.1693 35.193C23.2777 35.0694 23.4246 35 23.5779 35H28.4221C28.5754 35 28.7223 35.0694 28.8307 35.193C28.9391 35.3166 29 35.4842 29 35.6589V39.3411C29 39.5158 28.9391 39.6834 28.8307 39.807C28.7223 39.9306 28.5754 40 28.4221 40ZM24.1558 38.6821H27.8442V36.3179H24.1558V38.6821Z" fill="#2C43A1"/>
<path d="M19.422 40H14.578C14.4247 40 14.2777 39.9306 14.1693 39.807C14.0609 39.6834 14 39.5158 14 39.3411V35.6589C14 35.4842 14.0609 35.3166 14.1693 35.193C14.2777 35.0694 14.4247 35 14.578 35H19.422C19.5753 35 19.7223 35.0694 19.8307 35.193C19.9391 35.3166 20 35.4842 20 35.6589V39.3411C20 39.5158 19.9391 39.6834 19.8307 39.807C19.7223 39.9306 19.5753 40 19.422 40ZM15.156 38.6821H18.844V36.3179H15.156V38.6821Z" fill="#2C43A1"/>
<path d="M9.65775 14C9.56112 14 9.46568 13.9783 9.37821 13.9363C9.29074 13.8944 9.2134 13.8333 9.15167 13.7574C9.08995 13.6815 9.04536 13.5927 9.02109 13.4972C8.99682 13.4017 8.99345 13.3019 9.01123 13.2049L9.88466 8.42905C9.65279 7.92565 9.55373 7.36914 9.59727 6.81463C9.64082 6.26013 9.82546 5.72685 10.1329 5.2676C10.4404 4.80835 10.86 4.43906 11.3502 4.1963C11.8404 3.95353 12.3843 3.84571 12.9278 3.88351C13.1404 3.40072 13.4672 2.97947 13.8788 2.65767C14.2905 2.33588 14.774 2.12364 15.2859 2.04005C15.7979 1.95647 16.3221 2.00416 16.8115 2.17885C17.3009 2.35353 17.7401 2.64972 18.0895 3.04075C18.3442 2.97311 18.6064 2.93926 18.8695 2.94002C19.4646 2.93865 20.0476 3.11085 20.55 3.43636C21.0525 3.76187 21.4534 4.22715 21.7056 4.77743C21.9578 5.32771 22.0508 5.94009 21.9736 6.54251C21.8965 7.14493 21.6524 7.71232 21.2701 8.1779C21.333 8.43007 21.3648 8.68926 21.3648 8.94948C21.364 9.79767 21.0336 10.6109 20.4462 11.2106C19.8587 11.8104 19.0623 12.1477 18.2315 12.1486C17.9421 12.1483 17.6541 12.1055 17.3765 12.0217C17.1194 12.5623 16.7187 13.0184 16.2201 13.3377C15.7215 13.6571 15.1449 13.827 14.5563 13.8281C14.0132 13.8285 13.4796 13.6833 13.0087 13.407L9.77022 13.9886C9.73313 13.9957 9.69549 13.9995 9.65775 14ZM11.1922 8.59626L10.4786 12.4998L12.9647 12.0533C13.0581 12.0265 13.1561 12.0212 13.2517 12.0377C13.3473 12.0542 13.4382 12.0921 13.5178 12.1486C13.8219 12.3674 14.1849 12.4847 14.557 12.4844C14.9773 12.4838 15.3845 12.3347 15.7093 12.0623C16.0341 11.7899 16.2565 11.4111 16.3387 10.9902C16.3591 10.885 16.4038 10.7863 16.4692 10.7024C16.5346 10.6185 16.6187 10.5518 16.7145 10.5079C16.8104 10.4639 16.9151 10.4441 17.02 10.45C17.1248 10.4558 17.2268 10.4873 17.3173 10.5417C17.5934 10.7122 17.9096 10.8031 18.2322 10.8049C18.5302 10.8062 18.824 10.7323 19.0873 10.5899C19.3507 10.4475 19.5756 10.2409 19.7421 9.98855C19.9086 9.73615 20.0115 9.44571 20.0417 9.14298C20.0719 8.84026 20.0285 8.5346 19.9153 8.25311C19.8647 8.12553 19.8537 7.98516 19.8838 7.851C19.9139 7.71683 19.9837 7.59536 20.0836 7.50302C20.2736 7.33138 20.4258 7.12051 20.53 6.88435C20.6342 6.64819 20.6881 6.39213 20.6881 6.13311C20.6887 5.82376 20.6132 5.51921 20.4686 5.24737C20.3239 4.97554 20.1148 4.74512 19.8603 4.57724C19.6058 4.40936 19.3141 4.3094 19.012 4.28651C18.7098 4.26363 18.4069 4.31855 18.1309 4.44625C17.9874 4.51206 17.8256 4.52318 17.6748 4.47759C17.5239 4.43201 17.3941 4.33273 17.3088 4.19778C17.1161 3.88939 16.8382 3.64626 16.5102 3.49914C16.1822 3.35203 15.8188 3.30754 15.466 3.37129C15.1132 3.43505 14.7869 3.6042 14.5283 3.85734C14.2696 4.11048 14.0903 4.43624 14.0131 4.79342C13.9937 4.88199 13.9569 4.96562 13.905 5.03928C13.8531 5.11293 13.7871 5.17508 13.711 5.22196C13.6349 5.26884 13.5502 5.29949 13.4622 5.31206C13.3742 5.32462 13.2846 5.31883 13.1988 5.29505C12.8521 5.19588 12.4842 5.20473 12.1424 5.32046C11.8006 5.4362 11.5005 5.65354 11.2805 5.94462C11.0605 6.23569 10.9306 6.58723 10.9076 6.95415C10.8846 7.32107 10.9695 7.68664 11.1514 8.00397C11.2022 8.0929 11.2323 8.19256 11.2394 8.29526C11.2464 8.39796 11.2303 8.50095 11.1922 8.59626Z" fill="#2C43A1"/>
<path d="M7.51913 30C7.50409 30 7.48801 30 7.47245 30C7.33545 29.9856 7.20893 29.908 7.12072 29.7842C7.0325 29.6603 6.98982 29.5005 7.00206 29.3397L8.12954 15.5544C8.14111 15.4026 8.20081 15.2613 8.29684 15.1587C8.39288 15.056 8.51826 14.9994 8.64817 15H12.5223C12.6513 14.9992 12.7759 15.0549 12.8718 15.1562C12.9677 15.2575 13.028 15.3971 13.0409 15.5477L13.9972 26.3695C14.0114 26.5301 13.9706 26.6908 13.8839 26.8161C13.7971 26.9414 13.6715 27.0211 13.5346 27.0377C13.3978 27.0544 13.2609 27.0065 13.1541 26.9047C13.0473 26.8029 12.9793 26.6555 12.9652 26.4949L12.0576 16.2189H9.11856L8.03515 29.4456C8.02363 29.5969 7.9643 29.7377 7.86881 29.8403C7.77332 29.9429 7.64859 29.9998 7.51913 30Z" stroke="#2C43A1" stroke-width="0.6" mask="url(#path-1-outside-1)"/>
<path d="M42.403 45H4.59702C4.43868 45 4.28683 44.9372 4.17486 44.8253C4.0629 44.7135 4 44.5618 4 44.4036V31.7306C4 31.6251 4.02802 31.5215 4.0812 31.4303C4.13437 31.3392 4.2108 31.2637 4.30269 31.2117L16.9047 24.0775C16.9955 24.0261 17.0982 23.9994 17.2026 24C17.307 24.0006 17.4094 24.0286 17.4996 24.0811C17.5898 24.1336 17.6646 24.2088 17.7166 24.2992C17.7687 24.3896 17.796 24.4921 17.796 24.5964V30.7072L29.5067 24.0775C29.5975 24.0261 29.7002 23.9994 29.8046 24C29.909 24.0006 30.0114 24.0286 30.1016 24.0811C30.1918 24.1336 30.2666 24.2088 30.3186 24.2992C30.3706 24.3896 30.398 24.4921 30.398 24.5964V30.7072L42.1086 24.0775C42.1995 24.0261 42.3022 23.9994 42.4066 24C42.511 24.0006 42.6134 24.0286 42.7036 24.0811C42.7938 24.1336 42.8686 24.2088 42.9206 24.2992C42.9726 24.3896 43 24.4921 43 24.5964V44.4036C43 44.5618 42.9371 44.7135 42.8251 44.8253C42.7132 44.9372 42.5613 45 42.403 45ZM5.19405 43.8072H41.806V25.6198L30.0953 32.2495C30.0045 32.3009 29.9018 32.3276 29.7974 32.327C29.693 32.3263 29.5906 32.2984 29.5004 32.2459C29.4102 32.1934 29.3354 32.1182 29.2834 32.0277C29.2313 31.9373 29.204 31.8349 29.204 31.7306V25.6204L17.4933 32.2495C17.4025 32.3009 17.2998 32.3276 17.1954 32.327C17.091 32.3263 16.9886 32.2984 16.8984 32.2459C16.8082 32.1934 16.7334 32.1182 16.6814 32.0277C16.6294 31.9373 16.602 31.8349 16.602 31.7306V25.6198L5.19405 32.0777V43.8072Z" stroke="#2C43A1" stroke-width="0.6" mask="url(#path-1-outside-1)"/>
<path d="M37.5179 40H33.4816C33.3539 40 33.2314 39.9306 33.1411 39.807C33.0507 39.6834 33 39.5158 33 39.3411V35.6589C33 35.4842 33.0507 35.3166 33.1411 35.193C33.2314 35.0694 33.3539 35 33.4816 35H37.5184C37.6461 35 37.7686 35.0694 37.8589 35.193C37.9493 35.3166 38 35.4842 38 35.6589V39.3411C38 39.4276 37.9875 39.5134 37.9633 39.5934C37.9391 39.6734 37.9035 39.746 37.8588 39.8072C37.814 39.8684 37.7608 39.917 37.7024 39.95C37.6439 39.9831 37.5812 40.0001 37.5179 40ZM33.9627 38.6821H37.0363V36.3179H33.9632L33.9627 38.6821Z" stroke="#2C43A1" stroke-width="0.6" mask="url(#path-1-outside-1)"/>
<path d="M28.4221 40H23.5779C23.4246 40 23.2777 39.9306 23.1693 39.807C23.0609 39.6834 23 39.5158 23 39.3411V35.6589C23 35.4842 23.0609 35.3166 23.1693 35.193C23.2777 35.0694 23.4246 35 23.5779 35H28.4221C28.5754 35 28.7223 35.0694 28.8307 35.193C28.9391 35.3166 29 35.4842 29 35.6589V39.3411C29 39.5158 28.9391 39.6834 28.8307 39.807C28.7223 39.9306 28.5754 40 28.4221 40ZM24.1558 38.6821H27.8442V36.3179H24.1558V38.6821Z" stroke="#2C43A1" stroke-width="0.6" mask="url(#path-1-outside-1)"/>
<path d="M19.422 40H14.578C14.4247 40 14.2777 39.9306 14.1693 39.807C14.0609 39.6834 14 39.5158 14 39.3411V35.6589C14 35.4842 14.0609 35.3166 14.1693 35.193C14.2777 35.0694 14.4247 35 14.578 35H19.422C19.5753 35 19.7223 35.0694 19.8307 35.193C19.9391 35.3166 20 35.4842 20 35.6589V39.3411C20 39.5158 19.9391 39.6834 19.8307 39.807C19.7223 39.9306 19.5753 40 19.422 40ZM15.156 38.6821H18.844V36.3179H15.156V38.6821Z" stroke="#2C43A1" stroke-width="0.6" mask="url(#path-1-outside-1)"/>
<path d="M9.65775 14C9.56112 14 9.46568 13.9783 9.37821 13.9363C9.29074 13.8944 9.2134 13.8333 9.15167 13.7574C9.08995 13.6815 9.04536 13.5927 9.02109 13.4972C8.99682 13.4017 8.99345 13.3019 9.01123 13.2049L9.88466 8.42905C9.65279 7.92565 9.55373 7.36914 9.59727 6.81463C9.64082 6.26013 9.82546 5.72685 10.1329 5.2676C10.4404 4.80835 10.86 4.43906 11.3502 4.1963C11.8404 3.95353 12.3843 3.84571 12.9278 3.88351C13.1404 3.40072 13.4672 2.97947 13.8788 2.65767C14.2905 2.33588 14.774 2.12364 15.2859 2.04005C15.7979 1.95647 16.3221 2.00416 16.8115 2.17885C17.3009 2.35353 17.7401 2.64972 18.0895 3.04075C18.3442 2.97311 18.6064 2.93926 18.8695 2.94002C19.4646 2.93865 20.0476 3.11085 20.55 3.43636C21.0525 3.76187 21.4534 4.22715 21.7056 4.77743C21.9578 5.32771 22.0508 5.94009 21.9736 6.54251C21.8965 7.14493 21.6524 7.71232 21.2701 8.1779C21.333 8.43007 21.3648 8.68926 21.3648 8.94948C21.364 9.79767 21.0336 10.6109 20.4462 11.2106C19.8587 11.8104 19.0623 12.1477 18.2315 12.1486C17.9421 12.1483 17.6541 12.1055 17.3765 12.0217C17.1194 12.5623 16.7187 13.0184 16.2201 13.3377C15.7215 13.6571 15.1449 13.827 14.5563 13.8281C14.0132 13.8285 13.4796 13.6833 13.0087 13.407L9.77022 13.9886C9.73313 13.9957 9.69549 13.9995 9.65775 14ZM11.1922 8.59626L10.4786 12.4998L12.9647 12.0533C13.0581 12.0265 13.1561 12.0212 13.2517 12.0377C13.3473 12.0542 13.4382 12.0921 13.5178 12.1486C13.8219 12.3674 14.1849 12.4847 14.557 12.4844C14.9773 12.4838 15.3845 12.3347 15.7093 12.0623C16.0341 11.7899 16.2565 11.4111 16.3387 10.9902C16.3591 10.885 16.4038 10.7863 16.4692 10.7024C16.5346 10.6185 16.6187 10.5518 16.7145 10.5079C16.8104 10.4639 16.9151 10.4441 17.02 10.45C17.1248 10.4558 17.2268 10.4873 17.3173 10.5417C17.5934 10.7122 17.9096 10.8031 18.2322 10.8049C18.5302 10.8062 18.824 10.7323 19.0873 10.5899C19.3507 10.4475 19.5756 10.2409 19.7421 9.98855C19.9086 9.73615 20.0115 9.44571 20.0417 9.14298C20.0719 8.84026 20.0285 8.5346 19.9153 8.25311C19.8647 8.12553 19.8537 7.98516 19.8838 7.851C19.9139 7.71683 19.9837 7.59536 20.0836 7.50302C20.2736 7.33138 20.4258 7.12051 20.53 6.88435C20.6342 6.64819 20.6881 6.39213 20.6881 6.13311C20.6887 5.82376 20.6132 5.51921 20.4686 5.24737C20.3239 4.97554 20.1148 4.74512 19.8603 4.57724C19.6058 4.40936 19.3141 4.3094 19.012 4.28651C18.7098 4.26363 18.4069 4.31855 18.1309 4.44625C17.9874 4.51206 17.8256 4.52318 17.6748 4.47759C17.5239 4.43201 17.3941 4.33273 17.3088 4.19778C17.1161 3.88939 16.8382 3.64626 16.5102 3.49914C16.1822 3.35203 15.8188 3.30754 15.466 3.37129C15.1132 3.43505 14.7869 3.6042 14.5283 3.85734C14.2696 4.11048 14.0903 4.43624 14.0131 4.79342C13.9937 4.88199 13.9569 4.96562 13.905 5.03928C13.8531 5.11293 13.7871 5.17508 13.711 5.22196C13.6349 5.26884 13.5502 5.29949 13.4622 5.31206C13.3742 5.32462 13.2846 5.31883 13.1988 5.29505C12.8521 5.19588 12.4842 5.20473 12.1424 5.32046C11.8006 5.4362 11.5005 5.65354 11.2805 5.94462C11.0605 6.23569 10.9306 6.58723 10.9076 6.95415C10.8846 7.32107 10.9695 7.68664 11.1514 8.00397C11.2022 8.0929 11.2323 8.19256 11.2394 8.29526C11.2464 8.39796 11.2303 8.50095 11.1922 8.59626Z" stroke="#2C43A1" stroke-width="0.6" mask="url(#path-1-outside-1)"/>
</svg>
