<svg width="18" height="18" viewBox="0 0 18 18" fill="none" xmlns="http://www.w3.org/2000/svg">
<path d="M13.5835 10.6667C13.0852 12.4002 11.6182 13.6813 9.83352 13.9417C8.45281 14.142 7.0501 13.7708 5.94924 12.9137C4.84838 12.0566 4.14453 10.7877 4.00019 9.40006C3.88831 8.00615 4.36528 6.62909 5.31536 5.603C6.26544 4.57691 7.6018 3.99558 9.00019 4.00006C9.64831 4.00098 10.2903 4.12542 10.8919 4.36673C11.0882 4.45486 11.3193 4.37902 11.4252 4.19173L12.6252 1.9834C12.6774 1.88067 12.6865 1.76139 12.6505 1.65193C12.6145 1.54247 12.5365 1.45183 12.4335 1.40006C9.81393 0.214031 6.76795 0.462365 4.37506 2.05706C1.98218 3.65175 0.580529 6.36745 0.666854 9.24173C0.837042 13.5936 4.29295 17.1 8.64185 17.3334C13.2179 17.5363 17.0998 14.0079 17.3335 9.4334V7.76673C17.3291 7.53847 17.1451 7.3545 16.9169 7.35006H9.41685C9.18674 7.35006 9.00019 7.53661 9.00019 7.76673V10.2667C9.00019 10.4969 9.18674 10.6834 9.41685 10.6834H13.5835" fill="#38393F"/>
</svg>
