<svg width="21" height="19" viewBox="0 0 21 19" fill="none" xmlns="http://www.w3.org/2000/svg">
<path d="M11.5433 1.69164C11.1621 1.94113 10.8125 2.23539 10.5018 2.56798C10.1922 2.23401 9.8422 1.93951 9.45982 1.69132L9.45946 1.69109C8.48486 1.0625 7.35018 0.727206 6.19047 0.725103C4.76083 0.696298 3.37985 1.24473 2.35947 2.24655C1.33875 3.24871 0.765039 4.61997 0.767975 6.05041L0.767988 6.05165C0.778666 7.0858 1.01007 8.10573 1.44673 9.04322C2.76109 11.9536 5.72238 14.3749 8.30796 16.4891L8.34117 16.5162L8.3826 16.5501H8.39201C8.43065 16.5818 8.46917 16.6134 8.50756 16.6449C9.17206 17.1903 9.7985 17.7044 10.3595 18.1999L10.3889 18.4351L10.6022 18.2446C11.2174 17.6953 11.9124 17.1272 12.6527 16.5241L12.6612 16.5172L12.6612 16.5172L12.6623 16.5163L12.6781 16.5034C15.2679 14.3897 18.2386 11.965 19.5559 9.04806C19.9932 8.10906 20.2247 7.08736 20.2347 6.05155L20.2347 6.05041C20.2376 4.61997 19.6639 3.24871 18.6432 2.24655C17.6228 1.24473 16.2418 0.6963 14.8122 0.725103C13.6527 0.727064 12.5183 1.06238 11.5441 1.69111L11.5433 1.69164ZM6.18695 2.94179L6.1901 2.94176C7.23743 2.93286 8.23869 3.37164 8.94201 4.14767L10.388 5.81396L10.5013 5.9445L10.6146 5.81396L12.0606 4.14767C12.764 3.37164 13.7652 2.93286 14.8125 2.94179L14.8154 2.94176C15.6695 2.93304 16.4924 3.26219 17.1049 3.85748C17.6923 4.43485 18.0216 5.22502 18.018 6.04866C18.0087 6.77266 17.8442 7.48623 17.5355 8.1412C16.9288 9.36927 16.11 10.4806 15.1168 11.424L15.1168 11.4239L15.1133 11.4274C14.1694 12.3847 13.081 13.3073 12.1366 14.087C11.8753 14.3023 11.6092 14.5196 11.34 14.739L11.3395 14.7394L11.1728 14.8764L11.1728 14.8764L10.5686 15.3723H10.5685L10.5291 15.401L10.5185 15.4086L10.5182 15.4082L10.5091 15.4161L10.509 15.4161C10.2804 15.2267 10.0467 15.0354 9.81999 14.8503C9.81997 14.8503 9.81996 14.8503 9.81994 14.8502L9.65228 14.7132L9.65224 14.7132L9.65217 14.7132C9.38576 14.4956 9.11967 14.2783 8.8584 14.063C7.91408 13.2834 6.82646 12.3597 5.88233 11.407L5.88237 11.407L5.87913 11.4039C4.88616 10.46 4.06743 9.3485 3.46054 8.12031C3.15745 7.47104 2.99526 6.76495 2.98457 6.04848C2.97891 5.22226 3.30833 4.429 3.89765 3.84989C4.51132 3.25744 5.33401 2.93108 6.18695 2.94179Z" fill="white" stroke="white" stroke-width="0.3"/>
</svg>
