<svg width="18" height="21" viewBox="0 0 18 21" fill="none" xmlns="http://www.w3.org/2000/svg">
<path d="M16.5859 20.8333H1.41927C0.820962 20.8333 0.335938 20.3483 0.335938 19.75V9.36516C0.335938 9.07786 0.450176 8.80236 0.653354 8.59924L8.23669 1.01591C8.43989 0.812483 8.71562 0.698181 9.00315 0.698181C9.29067 0.698181 9.5664 0.812483 9.7696 1.01591L17.3529 8.59924C17.5563 8.80213 17.6702 9.07788 17.6693 9.36516V19.75C17.6693 20.3483 17.1842 20.8333 16.5859 20.8333ZM6.83594 13.25H11.1693V18.6667H15.5026V9.81366L9.0026 3.31366L2.5026 9.81366V18.6667H6.83594V13.25Z" fill="#AAAAAA"/>
</svg>
