<svg width="24" height="24" viewBox="0 0 24 24" fill="none" xmlns="http://www.w3.org/2000/svg">
<rect opacity="0.01" x="24" y="24" width="24" height="24" transform="rotate(180 24 24)" fill="#38393F"/>
<path d="M15.1498 8.40043C13.6019 8.39511 12.1154 9.00562 11.018 10.0974C9.9206 11.1891 9.30245 12.6725 9.2998 14.2204V20.1004C9.2998 20.3391 9.39463 20.568 9.56341 20.7368C9.73219 20.9056 9.96111 21.0004 10.1998 21.0004H12.2998C12.7969 21.0004 13.1998 20.5975 13.1998 20.1004V14.2204C13.1994 13.6691 13.4336 13.1437 13.8439 12.7754C14.2541 12.4071 14.8017 12.2307 15.3498 12.2904C16.3558 12.4171 17.1078 13.2765 17.0998 14.2904V20.1004C17.0998 20.5975 17.5027 21.0004 17.9998 21.0004H20.0998C20.5969 21.0004 20.9998 20.5975 20.9998 20.1004V14.2204C20.9972 12.6725 20.379 11.1891 19.2816 10.0974C18.1843 9.00562 16.6977 8.39511 15.1498 8.40043Z" fill="#38393F"/>
<rect x="3" y="9.2998" width="4.5" height="11.7" rx="0.9" fill="#38393F"/>
<circle cx="5.25" cy="5.25" r="2.25" fill="#38393F"/>
</svg>
