<svg width="15" height="13" viewBox="0 0 15 13" fill="none" xmlns="http://www.w3.org/2000/svg">
<path d="M7.79082 12.3655L7.83475 12.4094H7.89682H7.89777H7.95991L8.00385 12.3655L13.7625 6.60588L13.8685 6.49981L13.7625 6.39375L8.00288 0.634168L7.89712 0.528403L7.79105 0.633868L6.43501 1.98224L6.32834 2.08831L6.43471 2.19468L10.737 6.49694L6.43471 10.7992L6.32857 10.9054L6.43478 11.0114L7.79082 12.3655ZM2.59183 12.3655L2.63576 12.4094H2.69786H2.69882H2.76095L2.80488 12.3655L8.56447 6.60589L8.67054 6.49981L8.56446 6.39374L2.80391 0.63416L2.69785 0.528111L2.59179 0.634168L1.23671 1.98925L1.13056 2.0954L1.23679 2.20146L5.53889 6.49702L1.23671 10.7992L1.1306 10.9053L1.23674 11.0114L2.59183 12.3655Z" fill="white" stroke="white" stroke-width="0.3"/>
</svg>
