<svg width="20" height="20" viewBox="0 0 20 20" fill="none" xmlns="http://www.w3.org/2000/svg">
<path d="M9.9987 19.9163C4.52187 19.9163 0.0820312 15.4765 0.0820312 9.99968C0.0820312 4.52285 4.52187 0.0830078 9.9987 0.0830078C15.4755 0.0830078 19.9154 4.52285 19.9154 9.99968C19.9091 15.4739 15.4729 19.9101 9.9987 19.9163ZM9.9987 2.91634C6.08668 2.91634 2.91536 6.08766 2.91536 9.99968C2.91536 13.9117 6.08668 17.083 9.9987 17.083C13.9107 17.083 17.082 13.9117 17.082 9.99968C17.082 6.08766 13.9107 2.91634 9.9987 2.91634ZM9.9987 14.2497C7.65149 14.2497 5.7487 12.3469 5.7487 9.99968C5.7487 7.65247 7.65149 5.74968 9.9987 5.74968C12.3459 5.74968 14.2487 7.65247 14.2487 9.99968C14.2487 11.1268 13.8009 12.2079 13.0039 13.0049C12.2069 13.8019 11.1259 14.2497 9.9987 14.2497Z" fill="#2C43A1"/>
</svg>
