<svg width="21" height="21" viewBox="0 0 21 21" fill="none" xmlns="http://www.w3.org/2000/svg">
<path d="M14.4361 3.74619C14.1995 3.60778 13.9558 3.48192 13.7061 3.36912L13.3275 1.63876C13.2166 1.13 12.7664 0.767052 12.2457 0.766504H12.2456L8.75724 0.766504L8.75708 0.766504C8.23637 0.767052 7.78626 1.13 7.67535 1.63876L7.67531 1.63893L7.30055 3.3676C7.06551 3.4718 6.83561 3.58725 6.61164 3.71356L6.61164 3.71355L6.61015 3.71441C6.37558 3.85025 6.14818 3.99807 5.92885 4.1573L4.24115 3.61984C4.24113 3.61984 4.24111 3.61983 4.24109 3.61983C3.74458 3.46152 3.20485 3.6705 2.94441 4.12189C2.94441 4.1219 2.9444 4.12191 2.9444 4.12192L1.20025 7.14352L1.20025 7.14352L1.19992 7.14409C0.941936 7.59562 1.03064 8.16556 1.41365 8.51732L1.41415 8.51777L2.72363 9.70962C2.67101 10.2345 2.67101 10.7634 2.72364 11.2882L1.41402 12.483L1.4136 12.4834C1.03115 12.835 0.942478 13.4042 1.19986 13.8555L1.20034 13.8563L2.94823 16.8758C2.94826 16.8759 2.94829 16.8759 2.94832 16.876C3.20879 17.3273 3.7485 17.5362 4.24498 17.3779L5.93293 16.8404C6.3609 17.1493 6.81905 17.414 7.30038 17.6306L7.67433 19.3616L7.67442 19.362C7.78588 19.8708 8.23649 20.2332 8.75724 20.2332H12.2456H12.2457C12.7661 20.2327 13.2161 19.8704 13.3274 19.362C13.3274 19.362 13.3274 19.362 13.3274 19.362L13.706 17.6354C13.9525 17.5243 14.1932 17.4007 14.4272 17.2651L14.4274 17.265C14.6493 17.1361 14.8646 16.9963 15.0728 16.8461L16.7617 17.3837L16.7618 17.3837C17.258 17.5415 17.7971 17.3325 18.0574 16.8816L17.9281 16.807L18.0574 16.8816L19.8016 13.86L19.802 13.8593C20.0594 13.4081 19.9707 12.8388 19.5883 12.4872L19.5878 12.4868L18.2782 11.2921C18.3308 10.7672 18.3308 10.2383 18.2782 9.71335L19.5878 8.51861L19.5883 8.51822C19.9707 8.16662 20.0594 7.59737 19.802 7.1461L19.8016 7.14543L18.0574 4.12381L17.9321 4.19618L18.0574 4.1238C17.7971 3.67288 17.258 3.46397 16.7618 3.62172L16.7617 3.62174L15.0729 4.15926C14.8678 4.01084 14.6552 3.87297 14.4361 3.74619ZM14.4361 3.74619C14.4359 3.74612 14.4358 3.74606 14.4357 3.74599L14.3606 3.87584L14.4364 3.74637C14.4363 3.74631 14.4362 3.74625 14.4361 3.74619ZM6.39248 14.4316L6.33098 14.3866L6.25837 14.4097L4.41843 14.996L3.56646 13.5203L4.99429 12.2188L5.05073 12.1673L5.04233 12.0914L4.935 11.1216L4.93499 11.1215C4.88907 10.7083 4.88907 10.2913 4.93499 9.87816L4.935 9.87807L5.04233 8.90728L5.05073 8.83132L4.99421 8.77987L3.56644 7.48018L4.42042 5.99894L6.26029 6.58517L6.33285 6.60829L6.39433 6.56336L7.18112 5.98836L7.18138 5.98817C7.35321 5.86204 7.53208 5.7458 7.71714 5.64002L7.71764 5.63974C7.89261 5.53883 8.07296 5.44756 8.25789 5.36634L9.14999 4.97539L9.21993 4.94474L9.2363 4.87015L9.65031 2.98317H11.3543L11.7665 4.86907L11.7828 4.94374L11.8528 4.97443L12.746 5.36598C12.7462 5.36605 12.7463 5.36612 12.7465 5.36618C13.1268 5.53595 13.4878 5.74605 13.8232 5.99287L13.8236 5.99315L14.6104 6.56815L14.6719 6.61308L14.7444 6.58997L16.5854 6.00369L17.4383 7.48039L16.0094 8.78481L15.953 8.83625L15.9614 8.91209L16.0688 9.88192L16.0688 9.88199C16.1147 10.2952 16.1147 10.7122 16.0688 11.1254L16.0688 11.1254L15.9614 12.0953L15.953 12.1712L16.0095 12.2226L17.4373 13.5242L16.5853 14.9998L14.7444 14.4135L14.6719 14.3904L14.6104 14.4354L13.8236 15.0104L13.8235 15.0105C13.4881 15.2561 13.1271 15.4647 12.7468 15.6324C12.7467 15.6324 12.7467 15.6324 12.7466 15.6325L11.8528 16.0243L11.7828 16.055L11.7665 16.1297L11.3543 18.0165H9.65041L9.23824 16.1306L9.22192 16.0559L9.15192 16.0253L8.25877 15.6337C8.25861 15.6336 8.25844 15.6336 8.25828 15.6335C8.07345 15.5509 7.89307 15.4587 7.71787 15.3572L7.71694 15.3567C7.53085 15.2507 7.35113 15.1339 7.1787 15.0069L7.17832 15.0066L6.39248 14.4316ZM10.4976 14.4832H10.4978C12.6965 14.4804 14.4782 12.6987 14.4809 10.5V10.4998C14.4809 8.2999 12.6975 6.5165 10.4976 6.5165C8.29764 6.5165 6.51424 8.2999 6.51424 10.4998C6.51424 12.6998 8.29764 14.4832 10.4976 14.4832ZM12.2642 10.4998V10.5826C12.2191 11.5452 11.4107 12.2943 10.4471 12.2657C9.48239 12.2371 8.7192 11.4396 8.73303 10.4745C8.74686 9.50949 9.53259 8.73415 10.4977 8.73317C11.4734 8.73325 12.2642 9.52418 12.2642 10.4998Z" fill="white" stroke="white" stroke-width="0.3"/>
</svg>
