<svg width="20" height="21" viewBox="0 0 20 21" fill="none" xmlns="http://www.w3.org/2000/svg">
<path d="M12.2665 4.27191L12.2665 4.27246C12.2695 4.52158 12.2992 4.76955 12.3549 5.01216L7.12791 8.00043C6.31526 6.84576 4.88237 6.28892 3.49607 6.60232C2.06331 6.92622 0.98548 8.11066 0.79775 9.56753C0.610019 11.0244 1.35237 12.4434 2.65622 13.1199C3.92741 13.7795 5.46835 13.5964 6.54846 12.6672L12.3556 15.9864C12.1209 17.0007 12.3545 18.0694 12.9959 18.8946C13.661 19.7501 14.6879 20.2454 15.7714 20.2331C17.3369 20.235 18.7132 19.1968 19.1415 17.691C19.5698 16.1848 18.9454 14.5774 17.6126 13.7554C16.3111 12.9526 14.6437 13.0896 13.4917 14.0823L7.68509 10.7639C7.72751 10.5755 7.75359 10.3838 7.76304 10.1909L13.4917 6.91728C14.7242 7.98141 16.5318 8.06731 17.862 7.11173C19.2221 6.13465 19.7097 4.33705 19.0296 2.80664C18.3496 1.27622 16.6887 0.433291 15.0519 0.787899C13.4152 1.14251 12.2521 2.59726 12.2665 4.27191ZM14.4831 16.729C14.4831 16.0179 15.0596 15.4415 15.7706 15.4415C16.4817 15.4415 17.0581 16.0179 17.0581 16.729C17.0581 17.44 16.4817 18.0165 15.7706 18.0165C15.0596 18.0165 14.4831 17.44 14.4831 16.729ZM2.98313 10.0206C2.98313 9.30956 3.55956 8.73313 4.27063 8.73313C4.98169 8.73313 5.55813 9.30956 5.55813 10.0206C5.55813 10.7317 4.98169 11.3081 4.27063 11.3081C3.55956 11.3081 2.98313 10.7317 2.98313 10.0206ZM14.4831 4.27063C14.4831 3.55956 15.0596 2.98313 15.7706 2.98313C16.4817 2.98313 17.0581 3.55956 17.0581 4.27063C17.0581 4.98169 16.4817 5.55813 15.7706 5.55813C15.0596 5.55813 14.4831 4.98169 14.4831 4.27063Z" fill="white" stroke="white" stroke-width="0.3"/>
</svg>
