<svg width="19" height="21" viewBox="0 0 19 21" fill="none" xmlns="http://www.w3.org/2000/svg">
<path d="M0.725 5.70817V5.85817H0.875H2.64167V18.1665C2.64167 19.3079 3.56694 20.2332 4.70833 20.2332H14.2917C15.4331 20.2332 16.3583 19.3079 16.3583 18.1665V5.85817H18.125H18.275V5.70817V3.7915V3.6415H18.125H14.4417V2.83317C14.4417 1.69178 13.5164 0.766504 12.375 0.766504H6.625C5.48361 0.766504 4.55833 1.69178 4.55833 2.83317V3.6415H0.875H0.725V3.7915V5.70817ZM14.1417 18.0165H4.85833V5.85817H14.1417V18.0165ZM12.225 3.6415H6.775V2.98317H12.225V3.6415Z" fill="white" stroke="white" stroke-width="0.3"/>
</svg>
