<svg width="19" height="17" viewBox="0 0 19 17" fill="none" xmlns="http://www.w3.org/2000/svg">
<path d="M5.07982 15.9998C8.06723 16.0998 10.9681 14.9874 13.1227 12.9156C15.2773 10.8439 16.5026 7.98883 16.5198 4.9998C17.1975 4.16121 17.7007 3.19563 17.9998 2.1598C18.0454 1.99263 17.9887 1.81425 17.8549 1.70417C17.721 1.59408 17.5351 1.5728 17.3798 1.6498C16.6529 1.99973 15.7837 1.84682 15.2198 1.2698C14.5106 0.493134 13.5171 0.0367645 12.4658 0.00473597C11.4145 -0.0272926 10.395 0.36775 9.63982 1.0998C8.59878 2.108 8.16235 3.58807 8.48982 4.9998C5.13982 5.1998 2.83982 3.6098 0.999819 1.4298C0.886869 1.30189 0.708969 1.25287 0.546445 1.30488C0.38392 1.35689 0.267527 1.50008 0.249819 1.6698C-0.468064 5.65197 1.36669 9.66049 4.84982 11.7198C3.70946 13.0276 2.10803 13.8445 0.379819 13.9998C0.189999 14.0313 0.0411958 14.18 0.00956334 14.3698C-0.0220691 14.5596 0.0704694 14.7485 0.239819 14.8398C1.74334 15.5912 3.39905 15.988 5.07982 15.9998Z" fill="#38393F"/>
</svg>
