<svg width="22" height="20" viewBox="0 0 22 20" fill="none" xmlns="http://www.w3.org/2000/svg">
<path d="M7.75033 0.25C4.75878 0.25 2.33366 2.67512 2.33366 5.66667C2.33366 8.65821 4.75878 11.0833 7.75033 11.0833C10.7419 11.0833 13.167 8.65821 13.167 5.66667C13.167 2.67512 10.7419 0.25 7.75033 0.25ZM4.50033 5.66667C4.50033 3.87174 5.9554 2.41667 7.75033 2.41667C9.54525 2.41667 11.0003 3.87174 11.0003 5.66667C11.0003 7.46159 9.54525 8.91667 7.75033 8.91667C5.9554 8.91667 4.50033 7.46159 4.50033 5.66667Z" fill="#2C43A1"/>
<path d="M16.3178 5.90314C16.013 5.74774 15.6758 5.66673 15.3337 5.66673V3.50007C16.0179 3.50007 16.6924 3.66203 17.302 3.97282C17.3691 4.00705 17.4352 4.04298 17.5003 4.08056C18.0262 4.38415 18.4831 4.79533 18.8407 5.2881C19.2426 5.84186 19.5077 6.48293 19.6142 7.15882C19.7207 7.8347 19.6656 8.52621 19.4535 9.17672C19.2414 9.82724 18.8782 10.4183 18.3938 10.9015C17.9093 11.3847 17.3173 11.7463 16.6663 11.9567C16.0869 12.1439 15.4754 12.2067 14.8717 12.142C14.7969 12.134 14.7223 12.124 14.6479 12.1121C13.9728 12.0039 13.3328 11.7374 12.7804 11.3346L12.7792 11.3337L14.0565 9.58353C14.3328 9.78519 14.653 9.9185 14.9908 9.97264C15.3286 10.0268 15.6744 10.0001 15.9999 9.89494C16.3255 9.78974 16.6214 9.60894 16.8637 9.36736C17.1059 9.12577 17.2875 8.83026 17.3935 8.50501C17.4996 8.17976 17.5271 7.83402 17.4739 7.49608C17.4206 7.15815 17.2881 6.83763 17.0871 6.56076C16.8862 6.28388 16.6226 6.05853 16.3178 5.90314Z" fill="#2C43A1"/>
<path d="M19.6649 19.75C19.6649 19.1812 19.5529 18.618 19.3352 18.0925C19.1176 17.567 18.7985 17.0895 18.3963 16.6873C17.9941 16.2851 17.5167 15.9661 16.9912 15.7484C16.4657 15.5308 15.9025 15.4187 15.3337 15.4187V13.25C16.0726 13.25 16.8052 13.376 17.5003 13.6217C17.6082 13.6599 17.7152 13.7009 17.8211 13.7448C18.6097 14.0714 19.3263 14.5502 19.9299 15.1538C20.5334 15.7574 21.0122 16.4739 21.3389 17.2626C21.3828 17.3685 21.4238 17.4755 21.4619 17.5833C21.7077 18.2784 21.8337 19.0111 21.8337 19.75H19.6649Z" fill="#2C43A1"/>
<path d="M15.3337 19.75H13.167C13.167 16.7585 10.7419 14.3333 7.75033 14.3333C4.75878 14.3333 2.33366 16.7585 2.33366 19.75H0.166992C0.166992 15.5618 3.56217 12.1667 7.75033 12.1667C11.9385 12.1667 15.3337 15.5618 15.3337 19.75Z" fill="#2C43A1"/>
</svg>
