<svg width="16" height="16" viewBox="0 0 16 16" fill="none" xmlns="http://www.w3.org/2000/svg">
<path d="M7.9925 15.4889C3.85134 15.4848 0.497243 12.1274 0.500002 7.98898C0.502763 3.85061 3.86134 0.497646 8.0025 0.499024C12.1437 0.500402 15.5 3.8556 15.5 7.99398C15.4975 12.1352 12.1365 15.4906 7.9925 15.4889ZM2 8.12289C2.03549 11.4216 4.73083 14.072 8.03191 14.0544C11.333 14.0366 13.9997 11.3573 13.9997 8.05843C13.9997 4.75953 11.333 2.08029 8.03191 2.06247C4.73083 2.04482 2.03549 4.69526 2 7.99397V8.12289ZM8.75 11.7414H7.25V10.2425H8.75V11.7414ZM8.75 8.74347H7.25V4.2465H8.75V8.74347Z" fill="#2C43A1"/>
</svg>
