<svg width="20" height="20" viewBox="0 0 20 20" fill="none" xmlns="http://www.w3.org/2000/svg">
<g clip-path="url(#clip0)">
<path d="M10 18.9998C8.73693 17.9224 7.56619 16.7413 6.5 15.4688C4.9 13.5578 3 10.7118 3 7.99981C2.99858 5.16735 4.70425 2.6132 7.32107 1.5292C9.93789 0.445211 12.9501 1.04505 14.952 3.04881C16.2685 4.35941 17.0059 6.14219 17 7.99981C17 10.7118 15.1 13.5578 13.5 15.4688C12.4338 16.7413 11.2631 17.9224 10 18.9998ZM10 2.99981C7.23995 3.00311 5.00331 5.23975 5 7.99981C5 9.16581 5.527 11.1848 8.035 14.1858C8.65314 14.9239 9.30902 15.6295 10 16.2998C10.691 15.6303 11.3472 14.9257 11.966 14.1888C14.473 11.1838 15 9.16481 15 7.99981C14.9967 5.23975 12.7601 3.00311 10 2.99981ZM10 10.9998C8.34315 10.9998 7 9.65666 7 7.99981C7 6.34295 8.34315 4.99981 10 4.99981C11.6569 4.99981 13 6.34295 13 7.99981C13 8.79546 12.6839 9.55852 12.1213 10.1211C11.5587 10.6837 10.7957 10.9998 10 10.9998Z" fill="#2C43A1"/>
<circle cx="10" cy="8" r="1.15" fill="white" stroke="white" stroke-width="0.3"/>
</g>
<defs>
<clipPath id="clip0">
<rect width="20" height="20" fill="white"/>
</clipPath>
</defs>
</svg>
