<svg width="20" height="20" viewBox="0 0 20 20" fill="none" xmlns="http://www.w3.org/2000/svg">
<path fill-rule="evenodd" clip-rule="evenodd" d="M7 7.99982C7 9.65671 8.3431 10.9998 10 10.9998C10.7957 10.9998 11.5587 10.6837 12.1213 10.1211C12.6839 9.55851 13 8.79551 13 7.99982C13 6.34296 11.6569 4.99982 10 4.99982C8.3431 4.99982 7 6.34296 7 7.99982ZM10.0004 9.30291C10.72 9.30291 11.3034 8.71951 11.3034 7.99987C11.3034 7.2802 10.72 6.69679 10.0004 6.69679C9.2807 6.69679 8.6973 7.2802 8.6973 7.99987C8.6973 8.71951 9.2807 9.30291 10.0004 9.30291Z" fill="#2C43A1"/>
<path fill-rule="evenodd" clip-rule="evenodd" d="M6.5 15.4688C7.56619 16.7413 8.7369 17.9224 10 18.9998C11.2631 17.9224 12.4338 16.7413 13.5 15.4688C15.1 13.5578 17 10.7118 17 7.99981C17.0059 6.14219 16.2685 4.35941 14.952 3.04881C12.9501 1.04505 9.9379 0.44521 7.32107 1.5292C4.70425 2.6132 2.99858 5.16735 3 7.99981C3 10.7118 4.9 13.5578 6.5 15.4688ZM5 7.99981C5.00331 5.23975 7.23995 3.00311 10 2.99981C12.7601 3.00311 14.9967 5.23975 15 7.99981C15 9.1648 14.473 11.1838 11.966 14.1888C11.3472 14.9257 10.691 15.6303 10 16.2998C9.309 15.6295 8.6531 14.9239 8.035 14.1858C5.527 11.1848 5 9.1658 5 7.99981Z" fill="#2C43A1"/>
</svg>
