<svg width="23" height="23" viewBox="0 0 23 23" fill="none" xmlns="http://www.w3.org/2000/svg">
<path d="M8.68038 21.3136L8.70349 21.3213H8.72785H8.72881H8.76867L8.80328 21.3015L15.418 17.5186L21.027 19.7629L21.2327 19.8452V19.6236V4.1427V4.04114L21.1384 4.00343L15.3146 1.67372L15.2473 1.6468L15.1844 1.68278L8.50466 5.50291L1.9635 3.31999L1.76602 3.25409V3.46228V18.8991V19.0072L1.86855 19.0414L8.68038 21.3136ZM7.51602 18.5866L3.98268 17.4091V6.33334L7.51602 7.50641V18.5866ZM9.73268 18.2179V7.35099L13.266 5.32993V16.1968L9.73268 18.2179ZM15.4827 15.1578V4.1268L19.016 5.54086V16.5711L15.4827 15.1578Z" fill="white" stroke="white" stroke-width="0.3"/>
</svg>
