<svg width="23" height="23" viewBox="0 0 23 23" fill="none" xmlns="http://www.w3.org/2000/svg">
<path d="M12.459 20.275L12.4583 20.275L4.79167 20.275C3.65028 20.275 2.725 19.3497 2.725 18.2083V4.79167C2.725 3.65028 3.65028 2.725 4.79167 2.725H18.2083C19.3497 2.725 20.275 3.65028 20.275 4.79167V12.4583V12.4641L20.2749 12.4641C20.274 12.4881 20.2699 12.5119 20.2627 12.5348C20.256 12.6298 20.2372 12.7235 20.2068 12.8137C20.2068 12.8138 20.2068 12.8138 20.2068 12.8138L20.199 12.8371C20.1908 12.8645 20.1806 12.8912 20.1686 12.9171L12.459 20.275ZM12.459 20.275C12.7513 20.2738 13.0314 20.157 13.2381 19.9503L12.459 20.275ZM4.94167 18.0583V4.94167H18.0583V11.35H12.4583C11.8462 11.35 11.35 11.8462 11.35 12.4583V18.0583H4.94167ZM16.4912 13.5667L13.5667 16.492V13.5667H16.4912Z" fill="white" stroke="white" stroke-width="0.3"/>
</svg>
