<svg width="23" height="23" viewBox="0 0 23 23" fill="none" xmlns="http://www.w3.org/2000/svg">
<path d="M15.4361 4.74619C15.1995 4.60778 14.9558 4.48192 14.7061 4.36912L14.3275 2.63876C14.2166 2.13 13.7664 1.76705 13.2457 1.7665H13.2456L9.75724 1.7665L9.75708 1.7665C9.23637 1.76705 8.78626 2.13 8.67535 2.63876L8.67531 2.63893L8.30055 4.3676C8.06551 4.4718 7.83561 4.58725 7.61164 4.71356L7.61164 4.71355L7.61015 4.71441C7.37558 4.85025 7.14818 4.99807 6.92885 5.1573L5.24115 4.61984C5.24113 4.61984 5.24111 4.61983 5.24109 4.61983C4.74458 4.46152 4.20485 4.6705 3.94441 5.12189C3.94441 5.1219 3.9444 5.12191 3.9444 5.12192L2.20025 8.14352L2.20025 8.14352L2.19992 8.14409C1.94194 8.59562 2.03064 9.16556 2.41365 9.51732L2.41415 9.51777L3.72363 10.7096C3.67101 11.2345 3.67101 11.7634 3.72364 12.2882L2.41402 13.483L2.4136 13.4834C2.03115 13.835 1.94248 14.4042 2.19986 14.8555L2.20034 14.8563L3.94823 17.8758C3.94826 17.8759 3.94829 17.8759 3.94832 17.876C4.20879 18.3273 4.7485 18.5362 5.24498 18.3779L6.93293 17.8404C7.3609 18.1493 7.81905 18.414 8.30038 18.6306L8.67433 20.3616L8.67442 20.362C8.78588 20.8708 9.23649 21.2332 9.75724 21.2332H13.2456H13.2457C13.7661 21.2327 14.2161 20.8704 14.3274 20.362C14.3274 20.362 14.3274 20.362 14.3274 20.362L14.706 18.6354C14.9525 18.5243 15.1932 18.4007 15.4272 18.2651L15.4274 18.265C15.6493 18.1361 15.8646 17.9963 16.0728 17.8461L17.7617 18.3837L17.7618 18.3837C18.258 18.5415 18.7971 18.3325 19.0574 17.8816L18.9281 17.807L19.0574 17.8816L20.8016 14.86L20.802 14.8593C21.0594 14.4081 20.9707 13.8388 20.5883 13.4872L20.5878 13.4868L19.2782 12.2921C19.3308 11.7672 19.3308 11.2383 19.2782 10.7133L20.5878 9.51861L20.5883 9.51822C20.9707 9.16662 21.0594 8.59737 20.802 8.1461L20.8016 8.14543L19.0574 5.12381L18.9321 5.19618L19.0574 5.1238C18.7971 4.67288 18.258 4.46397 17.7618 4.62172L17.7617 4.62174L16.0729 5.15926C15.8678 5.01084 15.6552 4.87297 15.4361 4.74619ZM15.4361 4.74619C15.4359 4.74612 15.4358 4.74606 15.4357 4.74599L15.3606 4.87584L15.4364 4.74637C15.4363 4.74631 15.4362 4.74625 15.4361 4.74619ZM7.39248 15.4316L7.33098 15.3866L7.25837 15.4097L5.41843 15.996L4.56646 14.5203L5.99429 13.2188L6.05073 13.1673L6.04233 13.0914L5.935 12.1216L5.93499 12.1215C5.88907 11.7083 5.88907 11.2913 5.93499 10.8782L5.935 10.8781L6.04233 9.90728L6.05073 9.83132L5.99421 9.77987L4.56644 8.48018L5.42042 6.99894L7.26029 7.58517L7.33285 7.60829L7.39433 7.56336L8.18112 6.98836L8.18138 6.98817C8.35321 6.86204 8.53208 6.7458 8.71714 6.64002L8.71764 6.63974C8.89261 6.53883 9.07296 6.44756 9.25789 6.36634L10.15 5.97539L10.2199 5.94474L10.2363 5.87015L10.6503 3.98317H12.3543L12.7665 5.86907L12.7828 5.94374L12.8528 5.97443L13.746 6.36598C13.7462 6.36605 13.7463 6.36612 13.7465 6.36618C14.1268 6.53595 14.4878 6.74605 14.8232 6.99287L14.8236 6.99315L15.6104 7.56815L15.6719 7.61308L15.7444 7.58997L17.5854 7.00369L18.4383 8.48039L17.0094 9.78481L16.953 9.83625L16.9614 9.91209L17.0688 10.8819L17.0688 10.882C17.1147 11.2952 17.1147 11.7122 17.0688 12.1254L17.0688 12.1254L16.9614 13.0953L16.953 13.1712L17.0095 13.2226L18.4373 14.5242L17.5853 15.9998L15.7444 15.4135L15.6719 15.3904L15.6104 15.4354L14.8236 16.0104L14.8235 16.0105C14.4881 16.2561 14.1271 16.4647 13.7468 16.6324C13.7467 16.6324 13.7467 16.6324 13.7466 16.6325L12.8528 17.0243L12.7828 17.055L12.7665 17.1297L12.3543 19.0165H10.6504L10.2382 17.1306L10.2219 17.0559L10.1519 17.0253L9.25877 16.6337C9.25861 16.6336 9.25844 16.6336 9.25828 16.6335C9.07345 16.5509 8.89307 16.4587 8.71787 16.3572L8.71694 16.3567C8.53085 16.2507 8.35113 16.1339 8.1787 16.0069L8.17832 16.0066L7.39248 15.4316ZM11.4976 15.4832H11.4978C13.6965 15.4804 15.4782 13.6987 15.4809 11.5V11.4998C15.4809 9.2999 13.6975 7.5165 11.4976 7.5165C9.29764 7.5165 7.51424 9.2999 7.51424 11.4998C7.51424 13.6998 9.29764 15.4832 11.4976 15.4832ZM13.2642 11.4998V11.5826C13.2191 12.5452 12.4107 13.2943 11.4471 13.2657C10.4824 13.2371 9.7192 12.4396 9.73303 11.4745C9.74686 10.5095 10.5326 9.73415 11.4977 9.73317C12.4734 9.73325 13.2642 10.5242 13.2642 11.4998Z" fill="white" stroke="white" stroke-width="0.3"/>
</svg>
