<svg width="23" height="23" viewBox="0 0 23 23" fill="none" xmlns="http://www.w3.org/2000/svg">
<path d="M11.4255 22.1716L11.5007 22.2152L11.5758 22.1716L20.68 16.9008L20.7548 16.8575V16.771V6.22933V6.14285L20.68 6.09951L11.5758 0.828682L11.5007 0.785171L11.4255 0.828682L2.32133 6.09951L2.24648 6.14285V6.22933V16.771V16.8575L2.32133 16.9008L11.4255 22.1716ZM4.46315 7.42078L11.5015 3.347L18.5381 7.42077V15.5796L11.5007 19.6538L4.46315 15.5796V7.42078ZM11.5002 15.4835L11.5011 15.4835C12.5566 15.4803 13.5683 15.0611 14.3166 14.3167L14.3169 14.3164C15.8719 12.7609 15.8719 10.2394 14.3169 8.68395L14.3166 8.68368C13.5685 7.93899 12.5567 7.51966 11.5011 7.51683H11.5007C9.88963 7.51683 8.43719 8.48712 7.82053 9.97546C7.20388 11.4638 7.54445 13.177 8.68344 14.3164L8.68375 14.3167C9.43236 15.0612 10.4444 15.4805 11.5002 15.4835ZM11.5006 9.73349L11.501 9.73349C11.9695 9.73242 12.419 9.9187 12.7494 10.2509L12.7497 10.2511C13.3455 10.8472 13.4374 11.7812 12.969 12.4819C12.5006 13.1826 11.6025 13.4549 10.8239 13.1322C10.0452 12.8095 9.60299 11.9818 9.76759 11.1552C9.93218 10.3285 10.6578 9.73332 11.5006 9.73349Z" fill="white" stroke="white" stroke-width="0.3"/>
</svg>
