<svg width="20" height="20" viewBox="0 0 20 20" fill="none" xmlns="http://www.w3.org/2000/svg">
<path d="M10.0013 18.3332C5.39893 18.3332 1.66797 14.6022 1.66797 9.99984C1.66797 5.39746 5.39893 1.6665 10.0013 1.6665C14.6037 1.6665 18.3346 5.39746 18.3346 9.99984C18.3296 14.6001 14.6016 18.3281 10.0013 18.3332ZM10.0013 3.33317C6.3194 3.33317 3.33464 6.31794 3.33464 9.99984C3.33464 13.6817 6.3194 16.6665 10.0013 16.6665C13.6832 16.6665 16.668 13.6817 16.668 9.99984C16.6638 6.31965 13.6815 3.3373 10.0013 3.33317Z" fill="#2C43A1"/>
<path d="M13.1654 9.99984C13.1654 12.1794 12.7215 14.1033 12.0505 15.4452C11.3497 16.8469 10.5665 17.3332 9.9987 17.3332C9.43093 17.3332 8.64771 16.8469 7.94685 15.4452C7.27589 14.1033 6.83203 12.1794 6.83203 9.99984C6.83203 7.82023 7.27589 5.89641 7.94685 4.55449C8.64771 3.15276 9.43093 2.6665 9.9987 2.6665C10.5665 2.6665 11.3497 3.15276 12.0505 4.55449C12.7215 5.89641 13.1654 7.82023 13.1654 9.99984Z" stroke="#2C43A1" stroke-width="2"/>
<rect x="2.5" y="9.1665" width="15" height="1.66667" fill="#2C43A1"/>
</svg>
