<svg width="20" height="20" viewBox="0 0 20 20" fill="none" xmlns="http://www.w3.org/2000/svg">
<path fill-rule="evenodd" clip-rule="evenodd" d="M1.66406 10.0003C1.66406 14.6027 5.39502 18.3337 9.9974 18.3337C14.5977 18.3286 18.3257 14.6006 18.3307 10.0003C18.3307 5.39795 14.5998 1.66699 9.9974 1.66699C5.39502 1.66699 1.66406 5.39795 1.66406 10.0003ZM6.93808 4.0755C5.02975 5.06288 3.65936 6.94517 3.38231 9.16699H5.8653C5.94417 6.89067 6.35636 5.24242 6.93808 4.0755ZM5.86689 10.8337H3.38231C3.66038 13.0636 5.0398 14.9516 6.95907 15.936C6.37066 14.7683 5.95063 13.1168 5.86689 10.8337ZM13.0392 15.9342C14.9567 14.9493 16.3346 13.0623 16.6125 10.8337H14.1305C14.0468 13.1156 13.6272 14.7666 13.0392 15.9342ZM12.4626 10.8337C12.3681 13.2143 11.8819 14.6748 11.3588 15.5306C10.7853 16.4688 10.2018 16.6453 9.9987 16.655C9.79557 16.6453 9.21205 16.4688 8.63861 15.5306C8.11551 14.6748 7.62926 13.2143 7.53475 10.8337H12.4626ZM12.4644 9.16699H7.53303C7.62321 6.76107 8.11228 5.29613 8.63698 4.4448C9.21877 3.50087 9.80902 3.34665 9.9987 3.34571C10.1884 3.34665 10.7786 3.50087 11.3604 4.4448C11.8851 5.29613 12.3742 6.76107 12.4644 9.16699ZM14.1321 9.16699H16.6116C16.3328 6.94918 14.9658 5.07012 13.0622 4.08129C13.6424 5.24786 14.0534 6.89443 14.1321 9.16699Z" fill="#2C43A1"/>
<path d="M9.9974 18.3337L9.9974 18.4087L9.99748 18.4087L9.9974 18.3337ZM18.3307 10.0003L18.4057 10.0004V10.0003H18.3307ZM6.93808 4.0755L7.0052 4.10896L7.10774 3.90327L6.90362 4.00889L6.93808 4.0755ZM3.38231 9.16699L3.30788 9.15771L3.29737 9.24199H3.38231V9.16699ZM5.8653 9.16699V9.24199H5.93775L5.94025 9.16959L5.8653 9.16699ZM5.86689 10.8337L5.94184 10.8309L5.93919 10.7587H5.86689V10.8337ZM3.38231 10.8337V10.7587H3.29737L3.30788 10.8429L3.38231 10.8337ZM6.95907 15.936L6.92484 16.0027L7.12961 16.1077L7.02605 15.9022L6.95907 15.936ZM13.0392 15.9342L12.9722 15.9004L12.8687 16.1061L13.0735 16.0009L13.0392 15.9342ZM16.6125 10.8337L16.6869 10.8429L16.6974 10.7587H16.6125V10.8337ZM14.1305 10.8337V10.7587H14.0582L14.0556 10.8309L14.1305 10.8337ZM11.3588 15.5306L11.2948 15.4915L11.2948 15.4915L11.3588 15.5306ZM12.4626 10.8337L12.5376 10.8366L12.5407 10.7587H12.4626V10.8337ZM9.9987 16.655L9.99509 16.7303L10.0023 16.7299L9.9987 16.655ZM8.63861 15.5306L8.7026 15.4915L8.7026 15.4915L8.63861 15.5306ZM7.53475 10.8337V10.7587H7.45672L7.45981 10.8366L7.53475 10.8337ZM7.53303 9.16699L7.45808 9.16418L7.45517 9.24199H7.53303V9.16699ZM12.4644 9.16699V9.24199H12.5422L12.5393 9.16418L12.4644 9.16699ZM8.63698 4.4448L8.57314 4.40545L8.57314 4.40545L8.63698 4.4448ZM9.9987 3.34571L9.99907 3.2707L9.99832 3.27071L9.9987 3.34571ZM11.3604 4.4448L11.2966 4.48415L11.2966 4.48415L11.3604 4.4448ZM14.1321 9.16699L14.0571 9.16959L14.0596 9.24199H14.1321V9.16699ZM16.6116 9.16699V9.24199H16.6966L16.686 9.15764L16.6116 9.16699ZM13.0622 4.08129L13.0968 4.01473L12.8926 3.90866L12.995 4.11468L13.0622 4.08129ZM9.9974 18.2587C5.43644 18.2587 1.73906 14.5613 1.73906 10.0003H1.58906C1.58906 14.6441 5.3536 18.4087 9.9974 18.4087V18.2587ZM18.2557 10.0002C18.2507 14.5592 14.5562 18.2537 9.99731 18.2587L9.99748 18.4087C14.6391 18.4036 18.4006 14.642 18.4057 10.0004L18.2557 10.0002ZM9.9974 1.74199C14.5583 1.74199 18.2557 5.43937 18.2557 10.0003H18.4057C18.4057 5.35653 14.6412 1.59199 9.9974 1.59199V1.74199ZM1.73906 10.0003C1.73906 5.43937 5.43644 1.74199 9.9974 1.74199V1.59199C5.3536 1.59199 1.58906 5.35653 1.58906 10.0003H1.73906ZM6.90362 4.00889C4.97397 5.00729 3.58809 6.91066 3.30788 9.15771L3.45673 9.17627C3.73064 6.97968 5.08553 5.11846 6.97255 4.14211L6.90362 4.00889ZM3.38231 9.24199H5.8653V9.09199H3.38231V9.24199ZM6.87096 4.04204C6.28311 5.22125 5.86947 6.88082 5.79034 9.1644L5.94025 9.16959C6.01888 6.90053 6.42961 5.26358 7.0052 4.10896L6.87096 4.04204ZM5.86689 10.7587H3.38231V10.9087H5.86689V10.7587ZM3.30788 10.8429C3.58911 13.0982 4.98413 15.0073 6.92484 16.0027L6.9933 15.8692C5.09547 14.8958 3.73165 13.029 3.45673 10.8244L3.30788 10.8429ZM5.79194 10.8364C5.87595 13.1269 6.29748 14.7897 6.8921 15.9697L7.02605 15.9022C6.44384 14.7468 6.02531 13.1067 5.94184 10.8309L5.79194 10.8364ZM13.0735 16.0009C15.0124 15.005 16.4058 13.0968 16.6869 10.8429L16.5381 10.8244C16.2633 13.0277 14.901 14.8935 13.005 15.8674L13.0735 16.0009ZM16.6125 10.7587H14.1305V10.9087H16.6125V10.7587ZM13.1062 15.9679C13.7003 14.788 14.1215 13.1257 14.2055 10.8364L14.0556 10.8309C13.9721 13.1055 13.554 14.7451 12.9722 15.9004L13.1062 15.9679ZM11.4228 15.5697C11.9546 14.6996 12.4427 13.2254 12.5376 10.8366L12.3877 10.8307C12.2935 13.2031 11.8092 14.6499 11.2948 15.4915L11.4228 15.5697ZM10.0023 16.7299C10.2361 16.7187 10.8398 16.5236 11.4228 15.5697L11.2948 15.4915C10.7309 16.4141 10.1675 16.5718 9.99511 16.5801L10.0023 16.7299ZM8.57462 15.5697C9.15762 16.5236 9.76129 16.7187 9.99511 16.7299L10.0023 16.5801C9.82985 16.5718 9.26648 16.4141 8.7026 15.4915L8.57462 15.5697ZM7.45981 10.8366C7.55465 13.2254 8.0428 14.6996 8.57462 15.5697L8.7026 15.4915C8.18823 14.6499 7.70388 13.2031 7.60969 10.8307L7.45981 10.8366ZM12.4626 10.7587H7.53475V10.9087H12.4626V10.7587ZM7.53303 9.24199H12.4644V9.09199H7.53303V9.24199ZM8.57314 4.40545C8.0395 5.27126 7.54857 6.75012 7.45808 9.16418L7.60798 9.1698C7.69785 6.77202 8.18505 5.32099 8.70083 4.48415L8.57314 4.40545ZM9.99832 3.27071C9.77636 3.27181 9.16477 3.44553 8.57314 4.40545L8.70083 4.48415C9.27276 3.55621 9.84168 3.42149 9.99907 3.42071L9.99832 3.27071ZM11.4243 4.40545C10.8326 3.44553 10.221 3.27181 9.99907 3.27071L9.99832 3.42071C10.1557 3.42149 10.7246 3.55621 11.2966 4.48415L11.4243 4.40545ZM12.5393 9.16418C12.4488 6.75012 11.9579 5.27126 11.4243 4.40545L11.2966 4.48415C11.8123 5.32099 12.2995 6.77202 12.3894 9.1698L12.5393 9.16418ZM14.1321 9.24199H16.6116V9.09199H14.1321V9.24199ZM16.686 9.15764C16.404 6.91467 15.0216 5.01459 13.0968 4.01473L13.0276 4.14784C14.91 5.12564 16.2615 6.98369 16.5372 9.17635L16.686 9.15764ZM14.207 9.1644C14.1281 6.88459 13.7157 5.22674 13.1293 4.04789L12.995 4.11468C13.5691 5.26899 13.9786 6.90427 14.0571 9.16959L14.207 9.1644Z" fill="white"/>
</svg>
