<svg width="25" height="25" viewBox="0 0 25 25" fill="none" xmlns="http://www.w3.org/2000/svg">
<path d="M18.7513 22.9168H6.2513C5.10071 22.9168 4.16797 21.984 4.16797 20.8334V4.16676C4.16797 3.01617 5.10071 2.08343 6.2513 2.08343H13.543C13.5523 2.08222 13.5618 2.08222 13.5711 2.08343H13.5773C13.5872 2.08651 13.5973 2.0886 13.6076 2.08968C13.6994 2.09557 13.7901 2.11343 13.8773 2.1428H13.893H13.9086H13.9211C13.9403 2.15627 13.9584 2.17124 13.9753 2.18759C14.0887 2.23804 14.1921 2.30862 14.2805 2.39593L20.5305 8.64593C20.6178 8.73425 20.6884 8.83765 20.7388 8.95114C20.7482 8.97405 20.7555 8.99593 20.7628 9.01989V9.03447V9.04905C20.7918 9.13592 20.809 9.22632 20.8138 9.3178C20.8147 9.32818 20.8172 9.33836 20.8211 9.34801V9.35426C20.8264 9.36067 20.8309 9.36766 20.8346 9.37509V20.8334C20.8346 21.984 19.9019 22.9168 18.7513 22.9168ZM6.2513 4.16676V20.8334H18.7513V10.4168H13.543C12.9677 10.4168 12.5013 9.95039 12.5013 9.37509V4.16676H6.2513ZM14.5846 5.63968V8.33343H17.2784L14.5846 5.63968ZM13.543 18.7501H11.4596V16.6668H9.3763V14.5834H11.4596V12.5001H13.543V14.5834H15.6263V16.6668H13.543V18.7501Z" fill="#2C43A1"/>
</svg>
