<svg width="61" height="56" viewBox="0 0 61 56" fill="none" xmlns="http://www.w3.org/2000/svg">
<path d="M16.5027 55.9016H16.4207C11.8865 55.9016 8.06238 53.6072 4.94849 49.0183C1.8346 44.4294 0.223029 37.628 0.11377 28.6141C0.11377 19.5456 1.80729 12.6623 5.19433 7.96413C8.58136 3.21135 12.7059 0.834961 17.5679 0.834961C22.4846 0.834961 26.4179 3.10209 29.3679 7.63635C32.3726 12.116 33.8749 18.7808 33.8749 27.6308C33.8749 36.9178 32.3179 43.9651 29.2041 48.7725C26.1448 53.5252 21.911 55.9016 16.5027 55.9016ZM16.8304 52.6239H16.9124C21.1735 52.6239 24.3693 50.4114 26.4999 45.9864C28.6851 41.5614 29.7777 35.5794 29.7777 28.0405C29.7777 20.7201 28.7124 14.9021 26.5818 10.5863C24.5059 6.27061 21.3101 4.11274 16.9943 4.11274C13.1703 4.11274 10.0837 6.32524 7.7346 10.7502C5.38553 15.1752 4.21099 20.9387 4.21099 28.0405C4.10173 35.4155 5.19433 41.3701 7.48877 45.9044C9.83784 50.384 12.9517 52.6239 16.8304 52.6239Z" fill="#2C43A1"/>
<path d="M56.3507 55.0002V5.75163H56.1868L47.5007 10.8322L46.5174 7.71829L56.5965 1.73635H60.2021V55.0002H56.3507Z" fill="#2C43A1"/>
</svg>
