<svg width="73" height="56" viewBox="0 0 73 56" fill="none" xmlns="http://www.w3.org/2000/svg">
<path d="M16.5031 55.9016H16.4212C11.8869 55.9016 8.06287 53.6072 4.94898 49.0183C1.83509 44.4294 0.223517 37.628 0.114258 28.6141C0.114258 19.5456 1.80778 12.6623 5.19481 7.96413C8.58185 3.21135 12.7064 0.834961 17.5684 0.834961C22.4851 0.834961 26.4184 3.10209 29.3684 7.63635C32.3731 12.116 33.8754 18.7808 33.8754 27.6308C33.8754 36.9178 32.3184 43.9651 29.2045 48.7725C26.1453 53.5252 21.9115 55.9016 16.5031 55.9016ZM16.8309 52.6239H16.9129C21.174 52.6239 24.3698 50.4114 26.5004 45.9864C28.6856 41.5614 29.7781 35.5794 29.7781 28.0405C29.7781 20.7201 28.7129 14.9021 26.5823 10.5863C24.5064 6.27061 21.3106 4.11274 16.9948 4.11274C13.1707 4.11274 10.0842 6.32524 7.73509 10.7502C5.38602 15.1752 4.21148 20.9387 4.21148 28.0405C4.10222 35.4155 5.19481 41.3701 7.48926 45.9044C9.83833 50.384 12.9522 52.6239 16.8309 52.6239Z" fill="#2C43A1"/>
<path d="M72.4943 55.0002H40.7818V52.6239L45.6984 47.5433C53.729 39.7313 59.2739 33.6674 62.3331 29.3516C65.447 24.9813 67.004 20.6382 67.004 16.3225C67.004 12.8262 66.1026 9.95811 64.2998 7.71829C62.5517 5.42385 59.6017 4.27663 55.4498 4.27663C51.4618 4.27663 47.6924 5.80626 44.1415 8.86552L42.5845 6.16135C46.5179 2.61042 51.0521 0.834961 56.1873 0.834961C61.2132 0.834961 64.9281 2.33728 67.3318 5.34191C69.7901 8.34654 71.0193 11.7336 71.0193 15.503C71.0193 20.3651 69.4077 25.0632 66.1845 29.5975C63.016 34.1317 57.635 40.141 50.0415 47.6252L46.272 51.5586V51.7225H72.4943V55.0002Z" fill="#2C43A1"/>
</svg>
