<svg width="72" height="56" viewBox="0 0 72 56" fill="none" xmlns="http://www.w3.org/2000/svg">
<path d="M16.5027 55.9016H16.4207C11.8865 55.9016 8.06238 53.6072 4.94849 49.0183C1.8346 44.4294 0.223029 37.628 0.11377 28.6141C0.11377 19.5456 1.80729 12.6623 5.19433 7.96413C8.58136 3.21135 12.7059 0.834961 17.5679 0.834961C22.4846 0.834961 26.4179 3.10209 29.3679 7.63635C32.3726 12.116 33.8749 18.7808 33.8749 27.6308C33.8749 36.9178 32.3179 43.9651 29.2041 48.7725C26.1448 53.5252 21.911 55.9016 16.5027 55.9016ZM16.8304 52.6239H16.9124C21.1735 52.6239 24.3693 50.4114 26.4999 45.9864C28.6851 41.5614 29.7777 35.5794 29.7777 28.0405C29.7777 20.7201 28.7124 14.9021 26.5818 10.5863C24.5059 6.27061 21.3101 4.11274 16.9943 4.11274C13.1703 4.11274 10.0837 6.32524 7.7346 10.7502C5.38553 15.1752 4.21099 20.9387 4.21099 28.0405C4.10173 35.4155 5.19433 41.3701 7.48877 45.9044C9.83784 50.384 12.9517 52.6239 16.8304 52.6239Z" fill="#2C43A1"/>
<path d="M40.6993 52.2961L42.2563 49.1822C43.4035 50.0016 45.0151 50.7664 47.091 51.4766C49.2215 52.1868 51.434 52.5419 53.7285 52.5419C56.2961 52.5419 58.5086 52.1322 60.366 51.3127C62.278 50.4933 63.6984 49.428 64.6271 48.1169C65.5558 46.8058 66.2114 45.4947 66.5938 44.1836C66.9762 42.8725 67.1674 41.5614 67.1674 40.2502C67.1127 36.0984 65.5831 32.9845 62.5785 30.9086C59.5739 28.778 55.8864 27.7127 51.516 27.7127H48.1563V24.435H51.6799C55.0669 24.435 58.1262 23.5063 60.8577 21.6489C63.6438 19.7368 65.0368 17.0873 65.0368 13.7002C65.0368 10.9688 64.1901 8.70163 62.4965 6.89885C60.803 5.09607 58.2081 4.19468 54.7118 4.19468C51.0516 4.19468 47.61 5.42385 44.3868 7.88218L42.8299 5.01413C44.2502 3.8669 46.0803 2.88357 48.3202 2.06413C50.56 1.24468 52.8544 0.834961 55.2035 0.834961C59.9016 0.834961 63.3979 2.06413 65.6924 4.52246C67.9868 6.92616 69.134 9.82153 69.134 13.2086C69.134 15.9401 68.26 18.4257 66.5118 20.6655C64.8183 22.9053 62.3873 24.6262 59.2188 25.828V25.9919C62.7151 26.7021 65.5831 28.3137 67.8229 30.8266C70.1174 33.285 71.2646 36.3715 71.2646 40.0864C71.2646 44.4021 69.7077 48.1169 66.5938 51.2308C63.4799 54.3447 59.0276 55.9016 53.2368 55.9016C48.1016 55.9016 43.9225 54.6998 40.6993 52.2961Z" fill="#2C43A1"/>
</svg>
