<svg width="23" height="23" fill="none" xmlns="http://www.w3.org/2000/svg"><mask id="path-1-outside-1" maskUnits="userSpaceOnUse" x=".916" y=".917" width="21" height="21" fill="#000"><path fill="#fff" d="M.916.917h21v21h-21z"/><path fill-rule="evenodd" clip-rule="evenodd" d="M11.5 19.083a7.583 7.583 0 110-15.167 7.583 7.583 0 010 15.167zM1.915 11.5a9.583 9.583 0 119.583 9.583A9.583 9.583 0 011.916 11.5zm12.458 3.833h1.917V8.625h-1.917v6.708zm-7.666 0h1.916v-4.792H6.708v4.792zm3.833 0h1.917V5.75H10.54v9.583z"/></mask><path fill-rule="evenodd" clip-rule="evenodd" d="M11.5 19.083a7.583 7.583 0 110-15.167 7.583 7.583 0 010 15.167zM1.915 11.5a9.583 9.583 0 119.583 9.583A9.583 9.583 0 011.916 11.5zm12.458 3.833h1.917V8.625h-1.917v6.708zm-7.666 0h1.916v-4.792H6.708v4.792zm3.833 0h1.917V5.75H10.54v9.583z" fill="#fff"/><path d="M16.291 15.333v.3h.3v-.3h-.3zm-1.917 0h-.3v.3h.3v-.3zm1.917-6.708h.3v-.3h-.3v.3zm-1.917 0v-.3h-.3v.3h.3zm-5.75 6.708v.3h.3v-.3h-.3zm-1.916 0h-.3v.3h.3v-.3zm1.916-4.792h.3v-.3h-.3v.3zm-1.916 0v-.3h-.3v.3h.3zm5.75 4.792v.3h.3v-.3h-.3zm-1.917 0h-.3v.3h.3v-.3zm1.917-9.583h.3v-.3h-.3v.3zm-1.917 0v-.3h-.3v.3h.3zM3.616 11.5a7.883 7.883 0 007.883 7.883v-.6A7.283 7.283 0 014.216 11.5h-.6zm7.883-7.883A7.883 7.883 0 003.616 11.5h.6a7.283 7.283 0 017.283-7.284v-.6zm7.884 7.883a7.883 7.883 0 00-7.884-7.883v.6a7.283 7.283 0 017.284 7.283h.6zm-7.884 7.883a7.883 7.883 0 007.884-7.883h-.6a7.283 7.283 0 01-7.284 7.283v.6zm0-17.767c-5.458 0-9.883 4.425-9.883 9.884h.6a9.283 9.283 0 019.283-9.284v-.6zm9.884 9.884c0-5.459-4.425-9.883-9.884-9.883v.6a9.283 9.283 0 019.284 9.283h.6zm-9.884 9.883c5.459 0 9.884-4.425 9.884-9.883h-.6a9.283 9.283 0 01-9.284 9.283v.6zM1.616 11.5c0 5.458 4.425 9.883 9.883 9.883v-.6A9.283 9.283 0 012.216 11.5h-.6zm14.675 3.533h-1.917v.6h1.917v-.6zm-.3-6.408v6.708h.6V8.625h-.6zm-1.617.3h1.917v-.6h-1.917v.6zm.3 6.408V8.625h-.6v6.708h.6zm-6.05-.3H6.708v.6h1.916v-.6zm-.3-4.492v4.792h.6v-4.792h-.6zm-1.616.3h1.916v-.6H6.708v.6zm.3 4.492v-4.792h-.6v4.792h.6zm5.45-.3H10.54v.6h1.917v-.6zm-.3-9.283v9.583h.6V5.75h-.6zm-1.617.3h1.917v-.6H10.54v.6zm.3 9.283V5.75h-.6v9.583h.6z" fill="#fff" mask="url(#path-1-outside-1)"/></svg>