<svg width="25" height="25" fill="none" xmlns="http://www.w3.org/2000/svg"><path d="M18.751 22.917h-12.5a2.083 2.083 0 01-2.083-2.084V4.167c0-1.15.933-2.084 2.083-2.084h7.292a.11.11 0 01.028 0h.006c.01.004.02.006.03.007.092.006.183.023.27.053h.044a.33.33 0 01.054.045c.114.05.217.12.306.208l6.25 6.25c.087.088.157.192.208.305a.76.76 0 01.024.069v.029a.984.984 0 01.05.269c.002.01.004.02.008.03v.006l.014.021v11.458a2.084 2.084 0 01-2.084 2.084zm-12.5-18.75v16.666h12.5V10.417h-5.208a1.042 1.042 0 01-1.042-1.042V4.167h-6.25zm8.334 1.473v2.693h2.693L14.585 5.64zm-1.042 13.11H11.46v-2.083H9.376v-2.084h2.084V12.5h2.083v2.083h2.083v2.084h-2.083v2.083z" fill="#2C43A1"/></svg>