<svg width="47" height="47" fill="none" xmlns="http://www.w3.org/2000/svg"><mask id="path-1-outside-1" maskUnits="userSpaceOnUse" x="3" y="1" width="41" height="45" fill="#000"><path fill="#fff" d="M3 1h41v45H3z"/><path d="M7.52 30h-.048a.5.5 0 01-.351-.216.682.682 0 01-.119-.444L8.13 15.554a.652.652 0 01.167-.395.478.478 0 01.351-.159h3.874c.13 0 .254.055.35.156a.65.65 0 01.169.392l.956 10.821a.684.684 0 01-.113.447.503.503 0 01-.35.222.467.467 0 01-.38-.133.644.644 0 01-.189-.41l-.907-10.276h-2.94L8.036 29.446a.653.653 0 01-.166.394.48.48 0 01-.35.16z"/><path d="M42.403 45H4.597A.597.597 0 014 44.404V31.73a.596.596 0 01.303-.52l12.602-7.133a.598.598 0 01.891.518v6.111l11.71-6.63a.598.598 0 01.892.52v6.11l11.71-6.63a.598.598 0 01.892.52v19.807a.596.596 0 01-.597.596zM5.194 43.807h36.612V25.62l-11.71 6.63a.598.598 0 01-.892-.52v-6.11l-11.71 6.63a.598.598 0 01-.892-.52v-6.11L5.194 32.078v11.73z"/><path d="M37.518 40h-4.036a.428.428 0 01-.34-.193.798.798 0 01-.142-.466V35.66c0-.175.05-.342.141-.466a.428.428 0 01.34-.193h4.037c.128 0 .25.07.34.193a.794.794 0 01.142.466v3.682a.875.875 0 01-.037.252.712.712 0 01-.104.214.504.504 0 01-.157.143.372.372 0 01-.184.05zm-3.555-1.318h3.073v-2.364h-3.073v2.364zM28.422 40h-4.844c-.153 0-.3-.07-.409-.193a.709.709 0 01-.169-.466V35.66c0-.175.06-.342.17-.466a.544.544 0 01.408-.193h4.844c.153 0 .3.07.409.193a.71.71 0 01.169.466v3.682c0 .175-.06.342-.17.466a.544.544 0 01-.408.193zm-4.266-1.318h3.688v-2.364h-3.688v2.364zM19.422 40h-4.844c-.153 0-.3-.07-.409-.193a.709.709 0 01-.169-.466V35.66c0-.175.06-.342.17-.466a.544.544 0 01.408-.193h4.844c.153 0 .3.07.409.193a.71.71 0 01.169.466v3.682c0 .175-.06.342-.17.466a.544.544 0 01-.408.193zm-4.266-1.318h3.688v-2.364h-3.688v2.364zM9.658 14a.645.645 0 01-.506-.243.676.676 0 01-.14-.552l.873-4.776a3.252 3.252 0 01.248-3.161c.307-.46.727-.829 1.217-1.072a3.073 3.073 0 011.578-.312c.212-.483.54-.905.95-1.226a3.066 3.066 0 012.933-.479c.49.175.93.47 1.279.862a3.076 3.076 0 012.46.396c.502.325.903.79 1.156 1.34a3.248 3.248 0 01-.436 3.4 3.236 3.236 0 01-.824 3.033c-.587.6-1.384.938-2.214.939a2.97 2.97 0 01-.855-.127c-.258.54-.658.996-1.157 1.316a3.086 3.086 0 01-1.664.49 3.052 3.052 0 01-1.547-.421l-3.239.582a.644.644 0 01-.112.011zm1.534-5.404L10.48 12.5l2.486-.447a.643.643 0 01.553.096 1.776 1.776 0 002.191-.087c.325-.272.547-.65.63-1.072a.678.678 0 01.376-.482.645.645 0 01.602.034 1.76 1.76 0 001.77.048c.264-.143.489-.35.655-.601a1.874 1.874 0 00.173-1.736.685.685 0 01.169-.75 1.862 1.862 0 00.604-1.37c0-.31-.075-.614-.22-.886a1.835 1.835 0 00-.608-.67 1.785 1.785 0 00-1.73-.13.645.645 0 01-.455.03.66.66 0 01-.366-.28 1.823 1.823 0 00-.799-.698 1.777 1.777 0 00-1.982.358 1.859 1.859 0 00-.515.936.68.68 0 01-.302.429.65.65 0 01-.512.073c-.347-.1-.715-.09-1.057.025a1.808 1.808 0 00-.861.625 1.876 1.876 0 00-.13 2.06.682.682 0 01.041.591z"/></mask><path d="M7.52 30h-.048a.5.5 0 01-.351-.216.682.682 0 01-.119-.444L8.13 15.554a.652.652 0 01.167-.395.478.478 0 01.351-.159h3.874c.13 0 .254.055.35.156a.65.65 0 01.169.392l.956 10.821a.684.684 0 01-.113.447.503.503 0 01-.35.222.467.467 0 01-.38-.133.644.644 0 01-.189-.41l-.907-10.276h-2.94L8.036 29.446a.653.653 0 01-.166.394.48.48 0 01-.35.16z" fill="#2C43A1"/><path d="M42.403 45H4.597A.597.597 0 014 44.404V31.73a.596.596 0 01.303-.52l12.602-7.133a.598.598 0 01.891.518v6.111l11.71-6.63a.598.598 0 01.892.52v6.11l11.71-6.63a.598.598 0 01.892.52v19.807a.596.596 0 01-.597.596zM5.194 43.807h36.612V25.62l-11.71 6.63a.598.598 0 01-.892-.52v-6.11l-11.71 6.63a.598.598 0 01-.892-.52v-6.11L5.194 32.078v11.73z" fill="#2C43A1"/><path d="M37.518 40h-4.036a.428.428 0 01-.34-.193.798.798 0 01-.142-.466V35.66c0-.175.05-.342.141-.466a.428.428 0 01.34-.193h4.037c.128 0 .25.07.34.193a.794.794 0 01.142.466v3.682a.875.875 0 01-.037.252.712.712 0 01-.104.214.504.504 0 01-.157.143.372.372 0 01-.184.05zm-3.555-1.318h3.073v-2.364h-3.073v2.364zM28.422 40h-4.844c-.153 0-.3-.07-.409-.193a.709.709 0 01-.169-.466V35.66c0-.175.06-.342.17-.466a.544.544 0 01.408-.193h4.844c.153 0 .3.07.409.193a.71.71 0 01.169.466v3.682c0 .175-.06.342-.17.466a.544.544 0 01-.408.193zm-4.266-1.318h3.688v-2.364h-3.688v2.364zM19.422 40h-4.844c-.153 0-.3-.07-.409-.193a.709.709 0 01-.169-.466V35.66c0-.175.06-.342.17-.466a.544.544 0 01.408-.193h4.844c.153 0 .3.07.409.193a.71.71 0 01.169.466v3.682c0 .175-.06.342-.17.466a.544.544 0 01-.408.193zm-4.266-1.318h3.688v-2.364h-3.688v2.364zM9.658 14a.645.645 0 01-.506-.243.676.676 0 01-.14-.552l.873-4.776a3.252 3.252 0 01.248-3.161c.307-.46.727-.829 1.217-1.072a3.073 3.073 0 011.578-.312c.212-.483.54-.905.95-1.226a3.066 3.066 0 012.933-.479c.49.175.93.47 1.279.862a3.076 3.076 0 012.46.396c.502.325.903.79 1.156 1.34a3.248 3.248 0 01-.436 3.4 3.236 3.236 0 01-.824 3.033c-.587.6-1.384.938-2.214.939a2.97 2.97 0 01-.855-.127c-.258.54-.658.996-1.157 1.316a3.086 3.086 0 01-1.664.49 3.052 3.052 0 01-1.547-.421l-3.239.582a.644.644 0 01-.112.011zm1.534-5.404L10.48 12.5l2.486-.447a.643.643 0 01.553.096 1.776 1.776 0 002.191-.087c.325-.272.547-.65.63-1.072a.678.678 0 01.376-.482.645.645 0 01.602.034 1.76 1.76 0 001.77.048c.264-.143.489-.35.655-.601a1.874 1.874 0 00.173-1.736.685.685 0 01.169-.75 1.862 1.862 0 00.604-1.37c0-.31-.075-.614-.22-.886a1.835 1.835 0 00-.608-.67 1.785 1.785 0 00-1.73-.13.645.645 0 01-.455.03.66.66 0 01-.366-.28 1.823 1.823 0 00-.799-.698 1.777 1.777 0 00-1.982.358 1.859 1.859 0 00-.515.936.68.68 0 01-.302.429.65.65 0 01-.512.073c-.347-.1-.715-.09-1.057.025a1.808 1.808 0 00-.861.625 1.876 1.876 0 00-.13 2.06.682.682 0 01.041.591z" fill="#2C43A1"/><path d="M7.52 30h-.048a.5.5 0 01-.351-.216.682.682 0 01-.119-.444L8.13 15.554a.652.652 0 01.167-.395.478.478 0 01.351-.159h3.874c.13 0 .254.055.35.156a.65.65 0 01.169.392l.956 10.821a.684.684 0 01-.113.447.503.503 0 01-.35.222.467.467 0 01-.38-.133.644.644 0 01-.189-.41l-.907-10.276h-2.94L8.036 29.446a.653.653 0 01-.166.394.48.48 0 01-.35.16z" stroke="#2C43A1" stroke-width=".6" mask="url(#path-1-outside-1)"/><path d="M42.403 45H4.597A.597.597 0 014 44.404V31.73a.596.596 0 01.303-.52l12.602-7.133a.598.598 0 01.891.518v6.111l11.71-6.63a.598.598 0 01.892.52v6.11l11.71-6.63a.598.598 0 01.892.52v19.807a.596.596 0 01-.597.596zM5.194 43.807h36.612V25.62l-11.71 6.63a.598.598 0 01-.892-.52v-6.11l-11.71 6.63a.598.598 0 01-.892-.52v-6.11L5.194 32.078v11.73z" stroke="#2C43A1" stroke-width=".6" mask="url(#path-1-outside-1)"/><path d="M37.518 40h-4.036a.428.428 0 01-.34-.193.798.798 0 01-.142-.466V35.66c0-.175.05-.342.141-.466a.428.428 0 01.34-.193h4.037c.128 0 .25.07.34.193a.794.794 0 01.142.466v3.682a.875.875 0 01-.037.252.712.712 0 01-.104.214.504.504 0 01-.157.143.372.372 0 01-.184.05zm-3.555-1.318h3.073v-2.364h-3.073v2.364zM28.422 40h-4.844c-.153 0-.3-.07-.409-.193a.709.709 0 01-.169-.466V35.66c0-.175.06-.342.17-.466a.544.544 0 01.408-.193h4.844c.153 0 .3.07.409.193a.71.71 0 01.169.466v3.682c0 .175-.06.342-.17.466a.544.544 0 01-.408.193zm-4.266-1.318h3.688v-2.364h-3.688v2.364zM19.422 40h-4.844c-.153 0-.3-.07-.409-.193a.709.709 0 01-.169-.466V35.66c0-.175.06-.342.17-.466a.544.544 0 01.408-.193h4.844c.153 0 .3.07.409.193a.71.71 0 01.169.466v3.682c0 .175-.06.342-.17.466a.544.544 0 01-.408.193zm-4.266-1.318h3.688v-2.364h-3.688v2.364zM9.658 14a.645.645 0 01-.506-.243.676.676 0 01-.14-.552l.873-4.776a3.252 3.252 0 01.248-3.161c.307-.46.727-.829 1.217-1.072a3.073 3.073 0 011.578-.312c.212-.483.54-.905.95-1.226a3.066 3.066 0 012.933-.479c.49.175.93.47 1.279.862a3.076 3.076 0 012.46.396c.502.325.903.79 1.156 1.34a3.248 3.248 0 01-.436 3.4 3.236 3.236 0 01-.824 3.033c-.587.6-1.384.938-2.214.939a2.97 2.97 0 01-.855-.127c-.258.54-.658.996-1.157 1.316a3.086 3.086 0 01-1.664.49 3.052 3.052 0 01-1.547-.421l-3.239.582a.644.644 0 01-.112.011zm1.534-5.404L10.48 12.5l2.486-.447a.643.643 0 01.553.096 1.776 1.776 0 002.191-.087c.325-.272.547-.65.63-1.072a.678.678 0 01.376-.482.645.645 0 01.602.034 1.76 1.76 0 001.77.048c.264-.143.489-.35.655-.601a1.874 1.874 0 00.173-1.736.685.685 0 01.169-.75 1.862 1.862 0 00.604-1.37c0-.31-.075-.614-.22-.886a1.835 1.835 0 00-.608-.67 1.785 1.785 0 00-1.73-.13.645.645 0 01-.455.03.66.66 0 01-.366-.28 1.823 1.823 0 00-.799-.698 1.777 1.777 0 00-1.982.358 1.859 1.859 0 00-.515.936.68.68 0 01-.302.429.65.65 0 01-.512.073c-.347-.1-.715-.09-1.057.025a1.808 1.808 0 00-.861.625 1.876 1.876 0 00-.13 2.06.682.682 0 01.041.591z" stroke="#2C43A1" stroke-width=".6" mask="url(#path-1-outside-1)"/></svg>