<svg width="23" height="23" fill="none" xmlns="http://www.w3.org/2000/svg"><path d="M12.459 20.275h0-7.667a2.067 2.067 0 01-2.067-2.067V4.792c0-1.142.925-2.067 2.067-2.067h13.416c1.142 0 2.067.925 2.067 2.067v7.672h0a.27.27 0 01-.012.07 1.12 1.12 0 01-.056.28s0 0 0 0l-.008.023a.598.598 0 01-.03.08l-7.71 7.358zm0 0c.292-.001.572-.118.78-.325l-.78.325zm-7.517-2.217V4.942h13.116v6.408h-5.6c-.612 0-1.108.496-1.108 1.108v5.6H4.942zm11.55-4.491l-2.925 2.925v-2.925h2.924z" fill="#fff" stroke="#fff" stroke-width=".3"/></svg>