<svg width="61" height="56" fill="none" xmlns="http://www.w3.org/2000/svg"><path d="M16.503 55.902h-.082c-4.534 0-8.359-2.295-11.473-6.884C1.835 44.43.223 37.628.114 28.614c0-9.068 1.693-15.952 5.08-20.65C8.581 3.211 12.706.835 17.568.835c4.917 0 8.85 2.267 11.8 6.801 3.005 4.48 4.507 11.145 4.507 19.995 0 9.287-1.557 16.334-4.67 21.142-3.06 4.752-7.294 7.129-12.702 7.129zm.327-3.278h.082c4.262 0 7.457-2.213 9.588-6.638 2.185-4.425 3.278-10.407 3.278-17.945 0-7.32-1.066-13.139-3.196-17.455-2.076-4.315-5.272-6.473-9.588-6.473-3.824 0-6.91 2.212-9.26 6.637-2.348 4.425-3.523 10.189-3.523 17.29-.11 7.376.983 13.33 3.278 17.864 2.349 4.48 5.463 6.72 9.341 6.72zM56.35 55V5.752h-.163l-8.686 5.08-.984-3.114 10.08-5.982h3.605V55h-3.851z" fill="#2C43A1"/></svg>