<svg width="73" height="56" fill="none" xmlns="http://www.w3.org/2000/svg"><path d="M16.503 55.902h-.082c-4.534 0-8.358-2.295-11.472-6.884C1.835 44.43.224 37.628.114 28.614c0-9.068 1.694-15.952 5.08-20.65C8.583 3.211 12.707.835 17.569.835c4.917 0 8.85 2.267 11.8 6.801 3.005 4.48 4.507 11.145 4.507 19.995 0 9.287-1.557 16.334-4.67 21.142-3.06 4.752-7.293 7.129-12.702 7.129zm.328-3.278h.082c4.261 0 7.457-2.213 9.587-6.638 2.186-4.425 3.278-10.407 3.278-17.945 0-7.32-1.065-13.139-3.196-17.455-2.076-4.315-5.271-6.473-9.587-6.473-3.824 0-6.91 2.212-9.26 6.637-2.349 4.425-3.524 10.189-3.524 17.29-.109 7.376.984 13.33 3.278 17.864 2.35 4.48 5.463 6.72 9.342 6.72zM72.494 55H40.782v-2.376l4.916-5.08c8.031-7.813 13.576-13.877 16.635-18.192 3.114-4.37 4.671-8.714 4.671-13.03 0-3.496-.901-6.364-2.704-8.604-1.748-2.294-4.698-3.441-8.85-3.441-3.988 0-7.758 1.53-11.309 4.589L42.586 6.16c3.931-3.549 8.465-5.325 13.6-5.325 5.026 0 8.741 1.502 11.145 4.507 2.458 3.005 3.687 6.392 3.687 10.161 0 4.862-1.611 9.56-4.835 14.095-3.168 4.534-8.549 10.543-16.142 18.027l-3.77 3.934v.163h26.222V55z" fill="#2C43A1"/></svg>