<svg width="72" height="56" fill="none" xmlns="http://www.w3.org/2000/svg"><path d="M16.503 55.902h-.082c-4.534 0-8.359-2.295-11.473-6.884C1.835 44.43.223 37.628.114 28.614c0-9.068 1.693-15.952 5.08-20.65C8.581 3.211 12.706.835 17.568.835c4.917 0 8.85 2.267 11.8 6.801 3.005 4.48 4.507 11.145 4.507 19.995 0 9.287-1.557 16.334-4.67 21.142-3.06 4.752-7.294 7.129-12.702 7.129zm.327-3.278h.082c4.262 0 7.457-2.213 9.588-6.638 2.185-4.425 3.278-10.407 3.278-17.945 0-7.32-1.066-13.139-3.196-17.455-2.076-4.315-5.272-6.473-9.588-6.473-3.824 0-6.91 2.212-9.26 6.637-2.348 4.425-3.523 10.189-3.523 17.29-.11 7.376.983 13.33 3.278 17.864 2.349 4.48 5.463 6.72 9.341 6.72zm23.87-.328l1.556-3.114c1.148.82 2.76 1.584 4.835 2.295a20.85 20.85 0 006.637 1.065c2.568 0 4.78-.41 6.638-1.23 1.912-.819 3.332-1.884 4.261-3.195.929-1.311 1.584-2.622 1.967-3.933.382-1.311.573-2.623.573-3.934-.054-4.152-1.584-7.266-4.589-9.341-3.004-2.131-6.692-3.196-11.062-3.196h-3.36v-3.278h3.524c3.387 0 6.446-.929 9.178-2.786 2.786-1.912 4.179-4.562 4.179-7.949 0-2.731-.847-4.998-2.54-6.801-1.694-1.803-4.289-2.704-7.785-2.704-3.66 0-7.102 1.229-10.325 3.687L42.83 5.014c1.42-1.147 3.25-2.13 5.49-2.95A19.873 19.873 0 0155.203.835c4.699 0 8.195 1.23 10.49 3.687 2.294 2.404 3.441 5.3 3.441 8.687 0 2.731-.874 5.217-2.622 7.457-1.694 2.24-4.125 3.96-7.293 5.162v.164c3.496.71 6.364 2.322 8.604 4.835 2.294 2.458 3.442 5.544 3.442 9.26 0 4.315-1.557 8.03-4.671 11.144-3.114 3.114-7.566 4.67-13.357 4.67-5.135 0-9.315-1.201-12.538-3.605z" fill="#2C43A1"/></svg>