<svg width="23" height="23" fill="none" xmlns="http://www.w3.org/2000/svg"><path d="M11.425 22.172l.076.043.075-.043L20.68 16.9l.075-.043V6.143L20.68 6.1 11.576.829 11.5.785l-.075.044-9.105 5.27-.075.044v10.715l.075.043 9.104 5.27zM4.463 7.42l7.038-4.074 7.037 4.074v8.159l-7.037 4.074-7.038-4.074V7.42zm7.037 8.063h.001a4.01 4.01 0 002.816-1.167h0a3.983 3.983 0 000-5.633h0A4.006 4.006 0 0011.5 7.517h0a3.983 3.983 0 00-2.818 6.8h0a4.01 4.01 0 002.817 1.166zm0-5.75h.001a1.75 1.75 0 011.248.517h0a1.767 1.767 0 11-1.248-.518z" fill="#fff" stroke="#fff" stroke-width=".3"/></svg>