<svg xmlns="http://www.w3.org/2000/svg" xmlns:xlink="http://www.w3.org/1999/xlink"><symbol id="ic-arrow-sm">
    <path d="M13.118 4.777l-2.005 2.012 1.096 1.096L16.094 4 12.209.115 11.113 1.21l2.005 2.013H.554v1.554h12.564z"/>
</symbol><symbol id="ic-arrow">
    <path d="M14.899 5.375L12.64 7.641l1.234 1.234L18.25 4.5 13.875.125l-1.234 1.234L14.9 3.625H.75v1.75h14.149z"/>
</symbol><symbol id="ic-coll">
    <path d="M9.408 22.419l.092.072.092-.072 8.625-6.708.152-.119-.152-.118-1.562-1.216-.092-.072-.092.072-6.98 5.428-6.971-5.42-.093-.071-.092.071-1.552 1.208-.152.118.152.119 8.625 6.708zm0-4.092l.092.071.092-.071 8.625-6.709.152-.118-.152-.118-1.562-1.217-.092-.072-.092.072-6.98 5.429-6.971-5.42-.093-.071-.092.071-1.552 1.208-.152.118.152.118 8.625 6.709zm0-4.092l.092.071.092-.071 7.053-5.491h0l1.572-1.217.153-.119-.153-.118L9.592.58 9.5.51 9.408.58.783 7.29l-.152.118.152.118 1.562 1.217h0l7.063 5.492z" stroke-width=".3"/>
</symbol><symbol id="ic-factory">
    <mask id="a" maskUnits="userSpaceOnUse" x="3" y="1" width="41" height="45">
        <path d="M3 1h41v45H3z"/>
        <path d="M7.52 30h-.048a.5.5 0 01-.351-.216.682.682 0 01-.119-.444L8.13 15.554a.652.652 0 01.167-.395.478.478 0 01.351-.159h3.874c.13 0 .254.055.35.156a.65.65 0 01.169.392l.956 10.821a.684.684 0 01-.113.447.503.503 0 01-.35.222.467.467 0 01-.38-.133.644.644 0 01-.189-.41l-.907-10.276h-2.94L8.036 29.446a.653.653 0 01-.166.394.48.48 0 01-.35.16z"/>
        <path d="M42.403 45H4.597A.597.597 0 014 44.404V31.73a.596.596 0 01.303-.52l12.602-7.133a.598.598 0 01.891.518v6.111l11.71-6.63a.598.598 0 01.892.52v6.11l11.71-6.63a.598.598 0 01.892.52v19.807a.596.596 0 01-.597.596zM5.194 43.807h36.612V25.62l-11.71 6.63a.598.598 0 01-.892-.52v-6.11l-11.71 6.63a.598.598 0 01-.892-.52v-6.11L5.194 32.078v11.73z"/>
        <path d="M37.518 40h-4.036a.428.428 0 01-.34-.193.798.798 0 01-.142-.466V35.66c0-.175.05-.342.141-.466a.428.428 0 01.34-.193h4.037c.128 0 .25.07.34.193.091.124.142.291.142.466v3.682a.875.875 0 01-.037.252.712.712 0 01-.104.214.504.504 0 01-.157.143.372.372 0 01-.184.05zm-3.555-1.318h3.073v-2.364h-3.073v2.364zM28.422 40h-4.844c-.153 0-.3-.07-.409-.193a.709.709 0 01-.169-.466V35.66c0-.175.06-.342.17-.466a.544.544 0 01.408-.193h4.844c.153 0 .3.07.409.193.108.124.169.291.169.466v3.682c0 .175-.06.342-.17.466a.544.544 0 01-.408.193zm-4.266-1.318h3.688v-2.364h-3.688v2.364zM19.422 40h-4.844c-.153 0-.3-.07-.409-.193a.709.709 0 01-.169-.466V35.66c0-.175.06-.342.17-.466a.544.544 0 01.408-.193h4.844c.153 0 .3.07.409.193.108.124.169.291.169.466v3.682c0 .175-.06.342-.17.466a.544.544 0 01-.408.193zm-4.266-1.318h3.688v-2.364h-3.688v2.364zM9.658 14a.645.645 0 01-.506-.243.676.676 0 01-.14-.552l.873-4.776a3.252 3.252 0 01.248-3.161c.307-.46.727-.829 1.217-1.072a3.073 3.073 0 011.578-.312c.212-.483.54-.905.95-1.226a3.066 3.066 0 012.933-.479c.49.175.93.47 1.279.862a3.076 3.076 0 012.46.396c.502.325.903.79 1.156 1.34a3.248 3.248 0 01-.436 3.4 3.236 3.236 0 01-.824 3.033c-.587.6-1.384.938-2.214.939a2.97 2.97 0 01-.855-.127c-.258.54-.658.996-1.157 1.316-.498.32-1.075.489-1.664.49a3.052 3.052 0 01-1.547-.421l-3.239.582a.644.644 0 01-.112.011zm1.534-5.404L10.48 12.5l2.486-.447a.643.643 0 01.553.096 1.776 1.776 0 002.191-.087c.325-.272.547-.65.63-1.072a.678.678 0 01.376-.482.645.645 0 01.602.034 1.76 1.76 0 001.77.048c.264-.143.489-.35.655-.601a1.874 1.874 0 00.173-1.736.685.685 0 01.169-.75 1.862 1.862 0 00.604-1.37c0-.31-.075-.614-.22-.886a1.835 1.835 0 00-.608-.67 1.785 1.785 0 00-1.73-.13.645.645 0 01-.455.03.66.66 0 01-.366-.28 1.823 1.823 0 00-.799-.698 1.777 1.777 0 00-1.982.358 1.859 1.859 0 00-.515.936.68.68 0 01-.302.429.65.65 0 01-.512.073c-.347-.1-.715-.09-1.057.025a1.808 1.808 0 00-.861.625 1.876 1.876 0 00-.13 2.06.682.682 0 01.041.591z"/>
    </mask>
    <path d="M7.52 30h-.048a.5.5 0 01-.351-.216.682.682 0 01-.119-.444L8.13 15.554a.652.652 0 01.167-.395.478.478 0 01.351-.159h3.874c.13 0 .254.055.35.156a.65.65 0 01.169.392l.956 10.821a.684.684 0 01-.113.447.503.503 0 01-.35.222.467.467 0 01-.38-.133.644.644 0 01-.189-.41l-.907-10.276h-2.94L8.036 29.446a.653.653 0 01-.166.394.48.48 0 01-.35.16z"/>
    <path d="M42.403 45H4.597A.597.597 0 014 44.404V31.73a.596.596 0 01.303-.52l12.602-7.133a.598.598 0 01.891.518v6.111l11.71-6.63a.598.598 0 01.892.52v6.11l11.71-6.63a.598.598 0 01.892.52v19.807a.596.596 0 01-.597.596zM5.194 43.807h36.612V25.62l-11.71 6.63a.598.598 0 01-.892-.52v-6.11l-11.71 6.63a.598.598 0 01-.892-.52v-6.11L5.194 32.078v11.73z"/>
    <path d="M37.518 40h-4.036a.428.428 0 01-.34-.193.798.798 0 01-.142-.466V35.66c0-.175.05-.342.141-.466a.428.428 0 01.34-.193h4.037c.128 0 .25.07.34.193.091.124.142.291.142.466v3.682a.875.875 0 01-.037.252.712.712 0 01-.104.214.504.504 0 01-.157.143.372.372 0 01-.184.05zm-3.555-1.318h3.073v-2.364h-3.073v2.364zM28.422 40h-4.844c-.153 0-.3-.07-.409-.193a.709.709 0 01-.169-.466V35.66c0-.175.06-.342.17-.466a.544.544 0 01.408-.193h4.844c.153 0 .3.07.409.193.108.124.169.291.169.466v3.682c0 .175-.06.342-.17.466a.544.544 0 01-.408.193zm-4.266-1.318h3.688v-2.364h-3.688v2.364zM19.422 40h-4.844c-.153 0-.3-.07-.409-.193a.709.709 0 01-.169-.466V35.66c0-.175.06-.342.17-.466a.544.544 0 01.408-.193h4.844c.153 0 .3.07.409.193.108.124.169.291.169.466v3.682c0 .175-.06.342-.17.466a.544.544 0 01-.408.193zm-4.266-1.318h3.688v-2.364h-3.688v2.364zM9.658 14a.645.645 0 01-.506-.243.676.676 0 01-.14-.552l.873-4.776a3.252 3.252 0 01.248-3.161c.307-.46.727-.829 1.217-1.072a3.073 3.073 0 011.578-.312c.212-.483.54-.905.95-1.226a3.066 3.066 0 012.933-.479c.49.175.93.47 1.279.862a3.076 3.076 0 012.46.396c.502.325.903.79 1.156 1.34a3.248 3.248 0 01-.436 3.4 3.236 3.236 0 01-.824 3.033c-.587.6-1.384.938-2.214.939a2.97 2.97 0 01-.855-.127c-.258.54-.658.996-1.157 1.316-.498.32-1.075.489-1.664.49a3.052 3.052 0 01-1.547-.421l-3.239.582a.644.644 0 01-.112.011zm1.534-5.404L10.48 12.5l2.486-.447a.643.643 0 01.553.096 1.776 1.776 0 002.191-.087c.325-.272.547-.65.63-1.072a.678.678 0 01.376-.482.645.645 0 01.602.034 1.76 1.76 0 001.77.048c.264-.143.489-.35.655-.601a1.874 1.874 0 00.173-1.736.685.685 0 01.169-.75 1.862 1.862 0 00.604-1.37c0-.31-.075-.614-.22-.886a1.835 1.835 0 00-.608-.67 1.785 1.785 0 00-1.73-.13.645.645 0 01-.455.03.66.66 0 01-.366-.28 1.823 1.823 0 00-.799-.698 1.777 1.777 0 00-1.982.358 1.859 1.859 0 00-.515.936.68.68 0 01-.302.429.65.65 0 01-.512.073c-.347-.1-.715-.09-1.057.025a1.808 1.808 0 00-.861.625 1.876 1.876 0 00-.13 2.06.682.682 0 01.041.591z"/>
    <path d="M7.52 30h-.048a.5.5 0 01-.351-.216.682.682 0 01-.119-.444L8.13 15.554a.652.652 0 01.167-.395.478.478 0 01.351-.159h3.874c.13 0 .254.055.35.156a.65.65 0 01.169.392l.956 10.821a.684.684 0 01-.113.447.503.503 0 01-.35.222.467.467 0 01-.38-.133.644.644 0 01-.189-.41l-.907-10.276h-2.94L8.036 29.446a.653.653 0 01-.166.394.48.48 0 01-.35.16z" stroke-width=".6" mask="url(#a)"/>
    <path d="M42.403 45H4.597A.597.597 0 014 44.404V31.73a.596.596 0 01.303-.52l12.602-7.133a.598.598 0 01.891.518v6.111l11.71-6.63a.598.598 0 01.892.52v6.11l11.71-6.63a.598.598 0 01.892.52v19.807a.596.596 0 01-.597.596zM5.194 43.807h36.612V25.62l-11.71 6.63a.598.598 0 01-.892-.52v-6.11l-11.71 6.63a.598.598 0 01-.892-.52v-6.11L5.194 32.078v11.73z" stroke-width=".6" mask="url(#a)"/>
    <path d="M37.518 40h-4.036a.428.428 0 01-.34-.193.798.798 0 01-.142-.466V35.66c0-.175.05-.342.141-.466a.428.428 0 01.34-.193h4.037c.128 0 .25.07.34.193.091.124.142.291.142.466v3.682a.875.875 0 01-.037.252.712.712 0 01-.104.214.504.504 0 01-.157.143.372.372 0 01-.184.05zm-3.555-1.318h3.073v-2.364h-3.073v2.364zM28.422 40h-4.844c-.153 0-.3-.07-.409-.193a.709.709 0 01-.169-.466V35.66c0-.175.06-.342.17-.466a.544.544 0 01.408-.193h4.844c.153 0 .3.07.409.193.108.124.169.291.169.466v3.682c0 .175-.06.342-.17.466a.544.544 0 01-.408.193zm-4.266-1.318h3.688v-2.364h-3.688v2.364zM19.422 40h-4.844c-.153 0-.3-.07-.409-.193a.709.709 0 01-.169-.466V35.66c0-.175.06-.342.17-.466a.544.544 0 01.408-.193h4.844c.153 0 .3.07.409.193.108.124.169.291.169.466v3.682c0 .175-.06.342-.17.466a.544.544 0 01-.408.193zm-4.266-1.318h3.688v-2.364h-3.688v2.364zM9.658 14a.645.645 0 01-.506-.243.676.676 0 01-.14-.552l.873-4.776a3.252 3.252 0 01.248-3.161c.307-.46.727-.829 1.217-1.072a3.073 3.073 0 011.578-.312c.212-.483.54-.905.95-1.226a3.066 3.066 0 012.933-.479c.49.175.93.47 1.279.862a3.076 3.076 0 012.46.396c.502.325.903.79 1.156 1.34a3.248 3.248 0 01-.436 3.4 3.236 3.236 0 01-.824 3.033c-.587.6-1.384.938-2.214.939a2.97 2.97 0 01-.855-.127c-.258.54-.658.996-1.157 1.316-.498.32-1.075.489-1.664.49a3.052 3.052 0 01-1.547-.421l-3.239.582a.644.644 0 01-.112.011zm1.534-5.404L10.48 12.5l2.486-.447a.643.643 0 01.553.096 1.776 1.776 0 002.191-.087c.325-.272.547-.65.63-1.072a.678.678 0 01.376-.482.645.645 0 01.602.034 1.76 1.76 0 001.77.048c.264-.143.489-.35.655-.601a1.874 1.874 0 00.173-1.736.685.685 0 01.169-.75 1.862 1.862 0 00.604-1.37c0-.31-.075-.614-.22-.886a1.835 1.835 0 00-.608-.67 1.785 1.785 0 00-1.73-.13.645.645 0 01-.455.03.66.66 0 01-.366-.28 1.823 1.823 0 00-.799-.698 1.777 1.777 0 00-1.982.358 1.859 1.859 0 00-.515.936.68.68 0 01-.302.429.65.65 0 01-.512.073c-.347-.1-.715-.09-1.057.025a1.808 1.808 0 00-.861.625 1.876 1.876 0 00-.13 2.06.682.682 0 01.041.591z" stroke-width=".6" mask="url(#a)"/>
</symbol><symbol id="ic-flex">
    <path d="M7.68 20.314l.024.007h.065l.035-.02 6.614-3.782 5.61 2.244.205.082V3.041l-.094-.038-5.824-2.33-.067-.026-.063.036-6.68 3.82L.964 2.32l-.197-.066v15.753l.102.034 6.812 2.273zm-1.163-2.727l-3.534-1.178V5.333l3.533 1.173v11.08zm2.216-.37V6.352l3.534-2.021v10.867l-3.534 2.02zm5.75-3.06V3.128l3.534 1.414v11.03l-3.534-1.413z" stroke-width=".3"/>
</symbol><symbol id="ic-graph">
    <path d="M20.084 19.275h.15V7.625a2.067 2.067 0 00-2.067-2.067h-3.683V2.833A2.067 2.067 0 0012.417.767H8.584a2.067 2.067 0 00-2.067 2.066v4.642H2.834A2.067 2.067 0 00.767 9.54v9.734h19.317zm-2.067-2.217h-3.533V7.775h3.533v9.283zm-5.75 0H8.734V2.983h3.533v14.075zm-5.75 0H2.984V9.691h3.533v7.367z" stroke-width=".3"/>
</symbol><symbol id="ic-next">
    <path d="M7.79 12.366l.045.043h.125l.044-.043 5.758-5.76.106-.106-.106-.106-5.76-5.76-.105-.106-.106.106-1.356 1.348-.107.106.107.107 4.302 4.302-4.302 4.302-.106.106.106.106 1.356 1.355zm-5.198 0l.044.043h.125l.044-.043 5.76-5.76.106-.106-.107-.106-5.76-5.76-.106-.106-.106.106L1.237 1.99l-.106.106.106.106 4.302 4.296-4.302 4.302-.106.106.106.106 1.355 1.355z" stroke-width=".3"/>
</symbol><symbol id="ic-share">
    <path d="M12.267 4.272h0c.003.25.032.498.088.74L7.128 8a3.498 3.498 0 10-.58 4.667l5.808 3.32a3.466 3.466 0 003.415 4.246 3.5 3.5 0 10-2.28-6.15l-5.806-3.32c.043-.188.069-.38.078-.572l5.729-3.274a3.534 3.534 0 10-1.226-2.645zm2.216 12.457a1.288 1.288 0 112.575 0 1.288 1.288 0 01-2.575 0zm-11.5-6.708a1.287 1.287 0 112.575 0 1.287 1.287 0 01-2.575 0zm11.5-5.75a1.288 1.288 0 112.575 0 1.288 1.288 0 01-2.575 0z" stroke-width=".3"/>
</symbol></svg>