<svg xmlns="http://www.w3.org/2000/svg" xmlns:xlink="http://www.w3.org/1999/xlink"><symbol id="ic-arrow-slider">
    <path d="M6.474 6.875l4.192-4.209L8.375.375.25 8.5l8.125 8.125 2.291-2.291-4.192-4.209H32.75v-3.25H6.474z"/>
</symbol><symbol id="ic-arrow-sm">
    <path d="M13.118 4.777l-2.005 2.012 1.096 1.096L16.094 4 12.209.115 11.113 1.21l2.005 2.013H.554v1.554h12.564z"/>
</symbol><symbol id="ic-arrow">
    <path d="M14.899 5.375L12.64 7.641l1.234 1.234L18.25 4.5 13.875.125l-1.234 1.234L14.9 3.625H.75v1.75h14.149z"/>
</symbol><symbol id="ic-burger">
    <path d="M21.5 14H11v-2.333h10.5V14zm0-5.833H.5V5.833h21v2.334zm0-5.834H.5V0h21v2.333z"/>
</symbol><symbol id="ic-cart">
    <path d="M12.806 1.225L14.495.25l3.088 5.349-1.688.974-3.089-5.348zM7.194 1.225L5.505.25 2.417 5.599l1.688.974 3.089-5.348zM6.75 12.167h2.167V16.5H6.75v-4.333zM11.083 12.167h2.167V16.5h-2.167v-4.333z"/>
    <path fill-rule="evenodd" clip-rule="evenodd" d="M2.417 11.083H.25v-6.5h19.5v6.5h-2.167v8.667H2.417v-8.667zm0-4.333h15.166v2.167H2.417V6.75zm13 4.333H4.583v6.5h10.834v-6.5z"/>
</symbol><symbol id="ic-coll">
    <path d="M9.408 22.419l.092.072.092-.072 8.625-6.708.152-.119-.152-.118-1.562-1.216-.092-.072-.092.072-6.98 5.428-6.971-5.42-.093-.071-.092.071-1.552 1.208-.152.118.152.119 8.625 6.708zm0-4.092l.092.071.092-.071 8.625-6.709.152-.118-.152-.118-1.562-1.217-.092-.072-.092.072-6.98 5.429-6.971-5.42-.093-.071-.092.071-1.552 1.208-.152.118.152.118 8.625 6.709zm0-4.092l.092.071.092-.071 7.053-5.491h0l1.572-1.217.153-.119-.153-.118L9.592.58 9.5.51 9.408.58.783 7.29l-.152.118.152.118 1.562 1.217h0l7.063 5.492z" stroke-width=".3"/>
</symbol><symbol id="ic-factory">
    <mask id="a" maskUnits="userSpaceOnUse" x="3" y="1" width="41" height="45">
        <path d="M3 1h41v45H3z"/>
        <path d="M7.52 30h-.048a.5.5 0 01-.351-.216.682.682 0 01-.119-.444L8.13 15.554a.652.652 0 01.167-.395.478.478 0 01.351-.159h3.874c.13 0 .254.055.35.156a.65.65 0 01.169.392l.956 10.821a.684.684 0 01-.113.447.503.503 0 01-.35.222.467.467 0 01-.38-.133.644.644 0 01-.189-.41l-.907-10.276h-2.94L8.036 29.446a.653.653 0 01-.166.394.48.48 0 01-.35.16z"/>
        <path d="M42.403 45H4.597A.597.597 0 014 44.404V31.73a.596.596 0 01.303-.52l12.602-7.133a.598.598 0 01.891.518v6.111l11.71-6.63a.598.598 0 01.892.52v6.11l11.71-6.63a.598.598 0 01.892.52v19.807a.596.596 0 01-.597.596zM5.194 43.807h36.612V25.62l-11.71 6.63a.598.598 0 01-.892-.52v-6.11l-11.71 6.63a.598.598 0 01-.892-.52v-6.11L5.194 32.078v11.73z"/>
        <path d="M37.518 40h-4.036a.428.428 0 01-.34-.193.798.798 0 01-.142-.466V35.66c0-.175.05-.342.141-.466a.428.428 0 01.34-.193h4.037c.128 0 .25.07.34.193.091.124.142.291.142.466v3.682a.875.875 0 01-.037.252.712.712 0 01-.104.214.504.504 0 01-.157.143.372.372 0 01-.184.05zm-3.555-1.318h3.073v-2.364h-3.073v2.364zM28.422 40h-4.844c-.153 0-.3-.07-.409-.193a.709.709 0 01-.169-.466V35.66c0-.175.06-.342.17-.466a.544.544 0 01.408-.193h4.844c.153 0 .3.07.409.193.108.124.169.291.169.466v3.682c0 .175-.06.342-.17.466a.544.544 0 01-.408.193zm-4.266-1.318h3.688v-2.364h-3.688v2.364zM19.422 40h-4.844c-.153 0-.3-.07-.409-.193a.709.709 0 01-.169-.466V35.66c0-.175.06-.342.17-.466a.544.544 0 01.408-.193h4.844c.153 0 .3.07.409.193.108.124.169.291.169.466v3.682c0 .175-.06.342-.17.466a.544.544 0 01-.408.193zm-4.266-1.318h3.688v-2.364h-3.688v2.364zM9.658 14a.645.645 0 01-.506-.243.676.676 0 01-.14-.552l.873-4.776a3.252 3.252 0 01.248-3.161c.307-.46.727-.829 1.217-1.072a3.073 3.073 0 011.578-.312c.212-.483.54-.905.95-1.226a3.066 3.066 0 012.933-.479c.49.175.93.47 1.279.862a3.076 3.076 0 012.46.396c.502.325.903.79 1.156 1.34a3.248 3.248 0 01-.436 3.4 3.236 3.236 0 01-.824 3.033c-.587.6-1.384.938-2.214.939a2.97 2.97 0 01-.855-.127c-.258.54-.658.996-1.157 1.316-.498.32-1.075.489-1.664.49a3.052 3.052 0 01-1.547-.421l-3.239.582a.644.644 0 01-.112.011zm1.534-5.404L10.48 12.5l2.486-.447a.643.643 0 01.553.096 1.776 1.776 0 002.191-.087c.325-.272.547-.65.63-1.072a.678.678 0 01.376-.482.645.645 0 01.602.034 1.76 1.76 0 001.77.048c.264-.143.489-.35.655-.601a1.874 1.874 0 00.173-1.736.685.685 0 01.169-.75 1.862 1.862 0 00.604-1.37c0-.31-.075-.614-.22-.886a1.835 1.835 0 00-.608-.67 1.785 1.785 0 00-1.73-.13.645.645 0 01-.455.03.66.66 0 01-.366-.28 1.823 1.823 0 00-.799-.698 1.777 1.777 0 00-1.982.358 1.859 1.859 0 00-.515.936.68.68 0 01-.302.429.65.65 0 01-.512.073c-.347-.1-.715-.09-1.057.025a1.808 1.808 0 00-.861.625 1.876 1.876 0 00-.13 2.06.682.682 0 01.041.591z"/>
    </mask>
    <path d="M7.52 30h-.048a.5.5 0 01-.351-.216.682.682 0 01-.119-.444L8.13 15.554a.652.652 0 01.167-.395.478.478 0 01.351-.159h3.874c.13 0 .254.055.35.156a.65.65 0 01.169.392l.956 10.821a.684.684 0 01-.113.447.503.503 0 01-.35.222.467.467 0 01-.38-.133.644.644 0 01-.189-.41l-.907-10.276h-2.94L8.036 29.446a.653.653 0 01-.166.394.48.48 0 01-.35.16z"/>
    <path d="M42.403 45H4.597A.597.597 0 014 44.404V31.73a.596.596 0 01.303-.52l12.602-7.133a.598.598 0 01.891.518v6.111l11.71-6.63a.598.598 0 01.892.52v6.11l11.71-6.63a.598.598 0 01.892.52v19.807a.596.596 0 01-.597.596zM5.194 43.807h36.612V25.62l-11.71 6.63a.598.598 0 01-.892-.52v-6.11l-11.71 6.63a.598.598 0 01-.892-.52v-6.11L5.194 32.078v11.73z"/>
    <path d="M37.518 40h-4.036a.428.428 0 01-.34-.193.798.798 0 01-.142-.466V35.66c0-.175.05-.342.141-.466a.428.428 0 01.34-.193h4.037c.128 0 .25.07.34.193.091.124.142.291.142.466v3.682a.875.875 0 01-.037.252.712.712 0 01-.104.214.504.504 0 01-.157.143.372.372 0 01-.184.05zm-3.555-1.318h3.073v-2.364h-3.073v2.364zM28.422 40h-4.844c-.153 0-.3-.07-.409-.193a.709.709 0 01-.169-.466V35.66c0-.175.06-.342.17-.466a.544.544 0 01.408-.193h4.844c.153 0 .3.07.409.193.108.124.169.291.169.466v3.682c0 .175-.06.342-.17.466a.544.544 0 01-.408.193zm-4.266-1.318h3.688v-2.364h-3.688v2.364zM19.422 40h-4.844c-.153 0-.3-.07-.409-.193a.709.709 0 01-.169-.466V35.66c0-.175.06-.342.17-.466a.544.544 0 01.408-.193h4.844c.153 0 .3.07.409.193.108.124.169.291.169.466v3.682c0 .175-.06.342-.17.466a.544.544 0 01-.408.193zm-4.266-1.318h3.688v-2.364h-3.688v2.364zM9.658 14a.645.645 0 01-.506-.243.676.676 0 01-.14-.552l.873-4.776a3.252 3.252 0 01.248-3.161c.307-.46.727-.829 1.217-1.072a3.073 3.073 0 011.578-.312c.212-.483.54-.905.95-1.226a3.066 3.066 0 012.933-.479c.49.175.93.47 1.279.862a3.076 3.076 0 012.46.396c.502.325.903.79 1.156 1.34a3.248 3.248 0 01-.436 3.4 3.236 3.236 0 01-.824 3.033c-.587.6-1.384.938-2.214.939a2.97 2.97 0 01-.855-.127c-.258.54-.658.996-1.157 1.316-.498.32-1.075.489-1.664.49a3.052 3.052 0 01-1.547-.421l-3.239.582a.644.644 0 01-.112.011zm1.534-5.404L10.48 12.5l2.486-.447a.643.643 0 01.553.096 1.776 1.776 0 002.191-.087c.325-.272.547-.65.63-1.072a.678.678 0 01.376-.482.645.645 0 01.602.034 1.76 1.76 0 001.77.048c.264-.143.489-.35.655-.601a1.874 1.874 0 00.173-1.736.685.685 0 01.169-.75 1.862 1.862 0 00.604-1.37c0-.31-.075-.614-.22-.886a1.835 1.835 0 00-.608-.67 1.785 1.785 0 00-1.73-.13.645.645 0 01-.455.03.66.66 0 01-.366-.28 1.823 1.823 0 00-.799-.698 1.777 1.777 0 00-1.982.358 1.859 1.859 0 00-.515.936.68.68 0 01-.302.429.65.65 0 01-.512.073c-.347-.1-.715-.09-1.057.025a1.808 1.808 0 00-.861.625 1.876 1.876 0 00-.13 2.06.682.682 0 01.041.591z"/>
    <path d="M7.52 30h-.048a.5.5 0 01-.351-.216.682.682 0 01-.119-.444L8.13 15.554a.652.652 0 01.167-.395.478.478 0 01.351-.159h3.874c.13 0 .254.055.35.156a.65.65 0 01.169.392l.956 10.821a.684.684 0 01-.113.447.503.503 0 01-.35.222.467.467 0 01-.38-.133.644.644 0 01-.189-.41l-.907-10.276h-2.94L8.036 29.446a.653.653 0 01-.166.394.48.48 0 01-.35.16z" stroke-width=".6" mask="url(#a)"/>
    <path d="M42.403 45H4.597A.597.597 0 014 44.404V31.73a.596.596 0 01.303-.52l12.602-7.133a.598.598 0 01.891.518v6.111l11.71-6.63a.598.598 0 01.892.52v6.11l11.71-6.63a.598.598 0 01.892.52v19.807a.596.596 0 01-.597.596zM5.194 43.807h36.612V25.62l-11.71 6.63a.598.598 0 01-.892-.52v-6.11l-11.71 6.63a.598.598 0 01-.892-.52v-6.11L5.194 32.078v11.73z" stroke-width=".6" mask="url(#a)"/>
    <path d="M37.518 40h-4.036a.428.428 0 01-.34-.193.798.798 0 01-.142-.466V35.66c0-.175.05-.342.141-.466a.428.428 0 01.34-.193h4.037c.128 0 .25.07.34.193.091.124.142.291.142.466v3.682a.875.875 0 01-.037.252.712.712 0 01-.104.214.504.504 0 01-.157.143.372.372 0 01-.184.05zm-3.555-1.318h3.073v-2.364h-3.073v2.364zM28.422 40h-4.844c-.153 0-.3-.07-.409-.193a.709.709 0 01-.169-.466V35.66c0-.175.06-.342.17-.466a.544.544 0 01.408-.193h4.844c.153 0 .3.07.409.193.108.124.169.291.169.466v3.682c0 .175-.06.342-.17.466a.544.544 0 01-.408.193zm-4.266-1.318h3.688v-2.364h-3.688v2.364zM19.422 40h-4.844c-.153 0-.3-.07-.409-.193a.709.709 0 01-.169-.466V35.66c0-.175.06-.342.17-.466a.544.544 0 01.408-.193h4.844c.153 0 .3.07.409.193.108.124.169.291.169.466v3.682c0 .175-.06.342-.17.466a.544.544 0 01-.408.193zm-4.266-1.318h3.688v-2.364h-3.688v2.364zM9.658 14a.645.645 0 01-.506-.243.676.676 0 01-.14-.552l.873-4.776a3.252 3.252 0 01.248-3.161c.307-.46.727-.829 1.217-1.072a3.073 3.073 0 011.578-.312c.212-.483.54-.905.95-1.226a3.066 3.066 0 012.933-.479c.49.175.93.47 1.279.862a3.076 3.076 0 012.46.396c.502.325.903.79 1.156 1.34a3.248 3.248 0 01-.436 3.4 3.236 3.236 0 01-.824 3.033c-.587.6-1.384.938-2.214.939a2.97 2.97 0 01-.855-.127c-.258.54-.658.996-1.157 1.316-.498.32-1.075.489-1.664.49a3.052 3.052 0 01-1.547-.421l-3.239.582a.644.644 0 01-.112.011zm1.534-5.404L10.48 12.5l2.486-.447a.643.643 0 01.553.096 1.776 1.776 0 002.191-.087c.325-.272.547-.65.63-1.072a.678.678 0 01.376-.482.645.645 0 01.602.034 1.76 1.76 0 001.77.048c.264-.143.489-.35.655-.601a1.874 1.874 0 00.173-1.736.685.685 0 01.169-.75 1.862 1.862 0 00.604-1.37c0-.31-.075-.614-.22-.886a1.835 1.835 0 00-.608-.67 1.785 1.785 0 00-1.73-.13.645.645 0 01-.455.03.66.66 0 01-.366-.28 1.823 1.823 0 00-.799-.698 1.777 1.777 0 00-1.982.358 1.859 1.859 0 00-.515.936.68.68 0 01-.302.429.65.65 0 01-.512.073c-.347-.1-.715-.09-1.057.025a1.808 1.808 0 00-.861.625 1.876 1.876 0 00-.13 2.06.682.682 0 01.041.591z" stroke-width=".6" mask="url(#a)"/>
</symbol><symbol id="ic-fb">
    <path d="M11 1.5a.5.5 0 00-.5-.5H8a4.77 4.77 0 00-5 4.5v2.7H.5a.5.5 0 00-.5.5v2.6a.5.5 0 00.5.5H3v6.7a.5.5 0 00.5.5h3a.5.5 0 00.5-.5v-6.7h2.62a.5.5 0 00.49-.37l.72-2.6a.5.5 0 00-.48-.63H7V5.5a1 1 0 011-.9h2.5a.5.5 0 00.5-.5V1.5z"/>
</symbol><symbol id="ic-flex">
    <path d="M7.68 20.314l.024.007h.065l.035-.02 6.614-3.782 5.61 2.244.205.082V3.041l-.094-.038-5.824-2.33-.067-.026-.063.036-6.68 3.82L.964 2.32l-.197-.066v15.753l.102.034 6.812 2.273zm-1.163-2.727l-3.534-1.178V5.333l3.533 1.173v11.08zm2.216-.37V6.352l3.534-2.021v10.867l-3.534 2.02zm5.75-3.06V3.128l3.534 1.414v11.03l-3.534-1.413z" stroke-width=".3"/>
</symbol><symbol id="ic-google">
    <path d="M13.584 10.667a4.592 4.592 0 01-3.75 3.275A5.125 5.125 0 014 9.4 5 5 0 019 4a5.1 5.1 0 011.892.367.417.417 0 00.533-.175l1.2-2.209a.433.433 0 00-.191-.583A8.333 8.333 0 00.667 9.242a8.433 8.433 0 007.975 8.091 8.333 8.333 0 008.692-7.9V7.767a.425.425 0 00-.417-.417h-7.5A.417.417 0 009 7.767v2.5c0 .23.187.416.417.416h4.167"/>
</symbol><symbol id="ic-graph">
    <path d="M20.084 19.275h.15V7.625a2.067 2.067 0 00-2.067-2.067h-3.683V2.833A2.067 2.067 0 0012.417.767H8.584a2.067 2.067 0 00-2.067 2.066v4.642H2.834A2.067 2.067 0 00.767 9.54v9.734h19.317zm-2.067-2.217h-3.533V7.775h3.533v9.283zm-5.75 0H8.734V2.983h3.533v14.075zm-5.75 0H2.984V9.691h3.533v7.367z" stroke-width=".3"/>
</symbol><symbol id="ic-linkedin">
    <path opacity=".01" d="M24 24H0V0h24z"/>
    <path d="M15.15 8.4a5.83 5.83 0 00-5.85 5.82v5.88a.9.9 0 00.9.9h2.1a.9.9 0 00.9-.9v-5.88a1.94 1.94 0 012.15-1.93 2 2 0 011.75 2v5.81a.9.9 0 00.9.9h2.1a.9.9 0 00.9-.9v-5.88a5.83 5.83 0 00-5.85-5.82z"/>
    <rect x="3" y="9.3" width="4.5" height="11.7" rx=".9"/>
    <circle cx="5.25" cy="5.25" r="2.25"/>
</symbol><symbol id="ic-logo">
    <path d="M1 16.886l-1-1.5 8-4 36.5-9H87c7.5 2 22.6 6.1 23 6.5.4.4 12.167 7.5 18 11l3.5 11.5-3.5-2c-3-13.5-30-23.5-69.5-24-31.6-.4-51.5 7.5-57.5 11.5z"/>
    <path d="M79 62.386c-28.4 1.6-45.167-3-50-5.5l6.5 1 13.5 1 20.5.5 21-1.5 20.5-5.5 12-7.5 9-6.5c1-4.834 3-14.6 3-15 0-.4-12.333-9.5-18.5-14 3.167.666 11.7 3.6 20.5 10 11 8 10 19.5 1.5 26.5s-24 14.5-59.5 16.5z"/>
    <path d="M43.5 1.386c-23.6 3.2-38.833 10.666-43.5 14 22-9.2 45.167-11.5 54-11.5 50.5-1 67.5 15.5 68.5 16.5s16.5 13-10 28.5c-21.2 12.4-64.5 10.5-83.5 8 22 5.5 59 3.5 72.5.5s33-9.5 38.5-19.5 0-17-9.5-23.5c-12.311-8.423-50-18.017-87-13z"/>
    <path d="M13.5 48.886c-2.4 0-3.333-2.334-3.5-3.5l15.5-18 11-11 14.5-2 2 2 1.5 12 1.5 2.5 18.5-16.5 1.5 2.5-6 31.5-2-2.5-7-6-5 8.5-2-2.5-7-9-3 11.5-1.5-2.5-4-22.5c-3.333 5.5-10.6 17.4-13 21-2.4 3.6-5.667 4.5-7 4.5h-5z"/>
    <path d="M18.5 14.386h-10c1.833 4.5 6 14.7 8 19.5 2 4.8-3.5 4.666-6.5 4v7.5c.5.5 2.9 1.3 8.5.5s15.667-19 20-28l-5.5 28h9.5l3-14.5 1.5 14.5h7l7.5-13.5-2.5 13.5h9l6.5-31.5H62l-8.5 16-2.5-16H30l-6.5 12-5-12z"/>
    <path d="M88.5 17.386l-1.5-3-3.5 1.5-3.5 29.5 2 3 2.5-11 6.5-4 16-16-2-3-17.5 7.5 1-4.5z"/>
    <path d="M87 14.386h-9.5l-6.5 31.5h9.5l2-12 6 12H99l-9-16 15-15.5H93.5l-8.5 9.5 2-9.5z"/>
    <path d="M100.5 48.386l-1.5-2.5H88.5l1 2.5h11zM82 48.386l-1.5-2.5H71l1.5 2.5H82zM70 48.386l-2-2.5h-9l1 2.5h10zM56 48.386l-2-2.5h-7l1.5 2.5H56zM44 48.386l-1.5-2.5H33l1.5 2.5H44z"/>
</symbol><symbol id="ic-next">
    <path d="M7.79 12.366l.045.043h.125l.044-.043 5.758-5.76.106-.106-.106-.106-5.76-5.76-.105-.106-.106.106-1.356 1.348-.107.106.107.107 4.302 4.302-4.302 4.302-.106.106.106.106 1.356 1.355zm-5.198 0l.044.043h.125l.044-.043 5.76-5.76.106-.106-.107-.106-5.76-5.76-.106-.106-.106.106L1.237 1.99l-.106.106.106.106 4.302 4.296-4.302 4.302-.106.106.106.106 1.355 1.355z" stroke-width=".3"/>
</symbol><symbol id="ic-search">
    <path d="M17.838 19.5l-6.71-6.711a7.046 7.046 0 11.466-11.125 7.045 7.045 0 011.195 9.463L19.5 17.84l-1.66 1.66-.002.001zM7.046 2.349a4.697 4.697 0 103.425 1.484l.71.705-.8-.799-.014-.014A4.664 4.664 0 007.045 2.35z"/>
</symbol><symbol id="ic-share">
    <path d="M12.267 4.272h0c.003.25.032.498.088.74L7.128 8a3.498 3.498 0 10-.58 4.667l5.808 3.32a3.466 3.466 0 003.415 4.246 3.5 3.5 0 10-2.28-6.15l-5.806-3.32c.043-.188.069-.38.078-.572l5.729-3.274a3.534 3.534 0 10-1.226-2.645zm2.216 12.457a1.288 1.288 0 112.575 0 1.288 1.288 0 01-2.575 0zm-11.5-6.708a1.287 1.287 0 112.575 0 1.287 1.287 0 01-2.575 0zm11.5-5.75a1.288 1.288 0 112.575 0 1.288 1.288 0 01-2.575 0z" stroke-width=".3"/>
</symbol><symbol id="ic-tube">
    <path d="M14.998 16C6.466 16.012-.01 9.46 0 1.003 0 .45.448 0 1 0h2.64c.495 0 .916.364.989.854a12.417 12.417 0 001.015 3.397l.103.221a.707.707 0 01-.23.873c-.818.584-1.13 1.759-.493 2.675.799 1.15 1.806 2.158 2.956 2.957.917.636 2.092.324 2.675-.493a.707.707 0 01.873-.231l.221.102c1.078.5 2.222.842 3.397 1.016.49.073.854.494.854.99V15a1 1 0 01-1.001 1h-.002z"/>
</symbol><symbol id="ic-twitter">
    <path d="M5.08 16A11.07 11.07 0 0016.52 5 8.088 8.088 0 0018 2.16a.44.44 0 00-.62-.51 1.88 1.88 0 01-2.16-.38 3.89 3.89 0 00-5.58-.17A4.13 4.13 0 008.49 5C5.14 5.2 2.84 3.61 1 1.43a.43.43 0 00-.75.24 9.68 9.68 0 004.6 10.05A6.73 6.73 0 01.38 14a.45.45 0 00-.14.84A11 11 0 005.08 16z"/>
</symbol><symbol id="ic-users">
    <path d="M7.75.25a5.417 5.417 0 100 10.833A5.417 5.417 0 007.75.25zM4.5 5.667a3.25 3.25 0 116.5 0 3.25 3.25 0 01-6.5 0zM16.318 5.903a2.166 2.166 0 00-.984-.236V3.5a4.333 4.333 0 11-2.554 7.835v-.001l1.277-1.75a2.166 2.166 0 102.26-3.68zM19.665 19.75a4.33 4.33 0 00-4.331-4.331V13.25a6.501 6.501 0 016.5 6.5h-2.17zM15.334 19.75h-2.167a5.417 5.417 0 00-10.833 0H.167a7.583 7.583 0 1115.167 0z"/>
</symbol></svg>