<?xml version="1.0" encoding="utf-8"?><svg xmlns="http://www.w3.org/2000/svg" xmlns:xlink="http://www.w3.org/1999/xlink"><symbol viewBox="0 0 23 23" id="bar_chart_circle" xmlns="http://www.w3.org/2000/svg"><mask id="aaa" maskUnits="userSpaceOnUse" x=".916" y=".917" width="21" height="21"><path d="M.916.917h21v21h-21z"/><path fill-rule="evenodd" clip-rule="evenodd" d="M11.5 19.083a7.583 7.583 0 110-15.167 7.583 7.583 0 010 15.167zM1.915 11.5a9.583 9.583 0 119.583 9.583A9.583 9.583 0 011.916 11.5zm12.458 3.833h1.917V8.625h-1.917v6.708zm-7.666 0h1.916v-4.792H6.708v4.792zm3.833 0h1.917V5.75H10.54v9.583z"/></mask><path fill-rule="evenodd" clip-rule="evenodd" d="M11.5 19.083a7.583 7.583 0 110-15.167 7.583 7.583 0 010 15.167zM1.915 11.5a9.583 9.583 0 119.583 9.583A9.583 9.583 0 011.916 11.5zm12.458 3.833h1.917V8.625h-1.917v6.708zm-7.666 0h1.916v-4.792H6.708v4.792zm3.833 0h1.917V5.75H10.54v9.583z"/><path d="M16.291 15.333v.3h.3v-.3h-.3zm-1.917 0h-.3v.3h.3v-.3zm1.917-6.708h.3v-.3h-.3v.3zm-1.917 0v-.3h-.3v.3h.3zm-5.75 6.708v.3h.3v-.3h-.3zm-1.916 0h-.3v.3h.3v-.3zm1.916-4.792h.3v-.3h-.3v.3zm-1.916 0v-.3h-.3v.3h.3zm5.75 4.792v.3h.3v-.3h-.3zm-1.917 0h-.3v.3h.3v-.3zm1.917-9.583h.3v-.3h-.3v.3zm-1.917 0v-.3h-.3v.3h.3zM3.616 11.5a7.883 7.883 0 007.883 7.883v-.6A7.283 7.283 0 014.216 11.5h-.6zm7.883-7.883A7.883 7.883 0 003.616 11.5h.6a7.283 7.283 0 017.283-7.284v-.6zm7.884 7.883a7.883 7.883 0 00-7.884-7.883v.6a7.283 7.283 0 017.284 7.283h.6zm-7.884 7.883a7.883 7.883 0 007.884-7.883h-.6a7.283 7.283 0 01-7.284 7.283v.6zm0-17.767c-5.458 0-9.883 4.425-9.883 9.884h.6a9.283 9.283 0 019.283-9.284v-.6zm9.884 9.884c0-5.459-4.425-9.883-9.884-9.883v.6a9.283 9.283 0 019.284 9.283h.6zm-9.884 9.883c5.459 0 9.884-4.425 9.884-9.883h-.6a9.283 9.283 0 01-9.284 9.283v.6zM1.616 11.5c0 5.458 4.425 9.883 9.883 9.883v-.6A9.283 9.283 0 012.216 11.5h-.6zm14.675 3.533h-1.917v.6h1.917v-.6zm-.3-6.408v6.708h.6V8.625h-.6zm-1.617.3h1.917v-.6h-1.917v.6zm.3 6.408V8.625h-.6v6.708h.6zm-6.05-.3H6.708v.6h1.916v-.6zm-.3-4.492v4.792h.6v-4.792h-.6zm-1.616.3h1.916v-.6H6.708v.6zm.3 4.492v-4.792h-.6v4.792h.6zm5.45-.3H10.54v.6h1.917v-.6zm-.3-9.283v9.583h.6V5.75h-.6zm-1.617.3h1.917v-.6H10.54v.6zm.3 9.283V5.75h-.6v9.583h.6z" mask="url(#aaa)"/></symbol><symbol viewBox="0 0 105 105" id="check_all_big" xmlns="http://www.w3.org/2000/svg"><path d="M1.453 57.16l24.742 24.742 6.169-6.212-24.72-24.72-6.19 6.19zM97.33 23.106L50.957 69.52 32.421 50.94l-6.256 6.169 24.792 24.792 52.585-52.584-6.213-6.213zM78.786 29.31l-6.169-6.21-27.872 27.87 6.213 6.169L78.785 29.31z"/></symbol><symbol viewBox="0 0 24 24" id="chevron_down" xmlns="http://www.w3.org/2000/svg"><path d="M12 15.713l6.01-6.01-1.413-1.415-4.597 4.6-4.596-4.6L5.99 9.702 12 15.713z"/></symbol><symbol viewBox="0 0 30 30" id="close_big" xmlns="http://www.w3.org/2000/svg"><path d="M21.988 6.25L15 13.238 8.012 6.25 6.25 8.012 13.238 15 6.25 21.988l1.762 1.762L15 16.762l6.988 6.988 1.762-1.762L16.762 15l6.988-6.988-1.762-1.762z"/></symbol><symbol viewBox="0 0 23 23" id="copy" xmlns="http://www.w3.org/2000/svg"><path d="M2.353 20.648c.392.392.93.604 1.483.585h9.579a2.004 2.004 0 002.069-2.069v-3.68h3.68a2.004 2.004 0 002.07-2.07V3.836a2.003 2.003 0 00-2.07-2.07H9.587a2.003 2.003 0 00-2.069 2.07v3.68h-3.68a2.003 2.003 0 00-2.07 2.07v9.578a2.003 2.003 0 00.586 1.484zm10.914-1.631H3.984V9.733h3.533v3.681a2.004 2.004 0 002.07 2.07h3.68v3.533zm5.75-5.75H9.734V3.983h9.283v9.284z"/></symbol><symbol viewBox="0 0 18 18" id="download" xmlns="http://www.w3.org/2000/svg"><path d="M14.25 16.5H3.75V15h10.5v1.5zM9 13.5L4.5 9l1.058-1.058 2.692 2.685V1.5h1.5v9.127l2.693-2.685L13.5 9 9 13.5z"/></symbol><symbol viewBox="0 0 24 24" id="facebook" xmlns="http://www.w3.org/2000/svg"><path opacity=".01" d="M24 24H0V0h24z"/><path d="M17 3.5a.5.5 0 00-.5-.5H14a4.77 4.77 0 00-5 4.5v2.7H6.5a.5.5 0 00-.5.5v2.6a.5.5 0 00.5.5H9v6.7a.5.5 0 00.5.5h3a.5.5 0 00.5-.5v-6.7h2.62a.5.5 0 00.49-.37l.72-2.6a.5.5 0 00-.48-.63H13V7.5a1 1 0 011-.9h2.5a.5.5 0 00.5-.5V3.5z"/></symbol><symbol viewBox="0 0 25 25" id="file_new" xmlns="http://www.w3.org/2000/svg"><path d="M18.751 22.917h-12.5a2.083 2.083 0 01-2.083-2.084V4.167c0-1.15.933-2.084 2.083-2.084h7.292a.11.11 0 01.028 0h.006c.01.004.02.006.03.007.092.006.183.023.27.053h.044a.33.33 0 01.054.045c.114.05.217.12.306.208l6.25 6.25c.087.088.157.192.208.305a.76.76 0 01.024.069v.029a.984.984 0 01.05.269c.002.01.004.02.008.03v.006l.014.021v11.458a2.084 2.084 0 01-2.084 2.084zm-12.5-18.75v16.666h12.5V10.417h-5.208a1.042 1.042 0 01-1.042-1.042V4.167h-6.25zm8.334 1.473v2.693h2.693L14.585 5.64zm-1.042 13.11H11.46v-2.083H9.376v-2.084h2.084V12.5h2.083v2.083h2.083v2.084h-2.083v2.083z"/></symbol><symbol viewBox="0 0 20 20" id="google" xmlns="http://www.w3.org/2000/svg"><path opacity=".01" d="M0 0h20v20H0"/><path d="M14.584 11.667a4.592 4.592 0 01-3.75 3.275A5.125 5.125 0 015 10.4 5 5 0 0110 5a5.1 5.1 0 011.892.367.417.417 0 00.533-.175l1.2-2.209a.433.433 0 00-.191-.583 8.333 8.333 0 00-11.767 7.842 8.433 8.433 0 007.975 8.091 8.333 8.333 0 008.692-7.9V8.767a.425.425 0 00-.417-.417h-7.5a.417.417 0 00-.417.417v2.5c0 .23.187.416.417.416h4.167"/></symbol><symbol viewBox="0 0 23 23" id="grid_big_round" xmlns="http://www.w3.org/2000/svg"><g clip-path="url(#ajclip0)"><path d="M12.845 17.778a3.775 3.775 0 106.975-2.89 3.775 3.775 0 00-6.975 2.89zm-9.954-1.445a3.775 3.775 0 107.55 0 3.775 3.775 0 00-7.55 0zm9.667-9.666a3.775 3.775 0 107.55 0 3.775 3.775 0 00-7.55 0zm-9.667 0a3.775 3.775 0 107.55 0 3.775 3.775 0 00-7.55 0z"/></g><defs><clipPath id="ajclip0"><path d="M0 0h23v23H0z"/></clipPath></defs></symbol><symbol viewBox="0 0 18 18" id="help_circle_outline" xmlns="http://www.w3.org/2000/svg"><path d="M9 16.5A7.508 7.508 0 011.5 9v-.15A7.5 7.5 0 119 16.5zM8.988 15H9a6 6 0 10-.012 0zm.762-1.5h-1.5V12h1.5v1.5zm0-2.25h-1.5a2.687 2.687 0 011.328-2.383c.495-.38.922-.707.922-1.367a1.5 1.5 0 00-3 0H6v-.067a3 3 0 016 .067 2.56 2.56 0 01-1.17 1.984 2.325 2.325 0 00-1.08 1.766z"/></symbol><symbol viewBox="0 0 19 9" id="ic-arrow" xmlns="http://www.w3.org/2000/svg"><path d="M14.899 5.375L12.64 7.641l1.234 1.234L18.25 4.5 13.875.125l-1.234 1.234L14.9 3.625H.75v1.75h14.149z"/></symbol><symbol viewBox="0 0 33 17" id="ic-arrow-slider" xmlns="http://www.w3.org/2000/svg"><path d="M6.474 6.875l4.192-4.209L8.375.375.25 8.5l8.125 8.125 2.291-2.291-4.192-4.209H32.75v-3.25H6.474z"/></symbol><symbol viewBox="0 0 17 8" id="ic-arrow-sm" xmlns="http://www.w3.org/2000/svg"><path d="M13.118 4.777l-2.005 2.012 1.096 1.096L16.094 4 12.209.115 11.113 1.21l2.005 2.013H.554v1.554h12.564z"/></symbol><symbol viewBox="0 0 22 14" id="ic-burger" xmlns="http://www.w3.org/2000/svg"><path d="M21.5 14H11v-2.333h10.5V14zm0-5.833H.5V5.833h21v2.334zm0-5.834H.5V0h21v2.333z"/></symbol><symbol viewBox="0 0 20 20" id="ic-cart" xmlns="http://www.w3.org/2000/svg"><path d="M12.806 1.225L14.495.25l3.088 5.349-1.688.974-3.089-5.348zm-5.612 0L5.505.25 2.417 5.599l1.688.974 3.089-5.348zM6.75 12.167h2.167V16.5H6.75v-4.333zm4.333 0h2.167V16.5h-2.167v-4.333z"/><path fill-rule="evenodd" clip-rule="evenodd" d="M2.417 11.083H.25v-6.5h19.5v6.5h-2.167v8.667H2.417v-8.667zm0-4.333h15.166v2.167H2.417V6.75zm13 4.333H4.583v6.5h10.834v-6.5z"/></symbol><symbol viewBox="0 0 19 23" id="ic-coll" xmlns="http://www.w3.org/2000/svg"><path d="M9.408 22.419l.092.072.092-.072 8.625-6.708.152-.119-.152-.118-1.562-1.216-.092-.072-.092.072-6.98 5.428-6.971-5.42-.093-.071-.092.071-1.552 1.208-.152.118.152.119 8.625 6.708zm0-4.092l.092.071.092-.071 8.625-6.709.152-.118-.152-.118-1.562-1.217-.092-.072-.092.072-6.98 5.429-6.971-5.42-.093-.071-.092.071-1.552 1.208-.152.118.152.118 8.625 6.709zm0-4.092l.092.071.092-.071 7.053-5.491 1.572-1.217.153-.119-.153-.118L9.592.58 9.5.51l-.092.07L.783 7.29l-.152.118.152.118 1.562 1.217 7.063 5.492z"/></symbol><symbol viewBox="0 0 47 47" id="ic-factory" xmlns="http://www.w3.org/2000/svg"><mask id="ara" maskUnits="userSpaceOnUse" x="3" y="1" width="41" height="45"><path d="M3 1h41v45H3z"/><path d="M7.52 30h-.048a.5.5 0 01-.351-.216.682.682 0 01-.119-.444L8.13 15.554a.652.652 0 01.167-.395.478.478 0 01.351-.159h3.874c.13 0 .254.055.35.156a.65.65 0 01.169.392l.956 10.821a.684.684 0 01-.113.447.503.503 0 01-.35.222.467.467 0 01-.38-.133.644.644 0 01-.189-.41l-.907-10.276h-2.94L8.036 29.446a.653.653 0 01-.166.394.48.48 0 01-.35.16z"/><path d="M42.403 45H4.597A.597.597 0 014 44.404V31.73a.596.596 0 01.303-.52l12.602-7.133a.598.598 0 01.891.518v6.111l11.71-6.63a.598.598 0 01.892.52v6.11l11.71-6.63a.598.598 0 01.892.52v19.807a.596.596 0 01-.597.596zM5.194 43.807h36.612V25.62l-11.71 6.63a.598.598 0 01-.892-.52v-6.11l-11.71 6.63a.598.598 0 01-.892-.52v-6.11L5.194 32.078v11.73z"/><path d="M37.518 40h-4.036a.428.428 0 01-.34-.193.798.798 0 01-.142-.466V35.66c0-.175.05-.342.141-.466a.428.428 0 01.34-.193h4.037c.128 0 .25.07.34.193a.794.794 0 01.142.466v3.682a.875.875 0 01-.037.252.712.712 0 01-.104.214.504.504 0 01-.157.143.372.372 0 01-.184.05zm-3.555-1.318h3.073v-2.364h-3.073v2.364zM28.422 40h-4.844c-.153 0-.3-.07-.409-.193a.709.709 0 01-.169-.466V35.66c0-.175.06-.342.17-.466a.544.544 0 01.408-.193h4.844c.153 0 .3.07.409.193a.71.71 0 01.169.466v3.682c0 .175-.06.342-.17.466a.544.544 0 01-.408.193zm-4.266-1.318h3.688v-2.364h-3.688v2.364zM19.422 40h-4.844c-.153 0-.3-.07-.409-.193a.709.709 0 01-.169-.466V35.66c0-.175.06-.342.17-.466a.544.544 0 01.408-.193h4.844c.153 0 .3.07.409.193a.71.71 0 01.169.466v3.682c0 .175-.06.342-.17.466a.544.544 0 01-.408.193zm-4.266-1.318h3.688v-2.364h-3.688v2.364zM9.658 14a.645.645 0 01-.506-.243.676.676 0 01-.14-.552l.873-4.776a3.252 3.252 0 01.248-3.161c.307-.46.727-.829 1.217-1.072a3.073 3.073 0 011.578-.312c.212-.483.54-.905.95-1.226a3.066 3.066 0 012.933-.479c.49.175.93.47 1.279.862a3.076 3.076 0 012.46.396c.502.325.903.79 1.156 1.34a3.248 3.248 0 01-.436 3.4 3.236 3.236 0 01-.824 3.033c-.587.6-1.384.938-2.214.939a2.97 2.97 0 01-.855-.127c-.258.54-.658.996-1.157 1.316a3.086 3.086 0 01-1.664.49 3.052 3.052 0 01-1.547-.421l-3.239.582a.644.644 0 01-.112.011zm1.534-5.404L10.48 12.5l2.486-.447a.643.643 0 01.553.096 1.776 1.776 0 002.191-.087c.325-.272.547-.65.63-1.072a.678.678 0 01.376-.482.645.645 0 01.602.034 1.76 1.76 0 001.77.048c.264-.143.489-.35.655-.601a1.874 1.874 0 00.173-1.736.685.685 0 01.169-.75 1.862 1.862 0 00.604-1.37c0-.31-.075-.614-.22-.886a1.835 1.835 0 00-.608-.67 1.785 1.785 0 00-1.73-.13.645.645 0 01-.455.03.66.66 0 01-.366-.28 1.823 1.823 0 00-.799-.698 1.777 1.777 0 00-1.982.358 1.859 1.859 0 00-.515.936.68.68 0 01-.302.429.65.65 0 01-.512.073c-.347-.1-.715-.09-1.057.025a1.808 1.808 0 00-.861.625 1.876 1.876 0 00-.13 2.06.682.682 0 01.041.591z"/></mask><path d="M7.52 30h-.048a.5.5 0 01-.351-.216.682.682 0 01-.119-.444L8.13 15.554a.652.652 0 01.167-.395.478.478 0 01.351-.159h3.874c.13 0 .254.055.35.156a.65.65 0 01.169.392l.956 10.821a.684.684 0 01-.113.447.503.503 0 01-.35.222.467.467 0 01-.38-.133.644.644 0 01-.189-.41l-.907-10.276h-2.94L8.036 29.446a.653.653 0 01-.166.394.48.48 0 01-.35.16z"/><path d="M42.403 45H4.597A.597.597 0 014 44.404V31.73a.596.596 0 01.303-.52l12.602-7.133a.598.598 0 01.891.518v6.111l11.71-6.63a.598.598 0 01.892.52v6.11l11.71-6.63a.598.598 0 01.892.52v19.807a.596.596 0 01-.597.596zM5.194 43.807h36.612V25.62l-11.71 6.63a.598.598 0 01-.892-.52v-6.11l-11.71 6.63a.598.598 0 01-.892-.52v-6.11L5.194 32.078v11.73z"/><path d="M37.518 40h-4.036a.428.428 0 01-.34-.193.798.798 0 01-.142-.466V35.66c0-.175.05-.342.141-.466a.428.428 0 01.34-.193h4.037c.128 0 .25.07.34.193a.794.794 0 01.142.466v3.682a.875.875 0 01-.037.252.712.712 0 01-.104.214.504.504 0 01-.157.143.372.372 0 01-.184.05zm-3.555-1.318h3.073v-2.364h-3.073v2.364zM28.422 40h-4.844c-.153 0-.3-.07-.409-.193a.709.709 0 01-.169-.466V35.66c0-.175.06-.342.17-.466a.544.544 0 01.408-.193h4.844c.153 0 .3.07.409.193a.71.71 0 01.169.466v3.682c0 .175-.06.342-.17.466a.544.544 0 01-.408.193zm-4.266-1.318h3.688v-2.364h-3.688v2.364zM19.422 40h-4.844c-.153 0-.3-.07-.409-.193a.709.709 0 01-.169-.466V35.66c0-.175.06-.342.17-.466a.544.544 0 01.408-.193h4.844c.153 0 .3.07.409.193a.71.71 0 01.169.466v3.682c0 .175-.06.342-.17.466a.544.544 0 01-.408.193zm-4.266-1.318h3.688v-2.364h-3.688v2.364zM9.658 14a.645.645 0 01-.506-.243.676.676 0 01-.14-.552l.873-4.776a3.252 3.252 0 01.248-3.161c.307-.46.727-.829 1.217-1.072a3.073 3.073 0 011.578-.312c.212-.483.54-.905.95-1.226a3.066 3.066 0 012.933-.479c.49.175.93.47 1.279.862a3.076 3.076 0 012.46.396c.502.325.903.79 1.156 1.34a3.248 3.248 0 01-.436 3.4 3.236 3.236 0 01-.824 3.033c-.587.6-1.384.938-2.214.939a2.97 2.97 0 01-.855-.127c-.258.54-.658.996-1.157 1.316a3.086 3.086 0 01-1.664.49 3.052 3.052 0 01-1.547-.421l-3.239.582a.644.644 0 01-.112.011zm1.534-5.404L10.48 12.5l2.486-.447a.643.643 0 01.553.096 1.776 1.776 0 002.191-.087c.325-.272.547-.65.63-1.072a.678.678 0 01.376-.482.645.645 0 01.602.034 1.76 1.76 0 001.77.048c.264-.143.489-.35.655-.601a1.874 1.874 0 00.173-1.736.685.685 0 01.169-.75 1.862 1.862 0 00.604-1.37c0-.31-.075-.614-.22-.886a1.835 1.835 0 00-.608-.67 1.785 1.785 0 00-1.73-.13.645.645 0 01-.455.03.66.66 0 01-.366-.28 1.823 1.823 0 00-.799-.698 1.777 1.777 0 00-1.982.358 1.859 1.859 0 00-.515.936.68.68 0 01-.302.429.65.65 0 01-.512.073c-.347-.1-.715-.09-1.057.025a1.808 1.808 0 00-.861.625 1.876 1.876 0 00-.13 2.06.682.682 0 01.041.591z"/><path d="M7.52 30h-.048a.5.5 0 01-.351-.216.682.682 0 01-.119-.444L8.13 15.554a.652.652 0 01.167-.395.478.478 0 01.351-.159h3.874c.13 0 .254.055.35.156a.65.65 0 01.169.392l.956 10.821a.684.684 0 01-.113.447.503.503 0 01-.35.222.467.467 0 01-.38-.133.644.644 0 01-.189-.41l-.907-10.276h-2.94L8.036 29.446a.653.653 0 01-.166.394.48.48 0 01-.35.16z" mask="url(#ara)"/><path d="M42.403 45H4.597A.597.597 0 014 44.404V31.73a.596.596 0 01.303-.52l12.602-7.133a.598.598 0 01.891.518v6.111l11.71-6.63a.598.598 0 01.892.52v6.11l11.71-6.63a.598.598 0 01.892.52v19.807a.596.596 0 01-.597.596zM5.194 43.807h36.612V25.62l-11.71 6.63a.598.598 0 01-.892-.52v-6.11l-11.71 6.63a.598.598 0 01-.892-.52v-6.11L5.194 32.078v11.73z" mask="url(#ara)"/><path d="M37.518 40h-4.036a.428.428 0 01-.34-.193.798.798 0 01-.142-.466V35.66c0-.175.05-.342.141-.466a.428.428 0 01.34-.193h4.037c.128 0 .25.07.34.193a.794.794 0 01.142.466v3.682a.875.875 0 01-.037.252.712.712 0 01-.104.214.504.504 0 01-.157.143.372.372 0 01-.184.05zm-3.555-1.318h3.073v-2.364h-3.073v2.364zM28.422 40h-4.844c-.153 0-.3-.07-.409-.193a.709.709 0 01-.169-.466V35.66c0-.175.06-.342.17-.466a.544.544 0 01.408-.193h4.844c.153 0 .3.07.409.193a.71.71 0 01.169.466v3.682c0 .175-.06.342-.17.466a.544.544 0 01-.408.193zm-4.266-1.318h3.688v-2.364h-3.688v2.364zM19.422 40h-4.844c-.153 0-.3-.07-.409-.193a.709.709 0 01-.169-.466V35.66c0-.175.06-.342.17-.466a.544.544 0 01.408-.193h4.844c.153 0 .3.07.409.193a.71.71 0 01.169.466v3.682c0 .175-.06.342-.17.466a.544.544 0 01-.408.193zm-4.266-1.318h3.688v-2.364h-3.688v2.364zM9.658 14a.645.645 0 01-.506-.243.676.676 0 01-.14-.552l.873-4.776a3.252 3.252 0 01.248-3.161c.307-.46.727-.829 1.217-1.072a3.073 3.073 0 011.578-.312c.212-.483.54-.905.95-1.226a3.066 3.066 0 012.933-.479c.49.175.93.47 1.279.862a3.076 3.076 0 012.46.396c.502.325.903.79 1.156 1.34a3.248 3.248 0 01-.436 3.4 3.236 3.236 0 01-.824 3.033c-.587.6-1.384.938-2.214.939a2.97 2.97 0 01-.855-.127c-.258.54-.658.996-1.157 1.316a3.086 3.086 0 01-1.664.49 3.052 3.052 0 01-1.547-.421l-3.239.582a.644.644 0 01-.112.011zm1.534-5.404L10.48 12.5l2.486-.447a.643.643 0 01.553.096 1.776 1.776 0 002.191-.087c.325-.272.547-.65.63-1.072a.678.678 0 01.376-.482.645.645 0 01.602.034 1.76 1.76 0 001.77.048c.264-.143.489-.35.655-.601a1.874 1.874 0 00.173-1.736.685.685 0 01.169-.75 1.862 1.862 0 00.604-1.37c0-.31-.075-.614-.22-.886a1.835 1.835 0 00-.608-.67 1.785 1.785 0 00-1.73-.13.645.645 0 01-.455.03.66.66 0 01-.366-.28 1.823 1.823 0 00-.799-.698 1.777 1.777 0 00-1.982.358 1.859 1.859 0 00-.515.936.68.68 0 01-.302.429.65.65 0 01-.512.073c-.347-.1-.715-.09-1.057.025a1.808 1.808 0 00-.861.625 1.876 1.876 0 00-.13 2.06.682.682 0 01.041.591z" mask="url(#ara)"/></symbol><symbol viewBox="0 0 11 19" id="ic-fb" xmlns="http://www.w3.org/2000/svg"><path d="M11 1.5a.5.5 0 00-.5-.5H8a4.77 4.77 0 00-5 4.5v2.7H.5a.5.5 0 00-.5.5v2.6a.5.5 0 00.5.5H3v6.7a.5.5 0 00.5.5h3a.5.5 0 00.5-.5v-6.7h2.62a.5.5 0 00.49-.37l.72-2.6a.5.5 0 00-.48-.63H7V5.5a1 1 0 011-.9h2.5a.5.5 0 00.5-.5V1.5z"/></symbol><symbol viewBox="0 0 21 21" id="ic-flex" xmlns="http://www.w3.org/2000/svg"><path d="M7.68 20.314l.024.007h.065l.035-.02 6.614-3.782 5.61 2.244.205.082V3.041l-.094-.038-5.824-2.33-.067-.026-.063.036-6.68 3.82L.964 2.32l-.197-.066v15.753l.102.034 6.812 2.273zm-1.163-2.727l-3.534-1.178V5.333l3.533 1.173v11.08zm2.216-.37V6.352l3.534-2.021v10.867l-3.534 2.02zm5.75-3.06V3.128l3.534 1.414v11.03l-3.534-1.413z"/></symbol><symbol viewBox="0 0 18 18" id="ic-google" xmlns="http://www.w3.org/2000/svg"><path d="M13.584 10.667a4.592 4.592 0 01-3.75 3.275A5.125 5.125 0 014 9.4 5 5 0 019 4a5.1 5.1 0 011.892.367.417.417 0 00.533-.175l1.2-2.209a.433.433 0 00-.191-.583A8.333 8.333 0 00.667 9.242a8.433 8.433 0 007.975 8.091 8.333 8.333 0 008.692-7.9V7.767a.425.425 0 00-.417-.417h-7.5A.417.417 0 009 7.767v2.5c0 .23.187.416.417.416h4.167"/></symbol><symbol viewBox="0 0 21 20" id="ic-graph" xmlns="http://www.w3.org/2000/svg"><path d="M20.084 19.275h.15V7.625a2.067 2.067 0 00-2.067-2.067h-3.683V2.833A2.067 2.067 0 0012.417.767H8.584a2.067 2.067 0 00-2.067 2.066v4.642H2.834A2.067 2.067 0 00.767 9.54v9.734h19.317zm-2.067-2.217h-3.533V7.775h3.533v9.283zm-5.75 0H8.734V2.983h3.533v14.075zm-5.75 0H2.984V9.691h3.533v7.367z"/></symbol><symbol viewBox="0 0 24 24" id="ic-linkedin" xmlns="http://www.w3.org/2000/svg"><path opacity=".01" d="M24 24H0V0h24z"/><path d="M15.15 8.4a5.83 5.83 0 00-5.85 5.82v5.88a.9.9 0 00.9.9h2.1a.9.9 0 00.9-.9v-5.88a1.94 1.94 0 012.15-1.93 2 2 0 011.75 2v5.81a.9.9 0 00.9.9h2.1a.9.9 0 00.9-.9v-5.88a5.83 5.83 0 00-5.85-5.82z"/><rect x="3" y="9.3" width="4.5" height="11.7" rx=".9"/><circle cx="5.25" cy="5.25" r="2.25"/></symbol><symbol viewBox="0 0 146 63" id="ic-logo" xmlns="http://www.w3.org/2000/svg"><path d="M1 16.886l-1-1.5 8-4 36.5-9H87c7.5 2 22.6 6.1 23 6.5.4.4 12.167 7.5 18 11l3.5 11.5-3.5-2c-3-13.5-30-23.5-69.5-24-31.6-.4-51.5 7.5-57.5 11.5z"/><path d="M79 62.386c-28.4 1.6-45.167-3-50-5.5l6.5 1 13.5 1 20.5.5 21-1.5 20.5-5.5 12-7.5 9-6.5c1-4.834 3-14.6 3-15 0-.4-12.333-9.5-18.5-14 3.167.666 11.7 3.6 20.5 10 11 8 10 19.5 1.5 26.5s-24 14.5-59.5 16.5z"/><path d="M43.5 1.386c-23.6 3.2-38.833 10.666-43.5 14 22-9.2 45.167-11.5 54-11.5 50.5-1 67.5 15.5 68.5 16.5s16.5 13-10 28.5c-21.2 12.4-64.5 10.5-83.5 8 22 5.5 59 3.5 72.5.5s33-9.5 38.5-19.5 0-17-9.5-23.5c-12.311-8.423-50-18.017-87-13z"/><path d="M13.5 48.886c-2.4 0-3.333-2.334-3.5-3.5l15.5-18 11-11 14.5-2 2 2 1.5 12 1.5 2.5 18.5-16.5 1.5 2.5-6 31.5-2-2.5-7-6-5 8.5-2-2.5-7-9-3 11.5-1.5-2.5-4-22.5c-3.333 5.5-10.6 17.4-13 21-2.4 3.6-5.667 4.5-7 4.5h-5z"/><path d="M18.5 14.386h-10c1.833 4.5 6 14.7 8 19.5 2 4.8-3.5 4.666-6.5 4v7.5c.5.5 2.9 1.3 8.5.5s15.667-19 20-28l-5.5 28h9.5l3-14.5 1.5 14.5h7l7.5-13.5-2.5 13.5h9l6.5-31.5H62l-8.5 16-2.5-16H30l-6.5 12-5-12zM88.5 17.386l-1.5-3-3.5 1.5-3.5 29.5 2 3 2.5-11 6.5-4 16-16-2-3-17.5 7.5 1-4.5z"/><path d="M87 14.386h-9.5l-6.5 31.5h9.5l2-12 6 12H99l-9-16 15-15.5H93.5l-8.5 9.5 2-9.5zM100.5 48.386l-1.5-2.5H88.5l1 2.5h11zm-18.5 0l-1.5-2.5H71l1.5 2.5H82zm-12 0l-2-2.5h-9l1 2.5h10zm-14 0l-2-2.5h-7l1.5 2.5H56zm-12 0l-1.5-2.5H33l1.5 2.5H44z"/></symbol><symbol viewBox="0 0 15 13" id="ic-next" xmlns="http://www.w3.org/2000/svg"><path d="M7.79 12.366l.045.043h.125l.044-.043 5.758-5.76.106-.106-.106-.106-5.76-5.76-.105-.106-.106.106-1.356 1.348-.107.106.107.107 4.302 4.302-4.302 4.302-.106.106.106.106 1.356 1.355zm-5.198 0l.044.043h.125l.044-.043 5.76-5.76.106-.106-.107-.106-5.76-5.76-.106-.106-.106.106L1.237 1.99l-.106.106.106.106 4.302 4.296L1.237 10.8l-.106.106.106.106 1.355 1.355z"/></symbol><symbol viewBox="0 0 20 20" id="ic-search" xmlns="http://www.w3.org/2000/svg"><path d="M17.838 19.5l-6.71-6.711a7.046 7.046 0 11.466-11.125 7.045 7.045 0 011.195 9.463L19.5 17.84l-1.66 1.66-.002.001zM7.046 2.349a4.697 4.697 0 103.425 1.484l.71.705-.8-.799-.014-.014A4.664 4.664 0 007.045 2.35z"/></symbol><symbol viewBox="0 0 20 21" id="ic-share" xmlns="http://www.w3.org/2000/svg"><path d="M12.267 4.272c.003.25.032.498.088.74L7.128 8a3.498 3.498 0 10-.58 4.667l5.808 3.32a3.466 3.466 0 003.415 4.246 3.5 3.5 0 10-2.28-6.15l-5.806-3.32c.043-.188.069-.38.078-.572l5.729-3.274a3.534 3.534 0 10-1.226-2.645zm2.216 12.457a1.288 1.288 0 112.575 0 1.288 1.288 0 01-2.575 0zm-11.5-6.708a1.287 1.287 0 112.575 0 1.287 1.287 0 01-2.575 0zm11.5-5.75a1.288 1.288 0 112.575 0 1.288 1.288 0 01-2.575 0z"/></symbol><symbol viewBox="0 0 16 16" id="ic-tube" xmlns="http://www.w3.org/2000/svg"><path d="M14.998 16C6.466 16.012-.01 9.46 0 1.003 0 .45.448 0 1 0h2.64c.495 0 .916.364.989.854a12.417 12.417 0 001.015 3.397l.103.221a.707.707 0 01-.23.873c-.818.584-1.13 1.759-.493 2.675a11.832 11.832 0 002.956 2.957c.917.636 2.092.324 2.675-.493a.707.707 0 01.873-.231l.221.102c1.078.5 2.222.842 3.397 1.016.49.073.854.494.854.99V15a1 1 0 01-1.001 1h-.002z"/></symbol><symbol viewBox="0 0 19 17" id="ic-twitter" xmlns="http://www.w3.org/2000/svg"><path d="M5.08 16A11.07 11.07 0 0016.52 5 8.088 8.088 0 0018 2.16a.44.44 0 00-.62-.51 1.88 1.88 0 01-2.16-.38 3.89 3.89 0 00-5.58-.17A4.13 4.13 0 008.49 5C5.14 5.2 2.84 3.61 1 1.43a.43.43 0 00-.75.24 9.68 9.68 0 004.6 10.05A6.73 6.73 0 01.38 14a.45.45 0 00-.14.84A11 11 0 005.08 16z"/></symbol><symbol viewBox="0 0 22 20" id="ic-users" xmlns="http://www.w3.org/2000/svg"><path d="M7.75.25a5.417 5.417 0 100 10.833A5.417 5.417 0 007.75.25zM4.5 5.667a3.25 3.25 0 116.5 0 3.25 3.25 0 01-6.5 0zm11.818.236a2.166 2.166 0 00-.984-.236V3.5a4.333 4.333 0 11-2.554 7.835v-.001l1.277-1.75a2.166 2.166 0 102.26-3.68zm3.347 13.847a4.33 4.33 0 00-4.331-4.331V13.25a6.501 6.501 0 016.5 6.5h-2.17zm-4.331 0h-2.167a5.417 5.417 0 00-10.833 0H.167a7.583 7.583 0 1115.167 0z"/></symbol><symbol viewBox="0 0 50 50" id="layers_alt" xmlns="http://www.w3.org/2000/svg"><path d="M25 48.48L6.25 33.895l3.375-2.625 15.354 11.938 15.375-11.957 3.396 2.644L25 48.479zm0-8.896L6.25 25l3.375-2.625 15.354 11.938 15.375-11.959L43.75 25 25 39.584zm0-8.896L9.646 18.75 6.25 16.104 25 1.521l18.75 14.583-3.417 2.646L25 30.688z"/></symbol><symbol viewBox="0 0 24 24" id="linkedin" xmlns="http://www.w3.org/2000/svg"><path opacity=".01" d="M24 24H0V0h24z"/><path d="M15.15 8.4a5.83 5.83 0 00-5.85 5.82v5.88a.9.9 0 00.9.9h2.1a.9.9 0 00.9-.9v-5.88a1.94 1.94 0 012.15-1.93 2 2 0 011.75 2v5.81a.9.9 0 00.9.9h2.1a.9.9 0 00.9-.9v-5.88a5.83 5.83 0 00-5.85-5.82z"/><rect x="3" y="9.3" width="4.5" height="11.7" rx=".9"/><circle cx="5.25" cy="5.25" r="2.25"/></symbol><symbol viewBox="0 0 21 21" id="long_right" xmlns="http://www.w3.org/2000/svg"><path d="M15.453 11.303l-2.071 2.079 1.132 1.131 4.013-4.013-4.013-4.014-1.132 1.132 2.071 2.08H2.473v1.605h12.98z"/></symbol><symbol viewBox="0 0 23 23" id="map" xmlns="http://www.w3.org/2000/svg"><path d="M8.68 21.314l.023.007h.065l.035-.02 6.615-3.782 5.609 2.244.206.082V4.041l-.095-.038-5.823-2.33-.068-.026-.063.036-6.68 3.82-6.54-2.183-.198-.066v15.753l.103.034 6.811 2.273zm-1.164-2.727l-3.533-1.178V6.333l3.533 1.173v11.08zm2.217-.37V7.352l3.533-2.021v10.867l-3.533 2.02zm5.75-3.06V4.128l3.533 1.414v11.03l-3.533-1.413z"/></symbol><symbol viewBox="0 0 23 23" id="note" xmlns="http://www.w3.org/2000/svg"><path d="M12.459 20.275H4.792a2.067 2.067 0 01-2.067-2.067V4.792c0-1.142.925-2.067 2.067-2.067h13.416c1.142 0 2.067.925 2.067 2.067v7.672a.27.27 0 01-.012.07 1.12 1.12 0 01-.056.28l-.008.023a.598.598 0 01-.03.08l-7.71 7.358zm0 0c.292-.001.572-.118.78-.325l-.78.325zm-7.517-2.217V4.942h13.116v6.408h-5.6c-.612 0-1.108.496-1.108 1.108v5.6H4.942zm11.55-4.491l-2.925 2.925v-2.925h2.924z"/></symbol><symbol viewBox="0 0 23 23" id="settings_future" xmlns="http://www.w3.org/2000/svg"><path d="M11.425 22.172l.076.043.075-.043L20.68 16.9l.075-.043V6.143L20.68 6.1 11.576.829 11.5.785l-.075.044-9.105 5.27-.075.044v10.715l.075.043 9.104 5.27zM4.463 7.42l7.038-4.074 7.037 4.074v8.159l-7.037 4.074-7.038-4.074V7.42zm7.037 8.063h.001a4.01 4.01 0 002.816-1.167 3.983 3.983 0 000-5.633A4.006 4.006 0 0011.5 7.517a3.983 3.983 0 00-2.818 6.8 4.01 4.01 0 002.817 1.166zm0-5.75h.001a1.75 1.75 0 011.248.517 1.767 1.767 0 11-1.248-.518z"/></symbol><symbol viewBox="0 0 24 24" id="twitter" xmlns="http://www.w3.org/2000/svg"><path opacity=".01" d="M0 0h24v24H0"/><path d="M8.08 20A11.07 11.07 0 0019.52 9 8.09 8.09 0 0021 6.16a.44.44 0 00-.62-.51 1.88 1.88 0 01-2.16-.38 3.89 3.89 0 00-5.58-.17A4.13 4.13 0 0011.49 9C8.14 9.2 5.84 7.61 4 5.43a.43.43 0 00-.75.24 9.68 9.68 0 004.6 10.05A6.73 6.73 0 013.38 18a.45.45 0 00-.14.84A11 11 0 008.08 20"/></symbol></svg>