<svg width="1920" height="1372" viewBox="0 0 1920 1372" fill="none" xmlns="http://www.w3.org/2000/svg">
<g clip-path="url(#clip0)">
<path opacity="0.45" d="M-103.792 1151.97L-45.1421 1136.15M-103.792 1151.97L-136.302 1152.78L-138.296 1068.08M-103.792 1151.97L-38.5279 1271.87M-45.1421 1136.15L-38.5279 1271.87M-45.1421 1136.15L-138.296 1068.08M-45.1421 1136.15L8.58566 1024.24M-45.1421 1136.15L23.8444 1130.52M-45.1421 1136.15L39.0959 1193.16M-38.5279 1271.87L39.0959 1193.16M-38.5279 1271.87L91.6003 1324.28M39.0959 1193.16L91.6003 1324.28M39.0959 1193.16C61.6013 1203.27 107.413 1223.82 110.616 1225.17M39.0959 1193.16L135.892 1123.73M91.6003 1324.28C99.2738 1291.8 113.82 1226.51 110.616 1225.17M91.6003 1324.28L205.038 1227.06M110.616 1225.17L135.892 1123.73M110.616 1225.17L205.038 1227.06M-138.296 1068.08L8.58566 1024.24M8.58566 1024.24L99.2099 1012.76M8.58566 1024.24L102.801 1037.83M8.58566 1024.24L23.8444 1130.52M8.58566 1024.24L109.436 1108.63M8.58566 1024.24L153.414 967.304L90.7423 940.94M90.7423 940.94L99.2099 1012.76M90.7423 940.94L170.553 942.02M90.7423 940.94L90.8657 831.698M99.2099 1012.76L127.965 1004.85M99.2099 1012.76L102.801 1037.83M102.801 1037.83L127.965 1004.85M102.801 1037.83L109.436 1108.63M102.801 1037.83L220.111 1050.97M23.8444 1130.52L110.993 1125.24M135.892 1123.73L205.038 1227.06M135.892 1123.73L110.993 1125.24M135.892 1123.73L153.824 1118.18M205.038 1227.06L251.695 1082.12M153.824 1118.18L227.252 1051.77M153.824 1118.18L131.63 1113.41M153.824 1118.18L251.695 1082.12M153.824 1118.18L180.186 1136.25L298.495 1128.28M227.252 1051.77L220.111 1050.97M227.252 1051.77L267.279 985.283M227.252 1051.77L251.695 1082.12M227.252 1051.77L330.215 1008.82M127.965 1004.85L131.63 1113.41M127.965 1004.85L170.553 942.02M127.965 1004.85L298.988 988.221L223.921 949.321M127.965 1004.85L251.695 1082.12M110.993 1125.24L109.436 1108.63M109.436 1108.63L131.63 1113.41M222.579 865.266L90.8657 831.698M222.579 865.266L170.553 942.02M222.579 865.266L221.363 768.869M222.579 865.266L331.579 871.901M222.579 865.266L277.289 956.622M90.8657 831.698L170.553 942.02M90.8657 831.698L131.844 817.713L221.363 768.869M170.553 942.02L220.111 1050.97M170.553 942.02L223.921 949.321M277.289 956.622L281.835 961.105M277.289 956.622L223.921 949.321M281.835 961.105L267.279 985.283M281.835 961.105C298.398 933.241 331.534 876.39 331.579 871.901M281.835 961.105L330.215 1008.82M223.921 949.321L267.279 985.283M267.279 985.283L251.695 1082.12M251.695 1082.12L298.495 1128.28M298.495 1128.28L330.215 1008.82M330.215 1008.82L331.579 871.901M330.215 1008.82L449.307 946.643M331.579 871.901L221.363 768.869M331.579 871.901L412.445 808.858M331.579 871.901L335.554 741.525M331.579 871.901L449.307 946.643M221.363 768.869L335.554 741.525M221.363 768.869L262.051 669.034M449.307 946.643L412.445 808.858M449.307 946.643L478.338 852.31M449.307 946.643L562.818 860.262L478.338 852.31M412.445 808.858L335.554 741.525M412.445 808.858L460.03 780.422L468.539 751.981M412.445 808.858L478.338 852.31M335.554 741.525L262.051 669.034M335.554 741.525L384.125 668.73L384.312 654.182L262.051 669.034M335.554 741.525L468.539 751.981M468.539 751.981L507.3 790.209L478.338 852.31" stroke="#D9D9D9"/>
<path opacity="0.45" d="M1634.83 1119.39L1689.81 1132.16M1634.83 1119.39L1607.85 1105.79L1643.37 1035.54M1634.83 1119.39L1635.69 1246.23M1689.81 1132.16L1635.69 1246.23M1689.81 1132.16L1643.37 1035.54M1689.81 1132.16L1782.91 1064.07M1689.81 1132.16L1748.78 1157.82M1689.81 1132.16L1733.8 1215.81M1635.69 1246.23L1733.8 1215.81M1635.69 1246.23L1719.28 1346.24M1733.8 1215.81L1719.28 1346.24M1733.8 1215.81C1747.8 1233.97 1776.3 1270.9 1778.34 1273.4M1733.8 1215.81L1843.54 1201.41M1719.28 1346.24C1739.81 1323.01 1780.37 1275.91 1778.34 1273.4M1719.28 1346.24L1854.84 1316.38M1778.34 1273.4L1843.54 1201.41M1778.34 1273.4L1854.84 1316.38M1643.37 1035.54L1782.91 1064.07M1782.91 1064.07L1862.18 1094.42M1782.91 1064.07L1854.12 1116.53M1782.91 1064.07L1748.78 1157.82M1782.91 1064.07L1828.49 1177.44M1782.91 1064.07L1926.52 1080.97L1886.75 1031.88M1886.75 1031.88L1862.18 1094.42M1886.75 1031.88L1951.65 1067.78M1886.75 1031.88L1934.78 942.46M1862.18 1094.42L1889.2 1100.56M1862.18 1094.42L1854.12 1116.53M1854.12 1116.53L1889.2 1100.56M1854.12 1116.53L1828.49 1177.44M1854.12 1116.53L1944.44 1178.76M1748.78 1157.82L1822.48 1191.72M1843.54 1201.41L1854.84 1316.38M1843.54 1201.41L1822.48 1191.72M1843.54 1201.41L1860.66 1204.73M1854.84 1316.38L1956.65 1218.13M1860.66 1204.73L1949.94 1182.55M1860.66 1204.73L1844.58 1191.08M1860.66 1204.73L1956.65 1218.13M1860.66 1204.73L1874.33 1231.09L1974.73 1276.47M1949.94 1182.55L1944.44 1178.76M1949.94 1182.55L2011.89 1145.65M1949.94 1182.55L1956.65 1218.13M1949.94 1182.55L2053.12 1192.54M1889.2 1100.56L1844.58 1191.08M1889.2 1100.56L1951.65 1067.78M1889.2 1100.56L2036.58 1161.97L1992.16 1097.17M1889.2 1100.56L1956.65 1218.13M1822.48 1191.72L1828.49 1177.44M1828.49 1177.44L1844.58 1191.08M2027.93 1027.74L1934.78 942.46M2027.93 1027.74L1951.65 1067.78M2027.93 1027.74L2069.23 948.25M2027.93 1027.74L2114.3 1080.99M2027.93 1027.74L2032.67 1126.57M1934.78 942.46L1951.65 1067.78M1934.78 942.46L1974.48 948.984L2069.23 948.25M1951.65 1067.78L1944.44 1178.76M1951.65 1067.78L1992.16 1097.17M2032.67 1126.57L2034.42 1132.23M2032.67 1126.57L1992.16 1097.17M2034.42 1132.23L2011.89 1145.65M2034.42 1132.23C2060.21 1116.68 2112.3 1084.65 2114.3 1080.99M2034.42 1132.23L2053.12 1192.54M1992.16 1097.17L2011.89 1145.65M2011.89 1145.65L1956.65 1218.13M1956.65 1218.13L1974.73 1276.47M1974.73 1276.47L2053.12 1192.54M2053.12 1192.54L2114.3 1080.99M2053.12 1192.54L2177.94 1193.86M2114.3 1080.99L2069.23 948.25M2114.3 1080.99L2208.2 1064.83M2114.3 1080.99L2174.76 975.95M2114.3 1080.99L2177.94 1193.86M2069.23 948.25L2174.76 975.95M2069.23 948.25L2146.35 884.328M2177.94 1193.86L2208.2 1064.83M2177.94 1193.86L2243.1 1129.33M2177.94 1193.86L2308.81 1172.91L2243.1 1129.33M2208.2 1064.83L2174.76 975.95M2208.2 1064.83L2259.65 1062.42L2279.09 1042.86M2208.2 1064.83L2243.1 1129.33M2174.76 975.95L2146.35 884.328M2174.76 975.95L2246.47 937.634L2253.01 925.801L2146.35 884.328M2174.76 975.95L2279.09 1042.86M2279.09 1042.86L2294.07 1091.17L2243.1 1129.33" stroke="#D9D9D9"/>
<path opacity="0.45" d="M1860.35 424.315L1772.91 401.514M1860.35 424.315L1902.94 447.248L1843.07 558.143M1860.35 424.315L1864.43 221.293M1772.91 401.514L1864.43 221.293M1772.91 401.514L1843.07 558.143M1772.91 401.514L1620.99 506.479M1772.91 401.514L1679.63 357.92M1772.91 401.514L1706.11 265.747M1864.43 221.293L1706.11 265.747M1864.43 221.293L1734.95 57.6437M1706.11 265.747L1734.95 57.6437M1706.11 265.747C1684.49 236.096 1640.46 175.768 1637.31 171.667M1706.11 265.747L1529.87 284.082M1734.95 57.6437C1701.09 93.9428 1634.16 167.566 1637.31 171.667M1734.95 57.6437L1516.72 99.6063M1637.31 171.667L1529.87 284.082M1637.31 171.667L1516.72 99.6063M1843.07 558.143L1620.99 506.479M1620.99 506.479L1495.43 454.502M1620.99 506.479L1509.28 419.46M1620.99 506.479L1679.63 357.92M1620.99 506.479L1552.91 323.095M1620.99 506.479L1391.89 473.258L1453.42 553.528M1453.42 553.528L1495.43 454.502M1453.42 553.528L1351.11 493.288M1453.42 553.528L1372.72 694.573M1495.43 454.502L1452.45 443.517M1495.43 454.502L1509.28 419.46M1509.28 419.46L1452.45 443.517M1509.28 419.46L1552.91 323.095M1509.28 419.46L1367.41 315.989M1679.63 357.92L1563.15 300.49M1529.87 284.082L1516.72 99.6063M1529.87 284.082L1563.15 300.49M1529.87 284.082L1502.61 278.028M1516.72 99.6063L1349.57 252.46M1502.61 278.028L1358.78 309.691M1502.61 278.028L1527.76 300.561M1502.61 278.028L1349.57 252.46M1502.61 278.028L1481.87 235.251L1323.14 158.321M1358.78 309.691L1367.41 315.989M1358.78 309.691L1258.04 366.076M1358.78 309.691L1349.57 252.46M1358.78 309.691L1194.08 289.265M1452.45 443.517L1527.76 300.561M1452.45 443.517L1351.11 493.288M1452.45 443.517L1219.24 338.901L1287.54 444.506M1452.45 443.517L1349.57 252.46M1563.15 300.49L1552.91 323.095M1552.91 323.095L1527.76 300.561M1227.3 554.09L1372.72 694.573M1227.3 554.09L1351.11 493.288M1227.3 554.09L1157.8 679.527M1227.3 554.09L1091.37 465.15M1227.3 554.09L1223.98 395.725M1372.72 694.573L1351.11 493.288M1372.72 694.573L1309.46 682.426L1157.8 679.527M1351.11 493.288L1367.41 315.989M1351.11 493.288L1287.54 444.506M1223.98 395.725L1221.41 386.58M1223.98 395.725L1287.54 444.506M1221.41 386.58L1258.04 366.076M1221.41 386.58C1179.47 410.368 1094.74 459.384 1091.37 465.15M1221.41 386.58L1194.08 289.265M1287.54 444.506L1258.04 366.076M1258.04 366.076L1349.57 252.46M1349.57 252.46L1323.14 158.321M1323.14 158.321L1194.08 289.265M1194.08 289.265L1091.37 465.15M1091.37 465.15L1157.8 679.527M1091.37 465.15L990.106 630.66M1157.8 679.527L990.106 630.66M1157.8 679.527L1031.62 778.509M990.106 630.66L1031.62 778.509M990.106 630.66L875.529 711.032L861.177 768.466L1031.62 778.509" stroke="#D9D9D9"/>
<path opacity="0.45" d="M204.571 191.883L134.755 229.218M204.571 191.883L245.612 181.304L273.047 288.258M204.571 191.883L86.4517 58.8401M134.755 229.218L86.4517 58.8401M134.755 229.218L273.047 288.258M134.755 229.218L99.4418 387.104M134.755 229.218L48.8185 256.648M134.755 229.218L11.0357 181.598M86.4517 58.8401L11.0357 181.598M86.4517 58.8401L-94.1797 30.5636M11.0357 181.598L-94.1797 30.5636M11.0357 181.598C-20.5109 175.383 -84.72 162.761 -89.1833 161.993M11.0357 181.598L-91.4502 298.217M-94.1797 30.5636C-94.3739 74.0538 -93.6466 161.226 -89.1833 161.993M-94.1797 30.5636L-209.626 187.356M-89.1833 161.993L-91.4502 298.217M-89.1833 161.993L-209.626 187.356M273.047 288.258L99.4418 387.104M99.4418 387.104L-12.2453 428.336M99.4418 387.104L-24.177 397.555M99.4418 387.104L48.8185 256.648M99.4418 387.104L-53.4199 309.609M99.4418 387.104L-67.7035 501.983L19.622 517.03M19.622 517.03L-12.2453 428.336M19.622 517.03L-82.03 539.126M19.622 517.03L51.5857 655.771M-12.2453 428.336L-46.43 446.83M-12.2453 428.336L-24.177 397.555M-24.177 397.555L-46.43 446.83M-24.177 397.555L-53.4199 309.609M-24.177 397.555L-176.989 415.364M48.8185 256.648L-60.2794 288.98M-91.4502 298.217L-209.626 187.356M-91.4502 298.217L-60.2794 288.98M-91.4502 298.217L-112.587 310.534M-209.626 187.356L-226.249 385.101M-112.587 310.534L-186.29 416.448M-112.587 310.534L-83.0035 310.072M-112.587 310.534L-226.249 385.101M-112.587 310.534L-151.37 295.347L-299.243 340.258M-186.29 416.448L-176.989 415.364M-186.29 416.448L-217.564 512.636M-186.29 416.448L-226.249 385.101M-186.29 416.448L-304.393 501.257M-46.43 446.83L-83.0035 310.072M-46.43 446.83L-82.03 539.126M-46.43 446.83L-258.688 518.228L-151.938 545.548M-46.43 446.83L-226.249 385.101M-60.2794 288.98L-53.4199 309.609M-53.4199 309.609L-83.0035 310.072M-125.52 651.876L51.5857 655.771M-125.52 651.876L-82.03 539.126M-125.52 651.876L-95.6316 773.914M-125.52 651.876L-265.867 675.501M-125.52 651.876L-221.846 551.969M51.5857 655.771L-82.03 539.126M51.5857 655.771L3.66731 685.575L-95.6316 773.914M-82.03 539.126L-176.989 415.364M-82.03 539.126L-151.938 545.548M-221.846 551.969L-228.936 547.613M-221.846 551.969L-151.938 545.548M-228.936 547.613L-217.564 512.636M-228.936 547.613C-241.773 587.862 -267.13 669.788 -265.867 675.501M-228.936 547.613L-304.393 501.257M-151.938 545.548L-217.564 512.636M-217.564 512.636L-226.249 385.101M-226.249 385.101L-299.243 340.258M-299.243 340.258L-304.393 501.257M-304.393 501.257L-265.867 675.501M-265.867 675.501L-95.6316 773.914M-265.867 675.501L-232.58 842.208M-95.6316 773.914L-232.58 842.208M-95.6316 773.914L-117.939 912.637M-232.58 842.208L-117.939 912.637M-232.58 842.208L-258.492 962.059L-233.567 1007.55L-117.939 912.637" stroke="#D9D9D9"/>
</g>
<defs>
<clipPath id="clip0">
<rect width="1920" height="1372" fill="white"/>
</clipPath>
</defs>
</svg>
