<svg width="1920" height="926" viewBox="0 0 1920 926" fill="none" xmlns="http://www.w3.org/2000/svg">
<g clip-path="url(#clip0)">
<path opacity="0.45" d="M-170.03 362.947L-91.5824 381.169M-170.03 362.947L-208.526 343.536L-157.838 243.304M-170.03 362.947L-168.809 543.922M-91.5824 381.169L-168.809 543.922M-91.5824 381.169L-157.838 243.304M-91.5824 381.169L41.2588 284.017M-91.5824 381.169L-7.43635 417.775M-91.5824 381.169L-28.8231 500.528M-168.809 543.922L-28.8231 500.528M-168.809 543.922L-49.5349 686.623M-28.8231 500.528L-49.5349 686.623M-28.8231 500.528C-8.84821 526.428 31.8269 579.121 34.7282 582.699M-28.8231 500.528L127.763 479.975M-49.5349 686.623C-20.2384 653.473 37.6294 586.278 34.7282 582.699M-49.5349 686.623L143.893 644.014M34.7282 582.699L127.763 479.975M34.7282 582.699L143.893 644.014M-157.838 243.304L41.2588 284.017M41.2588 284.017L154.36 327.32M41.2588 284.017L142.861 358.871M41.2588 284.017L-7.43635 417.775M41.2588 284.017L106.296 445.769M41.2588 284.017L246.158 308.131L189.419 238.089M189.419 238.089L154.36 327.32M189.419 238.089L282.015 289.31M189.419 238.089L257.945 110.498M154.36 327.32L192.915 336.078M154.36 327.32L142.861 358.871M142.861 358.871L192.915 336.078M142.861 358.871L106.296 445.769M142.861 358.871L271.734 447.66M-7.43635 417.775L97.7185 466.153M127.763 479.975L143.893 644.014M127.763 479.975L97.7185 466.153M127.763 479.975L152.192 484.717M143.893 644.014L289.146 503.833M152.192 484.717L279.578 453.065M152.192 484.717L129.244 465.243M152.192 484.717L289.146 503.833M152.192 484.717L171.692 522.331L314.949 587.071M279.578 453.065L271.734 447.66M279.578 453.065L367.977 400.419M279.578 453.065L289.146 503.833M279.578 453.065L426.795 467.321M192.915 336.078L129.244 465.243M192.915 336.078L282.015 289.31M192.915 336.078L403.193 423.701L339.815 331.25M192.915 336.078L289.146 503.833M97.7185 466.153L106.296 445.769M106.296 445.769L129.244 465.243M390.863 232.177L257.945 110.498M390.863 232.177L282.015 289.31M390.863 232.177L449.783 118.759M390.863 232.177L514.095 308.162M390.863 232.177L397.615 373.189M257.945 110.498L282.015 289.31M257.945 110.498L314.59 119.806L449.783 118.759M282.015 289.31L271.734 447.66M282.015 289.31L339.815 331.25M397.615 373.189L400.121 381.275M397.615 373.189L339.815 331.25M400.121 381.275L367.977 400.419M400.121 381.275C436.92 359.078 511.233 313.381 514.095 308.162M400.121 381.275L426.795 467.321M339.815 331.25L367.977 400.419M367.977 400.419L289.146 503.833M289.146 503.833L314.949 587.071M314.949 587.071L426.795 467.321M426.795 467.321L514.095 308.162M426.795 467.321L604.895 469.205M514.095 308.162L449.783 118.759M514.095 308.162L648.065 285.105M514.095 308.162L600.352 158.283M514.095 308.162L604.895 469.205M449.783 118.759L600.352 158.283M449.783 118.759L559.828 27.5534M604.895 469.205L648.065 285.105M604.895 469.205L697.872 377.133M604.895 469.205L791.624 439.308L697.872 377.133M648.065 285.105L600.352 158.283M648.065 285.105L721.476 281.659L749.223 253.747M648.065 285.105L697.872 377.133M600.352 158.283L559.828 27.5534M600.352 158.283L702.683 103.613L712.009 86.7284L559.828 27.5534M600.352 158.283L749.223 253.747M749.223 253.747L770.593 322.686L697.872 377.133" stroke="#D9D9D9"/>
<path opacity="0.45" d="M1968.26 594.187L1882.83 564.732M1968.26 594.187L2008.96 620.325L1940.74 726.29M1968.26 594.187L1987.93 392.079M1882.83 564.732L1987.93 392.079M1882.83 564.732L1940.74 726.29M1882.83 564.732L1723.29 657.71M1882.83 564.732L1793.18 514.099M1882.83 564.732L1826.67 424.233M1987.93 392.079L1826.67 424.233M1987.93 392.079L1871.41 218.962M1826.67 424.233L1871.41 218.962M1826.67 424.233C1807.38 393.008 1768.12 329.474 1765.3 325.144M1826.67 424.233L1649.53 428.967M1871.41 218.962C1834.86 252.551 1762.47 320.813 1765.3 325.144M1871.41 218.962L1650.6 244.027M1765.3 325.144L1649.53 428.967M1765.3 325.144L1650.6 244.027M1940.74 726.29L1723.29 657.71M1723.29 657.71L1602.1 596.237M1723.29 657.71L1618.6 562.363M1723.29 657.71L1793.18 514.099M1723.29 657.71L1669.51 469.636M1723.29 657.71L1497.42 606.98L1552.6 691.742M1552.6 691.742L1602.1 596.237M1552.6 691.742L1455.22 623.816M1552.6 691.742L1461.3 826.166M1602.1 596.237L1560.09 581.981M1602.1 596.237L1618.6 562.363M1618.6 562.363L1560.09 581.981M1618.6 562.363L1669.51 469.636M1618.6 562.363L1485.1 448.294M1793.18 514.099L1681.45 447.885M1649.53 428.967L1650.6 244.027M1649.53 428.967L1681.45 447.885M1649.53 428.967L1622.82 420.836M1650.6 244.027L1472.2 383.582M1622.82 420.836L1476.98 441.351M1622.82 420.836L1646.16 445.236M1622.82 420.836L1472.2 383.582M1622.82 420.836L1605.43 376.592L1453.08 287.69M1476.98 441.351L1485.1 448.294M1476.98 441.351L1372.2 489.827M1476.98 441.351L1472.2 383.582M1476.98 441.351L1314.34 408.328M1560.09 581.981L1646.16 445.236M1560.09 581.981L1455.22 623.816M1560.09 581.981L1335.61 459.75L1395.59 570.293M1560.09 581.981L1472.2 383.582M1681.45 447.885L1669.51 469.636M1669.51 469.636L1646.16 445.236M1327.11 674.922L1461.3 826.166M1327.11 674.922L1455.22 623.816M1327.11 674.922L1248.17 794.647M1327.11 674.922L1198.41 575.798M1327.11 674.922L1335.96 516.77M1461.3 826.166L1455.22 623.816M1461.3 826.166L1399.16 809.193L1248.17 794.647M1455.22 623.816L1485.1 448.294M1455.22 623.816L1395.59 570.293M1335.96 516.77L1334.11 507.455M1335.96 516.77L1395.59 570.293M1334.11 507.455L1372.2 489.827M1334.11 507.455C1290.46 527.948 1202.21 570.307 1198.41 575.798M1334.11 507.455L1314.34 408.328M1395.59 570.293L1372.2 489.827M1372.2 489.827L1472.2 383.582M1472.2 383.582L1453.08 287.69M1453.08 287.69L1314.34 408.328M1314.34 408.328L1198.41 575.798M1198.41 575.798L1248.17 794.647M1198.41 575.798L1084.73 733.035M1248.17 794.647L1084.73 733.035M1248.17 794.647L1114.76 883.638M1084.73 733.035L1114.76 883.638M1084.73 733.035L964.313 804.363L945.589 860.524L1114.76 883.638" stroke="#D9D9D9"/>
</g>
<defs>
<clipPath id="clip0">
<rect width="1920" height="926" fill="white"/>
</clipPath>
</defs>
</svg>
