<svg width="1920" height="1479" viewBox="0 0 1920 1479" fill="none" xmlns="http://www.w3.org/2000/svg">
<path opacity="0.45" d="M-394.783 169.919L-317.436 247.69M-394.783 169.919L-425.166 119.672L-294.172 40.6701M-394.783 169.919L-524.279 379.643M-317.436 247.69L-524.279 379.643M-317.436 247.69L-294.172 40.6701M-317.436 247.69L-93.866 231.667M-317.436 247.69L-246.811 350.799M-317.436 247.69L-331.35 430.825M-524.279 379.643L-331.35 430.825M-524.279 379.643L-489.86 630.593M-331.35 430.825L-489.86 630.593M-331.35 430.825C-327.033 475.161 -318.21 565.39 -317.45 571.618M-331.35 430.825L-135.785 520.371M-489.86 630.593C-432.073 613.529 -316.69 577.846 -317.45 571.618M-489.86 630.593L-235.826 721.337M-317.45 571.618L-135.785 520.371M-317.45 571.618L-235.826 721.337M-294.172 40.6701L-93.866 231.667M-93.866 231.667L5.32903 363.448M-93.866 231.667L-30.7629 391.54M-93.866 231.667L-246.811 350.799M-93.866 231.667L-135.816 465.37M-93.866 231.667L125.142 407.706L110.33 285.837M110.33 285.837L5.32903 363.448M110.33 285.837L180.135 411.923M110.33 285.837L281.699 188.166M5.32903 363.448L43.4847 401.443M5.32903 363.448L-30.7629 391.54M-30.7629 391.54L43.4847 401.443M-30.7629 391.54L-135.816 465.37M-30.7629 391.54L53.7292 587.219M-246.811 350.799L-160.458 482.688M-135.785 520.371L-235.826 721.337M-135.785 520.371L-160.458 482.688M-135.785 520.371L-111.024 543.513M-235.826 721.337L33.1916 664.637M-111.024 543.513L58.8723 599.13M-111.024 543.513L-123.42 504.442M-111.024 543.513L33.1916 664.637M-111.024 543.513L-115.729 601.024L2.75845 779.356M58.8723 599.13L53.7292 587.219M58.8723 599.13L198.964 602.319M58.8723 599.13L33.1916 664.637M58.8723 599.13L218.446 722.069M43.4847 401.443L-123.42 504.442M43.4847 401.443L180.135 411.923M43.4847 401.443L222.762 654.661L216.498 502.129M43.4847 401.443L33.1916 664.637M-160.458 482.688L-135.816 465.37M-135.816 465.37L-123.42 504.442M347.069 424.726L281.699 188.166M347.069 424.726L180.135 411.923M347.069 424.726L497.102 336.461M347.069 424.726L434.315 601.55M347.069 424.726L252.862 592.335M281.699 188.166L180.135 411.923M281.699 188.166L340.333 239.88L497.102 336.461M180.135 411.923L53.7292 587.219M180.135 411.923L216.498 502.129M252.862 592.335L249.906 603.479M252.862 592.335L216.498 502.129M249.906 603.479L198.964 602.319M249.906 603.479C308.427 604.482 427.237 605.501 434.315 601.55M249.906 603.479L218.446 722.069M216.498 502.129L198.964 602.319M198.964 602.319L33.1916 664.637M33.1916 664.637L2.75845 779.356M2.75845 779.356L218.446 722.069M218.446 722.069L434.315 601.55M218.446 722.069L422.609 853.069M434.315 601.55L497.102 336.461M434.315 601.55L605.592 671.847M434.315 601.55L642.267 490.984M434.315 601.55L422.609 853.069M497.102 336.461L642.267 490.984M497.102 336.461L690.064 310.812M422.609 853.069L605.592 671.847M422.609 853.069L596.501 814.074M422.609 853.069L659.716 953.637L596.501 814.074M605.592 671.847L642.267 490.984M605.592 671.847L692.799 720.971L745.009 708.832M605.592 671.847L596.501 814.074M642.267 490.984L690.064 310.812M642.267 490.984L799.9 501.915L822.875 489.177L690.064 310.812M642.267 490.984L745.009 708.832M745.009 708.832L719.803 803.844L596.501 814.074" stroke="#D9D9D9"/>
<path opacity="0.45" d="M2410.7 956.014L2292.68 923.124M2410.7 956.014L2467.92 988.065L2384.25 1137.04M2410.7 956.014L2420.83 680.883M2292.68 923.124L2420.83 680.883M2292.68 923.124L2384.25 1137.04M2292.68 923.124L2084.35 1061.98M2292.68 923.124L2167.22 861.916M2292.68 923.124L2205.2 737.563M2420.83 680.883L2205.2 737.563M2420.83 680.883L2249 456.104M2205.2 737.563L2249 456.104M2205.2 737.563C2176.56 696.877 2118.23 614.099 2114.06 608.468M2205.2 737.563L1965.86 758.429M2249 456.104C2202.28 504.546 2109.88 602.837 2114.06 608.468M2249 456.104L1952.21 508.05M2114.06 608.468L1965.86 758.429M2114.06 608.468L1952.21 508.05M2384.25 1137.04L2084.35 1061.98M2084.35 1061.98L1915.32 988.677M2084.35 1061.98L1934.89 941.486M2084.35 1061.98L2167.22 861.916M2084.35 1061.98L1996.22 811.838M2084.35 1061.98L1774.54 1011.76L1856.13 1121.97M1856.13 1121.97L1915.32 988.677M1856.13 1121.97L1718.79 1037.99M1856.13 1121.97L1743.53 1311.35M1915.32 988.677L1857.31 972.812M1915.32 988.677L1934.89 941.486M1934.89 941.486L1857.31 972.812M1934.89 941.486L1996.22 811.838M1934.89 941.486L1744.91 798.007M2167.22 861.916L2010.6 781.426M1965.86 758.429L1952.21 508.05M1965.86 758.429L2010.6 781.426M1965.86 758.429L1929.04 749.605M1952.21 508.05L1722.16 711.481M1929.04 749.605L1733.34 789.273M1929.04 749.605L1962.63 780.721M1929.04 749.605L1722.16 711.481M1929.04 749.605L1901.9 691.146L1688.46 583.265M1733.34 789.273L1744.91 798.007M1733.34 789.273L1595.51 863.431M1733.34 789.273L1722.16 711.481M1733.34 789.273L1510.54 757.856M1857.31 972.812L1962.63 780.721M1857.31 972.812L1718.79 1037.99M1857.31 972.812L1543.52 825.713L1633.72 970.421M1857.31 972.812L1722.16 711.481M2010.6 781.426L1996.22 811.838M1996.22 811.838L1962.63 780.721M1549.58 1117.61L1743.53 1311.35M1549.58 1117.61L1718.79 1037.99M1549.58 1117.61L1452.52 1286.09M1549.58 1117.61L1367.32 993.967M1549.58 1117.61L1548.66 902.853M1743.53 1311.35L1718.79 1037.99M1743.53 1311.35L1658.06 1293.45L1452.52 1286.09M1718.79 1037.99L1744.91 798.007M1718.79 1037.99L1633.72 970.421M1548.66 902.853L1545.38 890.398M1548.66 902.853L1633.72 970.421M1545.38 890.398L1595.51 863.431M1545.38 890.398C1487.99 921.696 1372.02 986.226 1367.32 993.967M1545.38 890.398L1510.54 757.856M1633.72 970.421L1595.51 863.431M1595.51 863.431L1722.16 711.481M1722.16 711.481L1688.46 583.265M1688.46 583.265L1510.54 757.856M1510.54 757.856L1367.32 993.967M1367.32 993.967L1452.52 1286.09M1367.32 993.967L1226.3 1216.05M1452.52 1286.09L1226.3 1216.05M1452.52 1286.09L1279.23 1417.41M1226.3 1216.05L1279.23 1417.41M1226.3 1216.05L1069.15 1322.41L1279.23 1417.41" stroke="#D9D9D9"/>
</svg>
