<svg width="1920" height="1515" viewBox="0 0 1920 1515" fill="none" xmlns="http://www.w3.org/2000/svg">
<g clip-path="url(#clip0)">
<path opacity="0.45" d="M-394.783 234.919L-317.436 312.69M-394.783 234.919L-425.166 184.672L-294.172 105.67M-394.783 234.919L-524.279 444.643M-317.436 312.69L-524.279 444.643M-317.436 312.69L-294.172 105.67M-317.436 312.69L-93.866 296.667M-317.436 312.69L-246.811 415.799M-317.436 312.69L-331.35 495.825M-524.279 444.643L-331.35 495.825M-524.279 444.643L-489.86 695.593M-331.35 495.825L-489.86 695.593M-331.35 495.825C-327.033 540.161 -318.21 630.39 -317.45 636.618M-331.35 495.825L-135.785 585.371M-489.86 695.593C-432.073 678.529 -316.69 642.846 -317.45 636.618M-489.86 695.593L-235.826 786.337M-317.45 636.618L-135.785 585.371M-317.45 636.618L-235.826 786.337M-294.172 105.67L-93.866 296.667M-93.866 296.667L5.32902 428.448M-93.866 296.667L-30.763 456.54M-93.866 296.667L-246.811 415.799M-93.866 296.667L-135.816 530.37M-93.866 296.667L125.142 472.706L110.33 350.837M110.33 350.837L5.32902 428.448M110.33 350.837L180.134 476.923M110.33 350.837L281.699 253.166M5.32902 428.448L43.4847 466.443M5.32902 428.448L-30.763 456.54M-30.763 456.54L43.4847 466.443M-30.763 456.54L-135.816 530.37M-30.763 456.54L53.7292 652.219M-246.811 415.799L-160.458 547.688M-135.785 585.371L-235.826 786.337M-135.785 585.371L-160.458 547.688M-135.785 585.371L-111.024 608.513M-235.826 786.337L33.1915 729.637M-111.024 608.513L58.8723 664.13M-111.024 608.513L-123.42 569.442M-111.024 608.513L33.1915 729.637M-111.024 608.513L-115.729 666.024L2.75843 844.356M58.8723 664.13L53.7292 652.219M58.8723 664.13L198.964 667.319M58.8723 664.13L33.1915 729.637M58.8723 664.13L218.446 787.069M43.4847 466.443L-123.42 569.442M43.4847 466.443L180.134 476.923M43.4847 466.443L222.762 719.661L216.498 567.129M43.4847 466.443L33.1915 729.637M-160.458 547.688L-135.816 530.37M-135.816 530.37L-123.42 569.442M347.069 489.726L281.699 253.166M347.069 489.726L180.134 476.923M347.069 489.726L497.102 401.461M347.069 489.726L434.315 666.55M347.069 489.726L252.862 657.335M281.699 253.166L180.134 476.923M281.699 253.166L340.333 304.88L497.102 401.461M180.134 476.923L53.7292 652.219M180.134 476.923L216.498 567.129M252.862 657.335L249.906 668.479M252.862 657.335L216.498 567.129M249.906 668.479L198.964 667.319M249.906 668.479C308.427 669.482 427.237 670.501 434.315 666.55M249.906 668.479L218.446 787.069M216.498 567.129L198.964 667.319M198.964 667.319L33.1915 729.637M33.1915 729.637L2.75843 844.356M2.75843 844.356L218.446 787.069M218.446 787.069L434.315 666.55M218.446 787.069L422.609 918.069M434.315 666.55L497.102 401.461M434.315 666.55L605.592 736.847M434.315 666.55L642.267 555.984M434.315 666.55L422.609 918.069M497.102 401.461L642.267 555.984M497.102 401.461L690.064 375.812M422.609 918.069L605.592 736.847M422.609 918.069L596.501 879.074M422.609 918.069L659.717 1018.64L596.501 879.074M605.592 736.847L642.267 555.984M605.592 736.847L692.799 785.971L745.009 773.832M605.592 736.847L596.501 879.074M642.267 555.984L690.064 375.812M642.267 555.984L799.9 566.915L822.875 554.177L690.064 375.812M642.267 555.984L745.009 773.832M745.009 773.832L719.803 868.844L596.501 879.074" stroke="#D9D9D9"/>
<path opacity="0.45" d="M2410.7 1021.01L2292.68 988.124M2410.7 1021.01L2467.92 1053.07L2384.25 1202.04M2410.7 1021.01L2420.83 745.883M2292.68 988.124L2420.83 745.883M2292.68 988.124L2384.25 1202.04M2292.68 988.124L2084.35 1126.98M2292.68 988.124L2167.22 926.916M2292.68 988.124L2205.2 802.563M2420.83 745.883L2205.2 802.563M2420.83 745.883L2249 521.104M2205.2 802.563L2249 521.104M2205.2 802.563C2176.56 761.877 2118.23 679.099 2114.06 673.468M2205.2 802.563L1965.86 823.429M2249 521.104C2202.28 569.546 2109.88 667.837 2114.06 673.468M2249 521.104L1952.21 573.05M2114.06 673.468L1965.86 823.429M2114.06 673.468L1952.21 573.05M2384.25 1202.04L2084.35 1126.98M2084.35 1126.98L1915.32 1053.68M2084.35 1126.98L1934.89 1006.49M2084.35 1126.98L2167.22 926.916M2084.35 1126.98L1996.22 876.838M2084.35 1126.98L1774.54 1076.76L1856.13 1186.97M1856.13 1186.97L1915.32 1053.68M1856.13 1186.97L1718.79 1102.99M1856.13 1186.97L1743.53 1376.35M1915.32 1053.68L1857.31 1037.81M1915.32 1053.68L1934.89 1006.49M1934.89 1006.49L1857.31 1037.81M1934.89 1006.49L1996.22 876.838M1934.89 1006.49L1744.91 863.007M2167.22 926.916L2010.6 846.426M1965.86 823.429L1952.21 573.05M1965.86 823.429L2010.6 846.426M1965.86 823.429L1929.04 814.605M1952.21 573.05L1722.16 776.481M1929.04 814.605L1733.34 854.273M1929.04 814.605L1962.63 845.721M1929.04 814.605L1722.16 776.481M1929.04 814.605L1901.9 756.146L1688.46 648.265M1733.34 854.273L1744.91 863.007M1733.34 854.273L1595.51 928.431M1733.34 854.273L1722.16 776.481M1733.34 854.273L1510.54 822.856M1857.31 1037.81L1962.63 845.721M1857.31 1037.81L1718.79 1102.99M1857.31 1037.81L1543.52 890.713L1633.72 1035.42M1857.31 1037.81L1722.16 776.481M2010.6 846.426L1996.22 876.838M1996.22 876.838L1962.63 845.721M1549.58 1182.61L1743.53 1376.35M1549.58 1182.61L1718.79 1102.99M1549.58 1182.61L1452.52 1351.09M1549.58 1182.61L1367.32 1058.97M1549.58 1182.61L1548.66 967.853M1743.53 1376.35L1718.79 1102.99M1743.53 1376.35L1658.06 1358.45L1452.52 1351.09M1718.79 1102.99L1744.91 863.007M1718.79 1102.99L1633.72 1035.42M1548.66 967.853L1545.38 955.398M1548.66 967.853L1633.72 1035.42M1545.38 955.398L1595.51 928.431M1545.38 955.398C1487.99 986.696 1372.02 1051.23 1367.32 1058.97M1545.38 955.398L1510.54 822.856M1633.72 1035.42L1595.51 928.431M1595.51 928.431L1722.16 776.481M1722.16 776.481L1688.46 648.265M1688.46 648.265L1510.54 822.856M1510.54 822.856L1367.32 1058.97M1367.32 1058.97L1452.52 1351.09M1367.32 1058.97L1226.3 1281.05M1452.52 1351.09L1226.3 1281.05M1452.52 1351.09L1279.23 1482.41M1226.3 1281.05L1279.23 1482.41M1226.3 1281.05L1069.15 1387.41L1279.23 1482.41" stroke="#D9D9D9"/>
</g>
<defs>
<clipPath id="clip0">
<rect width="1920" height="1515" fill="white"/>
</clipPath>
</defs>
</svg>
