<svg width="375" height="1823" viewBox="0 0 375 1823" fill="none" xmlns="http://www.w3.org/2000/svg">
<path opacity="0.45" d="M345.746 682.238L293.488 618.051M345.746 682.238L364.8 722.242L260.525 771.76M345.746 682.238L458.681 534.449M293.488 618.051L458.681 534.449M293.488 618.051L260.525 771.76M293.488 618.051L124.411 613.35M293.488 618.051L248.173 535.342M293.488 618.051L317.642 481.578M458.681 534.449L317.642 481.578M458.681 534.449L451.617 343.437M317.642 481.578L451.617 343.437M317.642 481.578C317.719 447.964 317.846 379.551 317.742 374.818M317.642 481.578L177.496 399.702M451.617 343.437C406.949 351.925 317.638 370.084 317.742 374.818M451.617 343.437L267.657 256.286M317.742 374.818L177.496 399.702M317.742 374.818L267.657 256.286M260.525 771.76L124.411 613.35M124.411 613.35L59.7895 506.973M124.411 613.35L88.9932 488.58M124.411 613.35L248.173 535.342M124.411 613.35L173.402 441.004M124.411 613.35L-26.8651 464.773L-24.8633 557.392M-24.8633 557.392L59.7895 506.973M-24.8633 557.392L-67.8426 457.49M-24.8633 557.392L-160.854 617.907M59.7895 506.973L33.9823 475.587M59.7895 506.973L88.9932 488.58M88.9932 488.58L33.9823 475.587M88.9932 488.58L173.402 441.004M88.9932 488.58L40.1939 335.322M248.173 535.342L193.202 429.844M177.496 399.702L267.657 256.286M177.496 399.702L193.202 429.844M177.496 399.702L160.635 380.472M267.657 256.286L61.4096 278.727M160.635 380.472L37.2234 325.993M160.635 380.472L167.019 410.738M160.635 380.472L61.4096 278.727M160.635 380.472L168.472 337.639L92.8476 194.863M37.2234 325.993L40.1939 335.322M37.2234 325.993L-67.7315 313.114M37.2234 325.993L61.4096 278.727M37.2234 325.993L-73.3983 221.737M33.9823 475.587L167.019 410.738M33.9823 475.587L-67.8426 457.49M33.9823 475.587L-81.6841 272.03L-88.3967 387.034M33.9823 475.587L61.4096 278.727M193.202 429.844L173.402 441.004M173.402 441.004L167.019 410.738M-192.234 435.383L-160.854 617.907M-192.234 435.383L-67.8426 457.49M-192.234 435.383L-311.499 490.431M-192.234 435.383L-244.512 296.078M-192.234 435.383L-108.951 316.577M-160.854 617.907L-67.8426 457.49M-160.854 617.907L-201.011 574.686L-311.499 490.431M-67.8426 457.49L40.1939 335.322M-67.8426 457.49L-88.3967 387.034M-108.951 316.577L-105.897 308.431M-108.951 316.577L-88.3967 387.034M-105.897 308.431L-67.7315 313.114M-105.897 308.431C-149.765 303.297 -238.902 293.64 -244.512 296.078M-105.897 308.431L-73.3983 221.737M-88.3967 387.034L-67.7315 313.114M-67.7315 313.114L61.4096 278.727M61.4096 278.727L92.8476 194.863M92.8476 194.863L-73.3983 221.737M-73.3983 221.737L-244.512 296.078M-73.3983 221.737L-216.898 108.089M-244.512 296.078L-311.499 490.431M-244.512 296.078L-367.862 230.473M-244.512 296.078L-408.938 363.537M-244.512 296.078L-216.898 108.089M-311.499 490.431L-408.938 363.537M-311.499 490.431L-458.312 495.25M-216.898 108.089L-367.862 230.473M-216.898 108.089L-350.391 124.356M-216.898 108.089L-387.414 14.8284L-350.391 124.356M-367.862 230.473L-408.938 363.537M-367.862 230.473L-429.669 187.059L-469.781 192.267M-367.862 230.473L-350.391 124.356M-408.938 363.537L-458.312 495.25M-408.938 363.537L-526.485 343.531L-544.69 351.377L-458.312 495.25M-408.938 363.537L-469.781 192.267M-469.781 192.267L-443.743 122.809L-350.391 124.356" stroke="#D9D9D9"/>
<path opacity="0.45" d="M42.5575 774.444L53.3712 861.041M42.5575 774.444L47.898 728.032L168.795 742.087M42.5575 774.444L-141.036 843.385M53.3712 861.041L-141.036 843.385M53.3712 861.041L168.795 742.087M53.3712 861.041L201.868 959.798M53.3712 861.041L47.6205 960.311M53.3712 861.041L-44.5394 969.517M-141.036 843.385L-44.5394 969.517M-141.036 843.385L-241.544 1018.07M-44.5394 969.517L-241.544 1018.07M-44.5394 969.517C-63.4067 999.52 -101.78 1060.6 -104.334 1064.89M-44.5394 969.517L34.9384 1121.08M-241.544 1018.07C-196.872 1035.46 -106.888 1069.18 -104.334 1064.89M-241.544 1018.07L-125.854 1198.84M-104.334 1064.89L34.9384 1121.08M-104.334 1064.89L-125.854 1198.84M168.795 742.087L201.868 959.798M201.868 959.798L200.138 1091.02M201.868 959.798L163.749 1091.13M201.868 959.798L47.6205 960.311M201.868 959.798L61.6952 1086.45M201.868 959.798L253.992 1177.2L303.999 1093.3M303.999 1093.3L200.138 1091.02M303.999 1093.3L286.546 1206.63M303.999 1093.3L459.393 1115.26M200.138 1091.02L205.653 1133.51M200.138 1091.02L163.749 1091.13M163.749 1091.13L205.653 1133.51M163.749 1091.13L61.6952 1086.45M163.749 1091.13L121.659 1255.4M47.6205 960.311L37.7567 1085.35M34.9384 1121.08L-125.854 1198.84M34.9384 1121.08L37.7567 1085.35M34.9384 1121.08L39.255 1147.69M-125.854 1198.84L71.0453 1294.13M39.255 1147.69L119.097 1265.4M39.255 1147.69L50.4751 1117.07M39.255 1147.69L71.0453 1294.13M39.255 1147.69L8.29582 1181.6L-3.95492 1351.51M119.097 1265.4L121.659 1255.4M119.097 1265.4L205.706 1335.61M119.097 1265.4L71.0453 1294.13M119.097 1265.4L159.669 1420.46M205.653 1133.51L50.4751 1117.07M205.653 1133.51L286.546 1206.63M205.653 1133.51L195.201 1380.14L265.516 1281.1M205.653 1133.51L71.0453 1294.13M37.7567 1085.35L61.6952 1086.45M61.6952 1086.45L50.4751 1117.07M385.368 1295.95L459.393 1115.26M385.368 1295.95L286.546 1206.63M385.368 1295.95L522.755 1313.44M385.368 1295.95L354.19 1449.7M385.368 1295.95L244.485 1355.57M459.393 1115.26L286.546 1206.63M459.393 1115.26L471.117 1176.35L522.755 1313.44M286.546 1206.63L121.659 1255.4M286.546 1206.63L265.516 1281.1M244.485 1355.57L237.2 1361.14M244.485 1355.57L265.516 1281.1M237.2 1361.14L205.706 1335.61M237.2 1361.14C273.539 1390.26 347.812 1448.74 354.19 1449.7M237.2 1361.14L159.669 1420.46M265.516 1281.1L205.706 1335.61M205.706 1335.61L71.0453 1294.13M71.0453 1294.13L-3.95492 1351.51M-3.95492 1351.51L159.669 1420.46M159.669 1420.46L354.19 1449.7M354.19 1449.7L522.755 1313.44M354.19 1449.7L538.884 1481.36M522.755 1313.44L538.884 1481.36M522.755 1313.44L656.676 1391.24M538.884 1481.36L656.676 1391.24M538.884 1481.36L651.961 1555.4L708.618 1547.74L656.676 1391.24" stroke="#D9D9D9"/>
</svg>
