<svg width="768" height="702" viewBox="0 0 768 702" fill="none" xmlns="http://www.w3.org/2000/svg">
<g clip-path="url(#clip0)">
<path opacity="0.45" d="M378.684 513.004L438.996 518.824M378.684 513.004L349.771 503.919L396.059 441.035M378.684 513.004L367.817 620.607M438.996 518.824L367.817 620.607M438.996 518.824L396.059 441.035M438.996 518.824L549.489 452.513M438.996 518.824L502.574 535.217M438.996 518.824L480.4 585.825M367.817 620.607L480.4 585.825M367.817 620.607L452.004 697.878M480.4 585.825L452.004 697.878M480.4 585.825C494.368 599.956 522.814 628.705 524.855 630.649M480.4 585.825L604.505 563.571M452.004 697.878C477.138 676.278 526.896 632.592 524.855 630.649M452.004 697.878L606.434 660.142M524.855 630.649L604.505 563.571M524.855 630.649L606.434 660.142M396.059 441.035L549.489 452.513M549.489 452.513L635.331 471.037M549.489 452.513L624.254 490.546M549.489 452.513L502.574 535.217M549.489 452.513L589.91 544.593M549.489 452.513L708.553 453.743L668.646 415.7M668.646 415.7L635.331 471.037M668.646 415.7L737.895 440.248M668.646 415.7L730.707 335.395M635.331 471.037L664.985 473.78M635.331 471.037L624.254 490.546M624.254 490.546L664.985 473.78M624.254 490.546L589.91 544.593M624.254 490.546L719.488 535.126M502.574 535.217L581.853 557.27M604.505 563.571L606.434 660.142M604.505 563.571L581.853 557.27M604.505 563.571L644.462 545.001M606.434 660.142L727.604 573.662M644.462 545.001L725.285 537.839M644.462 545.001L606.628 554.71M644.462 545.001L727.604 573.662M644.462 545.001L633.211 613.662L782.786 581.82M725.285 537.839L719.488 535.126M725.285 537.839L798.028 500.855M725.285 537.839L727.604 573.662M725.285 537.839L837.907 518.529M664.985 473.78L606.628 554.71M664.985 473.78L737.895 440.248M664.985 473.78L824.117 512.454L780.469 461.502M664.985 473.78L727.604 573.662M581.853 557.27L589.91 544.593M589.91 544.593L606.628 554.71M826.963 399.285L730.707 335.395M826.963 399.285L737.895 440.248M826.963 399.285L880.566 328.028M826.963 399.285L918.612 436.607M826.963 399.285L823.044 482.756M730.707 335.395L737.895 440.248M730.707 335.395L774.507 337.307L880.566 328.028M737.895 440.248L719.488 535.126M737.895 440.248L780.469 461.502M823.044 482.756L824.48 487.406M823.044 482.756L780.469 461.502M824.48 487.406L798.028 500.855M824.48 487.406C854.78 471.843 916.027 439.895 918.612 436.607M824.48 487.406L837.907 518.529M780.469 461.502L798.028 500.855M798.028 500.855L727.604 573.662M727.604 573.662L782.786 581.82M782.786 581.82L837.907 518.529M837.907 518.529L918.612 436.607M918.612 436.607L880.566 328.028M918.612 436.607L996.029 341.905M880.566 328.028L996.029 341.905M880.566 328.028L972.799 266.715M996.029 341.905L972.799 266.715M996.029 341.905L1079.41 291.256L1091.72 259.875L972.799 266.715" stroke="#D9D9D9"/>
<path opacity="0.45" d="M788.722 311.361L748.199 303.989M788.722 311.361L808.2 319.68L777.643 365.201M788.722 311.361L795.146 230.126M748.199 303.989L795.146 230.126M748.199 303.989L777.643 365.201M748.199 303.989L674.579 348.973M748.199 303.989L705.398 288.421M748.199 303.989L719.87 251.049M795.146 230.126L719.87 251.049M795.146 230.126L738.022 167.289M719.87 251.049L738.022 167.289M719.87 251.049C710.382 239.627 691.058 216.39 689.673 214.813M719.87 251.049L636.76 261.889M738.022 167.289C721.329 182.473 688.288 213.236 689.673 214.813M738.022 167.289L634.686 188.41M689.673 214.813L636.76 261.889M689.673 214.813L634.686 188.41M777.643 365.201L674.579 348.973M674.579 348.973L616.819 330.697M674.579 348.973L624.096 316.414M674.579 348.973L705.398 288.421M674.579 348.973L646.709 277.025M674.579 348.973L567.818 340.258L594.908 371.118M594.908 371.118L616.819 330.697M594.908 371.118L548.235 349.077M594.908 371.118L553.906 429.106M616.819 330.697L596.896 327.162M616.819 330.697L624.096 316.414M624.096 316.414L596.896 327.162M624.096 316.414L646.709 277.025M624.096 316.414L559.822 277.88M705.398 288.421L652.013 267.785M636.76 261.889L634.686 188.41M636.76 261.889L652.013 267.785M636.76 261.889L610.094 274.046M634.686 188.41L554.063 248.199M610.094 274.046L555.909 275.534M610.094 274.046L635.406 268.518M610.094 274.046L554.063 248.199M610.094 274.046L617.09 222.421L516.964 239.3M555.909 275.534L559.822 277.88M555.909 275.534L507.388 300.08M555.909 275.534L554.063 248.199M555.909 275.534L480.482 284.699M596.896 327.162L635.406 268.518M596.896 327.162L548.235 349.077M596.896 327.162L489.786 289.99L519.49 330.843M596.896 327.162L554.063 248.199M652.013 267.785L646.709 277.025M646.709 277.025L635.406 268.518M488.79 375.847L553.906 429.106M488.79 375.847L548.235 349.077M488.79 375.847L453.391 427.373M488.79 375.847L426.981 343.003M488.79 375.847L490.746 312.61M553.906 429.106L548.235 349.077M553.906 429.106L524.495 425.511L453.391 427.373M548.235 349.077L559.822 277.88M548.235 349.077L519.49 330.843M490.746 312.61L489.744 309.006M490.746 312.61L519.49 330.843M489.744 309.006L507.388 300.08M489.744 309.006C469.535 319.35 428.689 340.631 426.981 343.003M489.744 309.006L480.482 284.699M519.49 330.843L507.388 300.08M507.388 300.08L554.063 248.199M554.063 248.199L516.964 239.3M516.964 239.3L480.482 284.699M480.482 284.699L426.981 343.003M426.981 343.003L453.391 427.373M426.981 343.003L375.789 411.18M453.391 427.373L375.789 411.18M453.391 427.373L391.986 469.453M375.789 411.18L391.986 469.453M375.789 411.18L320.241 445.59L312.231 468.834L391.986 469.453" stroke="#D9D9D9"/>
<path opacity="0.45" d="M554.04 321.142L527.652 302.867M554.04 321.142L565.187 333.315L528.848 355.788M554.04 321.142L584.745 265.554M527.652 302.867L584.745 265.554M527.652 302.867L528.848 355.788M527.652 302.867L460.923 311.1M527.652 302.867L502.285 278.043M527.652 302.867L524.585 256.176M584.745 265.554L524.585 256.176M584.745 265.554L564.426 202.571M524.585 256.176L564.426 202.571M524.585 256.176C521.526 245.016 515.291 222.304 514.815 220.74M524.585 256.176L462.11 237.121M564.426 202.571C547.691 207.975 514.34 219.175 514.815 220.74M564.426 202.571L484.286 184.303M514.815 220.74L462.11 237.121M514.815 220.74L484.286 184.303M528.848 355.788L460.923 311.1M460.923 311.1L425.811 279.539M460.923 311.1L435.572 271.743M460.923 311.1L502.285 278.043M460.923 311.1L464.299 251.065M460.923 311.1L387.956 270.553L397.25 301.174M397.25 301.174L425.811 279.539M397.25 301.174L371.219 270.509M397.25 301.174L349.487 329.134M425.811 279.539L412.808 270.617M425.811 279.539L435.572 271.743M435.572 271.743L412.808 270.617M435.572 271.743L464.299 251.065M435.572 271.743L402.357 223.707M502.285 278.043L471.037 246.215M462.11 237.121L484.286 184.303M462.11 237.121L471.037 246.215M462.11 237.121L439.271 237.167M484.286 184.303L407.823 200.789M439.271 237.167L400.335 220.784M439.271 237.167L459.015 241.39M439.271 237.167L407.823 200.789M439.271 237.167L460.852 202.778L384.356 182.532M400.335 220.784L402.357 223.707M400.335 220.784L357.998 222.588M400.335 220.784L407.823 200.789M400.335 220.784L343.852 203.011M412.808 270.617L459.015 241.39M412.808 270.617L371.219 270.509M412.808 270.617L348.753 209.761L356.687 248.317M412.808 270.617L407.823 200.789M471.037 246.215L464.299 251.065M464.299 251.065L459.015 241.39M320.413 270.377L349.487 329.134M320.413 270.377L371.219 270.509M320.413 270.377L278.705 295.554M320.413 270.377L287.115 227.173M320.413 270.377L342.154 226.125M349.487 329.134L371.219 270.509M349.487 329.134L329.77 317.116L278.705 295.554M371.219 270.509L402.357 223.707M371.219 270.509L356.687 248.317M342.154 226.125L342.603 223.244M342.154 226.125L356.687 248.317M342.603 223.244L357.998 222.588M342.603 223.244C324.93 224.081 289.091 226.039 287.115 227.173M342.603 223.244L343.852 203.011M356.687 248.317L357.998 222.588M357.998 222.588L407.823 200.789M407.823 200.789L384.356 182.532M384.356 182.532L343.852 203.011M343.852 203.011L287.115 227.173M287.115 227.173L278.705 295.554M287.115 227.173L228.84 259.084M278.705 295.554L228.84 259.084M278.705 295.554L221.581 305.656M228.84 259.084L221.581 305.656M228.84 259.084L178.341 265.628L165.175 279.547L221.581 305.656" stroke="#D9D9D9"/>
<path opacity="0.45" d="M208.288 625.019L216.136 599.84M208.288 625.019L201.043 637.098L169.805 617.868M208.288 625.019L266.984 629.405M216.136 599.84L266.984 629.405M216.136 599.84L169.805 617.868M216.136 599.84L187.929 553.817M216.136 599.84L230.084 573.282M216.136 599.84L256.381 582.466M266.984 629.405L256.381 582.466M266.984 629.405L316.194 594.162M256.381 582.466L316.194 594.162M256.381 582.466C265.271 576.617 283.359 564.705 284.591 563.851M256.381 582.466L253.593 530.702M316.194 594.162C306.173 583.702 285.823 562.996 284.591 563.851M316.194 594.162L307.168 529.763M284.591 563.851L253.593 530.702M284.591 563.851L307.168 529.763M169.805 617.868L187.929 553.817M187.929 553.817L204.765 517.965M187.929 553.817L214.708 522.561M187.929 553.817L230.084 573.282M187.929 553.817L241.973 536.82M187.929 553.817L200.816 487.43L176.707 504.138M176.707 504.138L204.765 517.965M176.707 504.138L195.602 475.203M176.707 504.138L137.042 478.348M204.765 517.965L208.558 505.585M204.765 517.965L214.708 522.561M214.708 522.561L208.558 505.585M214.708 522.561L241.973 536.82M214.708 522.561L246.68 482.753M230.084 573.282L248.369 540.164M253.593 530.702L307.168 529.763M253.593 530.702L248.369 540.164M253.593 530.702L246.386 514.052M307.168 529.763L268.623 479.312M246.386 514.052L248.626 480.33M246.386 514.052L248.854 529.828M246.386 514.052L268.623 479.312M246.386 514.052L283.508 518.652L277.371 456.271M248.626 480.33L246.68 482.753M248.626 480.33L233.747 450.022M248.626 480.33L268.623 479.312M248.626 480.33L246.586 433.354M208.558 505.585L248.854 529.828M208.558 505.585L195.602 475.203M208.558 505.585L242.166 439.117L210.628 457.405M208.558 505.585L268.623 479.312M248.369 540.164L241.973 536.82M241.973 536.82L248.854 529.828M179.775 438.087L137.042 478.348M179.775 438.087L195.602 475.203M179.775 438.087L144.466 415.815M179.775 438.087L207.456 399.785M179.775 438.087L225.654 439.607M137.042 478.348L195.602 475.203M137.042 478.348L141.461 460.066L144.466 415.815M195.602 475.203L246.68 482.753M195.602 475.203L210.628 457.405M225.654 439.607L228.337 439.001M225.654 439.607L210.628 457.405M228.337 439.001L233.747 450.022M228.337 439.001C222.052 426.376 209.077 400.86 207.456 399.785M228.337 439.001L246.586 433.354M210.628 457.405L233.747 450.022M233.747 450.022L268.623 479.312M268.623 479.312L277.371 456.271M277.371 456.271L246.586 433.354M246.586 433.354L207.456 399.785M207.456 399.785L144.466 415.815M207.456 399.785L161.005 367.607M144.466 415.815L161.005 367.607M144.466 415.815L117.624 377.406M161.005 367.607L117.624 377.406M161.005 367.607L139.382 332.879L122.965 327.784L117.624 377.406" stroke="#D9D9D9"/>
</g>
<defs>
<clipPath id="clip0">
<rect width="768" height="702" fill="white"/>
</clipPath>
</defs>
</svg>
