<svg width="1920" height="983" viewBox="0 0 1920 983" fill="none" xmlns="http://www.w3.org/2000/svg">
<path opacity="0.45" d="M-252.163 564.042L-161.405 585.124M-252.163 564.042L-296.701 541.584L-238.058 425.623M-252.163 564.042L-250.75 773.417M-161.405 585.124L-250.75 773.417M-161.405 585.124L-238.058 425.623M-161.405 585.124L-7.71728 472.726M-161.405 585.124L-64.054 627.474M-161.405 585.124L-88.797 723.213M-250.75 773.417L-88.797 723.213M-250.75 773.417L-112.759 938.511M-88.797 723.213L-112.759 938.511M-88.797 723.213C-65.6875 753.177 -18.6293 814.139 -15.2728 818.279M-88.797 723.213L92.3615 699.435M-112.759 938.511C-78.8651 900.159 -11.9162 822.419 -15.2728 818.279M-112.759 938.511L111.023 889.216M-15.2728 818.279L92.3615 699.435M-15.2728 818.279L111.023 889.216M-238.058 425.623L-7.71728 472.726M-7.71728 472.726L123.133 522.823M-7.71728 472.726L109.829 559.326M-7.71728 472.726L-64.054 627.474M-7.71728 472.726L67.5255 659.861M-7.71728 472.726L229.337 500.624L163.693 419.591M163.693 419.591L123.133 522.823M163.693 419.591L270.82 478.849M163.693 419.591L242.973 271.977M123.133 522.823L167.737 532.957M123.133 522.823L109.829 559.326M109.829 559.326L167.737 532.957M109.829 559.326L67.5255 659.861M109.829 559.326L258.925 662.049M-64.054 627.474L57.6025 683.444M92.3615 699.435L111.023 889.216M92.3615 699.435L57.6025 683.444M92.3615 699.435L120.624 704.92M111.023 889.216L279.071 727.037M120.624 704.92L268.001 668.302M120.624 704.92L94.075 682.391M120.624 704.92L279.071 727.037M120.624 704.92L143.184 748.437L308.922 823.337M268.001 668.302L258.925 662.049M268.001 668.302L370.271 607.394M268.001 668.302L279.071 727.037M268.001 668.302L438.32 684.795M167.737 532.957L94.075 682.391M167.737 532.957L270.82 478.849M167.737 532.957L411.015 634.33L337.691 527.37M167.737 532.957L279.071 727.037M57.6025 683.444L67.5255 659.861M67.5255 659.861L94.075 682.391M396.749 412.751L242.973 271.977M396.749 412.751L270.82 478.849M396.749 412.751L464.915 281.534M396.749 412.751L539.32 500.66M396.749 412.751L404.561 575.891M242.973 271.977L270.82 478.849M242.973 271.977L388 257L464.915 281.534M270.82 478.849L258.925 662.049M270.82 478.849L337.691 527.37M404.561 575.891L407.461 585.245M404.561 575.891L337.691 527.37M407.461 585.245L370.271 607.394M407.461 585.245C450.034 559.566 536.008 506.697 539.32 500.66M407.461 585.245L438.32 684.795M337.691 527.37L370.271 607.394M370.271 607.394L279.071 727.037M279.071 727.037L308.922 823.337M308.922 823.337L438.32 684.795M438.32 684.795L539.32 500.66M438.32 684.795L644.369 686.974M539.32 500.66L464.915 281.534M539.32 500.66L694.313 473.984M539.32 500.66L639.113 327.26M539.32 500.66L644.369 686.974M464.915 281.534L639.113 327.26M464.915 281.534L593 264.011M644.369 686.974L694.313 473.984M644.369 686.974L751.937 580.454M644.369 686.974L860.401 652.386L751.937 580.454M694.313 473.984L639.113 327.26M694.313 473.984L779.244 469.997L811.345 437.705M694.313 473.984L751.937 580.454M639.113 327.26L593 264.011M639.113 327.26L757.502 264.011L768.291 244.477L593 264.011M639.113 327.26L811.345 437.705M811.345 437.705L836.069 517.463L751.937 580.454" stroke="#D9D9D9"/>
<path opacity="0.45" d="M2045.62 704.41L1965.23 634.315M2045.62 704.41L2078.56 751.05L1956.95 836.721M2045.62 704.41L2156.74 492.046M1965.23 634.315L2156.74 492.046M1965.23 634.315L1956.95 836.721M1965.23 634.315L1749.48 665.292M1965.23 634.315L1889.6 539.181M1965.23 634.315L1966.08 455.723M2156.74 492.046L1966.08 455.723M2156.74 492.046L2106.03 251.013M1966.08 455.723L2106.03 251.013M1966.08 455.723C1958.83 413.017 1944.04 326.108 1942.88 320.119M1966.08 455.723L1770.21 382.368M2106.03 251.013C2051.16 271.553 1941.71 314.131 1942.88 320.119M2106.03 251.013L1853.37 180.534M1942.88 320.119L1770.21 382.368M1942.88 320.119L1853.37 180.534M1956.95 836.721L1749.48 665.292M1749.48 665.292L1644.17 544.319M1749.48 665.292L1677.23 514.579M1749.48 665.292L1889.6 539.181M1749.48 665.292L1774.03 435.714M1749.48 665.292L1524.9 509.662L1547.68 626.847M1547.68 626.847L1644.17 544.319M1547.68 626.847L1471.27 509.368M1547.68 626.847L1388.2 733.414M1644.17 544.319L1604.53 510.099M1644.17 544.319L1677.23 514.579M1677.23 514.579L1604.53 510.099M1677.23 514.579L1774.03 435.714M1677.23 514.579L1581.77 330.612M1889.6 539.181L1796.74 417.215M1770.21 382.368L1853.37 180.534M1770.21 382.368L1796.74 417.215M1770.21 382.368L1697 382.368M1853.37 180.534L1604.53 243M1697 382.368L1575.96 319.414M1697 382.368L1759.31 398.673M1697 382.368L1604.53 243M1697 382.368L1774.03 251.013L1533.5 173M1575.96 319.414L1581.77 330.612M1575.96 319.414L1439.86 325.992M1575.96 319.414L1604.53 243M1575.96 319.414L1399 251.013M1604.53 510.099L1759.31 398.673M1604.53 510.099L1471.27 509.368M1604.53 510.099L1413.16 276.866L1429.77 424.383M1604.53 510.099L1604.53 243M1796.74 417.215L1774.03 435.714M1774.03 435.714L1759.31 398.673M1308.46 508.475L1388.2 733.414M1308.46 508.475L1471.27 509.368M1308.46 508.475L1169.03 604.445M1308.46 508.475L1211.63 342.987M1308.46 508.475L1388.27 339.397M1388.2 733.414L1471.27 509.368M1388.2 733.414L1327.76 687.301L1169.03 604.445M1471.27 509.368L1581.77 330.612M1471.27 509.368L1429.77 424.383M1388.27 339.397L1390.37 328.385M1388.27 339.397L1429.77 424.383M1390.37 328.385L1439.86 325.992M1390.37 328.385C1333.53 331.452 1218.22 338.666 1211.63 342.987M1390.37 328.385L1399 251.013M1429.77 424.383L1439.86 325.992M1439.86 325.992L1604.53 243M1604.53 243L1533.5 173M1533.5 173L1399 251.013M1399 251.013L1211.63 342.987M1211.63 342.987L1169.03 604.445M1211.63 342.987L1017.56 464.587M1169.03 604.445L1017.56 464.587M1169.03 604.445L983.639 642.646M1017.56 464.587L983.639 642.646M1017.56 464.587L854.214 489.228L808.833 542.361L983.639 642.646" stroke="#D9D9D9"/>
</svg>
