<svg width="1920" height="577" viewBox="0 0 1920 577" fill="none" xmlns="http://www.w3.org/2000/svg">
<path opacity="0.65" d="M345.345 -229.615L279.415 -171.03M345.345 -229.615L387.057 -251.739L444.568 -143.004M345.345 -229.615L182.818 -343.05M279.415 -171.03L182.818 -343.05M279.415 -171.03L444.568 -143.004M279.415 -171.03L282.183 9.18406M279.415 -171.03L193.446 -118.986M279.415 -171.03L133.016 -190.47M182.818 -343.05L133.016 -190.47M182.818 -343.05L-20.2079 -326.749M133.016 -190.47L-20.2079 -326.749M133.016 -190.47C97.2263 -189.007 24.3886 -185.997 19.3541 -185.669M133.016 -190.47L52.2935 -37.5073M-20.2079 -326.749C-9.11824 -279.585 14.3197 -185.34 19.3541 -185.669M-20.2079 -326.749L-104.532 -126.899M19.3541 -185.669L52.2935 -37.5073M19.3541 -185.669L-104.532 -126.899M444.568 -143.004L282.183 9.18406M282.183 9.18406L171.905 82.8707M282.183 9.18406L150.982 52.6262M282.183 9.18406L193.446 -118.986M282.183 9.18406L96.4518 -35.0481M282.183 9.18406L130.963 177.063L229.473 170.674M229.473 170.674L171.905 82.8707M229.473 170.674L125.094 221.022M229.473 170.674L300.148 312.666M171.905 82.8707L139.678 111.788M171.905 82.8707L150.982 52.6262M150.982 52.6262L139.678 111.788M150.982 52.6262L96.4518 -35.0481M150.982 52.6262L-9.93273 111.623M193.446 -118.986L83.6608 -55.6137M52.2935 -37.5073L-104.532 -126.899M52.2935 -37.5073L83.6608 -55.6137M52.2935 -37.5073L32.596 -18.6729M-104.532 -126.899L-71.1592 91.6391M32.596 -18.6729L-19.7276 115.215M32.596 -18.6729L64.5239 -26.8605M32.596 -18.6729L-71.1592 91.6391M32.596 -18.6729L-13.3637 -25.0475L-161.886 62.0259M-19.7276 115.215L-9.93273 111.623M-19.7276 115.215L-28.6137 227.541M-19.7276 115.215L-71.1592 91.6391M-19.7276 115.215L-125.633 237.775M139.678 111.788L64.5239 -26.8605M139.678 111.788L125.094 221.022M139.678 111.788L-71.7103 244.284L51.0307 246.143M139.678 111.788L-71.1592 91.6391M83.6608 -55.6137L96.4518 -35.0481M96.4518 -35.0481L64.5239 -26.8605M107.277 354.465L300.148 312.666M107.277 354.465L125.094 221.022M107.277 354.465L171.364 478.903M107.277 354.465L-38.6237 416.525M107.277 354.465L-23.0322 271.264M300.148 312.666L125.094 221.022M300.148 312.666L255.982 357.405L171.364 478.903M125.094 221.022L-9.93273 111.623M125.094 221.022L51.0307 246.143M-23.0322 271.264L-31.8451 268.387M-23.0322 271.264L51.0307 246.143M-31.8451 268.387L-28.6137 227.541M-31.8451 268.387C-35.2933 315.324 -41.4764 410.664 -38.6237 416.525M-31.8451 268.387L-125.633 237.775M51.0307 246.143L-28.6137 227.541M-28.6137 227.541L-71.1592 91.6391M-71.1592 91.6391L-161.886 62.0259M-161.886 62.0259L-125.633 237.775M-125.633 237.775L-38.6237 416.525M-125.633 237.775L-240.024 395.769M-38.6237 416.525L171.364 478.903M-38.6237 416.525L-102.795 550.858M-38.6237 416.525L40.7522 588.469M-38.6237 416.525L-240.024 395.769M171.364 478.903L40.7522 588.469M171.364 478.903L183.243 634.978M-240.024 395.769L-102.795 550.858M-240.024 395.769L-216.57 537.137M-240.024 395.769L-331.471 581.587L-216.57 537.137M-102.795 550.858L40.7522 588.469M-102.795 550.858L-146.172 618.653L-138.783 661.117M-102.795 550.858L-216.57 537.137M40.7522 588.469L183.243 634.978M40.7522 588.469L24.8582 714.529L34.0476 733.55L183.243 634.978M40.7522 588.469L-138.783 661.117M-138.783 661.117L-213.925 636.59L-216.57 537.137" stroke="#D9D9D9"/>
<path opacity="0.65" d="M2141.45 139.799L2069.03 174.812M2141.45 139.799L2183.56 130.759L2206.98 240.476M2141.45 139.799L2027.04 -0.159432M2069.03 174.812L2027.04 -0.159432M2069.03 174.812L2206.98 240.476M2069.03 174.812L2026.64 333.639M2069.03 174.812L1980.65 199.102M2069.03 174.812L1945.4 121.345M2027.04 -0.159432L1945.4 121.345M2027.04 -0.159432L1844.83 -36.3448M1945.4 121.345L1844.83 -36.3448M1945.4 121.345C1913.63 113.729 1848.96 98.2563 1844.46 97.2926M1945.4 121.345L1836.52 235.497M1844.83 -36.3448C1842.84 7.79945 1839.97 96.3289 1844.46 97.2926M1844.83 -36.3448L1721.14 118.055M1844.46 97.2926L1836.52 235.497M1844.46 97.2926L1721.14 118.055M2206.98 240.476L2026.64 333.639M2026.64 333.639L1911.55 370.875M2026.64 333.639L1900.71 339.132M2026.64 333.639L1980.65 199.102M2026.64 333.639L1874.66 248.636M2026.64 333.639L1852.2 443.348L1940.23 462.239M1940.23 462.239L1911.55 370.875M1940.23 462.239L1836.11 480.463M1940.23 462.239L1966.93 604.415M1911.55 370.875L1876.08 388.236M1911.55 370.875L1900.71 339.132M1900.71 339.132L1876.08 388.236M1900.71 339.132L1874.66 248.636M1900.71 339.132L1744.83 350.885M1980.65 199.102L1868.55 227.409M1836.52 235.497L1721.14 118.055M1836.52 235.497L1868.55 227.409M1836.52 235.497L1814.55 247.126M1721.14 118.055L1696.08 318.123M1814.55 247.126L1735.34 351.601M1814.55 247.126L1844.61 247.881M1814.55 247.126L1696.08 318.123M1814.55 247.126L1775.81 230.102L1623.83 269.574M1735.34 351.601L1744.83 350.885M1735.34 351.601L1699.61 447.958M1735.34 351.601L1696.08 318.123M1735.34 351.601L1611.93 432.811M1876.08 388.236L1844.61 247.881M1876.08 388.236L1836.11 480.463M1876.08 388.236L1657.63 451.932L1764.87 484.088M1876.08 388.236L1696.08 318.123M1868.55 227.409L1874.66 248.636M1874.66 248.636L1844.61 247.881M1787.29 593.129L1966.93 604.415M1787.29 593.129L1836.11 480.463M1787.29 593.129L1812.58 718.262M1787.29 593.129L1643.83 611.303M1787.29 593.129L1693.64 487.713M1966.93 604.415L1836.11 480.463M1966.93 604.415L1917.05 632.69L1812.58 718.262M1836.11 480.463L1744.83 350.885M1836.11 480.463L1764.87 484.088M1693.64 487.713L1686.62 482.997M1693.64 487.713L1764.87 484.088M1686.62 482.997L1699.61 447.958M1686.62 482.997C1671.92 523.327 1642.78 605.451 1643.83 611.303M1686.62 482.997L1611.93 432.811M1764.87 484.088L1699.61 447.958M1699.61 447.958L1696.08 318.123M1696.08 318.123L1623.83 269.574M1623.83 269.574L1611.93 432.811M1611.93 432.811L1643.83 611.303M1643.83 611.303L1812.58 718.262M1643.83 611.303L1670.72 781.926M1812.58 718.262L1670.72 781.926M1812.58 718.262L1784.19 858.173M1670.72 781.926L1784.19 858.173M1670.72 781.926L1639.45 902.529L1662.88 949.74L1784.19 858.173" stroke="#D9D9D9"/>
</svg>
