<svg width="1920" height="1060" viewBox="0 0 1920 1060" fill="none" xmlns="http://www.w3.org/2000/svg">
<path opacity="0.45" d="M1607.07 872.986L1673.72 786.496M1607.07 872.986L1583.36 926.412L1722.62 988.026M1607.07 872.986L1452.93 682.088M1673.72 786.496L1452.93 682.088M1673.72 786.496L1722.62 988.026M1673.72 786.496L1896.51 774.324M1673.72 786.496L1730.55 675.828M1673.72 786.496L1637.04 607.384M1452.93 682.088L1637.04 607.384M1452.93 682.088L1455.49 429.952M1637.04 607.384L1455.49 429.952M1637.04 607.384C1635.76 563.059 1633.17 472.849 1633.14 466.603M1637.04 607.384L1818.96 494.463M1455.49 429.952C1514.7 439.567 1633.11 460.357 1633.14 466.603M1455.49 429.952L1695 308.526M1633.14 466.603L1818.96 494.463M1633.14 466.603L1695 308.526M1722.62 988.026L1896.51 774.324M1896.51 774.324L1977.97 631.762M1896.51 774.324L1938.81 608.539M1896.51 774.324L1730.55 675.828M1896.51 774.324L1825.82 548.783M1896.51 774.324L2090.75 573.051L2091.38 695.258M2091.38 695.258L1977.97 631.762M2091.38 695.258L2144.53 562M2091.38 695.258L2272.85 770.253M1977.97 631.762L2010.89 589.461M1977.97 631.762L1938.81 608.539M1938.81 608.539L2010.89 589.461M1938.81 608.539L1825.82 548.783M1938.81 608.539L1997.74 404.715M1730.55 675.828L1799.31 534.766M1818.96 494.463L1695 308.526M1818.96 494.463L1799.31 534.766M1818.96 494.463L1840.52 468.508M1695 308.526L1967.77 330.832M1840.52 468.508L2001.33 392.308M1840.52 468.508L1833.17 508.645M1840.52 468.508L1967.77 330.832M1840.52 468.508L1828.67 412.302L1923.35 221.352M2001.33 392.308L1997.74 404.715M2001.33 392.308L2139.28 371.616M2001.33 392.308L1967.77 330.832M2001.33 392.308L2143.52 250.917M2010.89 589.461L1833.17 508.645M2010.89 589.461L2144.53 562M2010.89 589.461L2156.23 316.945L2169.14 468.363M2010.89 589.461L1967.77 330.832M1799.31 534.766L1825.82 548.783M1825.82 548.783L1833.17 508.645M2307.78 528.452L2272.85 770.253M2307.78 528.452L2144.53 562M2307.78 528.452L2467 596.83M2307.78 528.452L2371.8 342.904M2307.78 528.452L2193.76 374.726M2272.85 770.253L2144.53 562M2272.85 770.253L2324.28 711.84L2467 596.83M2144.53 562L1997.74 404.715M2144.53 562L2169.14 468.363M2193.76 374.726L2189.44 364.091M2193.76 374.726L2169.14 468.363M2189.44 364.091L2139.28 371.616M2189.44 364.091C2247.11 355.772 2364.31 339.888 2371.8 342.904M2189.44 364.091L2143.52 250.917M2169.14 468.363L2139.28 371.616M2139.28 371.616L1967.77 330.832M1967.77 330.832L1923.35 221.352M1923.35 221.352L2143.52 250.917M2143.52 250.917L2371.8 342.904M2371.8 342.904L2467 596.83M2371.8 342.904L2591.01 426.052M2467 596.83L2591.01 426.052M2467 596.83L2660.77 597.996M2591.01 426.052L2660.77 597.996M2591.01 426.052L2759.93 418.028L2660.77 597.996" stroke="#D9D9D9"/>
<path opacity="0.45" d="M172.298 659.348L74.6418 628.268M172.298 659.348L219.158 687.88L144.684 809.872M172.298 659.348L189.128 429.666M74.6418 628.268L189.128 429.666M74.6418 628.268L144.684 809.872M74.6418 628.268L-103.727 738.01M74.6418 628.268L-28.3759 573.29M74.6418 628.268L7.15598 470.493M189.128 429.666L7.15598 470.493M189.128 429.666L52.3264 236.545M7.15598 470.493L52.3264 236.545M7.15598 470.493C-15.5511 435.613 -61.7943 364.643 -65.111 359.809M7.15598 470.493L-193.553 480.662M52.3264 236.545C11.7986 275.619 -68.4277 354.976 -65.111 359.809M52.3264 236.545L-197.355 270.949M-65.111 359.809L-193.553 480.662M-65.111 359.809L-197.355 270.949M144.684 809.872L-103.727 738.01M-103.727 738.01L-242.793 671.597M-103.727 738.01L-225.003 632.744M-103.727 738.01L-28.3759 573.29M-103.727 738.01L-169.797 526.23M-103.727 738.01L-361.183 686.614L-296.325 781.221M-296.325 781.221L-242.793 671.597M-296.325 781.221L-408.577 706.846M-296.325 781.221L-396.205 936.105M-242.793 671.597L-290.808 656.572M-242.793 671.597L-225.003 632.744M-225.003 632.744L-290.808 656.572M-225.003 632.744L-169.797 526.23M-225.003 632.744L-379.455 507.031M-28.3759 573.29L-156.847 501.246M-193.553 480.662L-197.355 270.949M-193.553 480.662L-156.847 501.246M-193.553 480.662L-224.059 472.167M-197.355 270.949L-395.837 434.01M-224.059 472.167L-388.856 499.379M-224.059 472.167L-196.928 499.199M-224.059 472.167L-395.837 434.01M-224.059 472.167L-244.974 422.475L-420.114 325.807M-388.856 499.379L-379.455 507.031M-388.856 499.379L-506.332 557.181M-388.856 499.379L-395.837 434.01M-388.856 499.379L-574.145 466.346M-290.808 656.572L-196.928 499.199M-290.808 656.572L-408.577 706.846M-290.808 656.572L-548.638 524.072L-477.635 647.779M-290.808 656.572L-395.837 434.01M-156.847 501.246L-169.797 526.23M-169.797 526.23L-196.928 499.199M-552.447 768.263L-396.205 936.105M-552.447 768.263L-408.577 706.846M-552.447 768.263L-638.702 906.146M-552.447 768.263L-701.045 659.365M-552.447 768.263L-546.692 588.711M-396.205 936.105L-408.577 706.846M-396.205 936.105L-467.11 918.546L-638.702 906.146M-408.577 706.846L-379.455 507.031M-408.577 706.846L-477.635 647.779M-546.692 588.711L-549.05 578.2M-546.692 588.711L-477.635 647.779M-549.05 578.2L-506.332 557.181M-549.05 578.2C-597.981 602.618 -696.884 653.037 -701.045 659.365M-549.05 578.2L-574.145 466.346M-477.635 647.779L-506.332 557.181M-506.332 557.181L-395.837 434.01M-395.837 434.01L-420.114 325.807M-420.114 325.807L-574.145 466.346M-574.145 466.346L-701.045 659.365M-574.145 466.346L-799.866 445.869M-701.045 659.365L-638.702 906.146M-701.045 659.365L-873.321 675.008M-701.045 659.365L-825.679 840.72M-701.045 659.365L-799.866 445.869M-638.702 906.146L-825.679 840.72M-638.702 906.146L-787.551 1010.66M-799.866 445.869L-873.321 675.008M-799.866 445.869L-927.153 553.215M-799.866 445.869L-1039.76 464.829L-927.153 553.215M-873.321 675.008L-825.679 840.72M-873.321 675.008L-966.788 671.923L-1004.82 704.51M-873.321 675.008L-927.153 553.215M-825.679 840.72L-787.551 1010.66M-825.679 840.72L-961.032 899.675L-974.576 920.144L-787.551 1010.66M-825.679 840.72L-1004.82 704.51M-1004.82 704.51L-1024.92 614.894L-927.153 553.215" stroke="#D9D9D9"/>
</svg>
