<svg width="1920" height="987" viewBox="0 0 1920 987" fill="none" xmlns="http://www.w3.org/2000/svg">
<g clip-path="url(#clip0)">
<path opacity="0.45" d="M1462.45 800.893L1537.89 710.987M1462.45 800.893L1434.59 857.21L1581.39 929.618M1462.45 800.893L1305.44 588.968M1537.89 710.987L1305.44 588.968M1537.89 710.987L1581.39 929.618M1537.89 710.987L1777.72 707.888M1537.89 710.987L1603.89 594.674M1537.89 710.987L1506.53 516.98M1305.44 588.968L1506.53 516.98M1305.44 588.968L1319.48 318.29M1506.53 516.98L1319.48 318.29M1506.53 516.98C1507.13 469.318 1508.39 372.316 1508.64 365.607M1506.53 516.98L1706.96 403.847M1319.48 318.29C1382.64 331.267 1508.88 358.898 1508.64 365.607M1319.48 318.29L1582.15 198.603M1508.64 365.607L1706.96 403.847M1508.64 365.607L1582.15 198.603M1581.39 929.618L1777.72 707.888M1777.72 707.888L1871.59 558.425M1777.72 707.888L1830.57 531.73M1777.72 707.888L1603.89 594.674M1777.72 707.888L1711.89 462.494M1777.72 707.888L1995.34 500.419L1990.55 631.697M1990.55 631.697L1871.59 558.425M1990.55 631.697L2053.59 490.958M1990.55 631.697L2182.09 720.366M1871.59 558.425L1908.84 514.468M1871.59 558.425L1830.57 531.73M1830.57 531.73L1908.84 514.468M1830.57 531.73L1711.89 462.494M1830.57 531.73L1902.99 315.463M1603.89 594.674L1684.05 446.253M1706.96 403.847L1582.15 198.603M1706.96 403.847L1684.05 446.253M1706.96 403.847L1731.27 376.937M1582.15 198.603L1874.1 234.771M1731.27 376.937L1907.4 302.298M1731.27 376.937L1721.58 419.716M1731.27 376.937L1874.1 234.771M1731.27 376.937L1721.06 316.042L1831.3 115.202M1907.4 302.298L1902.99 315.463M1907.4 302.298L2056.48 286.251M1907.4 302.298L1874.1 234.771M1907.4 302.298L2066.44 156.812M1908.84 514.468L1721.58 419.716M1908.84 514.468L2053.59 490.958M1908.84 514.468L2077.13 228.295L2084.22 391.494M1908.84 514.468L1874.1 234.771M1684.05 446.253L1711.89 462.494M1711.89 462.494L1721.58 419.716M2230.43 462.236L2182.09 720.366M2230.43 462.236L2053.59 490.958M2230.43 462.236L2398.37 542.802M2230.43 462.236L2307.49 265.825M2230.43 462.236L2114.85 292.031M2182.09 720.366L2053.59 490.958M2182.09 720.366L2239.93 659.933L2398.37 542.802M2053.59 490.958L1902.99 315.463M2053.59 490.958L2084.22 391.494M2114.85 292.031L2110.69 280.416M2114.85 292.031L2084.22 391.494M2110.69 280.416L2056.48 286.251M2110.69 280.416C2173 274.063 2299.59 262.251 2307.49 265.825M2110.69 280.416L2066.44 156.812M2084.22 391.494L2056.48 286.251M2056.48 286.251L1874.1 234.771M1874.1 234.771L1831.3 115.202M1831.3 115.202L2066.44 156.812M2066.44 156.812L2307.49 265.825M2307.49 265.825L2398.37 542.802M2307.49 265.825L2539.2 364.94M2398.37 542.802L2539.2 364.94M2398.37 542.802L2606.42 552.731M2539.2 364.94L2606.42 552.731M2539.2 364.94L2720.97 363.885L2606.42 552.731" stroke="#D9D9D9"/>
<path opacity="0.45" d="M58.4307 317.879L-25.2474 392.736M58.4307 317.879L92.4768 268.347L-36.6683 179.801M58.4307 317.879L178.245 539.917M-25.2474 392.736L178.245 539.917M-25.2474 392.736L-36.6683 179.801M-25.2474 392.736L-252.751 363.023M-25.2474 392.736L-103.569 493.885M-25.2474 392.736L-21.957 580.705M178.245 539.917L-21.957 580.705M178.245 539.917L128.099 794.3M-21.957 580.705L128.099 794.3M-21.957 580.705C-29.0136 625.753 -43.4139 717.429 -44.5617 723.748M-21.957 580.705L-227.141 660.541M128.099 794.3C70.0674 773.416 -45.7094 730.067 -44.5617 723.748M128.099 794.3L-136.904 871.871M-44.5617 723.748L-227.141 660.541M-44.5617 723.748L-136.904 871.871M-36.6683 179.801L-252.751 363.023M-252.751 363.023L-361.978 491.766M-252.751 363.023L-326.773 522.626M-252.751 363.023L-103.569 493.885M-252.751 363.023L-223.828 604.339M-252.751 363.023L-487.052 529.843L-464.644 406.193M-464.644 406.193L-361.978 491.766M-464.644 406.193L-543.498 530.871M-464.644 406.193L-633.933 296.161M-361.978 491.766L-403.235 528.316M-361.978 491.766L-326.773 522.626M-326.773 522.626L-403.235 528.316M-326.773 522.626L-223.828 604.339M-326.773 522.626L-424.789 717.543M-103.569 493.885L-199.681 623.506M-227.141 660.541L-136.904 871.871M-227.141 660.541L-199.681 623.506M-227.141 660.541L-253.825 682.712M-136.904 871.871L-408.421 797.879M-253.825 682.712L-430.755 729.408M-253.825 682.712L-238.826 643.525M-253.825 682.712L-408.421 797.879M-253.825 682.712L-252.448 741.761L-384.168 916.923M-430.755 729.408L-424.789 717.543M-430.755 729.408L-574.1 724.307M-430.755 729.408L-408.421 797.879M-430.755 729.408L-601.154 845.513M-403.235 528.316L-238.826 643.525M-403.235 528.316L-543.498 530.871M-403.235 528.316L-601.542 776.374L-586.04 620.88M-403.235 528.316L-408.421 797.879M-199.681 623.506L-223.828 604.339M-223.828 604.339L-238.826 643.525M-714.847 533.993L-633.933 296.161M-714.847 533.993L-543.498 530.871M-714.847 533.993L-862.894 434.847M-714.847 533.993L-814.551 709.478M-714.847 533.993L-628.581 710.889M-633.933 296.161L-543.498 530.871M-633.933 296.161L-696.935 345.508L-862.894 434.847M-543.498 530.871L-424.789 717.543M-543.498 530.871L-586.04 620.88M-628.581 710.889L-626.225 722.453M-628.581 710.889L-586.04 620.88M-626.225 722.453L-574.1 724.307M-626.225 722.453C-686.085 719.986 -807.555 713.938 -814.551 709.478M-626.225 722.453L-601.154 845.513M-586.04 620.88L-574.1 724.307M-574.1 724.307L-408.421 797.879M-408.421 797.879L-384.168 916.923M-384.168 916.923L-601.154 845.513M-601.154 845.513L-814.551 709.478M-601.154 845.513L-817.597 967.196M-814.551 709.478L-862.894 434.847M-814.551 709.478L-993.769 771.093M-814.551 709.478L-1020.45 584.086M-814.551 709.478L-817.597 967.196M-862.894 434.847L-1020.45 584.086M-862.894 434.847L-1058.55 397.122M-817.597 967.196L-993.769 771.093M-817.597 967.196L-992.966 916.972M-817.597 967.196L-1065.89 1055.81L-992.966 916.972M-993.769 771.093L-1020.45 584.086M-993.769 771.093L-1085.81 816.088L-1138.44 800.567M-993.769 771.093L-992.966 916.972M-1020.45 584.086L-1058.55 397.122M-1020.45 584.086L-1182.19 585.851L-1204.9 571.463L-1058.55 397.122M-1020.45 584.086L-1138.44 800.567M-1138.44 800.567L-1118.35 899.162L-992.966 916.972" stroke="#D9D9D9"/>
</g>
<defs>
<clipPath id="clip0">
<rect width="1920" height="987" fill="white"/>
</clipPath>
</defs>
</svg>
