<svg width="1920" height="704" viewBox="0 0 1920 704" fill="none" xmlns="http://www.w3.org/2000/svg">
<path opacity="0.45" d="M-472.057 259.904L-392.493 295.303M-472.057 259.904L-508.96 231.417L-434.634 135.365M-472.057 259.904L-507.789 452.308M-392.493 295.303L-507.789 452.308M-392.493 295.303L-434.634 135.365M-392.493 295.303L-231.568 219.329M-392.493 295.303L-310.638 351.386M-392.493 295.303L-350.278 434.875M-507.789 452.308L-350.278 434.875M-507.789 452.308L-410.344 628.227M-350.278 434.875L-410.344 628.227M-350.278 434.875C-334.368 466.461 -301.961 530.732 -299.613 535.125M-350.278 434.875L-179.814 445.091M-410.344 628.227C-372.455 599.024 -297.265 539.518 -299.613 535.125M-410.344 628.227L-196.25 622.563M-299.613 535.125L-179.814 445.091M-299.613 535.125L-196.25 622.563M-434.634 135.365L-231.568 219.329M-231.568 219.329L-120.34 288.447M-231.568 219.329L-139.005 319.594M-231.568 219.329L-310.638 351.386M-231.568 219.329L-195.609 404.379M-231.568 219.329L-18.9449 286.855L-64.8587 200.878M-64.8587 200.878L-120.34 288.447M-64.8587 200.878L22.9777 274.208M-64.8587 200.878L34.0063 79.4258M-120.34 288.447L-81.1957 305.635M-120.34 288.447L-139.005 319.594M-139.005 319.594L-81.1957 305.635M-139.005 319.594L-195.609 404.379M-139.005 319.594L-20.3379 440.236M-310.638 351.386L-208.886 424.267M-179.814 445.091L-196.25 622.563M-179.814 445.091L-208.886 424.267M-179.814 445.091L-154.846 455.123M-196.25 622.563L-13.3425 503.442M-154.846 455.123L-13.1146 447.58M-154.846 455.123L-175.227 429.751M-154.846 455.123L-13.3425 503.442M-154.846 455.123L-141.837 499.051L-2.97668 597.1M-13.1146 447.58L-20.3379 440.236M-13.1146 447.58L61.2194 400M-13.1146 447.58L-13.3425 503.442M-13.1146 447.58L140.279 492.837M-81.1957 305.635L-175.227 429.751M-81.1957 305.635L22.9777 274.208M-81.1957 305.635L134.498 448L75.7671 330.564M-81.1957 305.635L-13.3425 503.442M-208.886 424.267L-195.609 404.379M-195.609 404.379L-175.227 429.751M150.238 235.817L34.0063 79.4258M150.238 235.817L22.9777 274.208M150.238 235.817L192.998 121M150.238 235.817L265.536 341.709M150.238 235.817L128.557 386.92M34.0063 79.4258L22.9777 274.208M34.0063 79.4258L192.998 121M22.9777 274.208L-20.3379 440.236M22.9777 274.208L75.7671 330.564M128.557 386.92L129.563 396.018M128.557 386.92L75.7671 330.564M129.563 396.018L61.2194 400M129.563 396.018C173.177 379.98 261.43 346.664 265.536 341.709M129.563 396.018L140.279 492.837M75.7671 330.564L61.2194 400M61.2194 400L-13.3425 503.442M-13.3425 503.442L-2.97668 597.1M-2.97668 597.1L140.279 492.837M140.279 492.837L265.536 341.709M140.279 492.837L321.998 471M265.536 341.709L192.998 121M265.536 341.709L412.5 344.637M265.536 341.709L321.998 471M321.998 471L412.5 344.637M321.998 471L446.554 452.542M321.998 471L476.496 597.101L543 563L533.377 537.739L446.554 452.542M412.5 344.637L458.498 381.5L497.998 344.637L534.907 409.61L446.554 452.542M412.5 344.637L446.554 452.542" stroke="#D9D9D9"/>
<path opacity="0.45" d="M2057.34 557.351L1987.51 498.428M2057.34 557.351L2086.46 597.486L1986.27 679.444M2057.34 557.351L2145.1 362.797M1987.51 498.428L2145.1 362.797M1987.51 498.428L1986.27 679.444M1987.51 498.428L1806.32 535.829M1987.51 498.428L1921 416.942M1987.51 498.428L1983.17 339.001M2145.1 362.797L1983.17 339.001M2145.1 362.797L2095.47 149.975M1983.17 339.001L2095.47 149.975M1983.17 339.001C1975.84 301.215 1960.9 224.319 1959.74 219.028M1983.17 339.001L1839.17 219.028M2095.47 149.975C2049.75 170.787 1958.59 213.736 1959.74 219.028M2095.47 149.975L1880.25 98.4985M1959.74 219.028L1839.17 219.028M1959.74 219.028L1880.25 98.4985M1986.27 679.444L1806.32 535.829M1806.32 535.829L1714.02 432.626M1806.32 535.829L1764.5 415.816M1806.32 535.829L1921 416.942M1806.32 535.829L1820.54 329.827M1806.32 535.829L1612.39 407.089L1636 535.829M1636 535.829L1714.02 432.626M1636 535.829L1567.12 409.252M1636 535.829L1494 572M1714.02 432.626L1679.6 403.878M1714.02 432.626L1764.5 415.816M1764.5 415.816L1679.6 403.878M1764.5 415.816L1820.54 329.827M1764.5 415.816L1650.08 234.989M1921 416.942L1839.17 312.291M1839.17 219.028L1880.25 98.4985M1839.17 219.028L1839.17 312.291M1839.17 219.028L1793.59 265.041M1880.25 98.4985L1665.44 175.778M1793.59 265.041L1650.08 234.989M1793.59 265.041L1807.06 297.434M1793.59 265.041L1665.44 175.778M1650.08 234.989L1567.12 409.252M1650.08 234.989L1665.44 175.778M1679.6 403.878L1807.06 297.434M1679.6 403.878L1567.12 409.252M1679.6 403.878L1665.44 175.778M1839.17 312.291L1820.54 329.827M1820.54 329.827L1807.06 297.434M1397 457L1494 572M1397 457L1567.12 409.252M1397 457L1314.76 507.771M1494 572L1567.12 409.252M1567.12 409.252L1362 339.001M1362 339.001L1314.76 507.771M1362 339.001L1159.39 470M1362 339.001L1159.39 409.252L1159.39 470M1362 339.001L1551.5 339.001M1362 339.001L1442.5 339.001M1314.76 507.771L1159.39 470" stroke="#D9D9D9"/>
</svg>
