<svg width="1920" height="604" viewBox="0 0 1920 604" fill="none" xmlns="http://www.w3.org/2000/svg">
<g clip-path="url(#clip0)">
<path opacity="0.45" d="M-472.057 292.904L-392.493 328.303M-472.057 292.904L-508.96 264.417L-434.634 168.365M-472.057 292.904L-507.789 485.308M-392.493 328.303L-507.789 485.308M-392.493 328.303L-434.634 168.365M-392.493 328.303L-231.568 252.329M-392.493 328.303L-310.638 384.386M-392.493 328.303L-350.278 467.875M-507.789 485.308L-350.278 467.875M-507.789 485.308L-410.344 661.227M-350.278 467.875L-410.344 661.227M-350.278 467.875C-334.368 499.461 -301.961 563.732 -299.613 568.125M-350.278 467.875L-179.814 478.091M-410.344 661.227C-372.455 632.024 -297.265 572.518 -299.613 568.125M-410.344 661.227L-196.25 655.563M-299.613 568.125L-179.814 478.091M-299.613 568.125L-196.25 655.563M-434.634 168.365L-231.568 252.329M-231.568 252.329L-120.34 321.447M-231.568 252.329L-139.005 352.594M-231.568 252.329L-310.638 384.386M-231.568 252.329L-195.609 437.379M-231.568 252.329L-18.9449 319.855L-64.8587 233.878M-64.8587 233.878L-120.34 321.447M-64.8587 233.878L22.9777 307.208M-64.8587 233.878L34.0063 112.426M-120.34 321.447L-81.1957 338.635M-120.34 321.447L-139.005 352.594M-139.005 352.594L-81.1957 338.635M-139.005 352.594L-195.609 437.379M-139.005 352.594L-20.3379 473.236M-310.638 384.386L-208.886 457.267M-179.814 478.091L-196.25 655.563M-179.814 478.091L-208.886 457.267M-179.814 478.091L-154.846 488.123M-196.25 655.563L-13.3425 536.442M-154.846 488.123L-13.1146 480.58M-154.846 488.123L-175.227 462.751M-154.846 488.123L-13.3425 536.442M-154.846 488.123L-141.837 532.051L-2.97668 630.1M-13.1146 480.58L-20.3379 473.236M-13.1146 480.58L61.2194 433M-13.1146 480.58L-13.3425 536.442M-13.1146 480.58L140.279 525.837M-81.1957 338.635L-175.227 462.751M-81.1957 338.635L22.9777 307.208M-81.1957 338.635L134.498 481L75.7671 363.564M-81.1957 338.635L-13.3425 536.442M-208.886 457.267L-195.609 437.379M-195.609 437.379L-175.227 462.751M150.238 268.817L34.0063 112.426M150.238 268.817L22.9777 307.208M150.238 268.817L192.998 154M150.238 268.817L265.536 374.709M150.238 268.817L128.557 419.92M34.0063 112.426L22.9777 307.208M34.0063 112.426L192.998 154M22.9777 307.208L-20.3379 473.236M22.9777 307.208L75.7671 363.564M128.557 419.92L129.563 429.018M128.557 419.92L75.7671 363.564M129.563 429.018L61.2194 433M129.563 429.018C173.177 412.98 261.43 379.664 265.536 374.709M129.563 429.018L140.279 525.837M75.7671 363.564L61.2194 433M61.2194 433L-13.3425 536.442M-13.3425 536.442L-2.97668 630.1M-2.97668 630.1L140.279 525.837M140.279 525.837L265.536 374.709M140.279 525.837L321.998 504M265.536 374.709L192.998 154M265.536 374.709L412.5 377.637M265.536 374.709L321.998 504M321.998 504L412.5 377.637M321.998 504L446.554 485.542M321.998 504L476.496 630.101L543 596L533.377 570.739L446.554 485.542M412.5 377.637L458.498 414.5L497.998 377.637L534.907 442.61L446.554 485.542M412.5 377.637L446.554 485.542" stroke="#D9D9D9"/>
<path opacity="0.45" d="M2057.34 638.351L1987.51 579.428M2057.34 638.351L2086.46 678.486L1986.27 760.444M2057.34 638.351L2145.1 443.797M1987.51 579.428L2145.1 443.797M1987.51 579.428L1986.27 760.444M1987.51 579.428L1806.32 616.829M1987.51 579.428L1921 497.942M1987.51 579.428L1983.17 420.001M2145.1 443.797L1983.17 420.001M2145.1 443.797L2095.47 230.975M1983.17 420.001L2095.47 230.975M1983.17 420.001C1975.84 382.215 1960.9 305.319 1959.74 300.028M1983.17 420.001L1839.17 300.028M2095.47 230.975C2049.75 251.787 1958.59 294.736 1959.74 300.028M2095.47 230.975L1880.25 179.498M1959.74 300.028L1839.17 300.028M1959.74 300.028L1880.25 179.498M1986.27 760.444L1806.32 616.829M1806.32 616.829L1714.02 513.626M1806.32 616.829L1764.5 496.816M1806.32 616.829L1921 497.942M1806.32 616.829L1820.54 410.827M1806.32 616.829L1612.39 488.089L1636 616.829M1636 616.829L1714.02 513.626M1636 616.829L1567.12 490.252M1636 616.829L1494 653M1714.02 513.626L1679.6 484.878M1714.02 513.626L1764.5 496.816M1764.5 496.816L1679.6 484.878M1764.5 496.816L1820.54 410.827M1764.5 496.816L1650.08 315.989M1921 497.942L1839.17 393.291M1839.17 300.028L1880.25 179.498M1839.17 300.028L1839.17 393.291M1839.17 300.028L1793.59 346.041M1880.25 179.498L1665.44 256.778M1793.59 346.041L1650.08 315.989M1793.59 346.041L1807.06 378.434M1793.59 346.041L1665.44 256.778M1650.08 315.989L1567.12 490.252M1650.08 315.989L1665.44 256.778M1679.6 484.878L1807.06 378.434M1679.6 484.878L1567.12 490.252M1679.6 484.878L1665.44 256.778M1839.17 393.291L1820.54 410.827M1820.54 410.827L1807.06 378.434M1397 538L1494 653M1397 538L1567.12 490.252M1397 538L1314.76 588.771M1494 653L1567.12 490.252M1567.12 490.252L1362 420.001M1362 420.001L1314.76 588.771M1362 420.001L1159.39 551M1362 420.001L1159.39 490.252L1159.39 551M1362 420.001L1551.5 420.001M1362 420.001L1442.5 420.001M1314.76 588.771L1159.39 551" stroke="#D9D9D9"/>
</g>
<defs>
<clipPath id="clip0">
<rect width="1920" height="604" fill="white"/>
</clipPath>
</defs>
</svg>
