<svg width="1920" height="1010" viewBox="0 0 1920 1010" fill="none" xmlns="http://www.w3.org/2000/svg">
<path opacity="0.45" d="M1550.32 754.763L1621.86 680.984M1550.32 754.763L1522.45 802.199L1646.11 874.659M1550.32 754.763L1426.51 559.815M1621.86 680.984L1426.51 559.815M1621.86 680.984L1646.11 874.659M1621.86 680.984L1831.51 693.343M1621.86 680.984L1686.8 583.547M1621.86 680.984L1606.65 509.576M1426.51 559.815L1606.65 509.576M1426.51 559.815L1455.78 324.3M1606.65 509.576L1455.78 324.3M1606.65 509.576C1610.17 467.988 1617.37 383.35 1618.01 377.506M1606.65 509.576L1788.81 423.362M1455.78 324.3C1510.12 339.6 1618.64 371.662 1618.01 377.506M1455.78 324.3L1692.7 236.27M1618.01 377.506L1788.81 423.362M1618.01 377.506L1692.7 236.27M1646.11 874.659L1831.51 693.343M1831.51 693.343L1922.88 568.704M1831.51 693.343L1888.73 542.814M1831.51 693.343L1686.8 583.547M1831.51 693.343L1789.43 474.891M1831.51 693.343L2034.6 525.819L2022.17 640.17M2022.17 640.17L1922.88 568.704M2022.17 640.17L2086.07 521.215M2022.17 640.17L2183.88 729.641M1922.88 568.704L1958.17 532.655M1922.88 568.704L1888.73 542.814M1888.73 542.814L1958.17 532.655M1888.73 542.814L1789.43 474.891M1888.73 542.814L1965.57 358.485M1686.8 583.547L1766.14 458.959M1788.81 423.362L1692.7 236.27M1788.81 423.362L1766.14 458.959M1788.81 423.362L1811.73 401.387M1692.7 236.27L1945.41 286.199M1811.73 401.387L1970.24 347.265M1811.73 401.387L1800.58 438.139M1811.73 401.387L1945.41 286.199M1811.73 401.387L1806.64 347.562L1915.53 179.083M1970.24 347.265L1965.57 358.485M1970.24 347.265L2101.45 342.615M1970.24 347.265L1945.41 286.199M1970.24 347.265L2118.29 230.195M1958.17 532.655L1800.58 438.139M1958.17 532.655L2086.07 521.215M1958.17 532.655L2123.13 293.296L2119.07 436.272M1958.17 532.655L1945.41 286.199M1766.14 458.959L1789.43 474.891M1789.43 474.891L1800.58 438.139M2242.32 507.24L2183.88 729.641M2242.32 507.24L2086.07 521.215M2242.32 507.24L2383.92 588.152M2242.32 507.24L2321.96 340.544M2242.32 507.24L2152.07 351.33M2183.88 729.641L2086.07 521.215M2183.88 729.641L2238.2 680.496L2383.92 588.152M2086.07 521.215L1965.57 358.485M2086.07 521.215L2119.07 436.272M2152.07 351.33L2149.17 340.925M2152.07 351.33L2119.07 436.272M2149.17 340.925L2101.45 342.615M2149.17 340.925C2203.98 339.29 2315.28 336.926 2321.96 340.544M2149.17 340.925L2118.29 230.195M2119.07 436.272L2101.45 342.615M2101.45 342.615L1945.41 286.199M1945.41 286.199L1915.53 179.083M1915.53 179.083L2118.29 230.195M2118.29 230.195L2321.96 340.544M2321.96 340.544L2383.92 588.152M2321.96 340.544L2518.09 441.662M2383.92 588.152L2518.09 441.662M2383.92 588.152L2565.01 609.893M2518.09 441.662L2565.01 609.893M2518.09 441.662L2676.92 452.16L2565.01 609.893" stroke="#D9D9D9"/>
<path opacity="0.45" d="M173.677 636.897L82.7191 607.949M173.677 636.897L217.322 663.472L147.957 777.097M173.677 636.897L189.352 422.97M82.7191 607.949L189.352 422.97M82.7191 607.949L147.957 777.097M82.7191 607.949L-83.415 710.164M82.7191 607.949L-13.2325 556.742M82.7191 607.949L19.8623 460.996M189.352 422.97L19.8623 460.996M189.352 422.97L61.9344 243.095M19.8623 460.996L61.9344 243.095M19.8623 460.996C-1.28725 428.508 -44.3586 362.407 -47.4478 357.904M19.8623 460.996L-167.08 470.468M61.9344 243.095C24.1865 279.489 -50.537 353.402 -47.4478 357.904M61.9344 243.095L-170.621 275.139M-47.4478 357.904L-167.08 470.468M-47.4478 357.904L-170.621 275.139M147.957 777.097L-83.415 710.164M-83.415 710.164L-212.942 648.306M-83.415 710.164L-196.372 612.118M-83.415 710.164L-13.2325 556.742M-83.415 710.164L-144.953 512.91M-83.415 710.164L-323.212 662.293L-262.802 750.411M-262.802 750.411L-212.942 648.306M-262.802 750.411L-367.355 681.138M-262.802 750.411L-355.831 894.671M-212.942 648.306L-257.664 634.311M-212.942 648.306L-196.372 612.118M-196.372 612.118L-257.664 634.311M-196.372 612.118L-144.953 512.91M-196.372 612.118L-340.23 495.028M-13.2325 556.742L-132.891 489.64M-167.08 470.468L-170.621 275.139M-167.08 470.468L-132.891 489.64M-167.08 470.468L-195.493 462.555M-170.621 275.139L-355.489 427.016M-195.493 462.555L-348.987 487.901M-195.493 462.555L-170.223 487.733M-195.493 462.555L-355.489 427.016M-195.493 462.555L-214.973 416.271L-378.1 326.234M-348.987 487.901L-340.23 495.028M-348.987 487.901L-458.404 541.738M-348.987 487.901L-355.489 427.016M-348.987 487.901L-521.567 457.133M-257.664 634.311L-170.223 487.733M-257.664 634.311L-367.355 681.138M-257.664 634.311L-497.809 510.9L-431.676 626.121M-257.664 634.311L-355.489 427.016M-132.891 489.64L-144.953 512.91M-144.953 512.91L-170.223 487.733M-501.357 738.341L-355.831 894.671M-501.357 738.341L-367.355 681.138M-501.357 738.341L-581.695 866.767M-501.357 738.341L-639.762 636.913M-501.357 738.341L-495.996 571.105M-355.831 894.671L-367.355 681.138M-355.831 894.671L-421.873 878.316L-581.695 866.767M-367.355 681.138L-340.23 495.028M-367.355 681.138L-431.676 626.121M-495.996 571.105L-498.193 561.315M-495.996 571.105L-431.676 626.121M-498.193 561.315L-458.404 541.738M-498.193 561.315C-543.768 584.059 -635.887 631.019 -639.762 636.913M-498.193 561.315L-521.567 457.133M-431.676 626.121L-458.404 541.738M-458.404 541.738L-355.489 427.016M-355.489 427.016L-378.1 326.234M-378.1 326.234L-521.567 457.133M-521.567 457.133L-639.762 636.913M-521.567 457.133L-731.805 438.062M-639.762 636.913L-581.695 866.767M-639.762 636.913L-800.221 651.483M-639.762 636.913L-755.847 805.829M-639.762 636.913L-731.805 438.062M-581.695 866.767L-755.847 805.829M-581.695 866.767L-720.335 964.112M-731.805 438.062L-800.221 651.483M-731.805 438.062L-850.361 538.044M-731.805 438.062L-955.243 455.721L-850.361 538.044M-800.221 651.483L-755.847 805.829M-800.221 651.483L-887.278 648.61L-922.699 678.962M-800.221 651.483L-850.361 538.044M-755.847 805.829L-720.335 964.112M-755.847 805.829L-881.916 860.74L-894.531 879.805L-720.335 964.112M-755.847 805.829L-922.699 678.962M-922.699 678.962L-941.426 595.492L-850.361 538.044" stroke="#D9D9D9"/>
</svg>
