<svg width="411" height="632" viewBox="0 0 411 632" fill="none" xmlns="http://www.w3.org/2000/svg">
<path opacity="0.35" d="M642.128 55.0507L582.223 126.438M642.128 55.0507L682.327 25.5043L759.178 130.32M642.128 55.0507L454.774 -38.5179M582.223 126.438L454.774 -38.5179M582.223 126.438L759.178 130.32M582.223 126.438L612.85 314.399M582.223 126.438L500.365 194.072M582.223 126.438L426.193 128.646M454.774 -38.5179L426.193 128.646M454.774 -38.5179L245.049 9.76618M426.193 128.646L245.049 9.76618M426.193 128.646C389.006 135.683 313.328 150.038 308.116 151.156M426.193 128.646L365.349 300.968M245.049 9.76618C263.9 57.3621 302.904 152.274 308.116 151.156M245.049 9.76618L187.655 231.656M308.116 151.156L365.349 300.968M308.116 151.156L187.655 231.656M759.178 130.32L612.85 314.399M612.85 314.399L508.91 408.398M612.85 314.399L482.384 380.002M612.85 314.399L500.365 194.072M612.85 314.399L411.889 296.743M612.85 314.399L480.606 513.162L582.6 491.324M582.6 491.324L508.91 408.398M582.6 491.324L481.236 560.019M582.6 491.324L678.332 628.88M508.91 408.398L479.672 443.586M508.91 408.398L482.384 380.002M482.384 380.002L479.672 443.586M482.384 380.002L411.889 296.743M482.384 380.002L323.251 466.438M500.365 194.072L395.353 277.213M365.349 300.968L187.655 231.656M365.349 300.968L395.353 277.213M365.349 300.968L347.657 323.687M187.655 231.656L256.172 454.969M347.657 323.687L313.564 471.699M347.657 323.687L379.773 310.215M347.657 323.687L256.172 454.969M347.657 323.687L298.632 324.096L156.774 437.975M313.564 471.699L323.251 466.438M313.564 471.699L340.554 562.209M313.564 471.699L256.172 454.969M313.564 471.699L221.717 616.115M479.672 443.586L379.773 310.215M479.672 443.586L481.236 560.019M479.672 443.586L269.543 623.409L407.68 597.676M479.672 443.586L256.172 454.969M395.353 277.213L411.889 296.743M411.889 296.743L379.773 310.215M483.146 702.255L678.332 628.88M483.146 702.255L481.236 560.019M483.146 702.255L588.62 780.142M483.146 702.255L340.18 789.581M483.146 702.255L334.124 635.334M678.332 628.88L481.236 560.019M678.332 628.88L588.62 780.142M481.236 560.019L323.251 466.438M481.236 560.019L407.68 597.676M334.124 635.334L324.469 633.683M334.124 635.334L407.68 597.676M324.469 633.683L340.554 562.209M324.469 633.683C328.087 683.279 336.296 783.894 340.18 789.581M324.469 633.683L221.717 616.115M407.68 597.676L340.554 562.209M340.554 562.209L256.172 454.969M256.172 454.969L156.774 437.975M156.774 437.975L221.717 616.115M221.717 616.115L340.18 789.581M221.717 616.115L190.518 809.479M340.18 789.581L588.62 780.142M340.18 789.581L293.77 939.882M340.18 789.581L190.518 809.479M190.518 809.479L293.77 939.882M190.518 809.479L172.724 943.048M190.518 809.479L15.1896 931.159L30.6275 1009.63L59.453 1007.19L172.724 943.048M293.77 939.882L242.27 976.311L268.523 1027.83L190.794 1046.6L172.724 943.048M293.77 939.882L172.724 943.048" stroke="#D9D9D9"/>
</svg>
