<svg width="375" height="255" viewBox="0 0 375 255" fill="none" xmlns="http://www.w3.org/2000/svg">
<path opacity="0.45" d="M580.298 226.902L527.526 224.491M580.298 226.902L607.442 234.839L586.683 305.529M580.298 226.902L557.957 110.312M527.526 224.491L557.957 110.312M527.526 224.491L586.683 305.529M527.526 224.491L453.408 302.979M527.526 224.491L468.889 210.9M527.526 224.491L472.829 154.974M557.957 110.312L472.829 154.974M557.957 110.312L464.026 32.469M472.829 154.974L464.026 32.469M472.829 154.974C456.86 140.647 424.347 111.502 422.049 109.539M472.829 154.974L374.272 186.88M464.026 32.469C449.076 57.3412 419.752 107.576 422.049 109.539M464.026 32.469L344.331 82.9896M422.049 109.539L374.272 186.88M422.049 109.539L344.331 82.9896M586.683 305.529L453.408 302.979M453.408 302.979L375.296 288.517M453.408 302.979L378.956 266.796M453.408 302.979L468.889 210.9M453.408 302.979L392.193 206.388M453.408 302.979L318.368 311.827L363.309 350.249M363.309 350.249L375.296 288.517M363.309 350.249L297.48 328.237M363.309 350.249L334.302 440.712M375.296 288.517L349.384 287.459M375.296 288.517L378.956 266.796M378.956 266.796L349.384 287.459M378.956 266.796L392.193 206.388M378.956 266.796L285.254 224.871M468.889 210.9L395.298 192.218M374.272 186.88L344.331 82.9896M374.272 186.88L395.298 192.218M374.272 186.88L357.95 186.731M344.331 82.9896L267.332 190.711M357.95 186.731L279.55 222.319M357.95 186.731L375.071 196.559M357.95 186.731L267.332 190.711M357.95 186.731L340.892 164.791L240.775 140.092M279.55 222.319L285.254 224.871M279.55 222.319L228.799 266.806M279.55 222.319L267.332 190.711M279.55 222.319L182.892 230.656M349.384 287.459L375.071 196.559M349.384 287.459L297.48 328.237M349.384 287.459L203.31 255.981L255.202 308.069M349.384 287.459L267.332 190.711M395.298 192.218L392.193 206.388M392.193 206.388L375.071 196.559M234.074 378.054L334.302 440.712M234.074 378.054L297.48 328.237M234.074 378.054L209.575 458.23M234.074 378.054L145.534 343.717M234.074 378.054L212.924 287.9M334.302 440.712L297.48 328.237M334.302 440.712L296.655 441.454L209.575 458.23M297.48 328.237L285.254 224.871M297.48 328.237L255.202 308.069M212.924 287.9L210.345 282.983M212.924 287.9L255.202 308.069M210.345 282.983L228.799 266.806M210.345 282.983C189.251 301.683 146.759 340.01 145.534 343.717M210.345 282.983L182.892 230.656M255.202 308.069L228.799 266.806M228.799 266.806L267.332 190.711M267.332 190.711L240.775 140.092M240.775 140.092L182.892 230.656M182.892 230.656L145.534 343.717M145.534 343.717L209.575 458.23M145.534 343.717L107.745 450.668M209.575 458.23L107.745 450.668M209.575 458.23L149.454 530.167M107.745 450.668L149.454 530.167M107.745 450.668L51.9946 510.553L50.7681 545.14L149.454 530.167" stroke="#D9D9D9"/>
<path opacity="0.45" d="M79.7829 359.28L39.956 329.824M79.7829 359.28L96.7688 379.645L43.6629 423.835M79.7829 359.28L123.321 256.83M39.956 329.824L123.321 256.83M39.956 329.824L43.6629 423.835M39.956 329.824L-58.7693 352.198M39.956 329.824L1.40498 288.598M39.956 329.824L33.7002 247.114M123.321 256.83L33.7002 247.114M123.321 256.83L90.8691 147.133M33.7002 247.114L90.8691 147.133M33.7002 247.114C28.7546 227.613 18.6725 187.93 17.9094 185.201M33.7002 247.114L-59.7085 220.448M90.8691 147.133C66.2312 158.685 17.1463 182.472 17.9094 185.201M90.8691 147.133L-28.7254 123.914M17.9094 185.201L-59.7085 220.448M17.9094 185.201L-28.7254 123.914M43.6629 423.835L-58.7693 352.198M-58.7693 352.198L-112.028 300.116M-58.7693 352.198L-97.8265 285.117M-58.7693 352.198L1.40498 288.598M-58.7693 352.198L-55.9505 245.002M-58.7693 352.198L-168.533 288.513L-153.623 341.915M-153.623 341.915L-112.028 300.116M-153.623 341.915L-193.372 290.374M-153.623 341.915L-223.484 397.188M-112.028 300.116L-131.65 285.75M-112.028 300.116L-97.8265 285.117M-97.8265 285.117L-131.65 285.75M-97.8265 285.117L-55.9505 245.002M-97.8265 285.117L-148.871 203.505M1.40498 288.598L-46.1277 235.593M-59.7085 220.448L-28.7254 123.914M-59.7085 220.448L-46.1277 235.593M-59.7085 220.448L-72.3391 211.802M-28.7254 123.914L-144.972 167.542M-72.3391 211.802L-151.978 198.537M-72.3391 211.802L-64.1448 228.402M-72.3391 211.802L-144.972 167.542M-72.3391 211.802L-74.1537 185.805L-139.195 114.253M-151.978 198.537L-148.871 203.505M-151.978 198.537L-214.741 206.651M-151.978 198.537L-144.972 167.542M-151.978 198.537L-231.591 154.513M-131.65 285.75L-64.1448 228.402M-131.65 285.75L-193.372 290.374M-131.65 285.75L-228.929 184.902L-215.749 252.576M-131.65 285.75L-144.972 167.542M-46.1277 235.593L-55.9505 245.002M-55.9505 245.002L-64.1448 228.402M-268.774 296.023L-223.484 397.188M-268.774 296.023L-193.372 290.374M-268.774 296.023L-329.749 345.644M-268.774 296.023L-319.764 223.017M-268.774 296.023L-238.125 214.778M-223.484 397.188L-193.372 290.374M-223.484 397.188L-253.183 378.091L-329.749 345.644M-193.372 290.374L-148.871 203.505M-193.372 290.374L-215.749 252.576M-238.125 214.778L-237.564 209.601M-238.125 214.778L-215.749 252.576M-237.564 209.601L-214.741 206.651M-237.564 209.601C-263.759 213.137 -316.873 220.771 -319.764 223.017M-237.564 209.601L-231.591 154.513M-215.749 252.576L-214.741 206.651M-214.741 206.651L-144.972 167.542M-144.972 167.542L-139.195 114.253M-139.195 114.253L-231.591 154.513M-231.591 154.513L-319.764 223.017M-231.591 154.513L-331.661 109.925M-319.764 223.017L-329.749 345.644M-319.764 223.017L-401.019 203.292M-319.764 223.017L-405.08 286.538M-319.764 223.017L-331.661 109.925M-329.749 345.644L-405.08 286.538M-329.749 345.644L-414.154 370.232M-331.661 109.925L-401.019 203.292M-331.661 109.925L-406.643 139.174M-331.661 109.925L-444.368 81.1679L-406.643 139.174M-401.019 203.292L-405.08 286.538M-401.019 203.292L-443.298 187.297L-465.782 196.271M-401.019 203.292L-406.643 139.174M-405.08 286.538L-414.154 370.232M-405.08 286.538L-476.202 292.389L-485.592 299.64L-414.154 370.232M-405.08 286.538L-465.782 196.271M-465.782 196.271L-460.997 152.135L-406.643 139.174" stroke="#D9D9D9"/>
</svg>
