<svg width="375" height="306" viewBox="0 0 375 306" fill="none" xmlns="http://www.w3.org/2000/svg">
<path opacity="0.45" d="M547.99 192.83L496.892 206.235M547.99 192.83L576.266 192.327L577.489 265.992M547.99 192.83L491.959 88.1731M496.892 206.235L491.959 88.1731M496.892 206.235L577.489 265.992M496.892 206.235L449.496 303.227M496.892 206.235L436.868 210.714M496.892 206.235L423.983 156.15M491.959 88.1731L423.983 156.15M491.959 88.1731L379.115 41.8172M423.983 156.15L379.115 41.8172M423.983 156.15C404.473 147.225 364.759 129.078 361.981 127.888M423.983 156.15L339.39 215.945M379.115 41.8172C372.246 70.0117 359.203 126.698 361.981 127.888M379.115 41.8172L279.883 125.675M361.981 127.888L339.39 215.945M361.981 127.888L279.883 125.675M577.489 265.992L449.496 303.227M449.496 303.227L370.62 312.67M449.496 303.227L367.648 290.844M449.496 303.227L436.868 210.714M449.496 303.227L362.305 229.234M449.496 303.227L323.21 351.868L377.55 375.172M377.55 375.172L370.62 312.67M377.55 375.172L308.153 373.752M377.55 375.172L376.784 470.169M370.62 312.67L345.567 319.373M370.62 312.67L367.648 290.844M367.648 290.844L345.567 319.373M367.648 290.844L362.305 229.234M367.648 290.844L265.714 278.71M436.868 210.714L361.052 214.782M339.39 215.945L279.883 125.675M339.39 215.945L361.052 214.782M339.39 215.945L323.763 220.661M279.883 125.675L238.437 251.433M323.763 220.661L259.509 277.971M323.763 220.661L343.034 224.947M323.763 220.661L238.437 251.433M323.763 220.661L300.947 204.792L198.017 211.013M259.509 277.971L265.714 278.71M259.509 277.971L224.3 335.547M259.509 277.971L238.437 251.433M259.509 277.971L169.713 314.701M345.567 319.373L343.034 224.947M345.567 319.373L308.153 373.752M345.567 319.373L196.745 332.801L261.788 367.081M345.567 319.373L238.437 251.433M361.052 214.782L362.305 229.234M362.305 229.234L343.034 224.947M262.448 440.183L376.784 470.169M262.448 440.183L308.153 373.752M262.448 440.183L262.925 524.018M262.448 440.183L167.701 433.756M262.448 440.183L215.423 360.411M376.784 470.169L308.153 373.752M376.784 470.169L341.065 482.083L262.925 524.018M308.153 373.752L265.714 278.71M308.153 373.752L261.788 367.081M215.423 360.411L211.497 356.484M215.423 360.411L261.788 367.081M211.497 356.484L224.3 335.547M211.497 356.484C196.926 380.615 167.767 429.853 167.701 433.756M211.497 356.484L169.713 314.701M261.788 367.081L224.3 335.547M224.3 335.547L238.437 251.433M238.437 251.433L198.017 211.013M198.017 211.013L169.713 314.701M169.713 314.701L167.701 433.756M167.701 433.756L262.925 524.018M167.701 433.756L163.459 547.108M262.925 524.018L163.459 547.108M262.925 524.018L226.94 610.59M163.459 547.108L226.94 610.59M163.459 547.108L128.06 620.873L137.184 654.257L226.94 610.59" stroke="#D9D9D9"/>
<path opacity="0.45" d="M79.7829 410.281L39.956 380.824M79.7829 410.281L96.7688 430.645L43.6629 474.835M79.7829 410.281L123.321 307.83M39.956 380.824L123.321 307.83M39.956 380.824L43.6629 474.835M39.956 380.824L-58.7693 403.198M39.956 380.824L1.40498 339.598M39.956 380.824L33.7002 298.114M123.321 307.83L33.7002 298.114M123.321 307.83L90.8691 198.133M33.7002 298.114L90.8691 198.133M33.7002 298.114C28.7546 278.613 18.6725 238.93 17.9094 236.201M33.7002 298.114L-59.7085 271.448M90.8691 198.133C66.2312 209.685 17.1463 233.472 17.9094 236.201M90.8691 198.133L-28.7254 174.914M17.9094 236.201L-59.7085 271.448M17.9094 236.201L-28.7254 174.914M43.6629 474.835L-58.7693 403.198M-58.7693 403.198L-112.028 351.116M-58.7693 403.198L-97.8265 336.117M-58.7693 403.198L1.40498 339.598M-58.7693 403.198L-55.9505 296.002M-58.7693 403.198L-168.533 339.513L-153.623 392.915M-153.623 392.915L-112.028 351.116M-153.623 392.915L-193.372 341.374M-153.623 392.915L-223.484 448.188M-112.028 351.116L-131.65 336.75M-112.028 351.116L-97.8265 336.117M-97.8265 336.117L-131.65 336.75M-97.8265 336.117L-55.9505 296.002M-97.8265 336.117L-148.871 254.505M1.40498 339.598L-46.1277 286.593M-59.7085 271.448L-28.7254 174.914M-59.7085 271.448L-46.1277 286.593M-59.7085 271.448L-72.3391 262.802M-28.7254 174.914L-144.972 218.543M-72.3391 262.802L-151.978 249.537M-72.3391 262.802L-64.1448 279.402M-72.3391 262.802L-144.972 218.543M-72.3391 262.802L-74.1537 236.805L-139.195 165.253M-151.978 249.537L-148.871 254.505M-151.978 249.537L-214.741 257.651M-151.978 249.537L-144.972 218.543M-151.978 249.537L-231.591 205.513M-131.65 336.75L-64.1448 279.402M-131.65 336.75L-193.372 341.374M-131.65 336.75L-228.929 235.902L-215.749 303.576M-131.65 336.75L-144.972 218.543M-46.1277 286.593L-55.9505 296.002M-55.9505 296.002L-64.1448 279.402M-268.774 347.023L-223.484 448.188M-268.774 347.023L-193.372 341.374M-268.774 347.023L-329.749 396.644M-268.774 347.023L-319.764 274.017M-268.774 347.023L-238.125 265.778M-223.484 448.188L-193.372 341.374M-223.484 448.188L-253.183 429.091L-329.749 396.644M-193.372 341.374L-148.871 254.505M-193.372 341.374L-215.749 303.576M-238.125 265.778L-237.564 260.601M-238.125 265.778L-215.749 303.576M-237.564 260.601L-214.741 257.651M-237.564 260.601C-263.759 264.137 -316.873 271.771 -319.764 274.017M-237.564 260.601L-231.591 205.513M-215.749 303.576L-214.741 257.651M-214.741 257.651L-144.972 218.543M-144.972 218.543L-139.195 165.253M-139.195 165.253L-231.591 205.513M-231.591 205.513L-319.764 274.017M-231.591 205.513L-331.661 160.926M-319.764 274.017L-329.749 396.644M-319.764 274.017L-401.019 254.292M-319.764 274.017L-405.08 337.538M-319.764 274.017L-331.661 160.926M-329.749 396.644L-405.08 337.538M-329.749 396.644L-414.154 421.232M-331.661 160.926L-401.019 254.292M-331.661 160.926L-406.643 190.174M-331.661 160.926L-444.368 132.168L-406.643 190.174M-401.019 254.292L-405.08 337.538M-401.019 254.292L-443.298 238.297L-465.782 247.271M-401.019 254.292L-406.643 190.174M-405.08 337.538L-414.154 421.232M-405.08 337.538L-476.202 343.389L-485.592 350.64L-414.154 421.232M-405.08 337.538L-465.782 247.271M-465.782 247.271L-460.997 203.135L-406.643 190.174" stroke="#D9D9D9"/>
</svg>
