<svg width="1920" height="1028" viewBox="0 0 1920 1028" fill="none" xmlns="http://www.w3.org/2000/svg">
<g clip-path="url(#clip0)">
<path opacity="0.45" d="M1741.42 336.054L1808.14 433.125M1741.42 336.054L1719 277.114L1872.62 218.903M1741.42 336.054L1564.18 532.656M1808.14 433.125L1564.18 532.656M1808.14 433.125L1872.62 218.903M1808.14 433.125L2047.42 459.293M1808.14 433.125L1862.88 555.667M1808.14 433.125L1758.14 623.915M1564.18 532.656L1758.14 623.915M1564.18 532.656L1552.17 804.406M1758.14 623.915L1552.17 804.406M1758.14 623.915C1754.15 671.586 1746.08 768.609 1745.68 775.335M1758.14 623.915L1947.48 756.214M1552.17 804.406C1616.51 797.518 1745.29 782.061 1745.68 775.335M1552.17 804.406L1803.06 949.24M1745.68 775.335L1947.48 756.214M1745.68 775.335L1803.06 949.24M1872.62 218.903L2047.42 459.293M2047.42 459.293L2126.81 617.633M2047.42 459.293L2083.27 640.354M2047.42 459.293L1862.88 555.667M2047.42 459.293L1958.05 698.102M2047.42 459.293L2244.86 687.485L2252.7 555.881M2252.7 555.881L2126.81 617.633M2252.7 555.881L2302.14 702.541M2252.7 555.881L2452.57 485.73M2126.81 617.633L2159.8 665.128M2126.81 617.633L2083.27 640.354M2083.27 640.354L2159.8 665.128M2083.27 640.354L1958.05 698.102M2083.27 640.354L2134.81 863.367M1862.88 555.667L1928.68 711.648M1947.48 756.214L1803.06 949.24M1947.48 756.214L1928.68 711.648M1947.48 756.214L1969.18 785.435M1803.06 949.24L2098.19 941.196M1969.18 785.435L2137.95 876.941M1969.18 785.435L1963.62 741.768M1969.18 785.435L2098.19 941.196M1969.18 785.435L1953.12 845.286L2043.92 1056.52M2137.95 876.941L2134.81 863.367M2137.95 876.941L2285.33 907.314M2137.95 876.941L2098.19 941.196M2137.95 876.941L2282.83 1037.58M2159.8 665.128L1963.62 741.768M2159.8 665.128L2302.14 702.541M2159.8 665.128L2300.38 967.198L2323.17 804.848M2159.8 665.128L2098.19 941.196M1928.68 711.648L1958.05 698.102M1958.05 698.102L1963.62 741.768M2476.03 748.245L2452.57 485.73M2476.03 748.245L2302.14 702.541M2476.03 748.245L2651.55 683.918M2476.03 748.245L2534.12 951.868M2476.03 748.245L2344.2 907.156M2452.57 485.73L2302.14 702.541M2452.57 485.73L2504.55 551.666L2651.55 683.918M2302.14 702.541L2134.81 863.367M2302.14 702.541L2323.17 804.848M2344.2 907.156L2338.93 918.359M2344.2 907.156L2323.17 804.848M2338.93 918.359L2285.33 907.314M2338.93 918.359C2400.56 930.699 2525.88 954.678 2534.12 951.868M2338.93 918.359L2282.83 1037.58M2323.17 804.848L2285.33 907.314M2285.33 907.314L2098.19 941.196M2098.19 941.196L2043.92 1056.52M2043.92 1056.52L2282.83 1037.58M2282.83 1037.58L2534.12 951.868M2534.12 951.868L2651.55 683.918M2534.12 951.868L2775.12 875.146M2651.55 683.918L2775.12 875.146M2651.55 683.918L2860.35 694.016M2775.12 875.146L2860.35 694.016M2775.12 875.146L2956.61 893.688L2860.35 694.016" stroke="#D9D9D9"/>
<path opacity="0.45" d="M219.138 736.272L111.282 716.322M219.138 736.272L272.713 760.307L209.935 899.805M219.138 736.272L206.309 490.123M111.282 716.322L206.309 490.123M111.282 716.322L209.935 899.805M111.282 716.322L-63.4587 856.7M111.282 716.322L-5.46133 671.711M111.282 716.322L18.5294 557.802M206.309 490.123L18.5294 557.802M206.309 490.123L35.2242 303.333M18.5294 557.802L35.2242 303.333M18.5294 557.802C-10.2458 523.797 -68.838 454.616 -73.0062 449.926M18.5294 557.802L-193.245 595.428M35.2242 303.333C-2.58931 350.244 -77.1743 445.236 -73.0062 449.926M35.2242 303.333L-225.314 373.241M-73.0062 449.926L-193.245 595.428M-73.0062 449.926L-225.314 373.241M209.935 899.805L-63.4587 856.7M-63.4587 856.7L-220.011 804.765M-63.4587 856.7L-206.313 761.128M-63.4587 856.7L-5.46133 671.711M-63.4587 856.7L-161.927 640.642M-63.4587 856.7L-343.722 836.537L-262.203 928.33M-262.203 928.33L-220.011 804.765M-262.203 928.33L-391.346 864.356M-262.203 928.33L-347.562 1106.15M-220.011 804.765L-273.006 795.227M-220.011 804.765L-206.313 761.128M-206.313 761.128L-273.006 795.227M-206.313 761.128L-161.927 640.642M-206.313 761.128L-387.129 648.279M-5.46133 671.711L-151.515 612.38M-193.245 595.428L-225.314 373.241M-193.245 595.428L-151.515 612.38M-193.245 595.428L-226.774 590.485M-225.314 373.241L-414.287 572.928M-226.774 590.485L-398.136 641.41M-226.774 590.485L-194.351 615.564M-226.774 590.485L-414.287 572.928M-226.774 590.485L-255.626 540.512L-454.529 461.272M-398.136 641.41L-387.129 648.279M-398.136 641.41L-515.157 718.493M-398.136 641.41L-414.287 572.928M-398.136 641.41L-599.31 631.099M-273.006 795.227L-194.351 615.564M-273.006 795.227L-391.346 864.356M-273.006 795.227L-564.508 688.989L-472.573 810.863M-273.006 795.227L-414.287 572.928M-151.515 612.38L-161.927 640.642M-161.927 640.642L-194.351 615.564M-535.912 948.806L-347.562 1106.15M-535.912 948.806L-391.346 864.356M-535.912 948.806L-609.076 1106.75M-535.912 948.806L-708.264 853.03M-535.912 948.806L-553.801 757.369M-347.562 1106.15L-391.346 864.356M-347.562 1106.15L-425.204 1096.98L-609.076 1106.75M-391.346 864.356L-387.129 648.279M-391.346 864.356L-472.573 810.863M-553.801 757.369L-557.71 746.523M-553.801 757.369L-472.573 810.863M-557.71 746.523L-515.157 718.493M-557.71 746.523C-606.406 778.994 -704.692 845.753 -708.264 853.03M-557.71 746.523L-599.31 631.099M-472.573 810.863L-515.157 718.493M-515.157 718.493L-414.287 572.928M-414.287 572.928L-454.529 461.272M-454.529 461.272L-599.31 631.099M-599.31 631.099L-708.264 853.03M-599.31 631.099L-841.741 639.528M-708.264 853.03L-609.076 1106.75M-708.264 853.03L-889.114 892.669M-708.264 853.03L-816.372 1062.27M-708.264 853.03L-841.741 639.528M-609.076 1106.75L-816.372 1062.27M-609.076 1106.75L-753.168 1237.63M-841.741 639.528L-889.114 892.669M-841.741 639.528L-962.558 770.533M-841.741 639.528L-1093.95 691.728L-962.558 770.533M-889.114 892.669L-816.372 1062.27M-889.114 892.669L-988.78 901.887L-1024.81 941.575M-889.114 892.669L-962.558 770.533M-816.372 1062.27L-753.168 1237.63M-816.372 1062.27L-952.223 1142.97L-963.87 1166.51L-753.168 1237.63M-816.372 1062.27L-1024.81 941.575M-1024.81 941.575L-1058.14 849.099L-962.558 770.533" stroke="#D9D9D9"/>
</g>
<defs>
<clipPath id="clip0">
<rect width="1920" height="1028" fill="white"/>
</clipPath>
</defs>
</svg>
