<svg width="1920" height="815" viewBox="0 0 1920 815" fill="none" xmlns="http://www.w3.org/2000/svg">
<path opacity="0.45" d="M1506.89 645.717L1567.63 582.599M1506.89 645.717L1483.29 686.238L1588.93 747.602M1506.89 645.717L1400.73 479.949M1567.63 582.599L1400.73 479.949M1567.63 582.599L1588.93 747.602M1567.63 582.599L1746.37 592.458M1567.63 582.599L1622.67 499.338M1567.63 582.599L1554.12 436.547M1400.73 479.949L1554.12 436.547M1400.73 479.949L1424.92 279.111M1554.12 436.547L1424.92 279.111M1554.12 436.547C1556.98 401.087 1562.84 328.922 1563.37 323.939M1554.12 436.547L1709.1 362.475M1424.92 279.111C1471.29 291.977 1563.89 318.956 1563.37 323.939M1424.92 279.111L1626.58 203.314M1563.37 323.939L1709.1 362.475M1563.37 323.939L1626.58 203.314M1588.93 747.602L1746.37 592.458M1746.37 592.458L1823.84 485.927M1746.37 592.458L1794.66 463.969M1746.37 592.458L1622.67 499.338M1746.37 592.458L1709.8 406.394M1746.37 592.458L1918.94 449.013L1908.71 546.521M1908.71 546.521L1823.84 485.927M1908.71 546.521L1962.79 444.923M1908.71 546.521L2046.83 622.262M1823.84 485.927L1853.81 455.086M1823.84 485.927L1794.66 463.969M1794.66 463.969L1853.81 455.086M1794.66 463.969L1709.8 406.394M1794.66 463.969L1859.55 306.606M1622.67 499.338L1689.9 392.889M1709.1 362.475L1626.58 203.314M1709.1 362.475L1689.9 392.889M1709.1 362.475L1728.57 343.67M1626.58 203.314L1842.14 245.057M1728.57 343.67L1863.5 297.028M1728.57 343.67L1719.19 375.032M1728.57 343.67L1842.14 245.057M1728.57 343.67L1724.06 297.808L1816.33 153.852M1863.5 297.028L1859.55 306.606M1863.5 297.028L1975.33 292.642M1863.5 297.028L1842.14 245.057M1863.5 297.028L1989.31 196.764M1853.81 455.086L1719.19 375.032M1853.81 455.086L1962.79 444.923M1853.81 455.086L1993.64 250.534L1990.64 372.414M1853.81 455.086L1842.14 245.057M1689.9 392.889L1709.8 406.394M1709.8 406.394L1719.19 375.032M2095.92 432.507L2046.83 622.262M2095.92 432.507L1962.79 444.923M2095.92 432.507L2216.89 501.017M2095.92 432.507L2163.27 290.165M2095.92 432.507L2018.5 299.906M2046.83 622.262L1962.79 444.923M2046.83 622.262L2092.97 580.197L2216.89 501.017M1962.79 444.923L1859.55 306.606M1962.79 444.923L1990.64 372.414M2018.5 299.906L2015.99 291.047M2018.5 299.906L1990.64 372.414M2015.99 291.047L1975.33 292.642M2015.99 291.047C2062.71 289.477 2157.56 287.103 2163.27 290.165M2015.99 291.047L1989.31 196.764M1990.64 372.414L1975.33 292.642M1975.33 292.642L1842.14 245.057M1842.14 245.057L1816.33 153.852M1816.33 153.852L1989.31 196.764M1989.31 196.764L2163.27 290.165M2163.27 290.165L2216.89 501.017M2163.27 290.165L2330.77 375.723M2216.89 501.017L2330.77 375.723M2216.89 501.017L2371.31 518.965M2330.77 375.723L2371.31 518.965M2330.77 375.723L2466.18 384.158L2371.31 518.965" stroke="#D9D9D9"/>
<path opacity="0.45" d="M171.477 512.204L97.6676 488.713M171.477 512.204L206.895 533.769L150.606 625.972M171.477 512.204L184.198 338.608M97.6676 488.713L184.198 338.608M97.6676 488.713L150.606 625.972M97.6676 488.713L-37.1456 571.658M97.6676 488.713L19.8056 447.16M97.6676 488.713L46.6611 369.465M184.198 338.608L46.6611 369.465M184.198 338.608L80.8014 192.644M46.6611 369.465L80.8014 192.644M46.6611 369.465C29.4988 343.102 -5.45238 289.462 -7.95918 285.809M46.6611 369.465L-105.037 377.151M80.8014 192.644C50.17 222.177 -10.466 282.156 -7.95918 285.809M80.8014 192.644L-107.911 218.647M-7.95918 285.809L-105.037 377.151M-7.95918 285.809L-107.911 218.647M150.606 625.972L-37.1456 571.658M-37.1456 571.658L-142.253 521.462M-37.1456 571.658L-128.807 492.096M-37.1456 571.658L19.8056 447.16M-37.1456 571.658L-87.0817 411.592M-37.1456 571.658L-231.734 532.812L-182.713 604.317M-182.713 604.317L-142.253 521.462M-182.713 604.317L-267.555 548.104M-182.713 604.317L-258.204 721.38M-142.253 521.462L-178.544 510.106M-142.253 521.462L-128.807 492.096M-128.807 492.096L-178.544 510.106M-128.807 492.096L-87.0817 411.592M-128.807 492.096L-245.544 397.081M19.8056 447.16L-77.2942 392.708M-105.037 377.151L-107.911 218.647M-105.037 377.151L-77.2942 392.708M-105.037 377.151L-128.094 370.73M-107.911 218.647L-257.926 341.891M-128.094 370.73L-252.65 391.297M-128.094 370.73L-107.588 391.161M-128.094 370.73L-257.926 341.891M-128.094 370.73L-143.901 333.172L-276.274 260.11M-252.65 391.297L-245.544 397.081M-252.65 391.297L-341.439 434.985M-252.65 391.297L-257.926 341.891M-252.65 391.297L-392.693 366.33M-178.544 510.106L-107.588 391.161M-178.544 510.106L-267.555 548.104M-178.544 510.106L-373.415 409.96L-319.749 503.46M-178.544 510.106L-257.926 341.891M-77.2942 392.708L-87.0817 411.592M-87.0817 411.592L-107.588 391.161M-376.293 594.523L-258.204 721.38M-376.293 594.523L-267.555 548.104M-376.293 594.523L-441.486 698.736M-376.293 594.523L-488.606 512.217M-376.293 594.523L-371.944 458.815M-258.204 721.38L-267.555 548.104M-258.204 721.38L-311.795 708.109L-441.486 698.736M-267.555 548.104L-245.544 397.081M-267.555 548.104L-319.749 503.46M-371.944 458.815L-373.726 450.871M-371.944 458.815L-319.749 503.46M-373.726 450.871L-341.439 434.985M-373.726 450.871C-410.709 469.327 -485.461 507.434 -488.606 512.217M-373.726 450.871L-392.693 366.33M-319.749 503.46L-341.439 434.985M-341.439 434.985L-257.926 341.891M-257.926 341.891L-276.274 260.11M-276.274 260.11L-392.693 366.33M-392.693 366.33L-488.606 512.217M-392.693 366.33L-563.296 350.854M-488.606 512.217L-441.486 698.736M-488.606 512.217L-618.814 524.04M-488.606 512.217L-582.805 649.287M-488.606 512.217L-563.296 350.854M-441.486 698.736L-582.805 649.287M-441.486 698.736L-553.988 777.729M-563.296 350.854L-618.814 524.04M-563.296 350.854L-659.501 431.988M-563.296 350.854L-744.61 365.184L-659.501 431.988M-618.814 524.04L-582.805 649.287M-618.814 524.04L-689.458 521.708L-718.201 546.338M-618.814 524.04L-659.501 431.988M-582.805 649.287L-553.988 777.729M-582.805 649.287L-685.107 693.846L-695.344 709.317L-553.988 777.729M-582.805 649.287L-718.201 546.338M-718.201 546.338L-733.398 478.605L-659.501 431.988" stroke="#D9D9D9"/>
</svg>
