<svg width="1920" height="406" viewBox="0 0 1920 406" fill="none" xmlns="http://www.w3.org/2000/svg">
<path opacity="0.45" d="M1836.22 221.782L1727.39 247.202M1836.22 221.782L1851.19 116.642M1836.22 221.782L1942.56 423.825M1727.39 247.202L1942.56 423.825M1727.39 247.202L1664.77 118.333M1727.39 247.202L1522.04 214.262M1727.39 247.202L1653.75 336.781M1727.39 247.202L1725.4 417.607M1942.56 423.825L1725.4 417.607M1942.56 423.825L1855.72 615.113M1942.56 423.825L1968.4 186.081L1851.19 116.642M1725.4 417.607L1855.72 615.113M1725.4 417.607C1717.82 458.238 1702.34 540.924 1701.14 546.619M1725.4 417.607L1537.37 484.519M1855.72 615.113C1803.69 594.655 1699.93 552.315 1701.14 546.619M1855.72 615.113L1613.55 678.39M1701.14 546.619L1537.37 484.519M1701.14 546.619L1613.55 678.39M1664.77 118.333L1851.19 116.642M1664.77 118.333L1522.04 214.262M1522.04 214.262L1417.47 196.58M1522.04 214.262L1450.75 356.92M1522.04 214.262L1653.75 336.781M1522.04 214.262L1541.86 433.682M1522.04 214.262L1305.33 359.22L1328.9 247.774M1328.9 247.774L1417.47 196.58M1328.9 247.774L1254.15 358.658M1328.9 247.774L1178.42 143.597M1417.47 196.58L1381.31 360.053M1417.47 196.58L1450.75 356.92M1450.75 356.92L1381.31 360.053M1450.75 356.92L1541.86 433.682M1450.75 356.92L1356.78 530.941M1653.75 336.781L1563.23 451.688M1537.37 484.519L1613.55 678.39M1537.37 484.519L1563.23 451.688M1537.37 484.519L1512.61 503.902M1613.55 678.39L1369.48 604.166M1512.61 503.902L1351.06 541.533M1512.61 503.902L1527.24 468.792M1512.61 503.902L1369.48 604.166M1512.61 503.902L1512.29 557.443L1388.31 712.672M1351.06 541.533L1356.78 530.941M1351.06 541.533L1221.31 533.12M1351.06 541.533L1369.48 604.166M1351.06 541.533L1193.59 642.229M1381.31 360.053L1527.24 468.792M1381.31 360.053L1254.15 358.658M1381.31 360.053L1195.07 579.571L1213.23 439.09M1381.31 360.053L1369.48 604.166M1563.23 451.688L1541.86 433.682M1541.86 433.682L1527.24 468.792M1098.81 356.955L1178.42 143.597M1098.81 356.955L1254.15 358.658M1098.81 356.955L967.291 263.203M1098.81 356.955L1003.83 513.324M1098.81 356.955L1172.3 519.521M1178.42 143.597L1254.15 358.658M1178.42 143.597L1120.03 186.643L967.291 263.203M1254.15 358.658L1356.78 530.941M1254.15 358.658L1213.23 439.09M1172.3 519.521L1174.13 530.061M1172.3 519.521L1213.23 439.09M1174.13 530.061L1221.31 533.12M1174.13 530.061C1119.95 526.243 1010.05 517.55 1003.83 513.324M1174.13 530.061L1193.59 642.229M1213.23 439.09L1221.31 533.12M1221.31 533.12L1369.48 604.166M1369.48 604.166L1388.31 712.672M1388.31 712.672L1193.59 642.229M1193.59 642.229L1003.83 513.324M1003.83 513.324L967.291 263.203M1003.83 513.324L822.311 369.353M967.291 263.203L822.311 369.353M967.291 263.203L943.494 200.88L791.01 223.847M822.311 369.353L791.01 223.847M822.311 369.353L663.964 428.431L622.617 316.189L791.01 223.847M791.01 223.847L636.715 226.665" stroke="#D9D9D9"/>
<path opacity="0.45" d="M579.482 498.633L504.927 461.518M579.482 498.633L613.561 527.379L538.57 616.075M579.482 498.633L621.586 316.281M504.927 461.518L621.586 316.281M504.927 461.518L538.57 616.075M504.927 461.518L348.027 527.446M504.927 461.518L429.041 404.545M504.927 461.518L470.371 326.417M621.586 316.281L470.371 326.417M621.586 316.281L636.215 226.63L566.687 168.798M470.371 326.417L566.687 168.798M470.371 326.417C456.478 295.579 428.175 232.831 426.114 228.536M470.371 326.417L307.925 309.6M566.687 168.798C529.277 195.132 424.052 224.242 426.114 228.536M566.687 168.798L330.975 140.715M426.114 228.536L307.925 309.6M426.114 228.536L330.975 140.715M538.57 616.075L348.027 527.446M348.027 527.446L244.616 456.803M348.027 527.446L263.739 427.815M348.027 527.446L429.041 404.545M348.027 527.446L321.331 349.151M348.027 527.446L147.673 454.126L187.982 538.173M187.982 538.173L244.616 456.803M187.982 538.173L107.094 464.474M187.982 538.173L88.4938 650.122M244.616 456.803L207.928 438.76M244.616 456.803L263.739 427.815M263.739 427.815L207.928 438.76M263.739 427.815L321.331 349.151M263.739 427.815L155.353 307.636M429.041 404.545L334.84 330.699M307.925 309.6L330.975 140.715M307.925 309.6L334.84 330.699M307.925 309.6L284.484 298.981M330.975 140.715L169.704 172.4L118.605 216.865M284.484 298.981L148.756 300.321M284.484 298.981L302.907 324.066M284.484 298.981L118.605 216.865M148.756 300.321L155.353 307.636M148.756 300.321L47.2215 332.117M148.756 300.321L118.605 216.865M148.756 300.321L-38.0846 251.788M207.928 438.76L302.907 324.066M207.928 438.76L107.094 464.474M207.928 438.76L17.3683 300.262L58.9899 408.444M207.928 438.76L118.605 216.865M334.84 330.699L321.331 349.151M321.331 349.151L302.907 324.066M-16.0855 495.887L88.4938 650.122M-16.0855 495.887L107.094 464.474M-16.0855 495.887L-102.516 595.878M-16.0855 495.887L-121.863 389.94M-16.0855 495.887L10.8854 352.413M88.4938 650.122L107.094 464.474M88.4938 650.122L33.7384 627.195L-102.516 595.878M107.094 464.474L155.353 307.636M107.094 464.474L58.9899 408.444M10.8854 352.413L10.3 343.679M10.8854 352.413L58.9899 408.444M10.3 343.679L47.2215 332.117M10.3 343.679C-32.034 357.198 -117.734 385.376 -121.863 389.94M10.3 343.679L-38.0846 251.788M58.9899 408.444L47.2215 332.117M47.2215 332.117L118.605 216.865M118.605 216.865L-12.8526 222.122L-38.0846 251.788M-38.0846 251.788L-121.863 389.94M-38.0846 251.788L-174.648 206.19M-121.863 389.94L-102.516 595.878M-121.863 389.94L-262.157 381.058M-121.863 389.94L-244.525 520.065M-121.863 389.94L-174.648 206.19M-102.516 595.878L-244.525 520.065M-102.516 595.878L-235.059 661.281M-174.648 206.19L-262.157 381.058M-174.648 206.19L-290.228 276.551M-174.648 206.19L-369.655 191.556L-290.228 276.551M-262.157 381.058L-244.525 520.065M-262.157 381.058L-336.833 366.947L-371.43 388.382M-262.157 381.058L-290.228 276.551M-244.525 520.065L-235.059 661.281M-244.525 520.065L-360.559 550.56L-373.984 565.313L-235.059 661.281M-244.525 520.065L-371.43 388.382M-371.43 388.382L-376.422 313.913L-290.228 276.551" stroke="#D9D9D9"/>
</svg>
