<svg width="1920" height="654" viewBox="0 0 1920 654" fill="none" xmlns="http://www.w3.org/2000/svg">
<path opacity="0.65" d="M625.055 341.005L556.779 322.766M625.055 341.005L658.259 359.138L610.92 445.585M625.055 341.005L629.193 182.251M556.779 322.766L629.193 182.251M556.779 322.766L610.92 445.585M556.779 322.766L437.478 404.148M556.779 322.766L484.035 288.241M556.779 322.766L505.173 216.28M629.193 182.251L505.173 216.28M629.193 182.251L528.693 53.6663M505.173 216.28L528.693 53.6663M505.173 216.28C488.4 192.99 454.243 145.606 451.802 142.384M505.173 216.28L367.252 229.799M528.693 53.6663C502.045 81.8965 449.36 139.163 451.802 142.384M528.693 53.6663L357.826 85.4684M451.802 142.384L367.252 229.799M451.802 142.384L357.826 85.4684M610.92 445.585L437.478 404.148M437.478 404.148L339.532 362.916M437.478 404.148L350.525 335.576M437.478 404.148L484.035 288.241M437.478 404.148L385.094 260.416M437.478 404.148L258.47 377.103L306.216 440.164M306.216 440.164L339.532 362.916M306.216 440.164L226.481 392.577M306.216 440.164L242.445 550.093M339.532 362.916L305.971 354.125M339.532 362.916L350.525 335.576M350.525 335.576L305.971 354.125M350.525 335.576L385.094 260.416M350.525 335.576L240.056 253.996M484.035 288.241L393.203 242.786M367.252 229.799L357.826 85.4684M367.252 229.799L393.203 242.786M367.252 229.799L345.963 224.937M357.826 85.4684L226.401 204.23M345.963 224.937L233.331 249.031M345.963 224.937L365.529 242.677M345.963 224.937L226.401 204.23M345.963 224.937L329.944 191.387L206.167 130.486M233.331 249.031L240.056 253.996M233.331 249.031L154.289 292.659M233.331 249.031L226.401 204.23M233.331 249.031L104.629 232.291M305.971 354.125L365.529 242.677M305.971 354.125L226.481 392.577M305.971 354.125L124.073 271.226L176.996 354.132M305.971 354.125L226.401 204.23M393.203 242.786L385.094 260.416M385.094 260.416L365.529 242.677M129.375 439.552L242.445 550.093M129.375 439.552L226.481 392.577M129.375 439.552L74.4366 537.327M129.375 439.552L23.4838 369.365M129.375 439.552L127.511 315.687M242.445 550.093L226.481 392.577M242.445 550.093L193.034 540.299L74.4366 537.327M226.481 392.577L240.056 253.996M226.481 392.577L176.996 354.132M127.511 315.687L125.546 308.523M127.511 315.687L176.996 354.132M125.546 308.523L154.289 292.659M125.546 308.523C92.6336 326.931 26.1443 364.87 23.4838 369.365M125.546 308.523L104.629 232.291M176.996 354.132L154.289 292.659M154.289 292.659L226.401 204.23M226.401 204.23L206.167 130.486M206.167 130.486L104.629 232.291M104.629 232.291L23.4838 369.365M104.629 232.291L-51.5156 225.513M23.4838 369.365L74.4366 537.327M23.4838 369.365L-94.6747 385.731M23.4838 369.365L-56.4791 498.33M23.4838 369.365L-51.5156 225.513M74.4366 537.327L-56.4791 498.33M74.4366 537.327L-24.7005 614.15M-51.5156 225.513L-94.6747 385.731M-51.5156 225.513L-135.708 303.586M-51.5156 225.513L-216.142 246.36L-135.708 303.586M-94.6747 385.731L-56.4791 498.33M-94.6747 385.731L-159.157 386.641L-184.295 410.322M-94.6747 385.731L-135.708 303.586M-56.4791 498.33L-24.7005 614.15M-56.4791 498.33L-147.799 543.333L-156.464 557.872L-24.7005 614.15M-56.4791 498.33L-184.295 410.322M-184.295 410.322L-201.053 349.245L-135.708 303.586" stroke="#D9D9D9"/>
<path opacity="0.65" d="M1860.82 495.121L1798.01 444.869M1860.82 495.121L1887.13 529.213L1798.23 597.652M1860.82 495.121L1937.78 331.55M1798.01 444.869L1937.78 331.55M1798.01 444.869L1798.23 597.652M1798.01 444.869L1636.42 475.099M1798.01 444.869L1737.98 375.596M1798.01 444.869L1792.95 310.266M1937.78 331.55L1792.95 310.266M1937.78 331.55L1891.87 151.543M1792.95 310.266L1891.87 151.543M1792.95 310.266C1786.12 278.317 1772.2 213.301 1771.13 208.825M1792.95 310.266L1643.01 261.245M1891.87 151.543C1851.18 168.772 1770.06 204.35 1771.13 208.825M1891.87 151.543L1699.23 106.501M1771.13 208.825L1643.01 261.245M1771.13 208.825L1699.23 106.501M1798.23 597.652L1636.42 475.099M1636.42 475.099L1553.2 387.304M1636.42 475.099L1577.17 363.839M1636.42 475.099L1737.98 375.596M1636.42 475.099L1647.6 301.321M1636.42 475.099L1462.22 364.997L1483.13 452.572M1483.13 452.572L1553.2 387.304M1483.13 452.572L1421.8 366.488M1483.13 452.572L1366.36 537.966M1553.2 387.304L1522.25 362.784M1553.2 387.304L1577.17 363.839M1577.17 363.839L1522.25 362.784M1577.17 363.839L1647.6 301.321M1577.17 363.839L1499.36 228.261M1737.98 375.596L1664.11 286.656M1643.01 261.245L1699.23 106.501M1643.01 261.245L1664.11 286.656M1643.01 261.245L1623.04 246.436M1699.23 106.501L1507.9 170.143M1623.04 246.436L1494.63 220.009M1623.04 246.436L1635.32 273.879M1623.04 246.436L1507.9 170.143M1623.04 246.436L1621.7 204.138L1520.56 84.0234M1494.63 220.009L1499.36 228.261M1494.63 220.009L1392.28 229.311M1494.63 220.009L1507.9 170.143M1494.63 220.009L1368.15 143.668M1522.25 362.784L1635.32 273.879M1522.25 362.784L1421.8 366.488M1522.25 362.784L1370.59 193.146L1387.82 303.774M1522.25 362.784L1507.9 170.143M1664.11 286.656L1647.6 301.321M1647.6 301.321L1635.32 273.879M1299.1 371.013L1366.36 537.966M1299.1 371.013L1421.8 366.488M1299.1 371.013L1197.09 447.781M1299.1 371.013L1220.85 249.404M1299.1 371.013L1353.83 241.06M1366.36 537.966L1421.8 366.488M1366.36 537.966L1319.35 505.148L1197.09 447.781M1421.8 366.488L1499.36 228.261M1421.8 366.488L1387.82 303.774M1353.83 241.06L1355.06 232.694M1353.83 241.06L1387.82 303.774M1355.06 232.694L1392.28 229.311M1355.06 232.694C1312.34 236.82 1225.68 245.937 1220.85 249.404M1355.06 232.694L1368.15 143.668M1387.82 303.774L1392.28 229.311M1392.28 229.311L1507.9 170.143M1507.9 170.143L1520.56 84.0234M1520.56 84.0234L1368.15 143.668M1368.15 143.668L1220.85 249.404M1220.85 249.404L1197.09 447.781M1220.85 249.404L1078.49 347.23M1197.09 447.781L1078.49 347.23M1197.09 447.781L1058.61 482.486M1078.49 347.23L1058.61 482.486M1078.49 347.23L956.19 371.013L923.69 412.5L1058.61 482.486" stroke="#D9D9D9"/>
</svg>
