<svg width="1920" height="1185" viewBox="0 0 1920 1185" fill="none" xmlns="http://www.w3.org/2000/svg">
<path opacity="0.35" d="M437.08 826.412L383.383 750.778M437.08 826.412L455.434 872.552L335.174 920.225M437.08 826.412L574.278 669.489M383.383 750.778L574.278 669.489M383.383 750.778L335.174 920.225M383.383 750.778L194.665 733.038M383.383 750.778L338.818 654.945M383.383 750.778L420.469 599.954M574.278 669.489L420.469 599.954M574.278 669.489L580.482 455.373M420.469 599.954L580.482 455.373M420.469 599.954C423.036 562.371 428.23 485.88 428.463 480.579M420.469 599.954L269.799 498.051M580.482 455.373C529.906 461.566 428.696 475.278 428.463 480.579M580.482 455.373L381.208 344.336M428.463 480.579L269.799 498.051M428.463 480.579L381.208 344.336M335.174 920.225L194.665 733.038M194.665 733.038L130.257 609.313M194.665 733.038L164.271 590.902M194.665 733.038L338.818 654.945M194.665 733.038L262.172 543.934M194.665 733.038L36.4734 555.726L31.8735 659.443M31.8735 659.443L130.257 609.313M31.8735 659.443L-8.81104 544.557M31.8735 659.443L-124.662 717.071M130.257 609.313L103.716 572.311M130.257 609.313L164.271 590.902M164.271 590.902L103.716 572.311M164.271 590.902L262.172 543.934M164.271 590.902L121.018 415.922M338.818 654.945L285.137 532.916M269.799 498.051L381.208 344.336M269.799 498.051L285.137 532.916M269.799 498.051L252.364 475.302M381.208 344.336L148.921 354.202M252.364 475.302L118.385 405.271M252.364 475.302L257.268 509.618M252.364 475.302L148.921 354.202M252.364 475.302L264.291 427.984L190.267 262.745M118.385 405.271L121.018 415.922M118.385 405.271L1.97283 383.12M118.385 405.271L148.921 354.202M118.385 405.271L2.38276 280.522M103.716 572.311L257.268 509.618M103.716 572.311L-8.81104 544.557M103.716 572.311L-10.596 336.149L-26.5931 464.253M103.716 572.311L148.921 354.202M285.137 532.916L262.172 543.934M262.172 543.934L257.268 509.618M-146.277 510.652L-124.662 717.071M-146.277 510.652L-8.81104 544.557M-146.277 510.652L-283.705 563.403M-146.277 510.652L-194.45 351.017M-146.277 510.652L-44.3752 383.949M-124.662 717.071L-8.81104 544.557M-124.662 717.071L-166.376 665.776L-283.705 563.403M-8.81104 544.557L121.018 415.922M-8.81104 544.557L-26.5931 464.253M-44.3752 383.949L-40.3589 375.065M-44.3752 383.949L-26.5931 464.253M-40.3589 375.065L1.97283 383.12M-40.3589 375.065C-89.0336 366.086 -187.997 348.706 -194.45 351.017M-40.3589 375.065L2.38276 280.522M-26.5931 464.253L1.97283 383.12M1.97283 383.12L148.921 354.202M148.921 354.202L190.267 262.745M190.267 262.745L2.38276 280.522M2.38276 280.522L-194.45 351.017M-194.45 351.017L-283.705 563.403M-194.45 351.017L-383.295 414.312M-283.705 563.403L-383.295 414.312M-283.705 563.403L-448.232 557.951M-383.295 414.312L-448.232 557.951M-383.295 414.312L-526.419 401.885L-575.608 437.568L-448.232 557.951" stroke="white"/>
<path opacity="0.35" d="M1921.45 317.38L1843.72 352.229M1921.45 317.38L1966.29 309.096L1987.74 425.948M1921.45 317.38L1804.62 165.739M1843.72 352.229L1804.62 165.739M1843.72 352.229L1987.74 425.948M1843.72 352.229L1794 519.054M1843.72 352.229L1749.43 375.241M1843.72 352.229L1714.49 291.859M1804.62 165.739L1714.49 291.859M1804.62 165.739L1612.86 121.872M1714.49 291.859L1612.86 121.872M1714.49 291.859C1681.09 282.827 1613.12 264.474 1608.38 263.316M1714.49 291.859L1595.76 409.364M1612.86 121.872C1609.39 168.538 1603.65 262.159 1608.38 263.316M1612.86 121.872L1477.21 281.527M1608.38 263.316L1595.76 409.364M1608.38 263.316L1477.21 281.527M1987.74 425.948L1794 519.054M1794 519.054L1671.03 554.954M1794 519.054L1660.53 521.022M1794 519.054L1749.43 375.241M1794 519.054L1635.72 424.437M1794 519.054L1606 629.853L1698.6 652.539M1698.6 652.539L1671.03 554.954M1698.6 652.539L1587.84 668.649M1698.6 652.539L1722.53 803.848M1671.03 554.954L1632.96 572.246M1671.03 554.954L1660.53 521.022M1660.53 521.022L1632.96 572.246M1660.53 521.022L1635.72 424.437M1660.53 521.022L1495.18 528.702M1749.43 375.241L1629.91 401.781M1595.76 409.364L1477.21 281.527M1595.76 409.364L1629.91 401.781M1595.76 409.364L1572.15 421.002M1477.21 281.527L1444.57 492.534M1572.15 421.002L1485.11 529.17M1572.15 421.002L1603.94 422.719M1572.15 421.002L1444.57 492.534M1572.15 421.002L1531.66 401.799L1369.58 438.939M1485.11 529.17L1495.18 528.702M1485.11 529.17L1444.35 630.074M1485.11 529.17L1444.57 492.534M1485.11 529.17L1352 611.362M1632.96 572.246L1603.94 422.719M1632.96 572.246L1587.84 668.649M1632.96 572.246L1399.79 632.998L1512.32 670.31M1632.96 572.246L1444.57 492.534M1629.91 401.781L1635.72 424.437M1635.72 424.437L1603.94 422.719M1532.72 786.415L1722.53 803.848M1532.72 786.415L1587.84 668.649M1532.72 786.415L1555.67 919.641M1532.72 786.415L1380.31 801.271M1532.72 786.415L1436.81 671.972M1722.53 803.848L1587.84 668.649M1722.53 803.848L1668.87 832.253L1555.67 919.641M1587.84 668.649L1495.18 528.702M1587.84 668.649L1512.32 670.31M1436.81 671.972L1429.52 666.766M1436.81 671.972L1512.32 670.31M1429.52 666.766L1444.35 630.074M1429.52 666.766C1412.73 709.007 1379.39 795.045 1380.31 801.271M1429.52 666.766L1352 611.362M1512.32 670.31L1444.35 630.074M1444.35 630.074L1444.57 492.534M1444.57 492.534L1369.58 438.939M1369.58 438.939L1352 611.362M1352 611.362L1380.31 801.271M1352 611.362L1200.79 723.737M1380.31 801.271L1555.67 919.641M1380.31 801.271L1282.23 906.414M1380.31 801.271L1403.57 982.697M1380.31 801.271L1200.79 723.737M1555.67 919.641L1403.57 982.697M1555.67 919.641L1521.35 1066.87M1200.79 723.737L1282.23 906.414M1200.79 723.737L1181.4 860.775M1200.79 723.737L1062.65 868.398L1181.4 860.775M1282.23 906.414L1403.57 982.697M1282.23 906.414L1222.61 956.289L1217.1 997.552M1282.23 906.414L1181.4 860.775M1403.57 982.697L1521.35 1066.87M1403.57 982.697L1352.36 1094.22L1355.31 1114.41L1521.35 1066.87M1403.57 982.697L1217.1 997.552M1217.1 997.552L1154.99 953.163L1181.4 860.775" stroke="white"/>
</svg>
