<svg width="1920" height="762" viewBox="0 0 1920 762" fill="none" xmlns="http://www.w3.org/2000/svg">
<path opacity="0.45" d="M-156.571 410.475L-80.4737 428.151M-156.571 410.475L-193.914 391.645L-144.745 294.416M-156.571 410.475L-155.387 586.029M-80.4737 428.151L-155.387 586.029M-80.4737 428.151L-144.745 294.416M-80.4737 428.151L48.388 333.91M-80.4737 428.151L1.15157 463.661M-80.4737 428.151L-19.5945 543.935M-155.387 586.029L-19.5945 543.935M-155.387 586.029L-39.6859 724.454M-19.5945 543.935L-39.6859 724.454M-19.5945 543.935C-0.217999 569.058 39.2386 620.173 42.053 623.644M-19.5945 543.935L132.301 523.997M-39.6859 724.454C-11.267 692.297 44.8673 627.116 42.053 623.644M-39.6859 724.454L147.948 683.122M42.053 623.644L132.301 523.997M42.053 623.644L147.948 683.122M-144.745 294.416L48.388 333.91M48.388 333.91L158.101 375.915M48.388 333.91L146.947 406.521M48.388 333.91L1.15157 463.661M48.388 333.91L111.476 490.816M48.388 333.91L247.149 357.301L192.11 289.358M192.11 289.358L158.101 375.915M192.11 289.358L281.932 339.044M192.11 289.358L258.583 165.589M158.101 375.915L195.501 384.411M158.101 375.915L146.947 406.521M146.947 406.521L195.501 384.411M146.947 406.521L111.476 490.816M146.947 406.521L271.958 492.651M1.15157 463.661L103.156 510.589M132.301 523.997L147.948 683.122M132.301 523.997L103.156 510.589M132.301 523.997L155.998 528.597M147.948 683.122L288.85 547.141M155.998 528.597L279.568 497.893M155.998 528.597L133.737 509.707M155.998 528.597L288.85 547.141M155.998 528.597L174.914 565.084L313.879 627.885M279.568 497.893L271.958 492.651M279.568 497.893L365.318 446.824M279.568 497.893L288.85 547.141M279.568 497.893L422.374 511.722M195.501 384.411L133.737 509.707M195.501 384.411L281.932 339.044M195.501 384.411L399.48 469.409L338 379.727M195.501 384.411L288.85 547.141M103.156 510.589L111.476 490.816M111.476 490.816L133.737 509.707M387.519 283.623L258.583 165.589M387.519 283.623L281.932 339.044M387.519 283.623L444.674 173.602M387.519 283.623L507.06 357.331M387.519 283.623L394.069 420.41M258.583 165.589L281.932 339.044M258.583 165.589L313.531 174.618L444.674 173.602M281.932 339.044L271.958 492.651M281.932 339.044L338 379.727M394.069 420.41L396.5 428.253M394.069 420.41L338 379.727M396.5 428.253L365.318 446.824M396.5 428.253C432.196 406.722 504.283 362.393 507.06 357.331M396.5 428.253L422.374 511.722M338 379.727L365.318 446.824M365.318 446.824L288.85 547.141M288.85 547.141L313.879 627.885M313.879 627.885L422.374 511.722M422.374 511.722L507.06 357.331M422.374 511.722L595.14 513.55M507.06 357.331L444.674 173.602M507.06 357.331L637.016 334.964M507.06 357.331L590.733 211.942M507.06 357.331L595.14 513.55M444.674 173.602L590.733 211.942M444.674 173.602L551.422 85.1289M595.14 513.55L637.016 334.964M595.14 513.55L685.331 424.236M595.14 513.55L776.275 484.548L685.331 424.236M637.016 334.964L590.733 211.942M637.016 334.964L708.227 331.622L735.143 304.546M637.016 334.964L685.331 424.236M590.733 211.942L551.422 85.1289M590.733 211.942L689.998 158.909L699.044 142.531L551.422 85.1289M590.733 211.942L735.143 304.546M735.143 304.546L755.873 371.42L685.331 424.236" stroke="#D9D9D9"/>
<path opacity="0.45" d="M1879.36 602L1802.9 540.827M1879.36 602L1911.39 643.501L1803.17 726.813M1879.36 602L1973.04 402.883M1802.9 540.827L1973.04 402.883M1802.9 540.827L1803.17 726.813M1802.9 540.827L1606.2 577.627M1802.9 540.827L1729.83 456.501M1802.9 540.827L1796.74 376.974M1973.04 402.883L1796.74 376.974M1973.04 402.883L1917.16 183.757M1796.74 376.974L1917.16 183.757M1796.74 376.974C1788.43 338.082 1771.49 258.937 1770.18 253.489M1796.74 376.974L1614.22 317.299M1917.16 183.757C1867.62 204.731 1768.88 248.041 1770.18 253.489M1917.16 183.757L1682.65 128.928M1770.18 253.489L1614.22 317.299M1770.18 253.489L1682.65 128.928M1803.17 726.813L1606.2 577.627M1606.2 577.627L1504.89 470.753M1606.2 577.627L1534.07 442.188M1606.2 577.627L1729.83 456.501M1606.2 577.627L1619.8 366.085M1606.2 577.627L1394.14 443.599L1419.6 550.205M1419.6 550.205L1504.89 470.753M1419.6 550.205L1344.94 445.413M1419.6 550.205L1277.45 654.156M1504.89 470.753L1467.21 440.905M1504.89 470.753L1534.07 442.188M1534.07 442.188L1467.21 440.905M1534.07 442.188L1619.8 366.085M1534.07 442.188L1439.35 277.148M1729.83 456.501L1639.91 348.233M1614.22 317.299L1682.65 128.928M1614.22 317.299L1639.91 348.233M1614.22 317.299L1589.91 299.273M1682.65 128.928L1449.75 206.4M1589.91 299.273L1433.59 267.102M1589.91 299.273L1604.86 332.679M1589.91 299.273L1449.75 206.4M1589.91 299.273L1588.28 247.783L1465.16 101.565M1433.59 267.102L1439.35 277.148M1433.59 267.102L1309 278.426M1433.59 267.102L1449.75 206.4M1433.59 267.102L1279.62 174.172M1467.21 440.905L1604.86 332.679M1467.21 440.905L1344.94 445.413M1467.21 440.905L1282.6 234.401L1303.57 369.071M1467.21 440.905L1449.75 206.4M1639.91 348.233L1619.8 366.085M1619.8 366.085L1604.86 332.679M1195.57 450.921L1277.45 654.156M1195.57 450.921L1344.94 445.413M1195.57 450.921L1071.4 544.373M1195.57 450.921L1100.31 302.885M1195.57 450.921L1262.2 292.728M1277.45 654.156L1344.94 445.413M1277.45 654.156L1220.22 614.207L1071.4 544.373M1344.94 445.413L1439.35 277.148M1344.94 445.413L1303.57 369.071M1262.2 292.728L1263.7 282.544M1262.2 292.728L1303.57 369.071M1263.7 282.544L1309 278.426M1263.7 282.544C1211.68 287.566 1106.19 298.665 1100.31 302.885M1263.7 282.544L1279.62 174.172M1303.57 369.071L1309 278.426M1309 278.426L1449.75 206.4M1449.75 206.4L1465.16 101.565M1465.16 101.565L1279.62 174.172M1279.62 174.172L1100.31 302.885M1100.31 302.885L1071.4 544.373M1100.31 302.885L927.019 421.971M1071.4 544.373L927.019 421.971M1071.4 544.373L902.824 586.62M927.019 421.971L902.824 586.62M927.019 421.971L778.142 450.921L738.579 501.424L902.824 586.62" stroke="#D9D9D9"/>
</svg>
