<svg width="1920" height="779" viewBox="0 0 1920 779" fill="none" xmlns="http://www.w3.org/2000/svg">
<path opacity="0.45" d="M-295.571 418.475L-219.474 436.151M-295.571 418.475L-332.914 399.645L-283.745 302.416M-295.571 418.475L-294.387 594.029M-219.474 436.151L-294.387 594.029M-219.474 436.151L-283.745 302.416M-219.474 436.151L-90.612 341.91M-219.474 436.151L-137.848 471.661M-219.474 436.151L-158.595 551.935M-294.387 594.029L-158.595 551.935M-294.387 594.029L-178.686 732.454M-158.595 551.935L-178.686 732.454M-158.595 551.935C-139.218 577.058 -99.7614 628.173 -96.947 631.644M-158.595 551.935L-6.69944 531.997M-178.686 732.454C-150.267 700.297 -94.1327 635.116 -96.947 631.644M-178.686 732.454L8.94783 691.122M-96.947 631.644L-6.69944 531.997M-96.947 631.644L8.94783 691.122M-283.745 302.416L-90.612 341.91M-90.612 341.91L19.1012 383.915M-90.612 341.91L7.94655 414.521M-90.612 341.91L-137.848 471.661M-90.612 341.91L-27.5235 498.816M-90.612 341.91L108.149 365.301L53.1096 297.358M53.1096 297.358L19.1012 383.915M53.1096 297.358L142.932 347.044M53.1096 297.358L119.583 173.589M19.1012 383.915L56.5007 392.411M19.1012 383.915L7.94655 414.521M7.94655 414.521L56.5007 392.411M7.94655 414.521L-27.5235 498.816M7.94655 414.521L132.958 500.651M-137.848 471.661L-35.8437 518.589M-6.69944 531.997L8.94783 691.122M-6.69944 531.997L-35.8437 518.589M-6.69944 531.997L16.9981 536.597M8.94783 691.122L149.85 555.141M16.9981 536.597L140.568 505.893M16.9981 536.597L-5.26274 517.707M16.9981 536.597L149.85 555.141M16.9981 536.597L35.9137 573.084L174.879 635.885M140.568 505.893L132.958 500.651M140.568 505.893L226.318 454.824M140.568 505.893L149.85 555.141M140.568 505.893L283.374 519.722M56.5007 392.411L-5.26274 517.707M56.5007 392.411L142.932 347.044M56.5007 392.411L260.48 477.409L199 387.727M56.5007 392.411L149.85 555.141M-35.8437 518.589L-27.5235 498.816M-27.5235 498.816L-5.26274 517.707M248.519 291.623L119.583 173.589M248.519 291.623L142.932 347.044M248.519 291.623L305.674 181.602M248.519 291.623L368.06 365.331M248.519 291.623L255.069 428.41M119.583 173.589L142.932 347.044M119.583 173.589L174.531 182.618L305.674 181.602M142.932 347.044L132.958 500.651M142.932 347.044L199 387.727M255.069 428.41L257.5 436.253M255.069 428.41L199 387.727M257.5 436.253L226.318 454.824M257.5 436.253C293.196 414.722 365.283 370.393 368.06 365.331M257.5 436.253L283.374 519.722M199 387.727L226.318 454.824M226.318 454.824L149.85 555.141M149.85 555.141L174.879 635.885M174.879 635.885L283.374 519.722M283.374 519.722L368.06 365.331M283.374 519.722L456.14 521.55M368.06 365.331L305.674 181.602M368.06 365.331L498.016 342.964M368.06 365.331L451.733 219.942M368.06 365.331L456.14 521.55M305.674 181.602L451.733 219.942M305.674 181.602L412.422 93.1289M456.14 521.55L498.016 342.964M456.14 521.55L546.331 432.236M456.14 521.55L637.275 492.548L546.331 432.236M498.016 342.964L451.733 219.942M498.016 342.964L569.227 339.622L596.143 312.546M498.016 342.964L546.331 432.236M451.733 219.942L412.422 93.1289M451.733 219.942L550.998 166.909L560.044 150.531L412.422 93.1289M451.733 219.942L596.143 312.546M596.143 312.546L616.873 379.42L546.331 432.236" stroke="#D9D9D9"/>
<path opacity="0.45" d="M1366.04 378.841L1447.95 359.126M1366.04 378.841L1325.93 399.468L1379.78 503.902M1366.04 378.841L1365.81 189.508M1447.95 359.126L1365.81 189.508M1447.95 359.126L1379.78 503.902M1447.95 359.126L1587.73 459.656M1447.95 359.126L1535.67 320.132M1447.95 359.126L1512.61 233.74M1365.81 189.508L1512.61 233.74M1365.81 189.508L1489.4 39.2331M1512.61 233.74L1489.4 39.2331M1512.61 233.74C1533.29 206.479 1575.41 151.017 1578.41 147.25M1512.61 233.74L1676.59 253.939M1489.4 39.2331C1520.32 73.6687 1581.42 143.482 1578.41 147.25M1489.4 39.2331L1692.1 82.199M1578.41 147.25L1676.59 253.939M1578.41 147.25L1692.1 82.199M1379.78 503.902L1587.73 459.656M1587.73 459.656L1705.69 413.415M1587.73 459.656L1693.39 380.504M1587.73 459.656L1535.67 320.132M1587.73 459.656L1654.42 289.901M1587.73 459.656L1801.88 432.726L1743.1 506.47M1743.1 506.47L1705.69 413.415M1743.1 506.47L1839.55 452.117M1743.1 506.47L1815.85 639.377M1705.69 413.415L1745.95 403.932M1705.69 413.415L1693.39 380.504M1693.39 380.504L1745.95 403.932M1693.39 380.504L1654.42 289.901M1693.39 380.504L1827.47 286.548M1535.67 320.132L1645.28 268.649M1676.59 253.939L1692.1 82.199M1676.59 253.939L1645.28 268.649M1676.59 253.939L1702.11 248.776M1692.1 82.199L1845.22 227.639M1702.11 248.776L1835.64 280.828M1702.11 248.776L1678.26 269.338M1702.11 248.776L1845.22 227.639M1702.11 248.776L1722.2 209.264L1871.52 140.347M1835.64 280.828L1827.47 286.548M1835.64 280.828L1928.55 335.168M1835.64 280.828L1845.22 227.639M1835.64 280.828L1989.52 264.691M1745.95 403.932L1678.26 269.338M1745.95 403.932L1839.55 452.117M1745.95 403.932L1965.2 310.519L1899.66 407.762M1745.95 403.932L1845.22 227.639M1645.28 268.649L1654.42 289.901M1654.42 289.901L1678.26 269.338M1953.89 510.98L1815.85 639.377M1953.89 510.98L1839.55 452.117M1953.89 510.98L2016.47 629.141M1953.89 510.98L2082.18 430.466M1953.89 510.98L1959.78 363.408M1815.85 639.377L1839.55 452.117M1815.85 639.377L1875.03 629.169L2016.47 629.141M1839.55 452.117L1827.47 286.548M1839.55 452.117L1899.66 407.762M1959.78 363.408L1962.34 354.928M1959.78 363.408L1899.66 407.762M1962.34 354.928L1928.55 335.168M1962.34 354.928C2001.02 377.843 2079.14 425.03 2082.18 430.466M1962.34 354.928L1989.52 264.691M1899.66 407.762L1928.55 335.168M1928.55 335.168L1845.22 227.639M1845.22 227.639L1871.52 140.347M1871.52 140.347L1989.52 264.691M1989.52 264.691L2082.18 430.466M2082.18 430.466L2016.47 629.141M2082.18 430.466L2173.66 586.542M2016.47 629.141L2173.66 586.542M2016.47 629.141L2132.35 723.639M2173.66 586.542L2132.35 723.639M2173.66 586.542L2279.05 663.486L2291.42 717.281L2132.35 723.639" stroke="#D9D9D9"/>
</svg>
